<svg width="60" height="73" viewBox="0 0 60 73" fill="none" xmlns="http://www.w3.org/2000/svg">
<path d="M30.4344 0.998047C32.2894 2.07203 34.1378 3.1574 36.0009 4.21774C40.4192 6.73219 44.8379 9.24579 49.2731 11.7307C50.0028 12.1395 50.2963 12.6468 50.2935 13.477C50.269 20.3909 50.2687 27.3051 50.2936 34.2191C50.2966 35.0541 49.9851 35.5524 49.2618 35.9599C43.205 39.3723 37.1568 42.7994 31.1251 46.2548C30.3278 46.7114 29.6848 46.7255 28.8925 46.2532C26.8422 45.031 24.744 43.887 22.6727 42.6987C21.873 42.24 21.6831 41.4956 22.1727 40.8836C22.5671 40.3903 23.1875 40.3262 23.9044 40.7292C25.8007 41.7953 27.6861 42.8803 29.594 43.9258C29.8067 44.0426 30.1966 44.0599 30.4012 43.9448C35.7388 40.9421 41.0629 37.9159 46.3885 34.8921C46.4871 34.8362 46.5741 34.7605 46.7222 34.6542C44.8491 33.592 43.0214 32.5549 41.1929 31.5187C37.6341 29.5017 34.0725 27.4894 30.5198 25.4623C30.1799 25.2685 29.9267 25.2253 29.5594 25.4376C24.2994 28.4797 19.0284 31.5031 13.7608 34.5321C13.6795 34.5787 13.606 34.6381 13.4379 34.7546C13.6847 34.907 13.8881 35.0403 14.0987 35.1613C15.0212 35.6915 15.9604 36.1949 16.8644 36.7542C17.4318 37.1052 17.56 37.7597 17.2496 38.2937C16.9443 38.819 16.287 39.0473 15.7045 38.7272C13.881 37.7249 12.0678 36.7029 10.2836 35.6348C10.0136 35.4732 9.89308 35.037 9.75458 34.7068C9.68704 34.5458 9.73448 34.3365 9.73448 34.149C9.73405 27.2819 9.7473 20.4147 9.71781 13.5476C9.71411 12.6601 10.0262 12.1364 10.8037 11.6995C16.8851 8.2822 22.9467 4.83074 29.0125 1.38689C29.2112 1.2741 29.3908 1.12841 29.5794 0.998047H30.4344ZM47.8829 32.6276C47.9181 32.4518 47.9425 32.3865 47.9426 32.3213C47.9451 26.2553 47.9515 20.1891 47.9251 14.1231C47.9241 13.8773 47.6701 13.535 47.4375 13.4019C42.2278 10.4226 37.0049 7.46585 31.783 4.5073C31.6138 4.41153 31.4297 4.34164 31.223 4.24601C31.204 4.40886 31.1888 4.47847 31.1888 4.54794C31.1871 10.5906 31.1928 16.6334 31.1729 22.6761C31.1715 23.1188 31.3867 23.289 31.7111 23.4721C35.0657 25.3645 38.4163 27.2641 41.7676 29.1622C43.7797 30.3019 45.7914 31.4424 47.8829 32.6276ZM28.8514 4.18962C28.6161 4.30521 28.5089 4.35106 28.4083 4.40801C23.1222 7.40538 17.839 10.4075 12.5466 13.3936C12.1599 13.6117 12.0564 13.867 12.0574 14.2876C12.0714 20.2171 12.0665 26.1467 12.0679 32.0762C12.0679 32.2768 12.0846 32.4775 12.0946 32.7034C12.2136 32.6774 12.2882 32.6782 12.3435 32.6464C17.7367 29.5513 23.1292 26.4551 28.5162 23.3494C28.6581 23.2677 28.8287 23.0875 28.8345 22.947C28.8658 22.1912 28.8493 21.4335 28.8493 20.5702C28.2145 20.8714 27.7095 21.1209 27.1961 21.3524C26.4137 21.7052 25.7464 21.5154 25.4386 20.8659C25.1455 20.2476 25.4118 19.6419 26.1563 19.2739C26.9195 18.8966 27.6978 18.5481 28.4512 18.1529C28.6236 18.0624 28.8231 17.8382 28.8341 17.6647C28.8778 16.9721 28.8522 16.2751 28.8522 15.5056C28.6018 15.6029 28.4281 15.6614 28.262 15.7365C26.6024 16.4872 24.9466 17.2463 23.284 17.9904C22.5878 18.3019 21.9893 18.1581 21.6452 17.633C21.2324 17.0033 21.4802 16.2689 22.2632 15.9075C24.2817 14.9757 26.3108 14.0661 28.3269 13.1294C28.5317 13.0342 28.8121 12.8261 28.8268 12.6515C28.8847 11.9616 28.8506 11.2641 28.8506 10.4624C28.2459 10.744 27.74 10.9849 27.2299 11.2164C26.4282 11.5801 25.7779 11.4177 25.4534 10.7802C25.131 10.1467 25.4043 9.52536 26.1868 9.14088C26.9298 8.77595 27.6856 8.43534 28.4188 8.05269C28.597 7.95988 28.8269 7.74781 28.8324 7.58398C28.8691 6.49059 28.8514 5.39537 28.8514 4.18962Z" fill="#7252DC"/>
<path d="M0.795897 73.0002C0.257844 72.6353 -0.209105 72.1798 0.0975398 71.5015C0.24616 71.1727 0.647134 70.8977 0.998664 70.7337C1.27496 70.6049 1.65071 70.6725 1.98215 70.6725C20.6648 70.6707 39.3475 70.6708 58.0301 70.6713C58.2912 70.6713 58.5529 70.6676 58.8131 70.6837C59.3576 70.7173 59.7748 70.947 59.9391 71.4897C60.1098 72.0532 59.915 72.4985 59.4365 72.8337C59.3616 72.8862 59.2907 72.9445 59.2179 73.0002H0.795897Z" fill="#7252DC"/>
<path d="M30.04 66.3861C34.1624 61.9302 38.2126 57.5522 42.2627 53.1743C44.5362 50.7166 46.7967 48.2472 49.0985 45.8159C49.3883 45.5097 49.8976 45.2467 50.2999 45.2541C50.6213 45.2598 51.1236 45.6598 51.2031 45.9703C51.2997 46.3479 51.1672 46.9243 50.9077 47.2248C49.6454 48.6864 48.3088 50.0856 46.9959 51.5047C42.3689 56.5063 37.7407 61.5067 33.1135 66.5081C33.0189 66.6104 32.9303 66.7181 32.7218 66.9583C33.4236 66.9583 33.9968 66.9515 34.5699 66.96C35.4176 66.9721 35.9748 67.4463 35.9657 68.1345C35.9567 68.8009 35.4361 69.2839 34.6157 69.2882C31.5524 69.3043 28.4889 69.3038 25.4256 69.2895C24.5679 69.2854 24.0288 68.7832 24.0488 68.0936C24.0689 67.3993 24.609 66.9687 25.4839 66.9593C26.0522 66.9532 26.6207 66.9582 27.3547 66.9582C27.1189 66.6829 26.9677 66.497 26.8067 66.3198C22.2115 61.2584 17.6152 56.1979 13.0202 51.1364C12.862 50.9622 12.6863 50.7951 12.5676 50.5962C12.2485 50.0612 12.322 49.5483 12.7879 49.1377C13.2566 48.7245 13.7895 48.7079 14.276 49.1022C14.5852 49.3531 14.842 49.6687 15.1111 49.965C19.8668 55.1988 24.6208 60.4344 29.3757 65.6693C29.5791 65.8935 29.7872 66.1135 30.04 66.3861Z" fill="#7252DC"/>
<path d="M40.3155 48.9165C40.1094 49.3277 40.0218 49.6292 39.8363 49.8509C39.053 50.7864 38.2496 51.7064 37.4354 52.616C36.9069 53.2064 36.1976 53.2733 35.6813 52.8194C35.1738 52.3729 35.136 51.7267 35.6366 51.1351C36.4553 50.1675 37.2939 49.216 38.141 48.2725C38.5055 47.8666 39.007 47.6967 39.4799 47.9945C39.8183 48.2076 40.0399 48.6013 40.3155 48.9165Z" fill="#7252DC"/>
<path d="M25.781 53.1328C26.1908 53.3916 26.5566 53.5307 26.7903 53.787C27.5659 54.6378 28.3023 55.5242 29.0372 56.4102C29.5767 57.0605 29.5343 57.7499 28.9583 58.2036C28.4334 58.6172 27.7513 58.4989 27.2173 57.8799C26.4651 57.0078 25.6776 56.1589 25.0073 55.2285C24.7766 54.9084 24.712 54.3313 24.8307 53.95C24.929 53.6346 25.4082 53.4345 25.781 53.1328Z" fill="#7252DC"/>
<path d="M23.0907 52.5284C22.6923 52.2604 22.3405 52.1064 22.1043 51.8489C21.4372 51.1221 20.8091 50.3598 20.1822 49.5983C19.7013 49.0142 19.7253 48.3351 20.2122 47.9033C20.7363 47.4385 21.4267 47.4988 21.9619 48.1012C22.6486 48.874 23.3605 49.6355 23.9467 50.4796C24.169 50.7995 24.2104 51.3834 24.0772 51.7578C23.9671 52.0669 23.4779 52.2443 23.0907 52.5284Z" fill="#7252DC"/>
<path d="M31.7068 58.5396C31.4056 58.3109 30.9491 58.1292 30.8067 57.8106C30.662 57.4866 30.6796 56.9215 30.8829 56.6476C31.5537 55.744 32.3186 54.9045 33.0912 54.0805C33.5255 53.6175 34.1774 53.6186 34.6342 54.0122C35.1083 54.4207 35.2518 54.9832 34.8871 55.4591C34.1597 56.4087 33.3449 57.2949 32.534 58.1786C32.3784 58.3481 32.075 58.3856 31.7068 58.5396Z" fill="#7252DC"/>
<path d="M10.2465 47.5244C9.62426 47.523 9.07239 46.9752 9.07324 46.36C9.0741 45.7412 9.62312 45.2009 10.2511 45.2012C10.8803 45.2013 11.4234 45.7409 11.4215 46.364C11.4195 46.9869 10.8738 47.5259 10.2465 47.5244Z" fill="#7252DC"/>
<path d="M20.7034 40.0634C20.7105 40.6856 20.1762 41.2181 19.5385 41.2241C18.8992 41.2302 18.3575 40.7128 18.3497 40.0884C18.3419 39.4563 18.8611 38.9424 19.514 38.9361C20.1685 38.9297 20.6961 39.43 20.7034 40.0634Z" fill="#7252DC"/>
</svg>
