<svg width="72" height="51" viewBox="0 0 72 51" fill="none" xmlns="http://www.w3.org/2000/svg">
<path d="M0 8.65297C0.676828 6.64041 2.31089 5.60298 4.08023 4.74076C7.24275 3.19991 10.6387 2.40432 14.0753 1.78503C23.4354 0.0983117 32.8826 -0.239313 42.3609 0.141093C48.9201 0.404236 55.4445 1.0339 61.8375 2.62678C64.2023 3.21605 66.5242 3.93899 68.6693 5.12944C70.1506 5.95155 71.4393 6.96162 72 8.65297V49.1939C71.4631 50.5511 70.4441 51.0193 69.0142 50.9994C65.3587 50.9485 61.702 50.9843 58.0458 50.9816C56.1928 50.9802 55.2987 50.079 55.2947 48.2182C55.293 47.4467 55.2804 46.6748 55.2997 45.9038C55.3193 45.1132 55.8013 44.5879 56.4663 44.5874C57.131 44.5868 57.6187 45.1169 57.6342 45.9024C57.6516 46.7861 57.6381 47.6704 57.6381 48.5986H69.6334V13.5865C65.9721 16.005 61.8315 16.6693 57.6391 17.3896V18.2251V38.2848C57.6391 40.241 57.3411 40.5218 55.42 40.2166C49.4345 39.2656 43.4033 38.9472 37.3532 38.8946C30.9735 38.839 24.6106 39.1086 18.281 39.9549C17.562 40.051 16.847 40.1799 16.1319 40.3033C14.9086 40.5145 14.3625 40.0654 14.362 38.8183C14.3596 31.968 14.3609 25.1178 14.3609 18.2675V17.3848C10.204 16.6625 6.0532 16.0278 2.38908 13.5908V48.5864H14.361C14.361 47.7818 14.3553 46.9727 14.3626 46.1637C14.3707 45.2709 14.832 44.7126 15.541 44.7192C16.2488 44.7258 16.6947 45.279 16.7036 46.1825C16.7115 46.9772 16.7228 47.7728 16.7003 48.567C16.6597 49.9915 15.73 50.9632 14.3061 50.9723C10.3454 50.9979 6.38438 50.9841 2.42339 50.9798C1.1828 50.9784 0.451125 50.2709 0 49.1939V8.65297ZM55.2949 37.7975V37.0886C55.2949 30.3809 55.2947 23.6731 55.295 16.9655C55.2952 15.586 55.5736 15.3453 56.9144 15.1032C59.2827 14.6757 61.6548 14.2398 63.9887 13.6615C65.7383 13.2279 67.43 12.5509 68.7573 11.2468C70.0786 9.94862 70.0016 8.61033 68.421 7.67194C67.1856 6.93847 65.8527 6.30867 64.4878 5.86192C57.5301 3.58453 50.3108 2.86958 43.0501 2.4931C36.9842 2.17862 30.9194 2.26363 24.8622 2.75218C19.7445 3.16513 14.6676 3.83954 9.70059 5.17531C7.57603 5.74676 5.4668 6.39325 3.60647 7.6213C2.00939 8.67541 1.87481 10.0192 3.32241 11.2918C4.0462 11.9284 4.91231 12.4558 5.796 12.8496C8.73112 14.1576 11.8782 14.6706 15.0344 15.1077C16.4378 15.3021 16.7054 15.5732 16.7055 16.9868C16.7058 23.6477 16.7057 30.3088 16.7057 36.9697V37.8076C29.583 36.1369 42.3755 36.1476 55.2949 37.7975Z" fill="#7252DC"/>
<path d="M16.694 42.5269C16.672 43.1599 16.1406 43.6504 15.4966 43.6322C14.8574 43.6141 14.3481 43.0822 14.3709 42.4567C14.3935 41.8365 14.9449 41.3227 15.567 41.3418C16.1903 41.3611 16.7152 41.9131 16.694 42.5269Z" fill="#7252DC"/>
<path d="M57.6291 42.4686C57.6451 43.0936 57.1297 43.6209 56.4909 43.6334C55.851 43.6458 55.3197 43.145 55.305 42.5155C55.2908 41.9006 55.8207 41.3543 56.4438 41.3415C57.0649 41.3288 57.6133 41.8501 57.6291 42.4686Z" fill="#7252DC"/>
<path d="M47.8058 27.7487C47.8058 25.3945 47.8056 23.105 47.806 20.8155C47.8062 20.5817 47.7941 20.3464 47.8162 20.1146C47.8772 19.4729 48.3678 19.0265 48.981 19.0375C49.5689 19.048 50.0408 19.4654 50.0892 20.0883C50.1327 20.6463 50.1141 21.2094 50.1147 21.7702C50.1168 23.7104 50.1261 25.6507 50.1114 27.5909C50.0994 29.2052 49.18 30.114 47.5774 30.1146C39.8676 30.1174 32.1579 30.1171 24.4481 30.1148C22.8291 30.1144 21.892 29.2187 21.8884 27.6178C21.8769 22.3347 21.8772 17.0516 21.8883 11.7685C21.8917 10.1992 22.8129 9.26836 24.3786 9.26626C32.1352 9.25574 39.8919 9.25532 47.6485 9.26697C49.148 9.2692 50.0816 10.1874 50.1072 11.6577C50.1344 13.2235 50.1241 14.7902 50.1102 16.3562C50.1027 17.1879 49.6723 17.6672 48.9804 17.6774C48.2607 17.6882 47.8122 17.1838 47.8081 16.3275C47.8007 14.7867 47.806 13.2457 47.806 11.6494H24.2341V27.7487H47.8058Z" fill="#7252DC"/>
<path d="M32.0012 18.5793C30.8251 18.5793 29.6491 18.5843 28.473 18.5778C27.5284 18.5727 27.0363 18.1645 27.044 17.4117C27.0515 16.6871 27.532 16.2821 28.4323 16.2795C30.8315 16.2725 33.2307 16.2729 35.6298 16.2794C36.5178 16.2818 37.018 16.6966 37.0297 17.4058C37.0421 18.1369 36.5186 18.5728 35.6 18.5778C34.4005 18.5841 33.2008 18.5793 32.0012 18.5793Z" fill="#7252DC"/>
<path d="M32.0012 23.5793C30.8251 23.5793 29.6491 23.5843 28.473 23.5778C27.5284 23.5727 27.0363 23.1645 27.044 22.4117C27.0515 21.6871 27.532 21.2821 28.4323 21.2795C30.8315 21.2725 41.1561 21.2729 43.5552 21.2794C44.4432 21.2818 44.9434 21.6966 44.9552 22.4058C44.9675 23.1369 44.444 23.5728 43.5254 23.5778C42.3259 23.5841 33.2008 23.5793 32.0012 23.5793Z" fill="#7252DC"/>
</svg>
