<svg width="69" height="72" viewBox="0 0 69 72" fill="none" xmlns="http://www.w3.org/2000/svg">
<path d="M58.2865 0C58.8664 0.426094 59.0114 0.998297 59.009 1.70227C58.9876 8.0062 58.9965 14.3101 58.9965 20.6142V21.525C59.2847 21.5388 59.5326 21.5606 59.7804 21.5609C62.3047 21.5634 64.8288 21.5601 67.353 21.5636C68.6233 21.5653 68.9988 21.9372 68.9991 23.1985C69.0011 31.3069 69.0011 39.4154 68.9992 47.5238C68.9989 48.7914 68.6252 49.1659 67.3602 49.1707C65.9212 49.176 64.4823 49.1722 63.0431 49.1714C62.9017 49.1712 62.7592 49.1743 62.619 49.1591C61.9029 49.0816 61.4333 48.6174 61.4344 47.9956C61.4356 47.3494 61.9519 46.852 62.6921 46.8388C63.7533 46.8197 64.815 46.8335 65.8766 46.8332C66.1069 46.833 66.3372 46.8332 66.6065 46.8332V23.9595H58.9965C58.9965 24.6078 58.9974 25.2773 58.9964 25.9469C58.9945 27.2339 58.6552 27.5791 57.3747 27.5794C50.9108 27.5808 44.447 27.5801 37.9832 27.5801H37.0586V28.3891C37.0586 31.7168 37.0588 35.0446 37.058 38.3723C37.058 38.5831 37.0707 38.7967 37.042 39.0042C36.9593 39.6006 36.4546 40.0466 35.8704 40.0073C35.2619 39.9663 34.8538 39.6506 34.7638 39.0236C34.7274 38.77 34.7328 38.5096 34.7326 38.2523C34.7309 33.9871 34.7315 29.7219 34.7315 25.4568V24.5717H15.1534V44.4199H15.9389C18.2272 44.4199 20.5155 44.4164 22.8037 44.4216C23.8986 44.4241 24.2986 44.8192 24.2991 45.9053C24.3018 54.1074 24.2955 62.3097 24.3095 70.5119C24.3107 71.2015 24.0514 71.6757 23.4629 72H0.813409C0.196538 71.647 -7.30699e-05 71.1094 0.00105932 70.4166C0.0133741 62.2845 0.00799522 54.1524 0.0099769 46.0204C0.01026 44.7825 0.372201 44.4217 1.60509 44.4209C5.0494 44.4184 8.49371 44.4199 11.938 44.4199H12.7988V43.5345C12.7988 37.0195 12.7985 30.5045 12.7991 23.9895C12.7992 22.4862 13.0691 22.214 14.5534 22.2138C16.7474 22.2135 18.9413 22.2137 21.1353 22.2137H21.8964V2.37347H2.41334V25.2779C3.56738 25.2779 4.67203 25.2702 5.77654 25.2803C6.63517 25.2883 7.16542 25.7566 7.14164 26.4578C7.11885 27.1294 6.59851 27.5708 5.78149 27.5767C4.38964 27.5868 2.99765 27.5823 1.6058 27.5792C0.373758 27.5766 0.0104015 27.2166 0.0101185 25.9792C0.00785367 17.8471 0.0136572 9.71508 0.000493126 1.58302C-0.000639266 0.888188 0.196538 0.352828 0.813409 0H23.4629C24.1301 0.344812 24.3132 0.901688 24.3114 1.62605C24.2937 8.20519 24.301 14.7846 24.301 21.3639V22.1861H34.7324V21.2666C34.7324 14.7106 34.7393 8.15484 34.7224 1.59905C34.7206 0.909844 34.8917 0.368437 35.4954 0H58.2865ZM37.1044 25.237H56.6109V2.37038H37.1044V25.237ZM21.8958 46.7636H2.40442V69.6289H21.8958V46.7636Z" fill="#7252DC"/>
<path d="M32.6648 72.0001C32.0759 71.5796 31.9368 71.0053 31.9391 70.3019C31.9596 63.7641 31.9512 57.2263 31.9512 50.6885V49.7845C30.3342 49.7845 28.7845 49.7965 27.2351 49.7789C26.571 49.7713 26.0939 49.3095 26.0484 48.7061C26.0073 48.163 26.4001 47.6337 26.9492 47.5247C27.155 47.4839 27.3714 47.4867 27.5832 47.4862C28.7862 47.4828 29.9892 47.4862 31.1922 47.4831C31.4224 47.4824 31.6525 47.463 31.9512 47.4489C31.9512 46.8922 31.9481 46.3826 31.9519 45.8729C31.9597 44.817 32.341 44.4241 33.3957 44.4224C36.8869 44.4169 40.3781 44.4201 43.8692 44.42H44.7089V43.5972C44.7089 40.5275 44.7083 37.4578 44.7099 34.3879C44.71 34.1541 44.6896 33.9126 44.739 33.6876C44.8695 33.094 45.2394 32.7342 45.8728 32.7295C46.502 32.7249 46.8944 33.0585 47.0182 33.6639C47.0739 33.9355 47.0644 34.2227 47.0647 34.503C47.0675 37.5257 47.0665 40.5486 47.0665 43.5715V44.42H47.8892C50.1772 44.42 52.4653 44.416 54.7535 44.422C55.8158 44.4246 56.2072 44.8046 56.2077 45.8611C56.2124 54.0861 56.2056 62.3111 56.2194 70.5362C56.2205 71.1877 55.9903 71.6561 55.4559 72.0001H32.6648ZM53.8418 46.7638H34.3302V69.6294H53.8418V46.7638Z" fill="#7252DC"/>
<path d="M56.7993 32.3179C55.6225 32.3179 54.4455 32.3257 53.2688 32.3154C52.3902 32.3078 51.8761 31.8831 51.8556 31.1793C51.8344 30.4468 52.3656 29.9775 53.2701 29.9741C55.6708 29.9654 58.0717 29.9643 60.4724 29.9751C61.3452 29.979 61.8468 30.4274 61.8464 31.1454C61.846 31.8617 61.3418 32.3054 60.4711 32.3145C59.2473 32.3276 58.0233 32.3179 56.7993 32.3179Z" fill="#7252DC"/>
<path d="M56.8002 38.4165C58.024 38.4165 59.2479 38.4087 60.4718 38.4192C61.3446 38.4268 61.8468 38.8646 61.8464 39.5843C61.8458 40.3019 61.342 40.7485 60.4712 40.7519C58.047 40.7615 55.6228 40.7627 53.1986 40.7509C52.3503 40.7467 51.8349 40.2621 51.8556 39.549C51.8755 38.8656 52.3766 38.4289 53.1992 38.4199C54.3993 38.4068 55.5998 38.4165 56.8002 38.4165Z" fill="#7252DC"/>
<path d="M24.8755 32.9307C23.6752 32.931 22.4747 32.9393 21.2744 32.9282C20.4119 32.9203 19.9048 32.4644 19.9239 31.7482C19.9424 31.0599 20.4333 30.6367 21.2679 30.6339C23.7157 30.626 26.1636 30.6256 28.6114 30.6346C29.419 30.6376 29.9362 31.1013 29.9382 31.7765C29.94 32.4519 29.4231 32.9186 28.6179 32.9271C27.3706 32.94 26.123 32.9304 24.8755 32.9307Z" fill="#7252DC"/>
<path d="M24.868 41.3685C23.6676 41.3687 22.4672 41.3766 21.2668 41.366C20.4323 41.3587 19.9425 40.9386 19.9248 40.2491C19.9065 39.533 20.4134 39.0746 21.2769 39.0717C23.7247 39.0634 26.1726 39.0628 28.6204 39.073C29.4257 39.0764 29.9428 39.5486 29.9388 40.2241C29.935 40.8991 29.4176 41.358 28.6104 41.3655C27.3631 41.3768 26.1154 41.3684 24.868 41.3685Z" fill="#7252DC"/>
<path d="M47.0486 30.0917C47.0384 30.7226 46.5067 31.2326 45.8681 31.2246C45.2294 31.2166 44.7069 30.6901 44.7154 30.0633C44.7239 29.4307 45.2486 28.9306 45.8977 28.9371C46.546 28.9431 47.0589 29.4578 47.0486 30.0917Z" fill="#7252DC"/>
<path d="M35.987 43.5407C35.365 43.5534 34.811 43.0226 34.7985 42.4024C34.7864 41.786 35.3207 41.2342 35.9427 41.221C36.57 41.2074 37.1136 41.7301 37.1259 42.3586C37.1382 42.9866 36.6167 43.5279 35.987 43.5407Z" fill="#7252DC"/>
<path d="M58.8081 49.1727C58.1707 49.1629 57.6674 48.6386 57.6764 47.9938C57.6855 47.3513 58.2075 46.8404 58.8436 46.8512C59.469 46.8619 59.9937 47.4035 59.9846 48.029C59.9756 48.6559 59.434 49.1824 58.8081 49.1727Z" fill="#7252DC"/>
<path d="M12.1013 10.7216C10.9017 10.7218 9.70209 10.7305 8.50261 10.7188C7.62614 10.7104 7.14501 10.2723 7.16412 9.53674C7.18238 8.84008 7.66096 8.4258 8.50232 8.42313C10.9486 8.41525 13.3948 8.41441 15.8411 8.42383C16.6519 8.42692 17.1515 8.88452 17.1507 9.57218C17.1497 10.2636 16.6582 10.7097 15.8414 10.7181C14.5947 10.7311 13.348 10.7215 12.1013 10.7216Z" fill="#7252DC"/>
<path d="M12.2148 19.159C10.9681 19.1594 9.72137 19.1687 8.47489 19.1562C7.63721 19.1478 7.16854 18.7255 7.16458 18.0177C7.16061 17.3054 7.62914 16.8658 8.46046 16.8623C10.9302 16.8518 13.3999 16.8516 15.8697 16.8633C16.6714 16.867 17.1676 17.3462 17.1509 18.0389C17.1347 18.7055 16.657 19.1452 15.884 19.1547C14.6611 19.1696 13.4379 19.1586 12.2148 19.159Z" fill="#7252DC"/>
<path d="M10.763 26.4178C10.7702 27.0762 10.2712 27.5768 9.6099 27.5747C8.95297 27.5726 8.44693 27.0618 8.45769 26.4117C8.46816 25.7876 8.9483 25.3091 9.5806 25.2929C10.2476 25.2759 10.7557 25.7594 10.763 26.4178Z" fill="#7252DC"/>
<path d="M46.8104 10.7218C45.61 10.7221 44.4097 10.7308 43.2095 10.7191C42.3425 10.7108 41.8428 10.2598 41.8624 9.53928C41.8812 8.84909 42.3698 8.42623 43.2045 8.42356C45.6522 8.41555 48.0999 8.41513 50.5475 8.42427C51.3504 8.42736 51.8714 8.89677 51.8727 9.57022C51.874 10.2472 51.3608 10.7097 50.5523 10.7181C49.3051 10.7311 48.0577 10.7215 46.8104 10.7218Z" fill="#7252DC"/>
<path d="M46.8942 16.8578C48.0709 16.8578 49.2477 16.8528 50.4244 16.8594C51.337 16.8646 51.8846 17.3135 51.8725 18.0274C51.8606 18.7241 51.3379 19.1554 50.4629 19.1576C48.0624 19.1639 45.6619 19.1642 43.2614 19.1578C42.3699 19.1554 41.8727 18.7424 41.862 18.03C41.8506 17.29 42.3615 16.8649 43.2933 16.8595C44.4937 16.8526 45.6938 16.8578 46.8942 16.8578Z" fill="#7252DC"/>
<path d="M12.184 52.8406C13.4071 52.8408 14.6304 52.8313 15.8534 52.8441C16.667 52.8527 17.1571 53.3046 17.1504 53.9992C17.1438 54.687 16.6469 55.1351 15.83 55.1384C13.3838 55.1478 10.9375 55.1476 8.49129 55.1384C7.65346 55.1353 7.178 54.7126 7.16483 54.0115C7.15125 53.2743 7.62756 52.8503 8.51465 52.843C9.73777 52.8327 10.9609 52.8403 12.184 52.8406Z" fill="#7252DC"/>
<path d="M12.1218 63.5798C10.9457 63.5798 9.76971 63.5848 8.59358 63.5783C7.64902 63.5732 7.15686 63.165 7.16464 62.4122C7.17215 61.6876 7.65256 61.2826 8.55296 61.28C10.9521 61.273 13.3513 61.2734 15.7504 61.2799C16.6384 61.2823 17.1386 61.6971 17.1504 62.4063C17.1627 63.1374 16.6392 63.5733 15.7206 63.5783C14.5211 63.5846 13.3215 63.5798 12.1218 63.5798Z" fill="#7252DC"/>
<path d="M44.0249 55.1422C42.8245 55.1421 41.624 55.1502 40.4237 55.1393C39.6105 55.132 39.0914 54.6887 39.0705 54.0179C39.0487 53.3171 39.5762 52.8463 40.4331 52.8433C42.8573 52.8353 45.2817 52.8357 47.7058 52.843C48.5855 52.8456 49.0883 53.2791 49.0846 53.9928C49.0808 54.7054 48.5749 55.1336 47.6966 55.1401C46.4728 55.149 45.2488 55.1424 44.0249 55.1422Z" fill="#7252DC"/>
<path d="M44.0386 63.5791C42.8383 63.5794 41.6378 63.5867 40.4375 63.5769C39.589 63.5699 39.0517 63.0965 39.0693 62.401C39.0864 61.7254 39.5964 61.2838 40.4175 61.281C42.8653 61.2725 45.3133 61.2718 47.7611 61.2816C48.5876 61.285 49.0789 61.7268 49.0837 62.4166C49.0885 63.11 48.594 63.5666 47.781 63.5753C46.5337 63.5888 45.2861 63.5789 44.0386 63.5791Z" fill="#7252DC"/>
</svg>
