<svg width="53" height="72" viewBox="0 0 53 72" fill="none" xmlns="http://www.w3.org/2000/svg">
<path d="M2.81786 71.9999C1.3548 71.4811 0.299687 70.5864 0.0676556 68.9611C0.0150618 68.5927 0.0240618 68.2137 0.0240618 67.8398C0.0222337 46.6833 0.0371399 25.527 1.49379e-05 4.37063C-0.00378194 2.20852 0.715656 0.708328 2.81786 0H49.5085C50.9783 0.512016 52.0197 1.41567 52.2595 3.03736C52.3003 3.31369 52.3021 3.59747 52.3021 3.87802C52.3041 25.2924 52.2993 46.7069 52.3114 68.1213C52.3125 70.1267 51.3456 71.3596 49.5085 71.9999H2.81786ZM2.3673 35.9467C2.3673 46.6103 2.36716 57.2738 2.36744 67.9369C2.36758 69.3877 2.64616 69.67 4.08461 69.6703C18.8034 69.6708 33.5222 69.6708 48.2411 69.6703C49.679 69.67 49.9589 69.3869 49.9589 67.9368C49.9592 46.6568 49.9592 25.3768 49.9589 4.09683C49.9589 2.60466 49.6865 2.32945 48.2057 2.32931C33.5103 2.32903 18.8149 2.32903 4.11948 2.32931C2.63772 2.32945 2.36744 2.60283 2.36744 4.09697C2.36716 14.7137 2.3673 25.3301 2.3673 35.9467Z" fill="#7252DC"/>
<path d="M44.7377 11.6889H7.62778V60.3064H44.7377V59.4479C44.7377 52.3464 44.7376 45.245 44.7382 38.1437C44.7382 37.9095 44.7234 37.6726 44.7515 37.4413C44.828 36.8127 45.2704 36.4048 45.8682 36.3872C46.4781 36.3693 46.9299 36.7359 47.0424 37.3688C47.0831 37.597 47.0777 37.8352 47.0777 38.0688C47.0793 45.7092 47.0797 53.3497 47.0784 60.9901C47.0781 62.3429 46.7307 62.6835 45.3594 62.6835C32.5621 62.6839 19.7648 62.6839 6.96754 62.6835C5.59462 62.6835 5.24882 62.3449 5.24868 60.9911C5.24784 44.3274 5.24784 27.6639 5.24868 11.0003C5.24882 9.67379 5.60024 9.31716 6.90496 9.31703C19.7491 9.31618 32.5934 9.31618 45.4375 9.31716C46.7051 9.31716 47.0776 9.68518 47.078 10.9467C47.0801 17.0403 47.0801 23.134 47.0755 29.2276C47.0752 29.5057 47.0606 29.7947 46.9856 30.0596C46.8416 30.5683 46.4622 30.828 45.9419 30.8426C45.4236 30.8571 45.0177 30.629 44.8521 30.1257C44.7598 29.845 44.7425 29.5298 44.7422 29.2301C44.7362 23.6755 44.7377 18.121 44.7377 12.5664V11.6889Z" fill="#7252DC"/>
<path d="M26.1649 34.6407C22.041 34.6407 17.917 34.6417 13.7932 34.6401C12.4637 34.6395 12.1311 34.3072 12.1308 32.9785C12.1296 27.7067 12.1296 22.4351 12.1308 17.1634C12.1311 15.8449 12.4897 15.4804 13.7892 15.4802C22.037 15.4792 30.2848 15.4792 38.5327 15.4802C39.8327 15.4804 40.1952 15.8467 40.1956 17.1603C40.1969 22.432 40.1969 27.7038 40.1956 32.9754C40.1954 34.3039 39.8608 34.6395 38.5367 34.6401C34.4127 34.6417 30.2888 34.6407 26.1649 34.6407ZM14.4153 32.1209C14.459 32.1917 14.5026 32.2624 14.5463 32.333C16.3681 32.333 18.1902 32.3174 20.0116 32.3436C20.4965 32.3504 20.8319 32.2107 21.1682 31.854C24.2704 28.5643 27.3898 25.2905 30.5095 22.0172C31.3096 21.1778 31.8788 21.189 32.6918 22.0357C33.4544 22.8301 34.1831 23.6597 34.9801 24.4177C35.942 25.3321 36.9601 26.1874 37.8108 26.9416V17.8648H14.5288V28.5866C14.5852 28.625 14.6415 28.6633 14.6981 28.7017C14.8321 28.5124 14.9446 28.3023 15.1038 28.1372C16.2751 26.9232 17.4484 25.7113 18.6359 24.513C19.3038 23.839 19.9202 23.8484 20.5779 24.5299C21.2612 25.2379 21.9339 25.9564 22.596 26.6844C23.1838 27.331 23.1972 27.9947 22.6608 28.4793C22.1281 28.9604 21.4925 28.8777 20.8739 28.236C20.4539 27.8002 20.0438 27.3549 19.6292 26.9137C19.6974 26.9995 19.7655 27.0853 19.8336 27.1712C18.0275 28.821 16.2213 30.471 14.4153 32.1209ZM23.9512 32.2866H37.7915C37.9733 31.3662 37.8084 30.6624 37.1119 29.9874C35.5661 28.4899 34.1177 26.892 32.6307 25.3337C32.2949 24.9818 31.964 24.6254 31.5992 24.2374C29.0368 26.9343 26.5318 29.5707 23.9512 32.2866Z" fill="#7252DC"/>
<path d="M26.1965 37.9434C31.6635 37.9572 36.0399 42.3694 36.0223 47.8497C36.0047 53.3018 31.576 57.6782 26.0933 57.6613C20.6552 57.6444 16.2739 53.1914 16.3039 47.7116C16.3335 42.2886 20.7482 37.9296 26.1965 37.9434ZM26.2441 55.3449C30.4436 55.2524 33.8222 51.7944 33.7146 47.699C33.6041 43.4995 30.166 40.1581 26.0466 40.2468C21.9076 40.3361 18.5477 43.7758 18.6088 47.8613C18.6711 52.0333 22.142 55.4352 26.2441 55.3449Z" fill="#7252DC"/>
<path d="M25.8261 7.0136C24.6325 7.01374 23.4389 7.02091 22.2454 7.01135C21.3575 7.00432 20.8064 6.52858 20.8247 5.81224C20.8424 5.1191 21.3694 4.67317 22.232 4.67008C24.666 4.66094 27.0999 4.66038 29.5338 4.67065C30.3773 4.67416 30.9221 5.14947 30.9263 5.83361C30.9307 6.51846 30.3821 7.00178 29.5472 7.01022C28.307 7.02274 27.0664 7.01346 25.8261 7.0136Z" fill="#7252DC"/>
<path d="M25.9287 65.0324C26.7486 65.0318 27.569 65.0145 28.3883 65.0366C29.197 65.0585 29.6895 65.5291 29.6761 66.2153C29.6629 66.8976 29.1559 67.3499 28.3465 67.3554C26.6833 67.3666 25.02 67.3688 23.3568 67.3541C22.5536 67.3469 22.0659 66.8746 22.0753 66.174C22.0842 65.5074 22.5519 65.0603 23.3287 65.0386C24.1947 65.0142 25.0621 65.0329 25.9287 65.0324Z" fill="#7252DC"/>
<path d="M34.2285 4.60599C34.9285 4.61077 35.4614 5.16146 35.4473 5.86557C35.4332 6.56771 34.8782 7.09449 34.1762 7.07213C33.5095 7.05076 32.9937 6.51891 32.9883 5.847C32.9827 5.14852 33.5297 4.60121 34.2285 4.60599Z" fill="#7252DC"/>
<path d="M18.7474 5.83004C18.7519 6.54161 18.2187 7.08104 17.5167 7.07542C16.8151 7.06993 16.2914 6.52445 16.3039 5.81247C16.316 5.12987 16.822 4.61842 17.498 4.60619C18.2066 4.59339 18.7429 5.11876 18.7474 5.83004Z" fill="#7252DC"/>
<path d="M47.0646 33.514C47.0557 34.1471 46.5304 34.6505 45.8887 34.6409C45.2494 34.6312 44.7349 34.109 44.7453 33.4804C44.7555 32.8577 45.2948 32.3375 45.9215 32.3458C46.5485 32.3541 47.0733 32.8904 47.0646 33.514Z" fill="#7252DC"/>
<path d="M25.1384 18.6944C26.7837 18.7014 28.1261 20.0597 28.1126 21.7042C28.0993 23.345 26.7296 24.7003 25.0992 24.6861C23.4602 24.6718 22.1122 23.3022 22.1261 21.6653C22.14 20.0126 23.4835 18.6875 25.1384 18.6944ZM26.0703 21.6884C25.6154 21.3664 25.3443 21.0276 25.1234 21.0576C24.8816 21.0905 24.5205 21.4621 24.518 21.6897C24.5154 21.9098 24.8836 22.282 25.1246 22.3134C25.3468 22.3424 25.6164 22.0074 26.0703 21.6884Z" fill="#7252DC"/>
<path d="M22.3142 45.7349C23.1463 45.7452 23.7083 46.6197 23.3312 47.385C23.1823 47.6872 23.1422 47.8811 23.3343 48.1854C23.6491 48.6841 23.5317 49.192 23.1006 49.5764C22.6417 49.9854 22.1011 50.0109 21.6305 49.6199C21.2203 49.2792 20.8603 48.8703 20.5204 48.4567C20.383 48.2896 20.3039 48.0334 20.2919 47.8125C20.2525 47.0991 21.6109 45.7262 22.3142 45.7349Z" fill="#7252DC"/>
<path d="M30.1852 45.7046C30.9467 45.9136 31.5008 46.6161 31.9477 47.3705C32.3117 47.9851 31.8778 48.4745 31.451 48.9041C31.2368 49.1197 31.0404 49.3569 30.8057 49.5468C30.3301 49.9316 29.8048 49.9555 29.3257 49.5802C28.8707 49.2236 28.7219 48.7 29.0194 48.2046C29.2311 47.8521 29.1335 47.649 28.9798 47.3415C28.6007 46.5828 29.166 45.7101 30.1852 45.7046Z" fill="#7252DC"/>
<path d="M26.19 53.8681C25.3954 53.8773 24.1198 52.5252 24.1777 51.7351C24.2331 50.982 24.9868 50.4697 25.6954 50.7685C26.0494 50.9178 26.294 50.9194 26.644 50.7491C27.3699 50.3964 28.2194 50.9845 28.2268 51.789C28.2336 52.5027 26.9038 53.86 26.19 53.8681Z" fill="#7252DC"/>
<path d="M28.169 43.6609C28.1741 44.5957 27.3697 45.1016 26.5372 44.8107C26.3209 44.7352 26.03 44.7453 25.8131 44.8247C25.2371 45.0357 24.7364 44.9711 24.3678 44.4809C24.0006 43.993 24.0484 43.4756 24.436 43.0011C24.5391 42.8747 24.6606 42.7635 24.7739 42.6455C26.0353 41.3336 27.3255 41.5759 28.0725 43.2705C28.1368 43.4167 28.151 43.5847 28.169 43.6609Z" fill="#7252DC"/>
</svg>
