<svg width="72" height="72" viewBox="0 0 72 72" fill="none" xmlns="http://www.w3.org/2000/svg">
<path d="M33.8176 0.126465H38.3097C39.1871 0.234275 40.0665 0.327346 40.9414 0.452282C48.0439 1.46721 54.3277 4.3027 59.7088 9.04846C66.0265 14.6203 69.9666 21.5637 71.4489 29.8718C71.682 31.1782 71.819 32.5017 72.0004 33.8171V38.3092C71.8916 39.187 71.7966 40.0666 71.6718 40.9422C70.6474 48.1211 67.7617 54.4576 62.9379 59.869C57.4017 66.0796 50.5213 69.9571 42.3207 71.4408C40.9935 71.681 39.6472 71.8161 38.3097 71.9999H33.8176C33.6617 71.9617 33.5074 71.9008 33.3493 71.8884C26.038 71.3195 19.4845 68.7781 13.767 64.1978C6.68498 58.5242 2.29733 51.2014 0.677234 42.2546C0.440838 40.949 0.30776 39.6249 0.126953 38.3092V33.8171C0.232377 32.9618 0.321517 32.104 0.445751 31.2513C1.59741 23.3438 4.93545 16.51 10.5288 10.7927C12.7993 8.47165 15.3547 6.51366 18.171 4.89791C18.9544 4.44828 19.6454 4.57799 19.9875 5.22429C20.3022 5.81864 20.0661 6.42788 19.3852 6.87808C18.0604 7.75403 16.719 8.60907 15.4364 9.54399C14.5398 10.1974 13.7294 10.969 12.8157 11.7427C13.0246 11.8599 13.117 11.9235 13.218 11.9668C14.9778 12.7196 16.7518 13.4413 18.4894 14.2423C18.8854 14.4249 19.3274 14.8263 19.4494 15.2196C19.72 16.0926 18.769 16.8142 17.8445 16.4365C15.792 15.5982 13.7548 14.7199 11.7351 13.8057C11.261 13.5912 11.025 13.6332 10.6897 14.0239C6.45631 18.9553 3.83588 24.6298 2.83161 31.0445C2.63508 32.2994 2.56574 33.5741 2.43027 34.9146H3.34708C5.10166 34.9148 6.85638 34.9111 8.61111 34.9166C9.52679 34.9194 10.0636 35.3597 10.0526 36.0778C10.0416 36.7927 9.51051 37.2073 8.58177 37.2104C7.20143 37.215 5.8211 37.2116 4.44076 37.2118H2.47014C2.52924 37.992 2.5677 38.6854 2.63649 39.3758C3.34483 46.4808 6.07602 52.7121 10.7183 58.1248C11.034 58.493 11.2623 58.5566 11.7097 58.3409C12.9499 57.7424 14.2137 57.1903 15.4857 56.6618C16.1275 56.3951 16.7377 56.6848 16.9883 57.2847C17.2262 57.8543 17.0033 58.4482 16.4136 58.761C16.1668 58.8918 15.8974 58.9793 15.6414 59.0933C14.7338 59.497 13.8277 59.9037 12.8397 60.3456C19.1258 66.1613 26.4027 69.2519 34.9162 69.6521C34.9162 67.7884 34.8792 66.0376 34.9348 64.2898C34.9564 63.6087 34.7259 63.2569 34.146 62.9243C27.0507 58.8551 19.9764 54.749 12.8793 50.6827C12.0926 50.2321 11.7671 49.6982 11.77 48.7827C11.7975 40.3135 11.8008 31.8443 11.7671 23.3751C11.7632 22.3783 12.1062 21.8025 12.9642 21.3117C19.7801 17.4127 26.5536 13.4391 33.3917 9.57965C34.5615 8.91945 35.0819 8.25209 34.9477 6.89099C34.8069 5.46096 34.9162 4.00623 34.9162 2.51078C34.5838 2.51078 34.3276 2.47878 34.0818 2.51584C31.913 2.84249 29.7455 3.17856 27.5787 3.51813C26.8312 3.63535 26.2534 3.31136 26.1112 2.67488C25.967 2.02999 26.3373 1.44588 27.0605 1.26844C27.9449 1.05155 28.8342 0.842251 29.7322 0.696399C31.0891 0.476146 32.4554 0.313588 33.8176 0.126465ZM37.2113 2.47288C37.2113 4.36602 37.2407 6.11821 37.195 7.8683C37.1793 8.46631 37.3779 8.77205 37.8891 9.06558C45.0623 13.1834 52.2188 17.33 59.3895 21.452C60.0507 21.8321 60.353 22.3043 60.3516 23.0799C60.3349 31.7109 60.335 40.3419 60.3513 48.9728C60.3528 49.7488 60.0524 50.2307 59.387 50.6014C57.7134 51.5335 56.0644 52.5097 54.4052 53.4676C48.881 56.6567 43.3602 59.8517 37.826 63.0232C37.356 63.2925 37.1644 63.5803 37.1985 64.1229C37.2482 64.915 37.2113 65.7127 37.2113 66.5079V69.5613C43.3326 70.1959 55.2038 65.1982 59.1891 60.33C58.9796 60.2209 58.7838 60.1011 58.5745 60.013C57.2405 59.4524 55.9037 58.8982 54.5672 58.3434C54.3732 58.2628 54.1738 58.1954 53.9802 58.114C53.2504 57.8069 52.948 57.1965 53.2034 56.553C53.442 55.9512 54.0807 55.6714 54.7828 55.9567C56.6422 56.7122 58.4955 57.485 60.328 58.3031C60.8082 58.5175 61.0718 58.5235 61.4381 58.0969C65.7035 53.1277 68.34 47.4147 69.3088 40.9408C69.4899 39.7306 69.5578 38.5032 69.685 37.2118H68.7737C67.113 37.2116 65.4522 37.2181 63.7915 37.2084C62.9669 37.2035 62.4749 36.7752 62.4596 36.088C62.4436 35.3772 62.9537 34.932 63.812 34.9163C64.2096 34.9091 64.6073 34.9148 65.0049 34.9146H69.6552C69.5954 34.1226 69.5578 33.4078 69.485 32.6965C68.7422 25.4432 65.9105 19.1112 61.0923 13.6505C60.8252 13.3478 60.6278 13.3005 60.2692 13.4785C59.161 14.0286 58.0468 14.5708 56.9098 15.0575C55.7086 15.5715 54.4859 16.0386 53.2579 16.4858C52.6488 16.7076 52.0277 16.3986 51.8027 15.8493C51.5611 15.2598 51.8202 14.6236 52.4394 14.3362C52.7139 14.2089 53.0111 14.1317 53.2911 14.015C55.1777 13.2293 57.0624 12.4393 59.0932 11.5897C52.798 5.87648 45.6116 2.86215 37.2113 2.47288ZM23.0668 36.0569C23.1019 43.238 28.9135 49.0257 36.0786 49.0149C43.2485 49.0042 49.0635 43.1857 49.0598 36.0258C49.0562 28.8405 43.1947 22.9964 36.0124 23.0169C28.8756 23.0372 23.0318 28.9236 23.0668 36.0569ZM22.2752 29.297C19.5719 27.7044 16.9043 26.1329 14.1666 24.5199C14.1462 24.8036 14.1221 24.9832 14.1221 25.1627C14.1201 32.813 14.125 40.4633 14.1091 48.1135C14.1082 48.585 14.2853 48.812 14.6733 49.0351C20.8328 52.5753 26.9833 56.1312 33.1364 59.6827C33.6952 60.0053 34.257 60.3227 34.8907 60.6843V51.3321C29.598 50.7349 25.4741 48.2596 22.8136 43.6529C20.1483 39.0378 20.1069 34.2339 22.2752 29.297ZM49.8868 29.3962C49.9941 29.6534 50.0812 29.8652 50.1707 30.0761C54.1379 39.44 47.8925 50.15 37.8267 51.224C37.3542 51.2744 37.1975 51.4226 37.2012 51.9048C37.2222 54.6882 37.2114 57.4721 37.2132 60.2558C37.2134 60.3626 37.232 60.4696 37.2489 60.6483C37.4959 60.5237 37.681 60.4413 37.8556 60.3405C44.3923 56.5673 50.9249 52.787 57.471 49.0302C57.9121 48.7771 58.0147 48.4882 58.014 48.026C58.0032 40.5405 58.0067 33.055 58.0047 25.5695C58.0046 25.3268 57.98 25.0842 57.9608 24.7302C55.2108 26.3194 52.57 27.8456 49.8868 29.3962ZM48.7354 27.3819C51.4418 25.8194 54.1151 24.2759 56.8331 22.7067C56.6864 22.601 56.6331 22.555 56.5732 22.5204C49.8794 18.6532 43.1828 14.791 36.4973 10.9099C36.118 10.6896 35.8656 10.7838 35.5479 10.9676C29.0383 14.7335 22.5255 18.4939 16.0145 22.2573C15.8449 22.3553 15.6874 22.4743 15.4608 22.6259C18.1829 24.2173 20.8156 25.7564 23.441 27.2913C29.6532 18.5484 42.4517 18.4932 48.7354 27.3819Z" fill="#7252DC"/>
<path d="M24.1056 3.52359C24.1259 4.13774 23.5987 4.69589 22.9786 4.71652C22.3624 4.73702 21.8072 4.21214 21.7867 3.58985C21.7665 2.97415 22.2923 2.41671 22.9127 2.39607C23.5239 2.37572 24.0852 2.90635 24.1056 3.52359Z" fill="#7252DC"/>
<path d="M20.1178 56.5521C20.1196 57.2022 19.6105 57.7037 18.9573 57.6956C18.3093 57.6875 17.8021 57.164 17.8208 56.5224C17.8386 55.9062 18.3295 55.4259 18.9518 55.4157C19.6082 55.405 20.116 55.8999 20.1178 56.5521Z" fill="#7252DC"/>
<path d="M36.068 44.3005C36.4923 43.8178 36.76 43.4604 37.081 43.1598C37.6035 42.6707 38.245 42.6703 38.7119 43.1118C39.1933 43.5672 39.2107 44.2534 38.7043 44.7961C38.132 45.4094 37.538 46.0043 36.9242 46.5761C36.396 47.0684 35.7587 47.0606 35.2362 46.5672C34.6432 46.0071 34.0636 45.4309 33.5074 44.8344C33.0196 44.3113 33.0329 43.6691 33.4911 43.2047C33.9408 42.7491 34.6083 42.7299 35.1216 43.2062C35.4264 43.4889 35.6712 43.836 36.068 44.3005Z" fill="#7252DC"/>
<path d="M44.2915 35.995C43.857 35.5982 43.5075 35.3195 43.2073 34.9952C42.7227 34.4712 42.7285 33.8254 43.1815 33.3629C43.6406 32.8946 44.2889 32.8698 44.811 33.3563C45.4426 33.9451 46.0532 34.5587 46.6442 35.1884C47.1358 35.7124 47.1463 36.2888 46.6606 36.8171C46.0921 37.4352 45.4958 38.0308 44.8782 38.6002C44.3733 39.0658 43.677 39.0307 43.2429 38.5778C42.8039 38.1198 42.8067 37.4611 43.284 36.9413C43.5664 36.6336 43.8928 36.3663 44.2915 35.995Z" fill="#7252DC"/>
<path d="M27.7594 36.0215C28.2648 36.4443 28.6331 36.6998 28.9358 37.0176C29.4494 37.557 29.4347 38.2398 28.949 38.6982C28.4895 39.1317 27.8276 39.1295 27.3146 38.6459C26.7039 38.0703 26.1104 37.4753 25.5347 36.8648C25.0281 36.3274 25.0225 35.719 25.5246 35.1804C26.0807 34.5838 26.6587 34.0058 27.2531 33.4473C27.7621 32.969 28.4306 32.9774 28.8857 33.4207C29.3368 33.8603 29.3624 34.5449 28.8951 35.0505C28.6125 35.3565 28.2606 35.5985 27.7594 36.0215Z" fill="#7252DC"/>
<path d="M36.0545 27.7683C35.6591 28.216 35.3892 28.5721 35.068 28.8735C34.5553 29.3546 33.8814 29.3486 33.4399 28.9024C32.988 28.4459 32.961 27.7638 33.4254 27.2684C34.0156 26.6393 34.6262 26.0275 35.2551 25.4371C35.768 24.9553 36.3715 24.9502 36.8861 25.4285C37.5006 26.0001 38.0961 26.5949 38.6659 27.211C39.144 27.7282 39.1149 28.3896 38.6525 28.8401C38.1873 29.2932 37.5496 29.297 37.0229 28.813C36.7161 28.5313 36.4529 28.2021 36.0545 27.7683Z" fill="#7252DC"/>
</svg>
