<svg width="69" height="72" viewBox="0 0 69 72" fill="none" xmlns="http://www.w3.org/2000/svg">
<path d="M55.8893 0C56.087 0.0579375 56.2823 0.127406 56.483 0.172266C59.6657 0.883547 62.1715 3.47498 62.675 6.58041C63.2167 9.92166 61.6909 13.1446 58.7743 14.8205C55.9004 16.4715 52.3889 16.1961 49.7597 14.1133C49.6317 14.0117 49.5035 13.9105 49.3276 13.7713C46.554 15.9885 43.7874 18.2 41.0006 20.4277C41.8174 22.1006 42.1477 23.8279 41.993 25.7203C46.1134 26.557 50.2068 27.3884 54.3329 28.2262C54.4418 27.8789 54.5262 27.5916 54.6216 27.308C55.7654 23.91 59.3076 21.786 62.8064 22.3983C66.4101 23.0289 69.0672 26.1689 68.9985 29.716C68.9278 33.3641 66.2533 36.3745 62.6452 36.8672C58.8211 37.3894 55.3265 35.0106 54.4454 31.251C54.3275 30.7477 54.1186 30.5408 53.6035 30.4394C49.5838 29.6484 45.5711 28.8224 41.5663 28.0093C41.2003 28.7004 40.8793 29.3756 40.4957 30.0137C40.0512 30.7533 39.3644 30.9698 38.7745 30.6193C38.1379 30.241 38.0558 29.5627 38.523 28.7872C40.188 26.0241 40.1714 23.2328 38.3593 20.593C36.5225 17.9173 33.841 16.8453 30.6528 17.4895C27.5282 18.1209 25.5501 20.1092 24.8131 23.2064C24.3665 25.0829 24.6941 26.8802 25.6681 28.5549C25.7976 28.7774 25.9423 28.9956 26.0369 29.2326C26.26 29.7911 26.0756 30.2525 25.6013 30.5831C25.1411 30.904 24.6641 30.8576 24.2285 30.5135C24.0659 30.3851 23.9326 30.2202 23.7744 30.0604C23.5073 30.1846 23.2585 30.3178 22.9972 30.4186C22.4161 30.6429 21.8202 30.4341 21.5337 29.9226C21.2322 29.384 21.3551 28.6635 21.948 28.4075C22.7381 28.0665 22.737 27.6314 22.5563 26.8903C21.9971 24.5976 22.321 22.3819 23.4172 20.2833C23.5145 20.0969 23.6128 19.9111 23.7084 19.7238C23.7182 19.7045 23.7127 19.6777 23.7176 19.605C21.8759 17.7394 20.0192 15.8422 18.1292 13.9781C17.9914 13.8423 17.5707 13.8558 17.3519 13.9541C12.9445 15.936 7.9735 13.4727 6.95917 8.78625C6.11818 4.90092 8.66847 1.04203 12.6621 0.152297C12.8163 0.117844 12.9632 0.0514687 13.1136 0H15.2381C15.3898 0.0495 15.5382 0.113766 15.6935 0.14625C19.8731 1.01883 22.4856 5.21634 21.2866 9.2835C20.9771 10.3331 20.3414 11.2878 19.8009 12.3979C21.5874 14.0885 23.4621 15.8628 25.3397 17.6394C29.2421 13.9434 35.8053 14.023 39.758 18.4365C42.3431 16.3696 44.9308 14.3014 47.5172 12.2318C47.624 12.1463 47.7206 12.048 47.8486 11.9315C47.7558 11.7489 47.6704 11.5871 47.5904 11.4227C45.4514 7.03153 47.7211 1.81758 52.41 0.360422C52.8558 0.221906 53.3129 0.11925 53.7646 0H55.8893ZM54.7752 13.5525C57.9212 13.5508 60.4404 11.0476 60.4353 7.92844C60.43 4.81612 57.8846 2.31328 54.7454 2.33395C51.6428 2.35448 49.1153 4.85831 49.104 7.92295C49.0925 11.0156 51.6497 13.5541 54.7752 13.5525ZM61.585 34.6167C64.3867 34.6307 66.6451 32.425 66.6586 29.6616C66.6721 26.9009 64.4243 24.6379 61.6527 24.6217C58.8726 24.6056 56.5966 26.8386 56.5844 29.5942C56.5723 32.3741 58.7911 34.6027 61.585 34.6167ZM19.2272 7.33373C19.2317 4.56202 16.9959 2.33789 14.201 2.33409C11.4159 2.33044 9.15198 4.56581 9.15014 7.32136C9.14816 10.0671 11.4235 12.3321 14.1889 12.3373C16.9606 12.3427 19.2227 10.096 19.2272 7.33373Z" fill="white"/>
<path d="M33.9351 72.0001C33.8547 71.9588 33.7784 71.8954 33.6931 71.8794C31.0729 71.39 29.2029 69.9226 28.0035 67.5819C24.9894 61.6995 21.9627 55.8235 18.983 49.9241C18.6342 49.2335 18.408 48.4199 18.3659 47.6502C18.2457 45.4549 19.5754 43.5828 21.6069 42.8822C23.6161 42.1895 25.7453 42.8442 27.1004 44.5712C27.1722 44.6628 27.2444 44.7538 27.423 44.9799C27.4393 44.6158 27.4588 44.3801 27.459 44.1443C27.4607 38.0977 27.4551 32.0511 27.4631 26.0045C27.4663 23.4488 28.887 21.5289 31.1738 20.8821C34.1524 20.0396 37.3522 22.3792 37.2145 25.3927C37.0787 28.363 37.1849 31.3441 37.1849 34.3205V35.0975C40.8335 34.101 42.451 34.7371 44.0577 37.8024C45.5634 36.9527 47.1317 36.854 48.7152 37.5581C50.2761 38.2523 51.2327 39.48 51.6986 41.1476C52.883 40.5305 54.0832 40.3252 55.3581 40.6332C57.5016 41.1512 59.106 43.0456 59.1535 45.2393C59.1977 47.2774 59.1769 49.3171 59.1674 51.3558C59.1636 52.1658 58.696 52.6413 57.9811 52.6241C57.2978 52.6077 56.867 52.145 56.8619 51.3606C56.8494 49.4623 56.8574 47.564 56.8564 45.6656C56.8559 44.634 56.4776 43.7861 55.5848 43.2211C53.9054 42.1583 51.8644 43.2174 51.8078 45.192C51.7728 46.4096 51.8048 47.6291 51.7979 48.8478C51.7929 49.7378 51.3859 50.2303 50.6641 50.2438C49.9145 50.2577 49.4878 49.7562 49.4849 48.8243C49.4786 46.7149 49.4927 44.6057 49.4789 42.4965C49.4685 40.9101 48.5719 39.773 47.1441 39.4854C45.5987 39.174 44.2871 40.1805 44.2494 41.7443C44.219 43.009 44.2445 44.2752 44.2378 45.5407C44.2347 46.1534 44.0281 46.6535 43.3779 46.838C42.5585 47.0706 41.8911 46.5081 41.8845 45.5539C41.8702 43.4447 41.8979 41.3352 41.8713 39.2262C41.8517 37.6479 40.4188 36.5861 38.908 36.9848C37.9344 37.2417 37.2233 38.1163 37.1937 39.1476C37.1688 40.0142 37.1917 40.8818 37.1831 41.7489C37.1746 42.6057 36.7323 43.1425 36.0363 43.1609C35.3146 43.1799 34.8339 42.6343 34.8328 41.7331C34.8263 36.3427 34.8295 30.9524 34.8291 25.562C34.829 24.0285 34.0061 23.0975 32.6075 23.0472C31.143 22.9943 29.9263 24.0535 29.8283 25.4735C29.8105 25.7303 29.8185 25.9889 29.8185 26.2467C29.818 33.7697 29.818 41.2929 29.818 48.8159C29.818 48.98 29.8113 49.1444 29.8192 49.3079C29.8522 49.9814 29.6526 50.545 28.9466 50.7365C28.2392 50.9283 27.7946 50.5396 27.4694 49.9428C26.8078 48.728 26.1271 47.5232 25.4506 46.3165C24.9336 45.3946 24.1448 44.9138 23.0773 44.9516C21.2108 45.0176 20.1009 46.9641 20.9672 48.699C22.1502 51.0683 23.3778 53.4156 24.5846 55.7731C26.3897 59.299 28.2095 62.8176 29.9914 66.3549C31.1197 68.5949 32.8943 69.6991 35.4263 69.678C38.8962 69.649 42.3665 69.6869 45.8365 69.6669C51.8951 69.632 56.5511 65.1827 56.8484 59.1694C56.852 59.0992 56.8516 59.0288 56.8558 58.9586C56.9038 58.1629 57.387 57.6561 58.0648 57.6894C58.725 57.7221 59.1615 58.2275 59.1667 58.988C59.1785 60.698 58.853 62.3509 58.1542 63.9076C56.1376 68.401 52.6791 71.0676 47.7782 71.8708C47.6456 71.8924 47.52 71.9561 47.3911 72.0001H33.9351Z" fill="white"/>
<path d="M14.3964 32.284C15.657 31.692 16.2742 31.7451 16.6471 32.4529C17.0101 33.1415 16.7238 33.6542 15.5366 34.3754C16.3557 36.874 16.1496 39.2916 14.6522 41.5222C13.5673 43.1384 12.0662 44.2249 10.1789 44.7694C6.48242 45.8359 2.49349 44.0564 0.795102 40.583C-0.895925 37.1249 0.185539 32.9425 3.32555 30.6814C6.18812 28.6199 11.0333 28.3303 14.3964 32.284ZM2.34436 37.1416C2.34535 40.2441 4.89917 42.761 8.03423 42.7493C11.1261 42.7379 13.6643 40.2209 13.6752 37.1554C13.6863 34.0598 11.1313 31.5121 8.01227 31.5086C4.88614 31.5051 2.34337 34.0322 2.34436 37.1416Z" fill="white"/>
<path d="M20.1808 31.248C20.1621 31.9077 19.6023 32.4227 18.93 32.3986C18.2554 32.3744 17.7502 31.8261 17.7838 31.1547C17.8157 30.5162 18.34 30.0299 18.9889 30.0367C19.6591 30.0436 20.1994 30.5927 20.1808 31.248Z" fill="white"/>
<path d="M58.0694 54.2982C58.71 54.3298 59.1925 54.8603 59.1687 55.5069C59.1452 56.1452 58.6042 56.6442 57.9683 56.6139C57.3324 56.5836 56.8429 56.0461 56.8681 55.4054C56.8931 54.7688 57.4373 54.2672 58.0694 54.2982Z" fill="white"/>
</svg>
