<svg width="96" height="83" viewBox="0 0 96 83" fill="none" xmlns="http://www.w3.org/2000/svg">
<path d="M96 3.4726C95.5063 5.79926 94.9871 8.11969 94.5233 10.4495C91.4356 25.9747 88.3583 41.5046 85.2789 57.0329C83.8874 64.0508 82.4844 71.0671 81.1155 78.0915C80.3631 81.9515 75.7231 83.7943 72.6011 81.4092C61.2674 72.7498 49.9458 64.0744 38.6205 55.4022C38.4753 55.2922 38.3432 55.1635 38.1289 54.9748C38.8587 54.3152 39.5562 53.6788 40.2585 53.0471C53.628 41.0114 67.0012 28.9786 80.36 16.9271C80.9266 16.4164 81.4563 15.8163 81.8412 15.1628C82.3262 14.3397 81.8821 13.6938 80.9249 13.8902C80.0703 14.0645 79.2076 14.4257 78.4663 14.8925C72.0123 18.9505 65.5856 23.054 59.1496 27.1407C48.0832 34.1723 37.0126 41.1951 25.9595 48.2443C25.313 48.6561 24.7825 48.7015 24.0748 48.461C17.657 46.2745 11.2275 44.1221 4.80098 41.96C2.96825 41.3442 1.47752 40.3279 0.710938 38.4645V37.1622C1.50835 35.6526 2.84885 34.815 4.37738 34.2164C31.6976 23.4988 59.0156 12.7746 86.3417 2.07111C88.1237 1.3703 89.9305 0.69037 91.7826 0.228212C94.0022 -0.324889 95.1552 0.306703 96 2.17169V3.4726Z" fill="white"/>
</svg>
