<svg width="44" height="57" viewBox="0 0 44 57" fill="none" xmlns="http://www.w3.org/2000/svg">
<path fill-rule="evenodd" clip-rule="evenodd" d="M27.8624 3.05207C27.8624 4.73768 26.4764 6.10414 24.7666 6.10414C23.3562 6.10414 22.1661 5.17427 21.7925 3.90245H16.7646C16.4867 4.30997 16.0147 4.5781 15.4791 4.5781C14.9436 4.5781 14.4716 4.30997 14.1937 3.90245H4.47823C4.13583 4.74558 3.29939 5.34111 2.32187 5.34111C1.03954 5.34111 0 4.31628 0 3.05207C0 1.78786 1.03954 0.763017 2.32187 0.763017C3.36564 0.763017 4.24856 1.44201 4.54094 2.37642H14.0907C14.3437 1.87254 14.8704 1.52603 15.4791 1.52603C16.0879 1.52603 16.6146 1.87254 16.8674 2.37642H21.7469C22.0588 1.01594 23.2924 0 24.7666 0C26.4764 0 27.8624 1.36646 27.8624 3.05207ZM1.54791 46.5441C2.12085 46.5441 2.6211 46.2371 2.88874 45.781H7.83707C8.18074 47.0974 9.39292 48.07 10.8353 48.07C12.2779 48.07 13.49 47.0974 13.8337 45.781H28.0695C28.3371 46.2371 28.8374 46.5441 29.4103 46.5441C29.9832 46.5441 30.4835 46.2371 30.7512 45.781H35.6996C36.0432 47.0974 37.2553 48.07 38.6978 48.07C40.4075 48.07 41.7936 46.7035 41.7936 45.018C41.7936 43.3323 40.4075 41.966 38.6978 41.966C37.2553 41.966 36.0432 42.9386 35.6996 44.255H30.7512C30.4835 43.7989 29.9832 43.4919 29.4103 43.4919C28.8374 43.4919 28.3371 43.7989 28.0695 44.255H13.8337C13.49 42.9386 12.2779 41.966 10.8353 41.966C9.39292 41.966 8.18074 42.9386 7.83707 44.255H2.88874C2.6211 43.7989 2.12085 43.4919 1.54791 43.4919C0.693026 43.4919 0 44.1752 0 45.018C0 45.8608 0.693026 46.5441 1.54791 46.5441ZM6.8336 12.2083C6.51484 13.0974 5.65473 13.7343 4.6438 13.7343C3.36147 13.7343 2.32194 12.7094 2.32194 11.4453C2.32194 10.1811 3.36147 9.15622 4.6438 9.15622C5.65473 9.15622 6.51484 9.79319 6.8336 10.6822H11.8165C12.0842 10.2261 12.5844 9.91923 13.1573 9.91923C13.7303 9.91923 14.2305 10.2261 14.4981 10.6822H18.7821C19.0497 10.2261 19.55 9.91923 20.123 9.91923C20.6959 9.91923 21.1962 10.2261 21.4637 10.6822H28.734C29.0777 9.36586 30.2897 8.39319 31.7323 8.39319C33.4421 8.39319 34.828 9.75965 34.828 11.4453C34.828 13.1309 33.4421 14.4973 31.7323 14.4973C30.2897 14.4973 29.0777 13.5247 28.734 12.2083H21.4637C21.1962 12.6644 20.6959 12.9713 20.123 12.9713C19.55 12.9713 19.0497 12.6644 18.7821 12.2083H14.4981C14.2305 12.6644 13.7303 12.9713 13.1573 12.9713C12.5844 12.9713 12.0842 12.6644 11.8165 12.2083H6.8336ZM23.0117 20.6014H26.4466C26.7654 21.4904 27.6254 22.1274 28.6363 22.1274C29.9188 22.1274 30.9583 21.1026 30.9583 19.8384C30.9583 18.5742 29.9188 17.5493 28.6363 17.5493C27.6254 17.5493 26.7654 18.1863 26.4466 19.0754H23.0117C22.744 18.6192 22.2437 18.3124 21.6708 18.3124C21.0979 18.3124 20.5976 18.6192 20.3299 19.0754H6.09418C5.7505 17.759 4.53836 16.7863 3.09583 16.7863C1.38605 16.7863 0 18.1528 0 19.8384C0 21.524 1.38605 22.8905 3.09583 22.8905C4.53836 22.8905 5.7505 21.9177 6.09418 20.6014H20.3299C20.5976 21.0576 21.0979 21.3644 21.6708 21.3644C22.2437 21.3644 22.744 21.0576 23.0117 20.6014ZM4.82589 38.9138C5.83689 38.9138 6.69688 38.2769 7.01564 37.3878H27.3682C27.7119 38.7042 28.9239 39.6768 30.3665 39.6768C31.809 39.6768 33.0211 38.7042 33.3647 37.3878H39.0121C39.3308 38.2769 40.1908 38.9138 41.2018 38.9138C42.4842 38.9138 43.5237 37.889 43.5237 36.6248C43.5237 35.3605 42.4842 34.3357 41.2018 34.3357C40.1908 34.3357 39.3308 34.9727 39.0121 35.8618H33.3647C33.0211 34.5454 31.809 33.5727 30.3665 33.5727C28.9239 33.5727 27.7119 34.5454 27.3682 35.8618H7.01564C6.69688 34.9727 5.83689 34.3357 4.82589 34.3357C3.54355 34.3357 2.50403 35.3605 2.50403 36.6248C2.50403 37.889 3.54355 38.9138 4.82589 38.9138ZM6.55591 29.7576C7.12882 29.7576 7.62912 29.4507 7.89679 28.9947H14.5025C14.7702 29.4507 15.2705 29.7576 15.8434 29.7576C16.4163 29.7576 16.9166 29.4507 17.1843 28.9947H22.1326C22.4763 30.311 23.6884 31.2837 25.1309 31.2837C26.5735 31.2837 27.7855 30.311 28.1292 28.9947H35.3245C35.6432 29.8837 36.5032 30.5206 37.5142 30.5206C38.7965 30.5206 39.836 29.4958 39.836 28.2316C39.836 26.9673 38.7965 25.9425 37.5142 25.9425C36.5032 25.9425 35.6432 26.5795 35.3245 27.4686H28.1292C27.7855 26.1522 26.5735 25.1795 25.1309 25.1795C23.6884 25.1795 22.4763 26.1522 22.1326 27.4686H17.1843C16.9166 27.0124 16.4163 26.7056 15.8434 26.7056C15.2705 26.7056 14.7702 27.0124 14.5025 27.4686H7.89679C7.62912 27.0124 7.12882 26.7056 6.55591 26.7056C5.70105 26.7056 5.00808 27.3887 5.00808 28.2316C5.00808 29.0744 5.70105 29.7576 6.55591 29.7576ZM2.88881 51.8851H7.87175C8.1905 50.996 9.05049 50.359 10.0615 50.359C11.0725 50.359 11.9324 50.996 12.2512 51.8851H17.1045C17.4631 50.1438 19.0247 48.8331 20.8969 48.8331C22.769 48.8331 24.3308 50.1438 24.6892 51.8851H30.3165C30.6353 50.996 31.4953 50.359 32.5062 50.359C33.7885 50.359 34.828 51.384 34.828 52.6481C34.828 53.9123 33.7885 54.9371 32.5062 54.9371C31.4953 54.9371 30.6353 54.3002 30.3165 53.4112H24.6892C24.3308 55.1525 22.769 56.4632 20.8969 56.4632C19.0247 56.4632 17.4631 55.1525 17.1045 53.4112H12.2512C11.9324 54.3002 11.0725 54.9371 10.0615 54.9371C9.05049 54.9371 8.1905 54.3002 7.87175 53.4112H2.88881C2.62116 53.8672 2.12093 54.1742 1.54798 54.1742C0.693089 54.1742 6.29425e-05 53.4909 6.29425e-05 52.6481C6.29425e-05 51.8054 0.693089 51.1221 1.54798 51.1221C2.12093 51.1221 2.62116 51.429 2.88881 51.8851Z" fill="#7252DC"/>
</svg>
