<svg width="110" height="113" viewBox="0 0 110 113" fill="none" xmlns="http://www.w3.org/2000/svg">
<g filter="url(#filter0_d_6_1066)">
<path d="M3 20C3 8.95431 11.9543 0 23 0H87C98.0457 0 107 8.95431 107 20V84C107 95.0457 98.0457 104 87 104H23C11.9543 104 3 95.0457 3 84V20Z" fill="white"/>
<path d="M3.5 20C3.5 9.23045 12.2304 0.5 23 0.5H87C97.7695 0.5 106.5 9.23045 106.5 20V84C106.5 94.7695 97.7695 103.5 87 103.5H23C12.2304 103.5 3.5 94.7695 3.5 84V20Z" stroke="#FAFAFC"/>
</g>
<path d="M55.733 85.517C53.5663 85.517 51.6151 85.0862 49.8793 84.2244C48.1435 83.3627 46.7524 82.1809 45.706 80.679C44.6596 79.1771 44.0871 77.4659 43.9886 75.5455H48.4205C48.5928 77.2566 49.3684 78.6723 50.7472 79.7926C52.1383 80.9006 53.8002 81.4545 55.733 81.4545C57.2841 81.4545 58.6629 81.0914 59.8693 80.3651C61.0881 79.6387 62.0421 78.6416 62.7315 77.3736C63.4332 76.0933 63.7841 74.6468 63.7841 73.0341C63.7841 71.3845 63.4209 69.9134 62.6946 68.6207C61.9806 67.3158 60.9957 66.2879 59.7401 65.5369C58.4844 64.786 57.0502 64.4044 55.4375 64.392C54.2803 64.3797 53.0923 64.5582 51.8736 64.9276C50.6548 65.2846 49.6515 65.7462 48.8636 66.3125L44.5795 65.7955L46.8693 47.1818H66.517V51.2443H50.7102L49.3807 62.3977H49.6023C50.3778 61.7822 51.3504 61.2713 52.5199 60.8651C53.6894 60.4588 54.9081 60.2557 56.1761 60.2557C58.4905 60.2557 60.5526 60.8097 62.3622 61.9176C64.1842 63.0133 65.6122 64.5152 66.6463 66.4233C67.6927 68.3314 68.2159 70.5104 68.2159 72.9602C68.2159 75.3731 67.6742 77.5275 66.5909 79.4233C65.5199 81.3068 64.0426 82.7964 62.1591 83.892C60.2756 84.9754 58.1335 85.517 55.733 85.517Z" fill="#333333"/>
<path d="M38.5114 29V27.3807H38.9375C39.5436 27.3807 40.0147 27.1866 40.3509 26.7983C40.687 26.41 40.9285 25.7827 41.0753 24.9162C41.2268 24.0497 41.3286 22.9015 41.3807 21.4716L41.6364 14.4545H50.5V29H48.7386V16.017H43.3125L43.0852 21.8125C43.0284 23.3371 42.8887 24.6345 42.6662 25.7045C42.4437 26.7746 42.053 27.5914 41.4943 28.1548C40.9356 28.7183 40.1212 29 39.0511 29H38.5114ZM58.3658 29.2273C57.3146 29.2273 56.4079 28.9953 55.6456 28.5312C54.888 28.0625 54.3033 27.4091 53.8913 26.571C53.4841 25.7282 53.2805 24.7481 53.2805 23.6307C53.2805 22.5133 53.4841 21.5284 53.8913 20.6761C54.3033 19.8191 54.8762 19.1515 55.6101 18.6733C56.3487 18.1903 57.2105 17.9489 58.1953 17.9489C58.7635 17.9489 59.3246 18.0436 59.8786 18.233C60.4325 18.4223 60.9368 18.7301 61.3913 19.1562C61.8459 19.5777 62.2081 20.1364 62.478 20.8324C62.7479 21.5284 62.8828 22.3854 62.8828 23.4034V24.1136H54.4737V22.6648H61.1783C61.1783 22.0492 61.0552 21.5 60.8089 21.017C60.5675 20.5341 60.2218 20.1529 59.772 19.8736C59.3269 19.5942 58.8014 19.4545 58.1953 19.4545C57.5277 19.4545 56.95 19.6203 56.4624 19.9517C55.9794 20.2784 55.6077 20.7045 55.3473 21.2301C55.0869 21.7557 54.9567 22.3191 54.9567 22.9205V23.8864C54.9567 24.7102 55.0987 25.4086 55.3828 25.9815C55.6716 26.5497 56.0717 26.983 56.5831 27.2812C57.0945 27.5748 57.6887 27.7216 58.3658 27.7216C58.8061 27.7216 59.2038 27.66 59.5589 27.5369C59.9188 27.4091 60.2289 27.2197 60.4893 26.9688C60.7498 26.7131 60.951 26.3958 61.093 26.017L62.7124 26.4716C62.5419 27.0208 62.2554 27.5038 61.853 27.9205C61.4505 28.3324 60.9534 28.6544 60.3615 28.8864C59.7696 29.1136 59.1044 29.2273 58.3658 29.2273ZM64.4169 19.6534V18.0909H73.2805V19.6534H69.701V29H68.0249V19.6534H64.4169Z" fill="#F53845"/>
<defs>
<filter id="filter0_d_6_1066" x="0" y="0" width="110" height="113" filterUnits="userSpaceOnUse" color-interpolation-filters="sRGB">
<feFlood flood-opacity="0" result="BackgroundImageFix"/>
<feColorMatrix in="SourceAlpha" type="matrix" values="0 0 0 0 0 0 0 0 0 0 0 0 0 0 0 0 0 0 127 0" result="hardAlpha"/>
<feOffset dy="6"/>
<feGaussianBlur stdDeviation="1.5"/>
<feComposite in2="hardAlpha" operator="out"/>
<feColorMatrix type="matrix" values="0 0 0 0 0.435294 0 0 0 0 0.435294 0 0 0 0 0.435294 0 0 0 0.160784 0"/>
<feBlend mode="normal" in2="BackgroundImageFix" result="effect1_dropShadow_6_1066"/>
<feBlend mode="normal" in="SourceGraphic" in2="effect1_dropShadow_6_1066" result="shape"/>
</filter>
</defs>
</svg>
