<svg width="262" height="162" viewBox="0 0 262 162" fill="none" xmlns="http://www.w3.org/2000/svg">
<path opacity="0.997242" d="M10 64C10 61.2386 12.2386 59 15 59H58C60.7614 59 63 61.2386 63 64V72C63 74.7614 60.7614 77 58 77H15C12.2386 77 10 74.7614 10 72V64Z" fill="#7252DC"/>
<path d="M10 93C10 90.2386 12.2386 88 15 88H67C69.7614 88 72 90.2386 72 93V101C72 103.761 69.7614 106 67 106H15C12.2386 106 10 103.761 10 101V93Z" fill="#7252DC"/>
<path d="M10 121C10 118.239 12.2386 116 15 116H60C62.7614 116 65 118.239 65 121V129C65 131.761 62.7614 134 60 134H15C12.2386 134 10 131.761 10 129V121Z" fill="#7252DC"/>
<path d="M10 149C10 146.239 12.2386 144 15 144H69C71.7614 144 74 146.239 74 149V157C74 159.761 71.7614 162 69 162H15C12.2386 162 10 159.761 10 157V149Z" fill="#7252DC"/>
<path d="M1.79119 19.0739C1.56345 19.0739 1.36802 18.9923 1.2049 18.8292C1.04179 18.6661 0.960227 18.4706 0.960227 18.2429C0.960227 18.0152 1.04179 17.8197 1.2049 17.6566C1.36802 17.4935 1.56345 17.4119 1.79119 17.4119C2.01894 17.4119 2.21437 17.4935 2.37749 17.6566C2.5406 17.8197 2.62216 18.0152 2.62216 18.2429C2.62216 18.3937 2.58369 18.5322 2.50675 18.6584C2.43288 18.7846 2.33286 18.8861 2.20668 18.9631C2.08357 19.0369 1.94508 19.0739 1.79119 19.0739ZM7.45792 19.1477C6.79315 19.1477 6.2207 18.9908 5.74059 18.6768C5.26048 18.3629 4.89116 17.9305 4.63264 17.3796C4.37411 16.8287 4.24485 16.1993 4.24485 15.4915C4.24485 14.7713 4.37719 14.1358 4.64187 13.5849C4.90962 13.0309 5.28202 12.5985 5.75906 12.2876C6.23917 11.9737 6.7993 11.8168 7.43945 11.8168C7.93803 11.8168 8.38737 11.9091 8.78746 12.0938C9.18756 12.2784 9.51533 12.5369 9.77077 12.8693C10.0262 13.2017 10.1847 13.5895 10.2463 14.0327H9.15678C9.07369 13.7095 8.88903 13.4233 8.60281 13.174C8.31966 12.9216 7.93803 12.7955 7.45792 12.7955C7.0332 12.7955 6.66081 12.9062 6.34073 13.1278C6.02373 13.3464 5.77598 13.6557 5.59748 14.0558C5.42205 14.4528 5.33434 14.919 5.33434 15.4545C5.33434 16.0024 5.42051 16.4794 5.59286 16.8857C5.76829 17.2919 6.0145 17.6074 6.3315 17.832C6.65157 18.0567 7.02705 18.169 7.45792 18.169C7.74106 18.169 7.99805 18.1198 8.22887 18.0213C8.45969 17.9228 8.65513 17.7812 8.81516 17.5966C8.9752 17.4119 9.08907 17.1903 9.15678 16.9318H10.2463C10.1847 17.3504 10.0324 17.7274 9.78924 18.0629C9.54918 18.3952 9.23065 18.6599 8.83363 18.8569C8.43969 19.0508 7.98112 19.1477 7.45792 19.1477ZM14.7196 19.1477C14.0795 19.1477 13.5178 18.9954 13.0346 18.6907C12.5545 18.386 12.179 17.9598 11.9082 17.4119C11.6404 16.8641 11.5066 16.224 11.5066 15.4915C11.5066 14.7528 11.6404 14.1081 11.9082 13.5572C12.179 13.0063 12.5545 12.5785 13.0346 12.2738C13.5178 11.9691 14.0795 11.8168 14.7196 11.8168C15.3598 11.8168 15.9199 11.9691 16.4 12.2738C16.8832 12.5785 17.2587 13.0063 17.5265 13.5572C17.7973 14.1081 17.9327 14.7528 17.9327 15.4915C17.9327 16.224 17.7973 16.8641 17.5265 17.4119C17.2587 17.9598 16.8832 18.386 16.4 18.6907C15.9199 18.9954 15.3598 19.1477 14.7196 19.1477ZM14.7196 18.169C15.2059 18.169 15.606 18.0444 15.9199 17.7951C16.2338 17.5458 16.4662 17.218 16.617 16.8118C16.7678 16.4055 16.8432 15.9654 16.8432 15.4915C16.8432 15.0175 16.7678 14.5759 16.617 14.1665C16.4662 13.7572 16.2338 13.4264 15.9199 13.174C15.606 12.9216 15.2059 12.7955 14.7196 12.7955C14.2334 12.7955 13.8333 12.9216 13.5194 13.174C13.2054 13.4264 12.9731 13.7572 12.8223 14.1665C12.6715 14.5759 12.5961 15.0175 12.5961 15.4915C12.5961 15.9654 12.6715 16.4055 12.8223 16.8118C12.9731 17.218 13.2054 17.5458 13.5194 17.7951C13.8333 18.0444 14.2334 18.169 14.7196 18.169ZM22.2733 19.1477C21.6824 19.1477 21.1608 18.9985 20.7084 18.6999C20.2559 18.3983 19.902 17.9736 19.6466 17.4258C19.3911 16.8749 19.2634 16.224 19.2634 15.473C19.2634 14.7282 19.3911 14.0819 19.6466 13.5341C19.902 12.9863 20.2575 12.5631 20.713 12.2646C21.1685 11.966 21.6948 11.8168 22.2918 11.8168C22.7535 11.8168 23.1182 11.8937 23.3859 12.0476C23.6568 12.1984 23.863 12.3707 24.0045 12.5646C24.1492 12.7554 24.2615 12.9124 24.3415 13.0355H24.4339V9.54545H25.5233V19H24.4708V17.9105H24.3415C24.2615 18.0398 24.1476 18.2029 23.9999 18.3999C23.8522 18.5937 23.6414 18.7676 23.3675 18.9215C23.0935 19.0723 22.7288 19.1477 22.2733 19.1477ZM22.4211 18.169C22.8581 18.169 23.2274 18.0552 23.529 17.8274C23.8306 17.5966 24.0599 17.2781 24.2169 16.8718C24.3738 16.4625 24.4523 15.9901 24.4523 15.4545C24.4523 14.9252 24.3754 14.462 24.2215 14.065C24.0676 13.6649 23.8399 13.354 23.5383 13.1325C23.2367 12.9078 22.8643 12.7955 22.4211 12.7955C21.9594 12.7955 21.5747 12.9139 21.267 13.1509C20.9623 13.3848 20.733 13.7034 20.5791 14.1065C20.4283 14.5066 20.3529 14.956 20.3529 15.4545C20.3529 15.9593 20.4298 16.4179 20.5837 16.8303C20.7407 17.2396 20.9715 17.5658 21.2762 17.8089C21.584 18.049 21.9656 18.169 22.4211 18.169ZM30.643 19.1477C29.9598 19.1477 29.3704 18.9969 28.8749 18.6953C28.3825 18.3906 28.0024 17.9659 27.7346 17.4212C27.47 16.8733 27.3376 16.2363 27.3376 15.5099C27.3376 14.7836 27.47 14.1435 27.7346 13.5895C28.0024 13.0324 28.3748 12.5985 28.8518 12.2876C29.3319 11.9737 29.8921 11.8168 30.5322 11.8168C30.9015 11.8168 31.2662 11.8783 31.6263 12.0014C31.9864 12.1245 32.3142 12.3246 32.6096 12.6016C32.9051 12.8755 33.1405 13.2386 33.316 13.6911C33.4914 14.1435 33.5791 14.7005 33.5791 15.3622V15.8239H28.1132V14.8821H32.4711C32.4711 14.482 32.3911 14.125 32.2311 13.8111C32.0741 13.4972 31.8495 13.2494 31.5571 13.0678C31.2678 12.8862 30.9262 12.7955 30.5322 12.7955C30.0983 12.7955 29.7228 12.9032 29.4058 13.1186C29.0919 13.331 28.8503 13.608 28.681 13.9496C28.5117 14.2912 28.4271 14.6574 28.4271 15.0483V15.6761C28.4271 16.2116 28.5194 16.6656 28.7041 17.038C28.8918 17.4073 29.1519 17.6889 29.4843 17.8828C29.8167 18.0736 30.2029 18.169 30.643 18.169C30.9292 18.169 31.1878 18.129 31.4186 18.049C31.6525 17.9659 31.8541 17.8428 32.0233 17.6797C32.1926 17.5135 32.3234 17.3073 32.4157 17.0611L33.4683 17.3565C33.3575 17.7135 33.1713 18.0275 32.9097 18.2983C32.6481 18.5661 32.325 18.7753 31.9403 18.9261C31.5555 19.0739 31.1231 19.1477 30.643 19.1477ZM4.13636 43.0298V42.4574C4.65033 42.4574 5.00888 42.3497 5.212 42.1342C5.41821 41.9188 5.52131 41.5587 5.52131 41.054V39.5767C5.52131 39.152 5.56132 38.7842 5.64134 38.4734C5.72443 38.1625 5.85831 37.9055 6.04297 37.7024C6.22763 37.4993 6.47384 37.3485 6.78161 37.25C7.08937 37.1515 7.46946 37.1023 7.92188 37.1023V38.0071C7.56487 38.0071 7.28326 38.0625 7.07706 38.1733C6.87393 38.2841 6.72929 38.4564 6.64311 38.6903C6.56001 38.9212 6.51847 39.2166 6.51847 39.5767V41.4233C6.51847 41.6634 6.48615 41.8819 6.42152 42.0788C6.35997 42.2758 6.24455 42.4451 6.07528 42.5866C5.90601 42.7282 5.66442 42.8375 5.3505 42.9144C5.03965 42.9914 4.63494 43.0298 4.13636 43.0298ZM7.92188 48.9205C7.46946 48.9205 7.08937 48.8712 6.78161 48.7727C6.47384 48.6742 6.22763 48.5234 6.04297 48.3203C5.85831 48.1172 5.72443 47.8602 5.64134 47.5494C5.56132 47.2385 5.52131 46.8707 5.52131 46.446V44.9688C5.52131 44.464 5.41821 44.1039 5.212 43.8885C5.00888 43.6731 4.65033 43.5653 4.13636 43.5653V42.9929C4.63494 42.9929 5.03965 43.0314 5.3505 43.1083C5.66442 43.1853 5.90601 43.2945 6.07528 43.4361C6.24455 43.5777 6.35997 43.7469 6.42152 43.9439C6.48615 44.1409 6.51847 44.3594 6.51847 44.5994V46.446C6.51847 46.8061 6.56001 47.1016 6.64311 47.3324C6.72929 47.5632 6.87393 47.734 7.07706 47.8448C7.28326 47.9587 7.56487 48.0156 7.92188 48.0156V48.9205ZM4.13636 43.5653V42.4574H5.22585V43.5653H4.13636ZM74.4061 65.5455V75H73.2612V66.7457H73.2058L70.8975 68.2784V67.1151L73.2612 65.5455H74.4061ZM77.1436 77.6591V67.9091H78.1962V69.0355H78.3255C78.4055 68.9124 78.5163 68.7554 78.6578 68.5646C78.8025 68.3707 79.0087 68.1984 79.2765 68.0476C79.5473 67.8937 79.9135 67.8168 80.3752 67.8168C80.9722 67.8168 81.4985 67.966 81.954 68.2646C82.4095 68.5631 82.765 68.9863 83.0204 69.5341C83.2759 70.0819 83.4036 70.7282 83.4036 71.473C83.4036 72.224 83.2759 72.8749 83.0204 73.4258C82.765 73.9736 82.411 74.3983 81.9586 74.6999C81.5062 74.9985 80.9846 75.1477 80.3936 75.1477C79.9382 75.1477 79.5734 75.0723 79.2995 74.9215C79.0256 74.7676 78.8148 74.5937 78.6671 74.3999C78.5194 74.2029 78.4055 74.0398 78.3255 73.9105H78.2331V77.6591H77.1436ZM78.2147 71.4545C78.2147 71.9901 78.2931 72.4625 78.4501 72.8718C78.6071 73.2781 78.8364 73.5966 79.138 73.8274C79.4396 74.0552 79.8089 74.169 80.2459 74.169C80.7014 74.169 81.0815 74.049 81.3862 73.8089C81.694 73.5658 81.9248 73.2396 82.0787 72.8303C82.2356 72.4179 82.3141 71.9593 82.3141 71.4545C82.3141 70.956 82.2372 70.5066 82.0833 70.1065C81.9325 69.7034 81.7032 69.3848 81.3954 69.1509C81.0907 68.9139 80.7076 68.7955 80.2459 68.7955C79.8027 68.7955 79.4303 68.9078 79.1287 69.1325C78.8271 69.354 78.5994 69.6649 78.4455 70.065C78.2916 70.462 78.2147 70.9252 78.2147 71.4545ZM85.586 67.9091L87.2849 70.8082L88.9838 67.9091H90.2394L87.9497 71.4545L90.2394 75H88.9838L87.2849 72.2486L85.586 75H84.3303L86.5832 71.4545L84.3303 67.9091H85.586ZM100.473 69.4972L99.4943 69.7741C99.4328 69.611 99.342 69.4525 99.2219 69.2987C99.105 69.1417 98.945 69.0124 98.7418 68.9109C98.5387 68.8093 98.2786 68.7585 97.9616 68.7585C97.5277 68.7585 97.1661 68.8585 96.8768 69.0586C96.5906 69.2556 96.4474 69.5064 96.4474 69.8111C96.4474 70.0819 96.5459 70.2958 96.7429 70.4528C96.9399 70.6097 97.2476 70.7405 97.6662 70.8452L98.7188 71.1037C99.3527 71.2576 99.8252 71.493 100.136 71.81C100.447 72.1239 100.602 72.5286 100.602 73.0241C100.602 73.4304 100.485 73.7936 100.251 74.1136C100.021 74.4337 99.6974 74.6861 99.282 74.8707C98.8665 75.0554 98.3833 75.1477 97.8324 75.1477C97.1091 75.1477 96.5105 74.9908 96.0366 74.6768C95.5626 74.3629 95.2625 73.9044 95.1364 73.3011L96.1705 73.0426C96.2689 73.4242 96.4551 73.7105 96.729 73.9013C97.006 74.0921 97.3677 74.1875 97.8139 74.1875C98.3217 74.1875 98.7249 74.0798 99.0234 73.8643C99.325 73.6458 99.4759 73.3842 99.4759 73.0795C99.4759 72.8333 99.3897 72.6271 99.2173 72.4609C99.045 72.2917 98.7803 72.1655 98.4233 72.0824L97.2415 71.8054C96.5921 71.6515 96.1151 71.413 95.8104 71.0898C95.5088 70.7636 95.358 70.3558 95.358 69.8665C95.358 69.4664 95.4703 69.1125 95.695 68.8047C95.9227 68.4969 96.232 68.2553 96.6229 68.0799C97.0168 67.9045 97.4631 67.8168 97.9616 67.8168C98.6634 67.8168 99.2143 67.9706 99.6143 68.2784C100.018 68.5862 100.304 68.9924 100.473 69.4972ZM105.123 75.1477C104.483 75.1477 103.921 74.9954 103.438 74.6907C102.958 74.386 102.582 73.9598 102.312 73.4119C102.044 72.8641 101.91 72.224 101.91 71.4915C101.91 70.7528 102.044 70.1081 102.312 69.5572C102.582 69.0063 102.958 68.5785 103.438 68.2738C103.921 67.9691 104.483 67.8168 105.123 67.8168C105.763 67.8168 106.323 67.9691 106.803 68.2738C107.287 68.5785 107.662 69.0063 107.93 69.5572C108.201 70.1081 108.336 70.7528 108.336 71.4915C108.336 72.224 108.201 72.8641 107.93 73.4119C107.662 73.9598 107.287 74.386 106.803 74.6907C106.323 74.9954 105.763 75.1477 105.123 75.1477ZM105.123 74.169C105.609 74.169 106.009 74.0444 106.323 73.7951C106.637 73.5458 106.87 73.218 107.02 72.8118C107.171 72.4055 107.247 71.9654 107.247 71.4915C107.247 71.0175 107.171 70.5759 107.02 70.1665C106.87 69.7572 106.637 69.4264 106.323 69.174C106.009 68.9216 105.609 68.7955 105.123 68.7955C104.637 68.7955 104.237 68.9216 103.923 69.174C103.609 69.4264 103.376 69.7572 103.226 70.1665C103.075 70.5759 102.999 71.0175 102.999 71.4915C102.999 71.9654 103.075 72.4055 103.226 72.8118C103.376 73.218 103.609 73.5458 103.923 73.7951C104.237 74.0444 104.637 74.169 105.123 74.169ZM111.089 65.5455V75H109.999V65.5455H111.089ZM113.084 75V67.9091H114.174V75H113.084ZM113.638 66.7273C113.426 66.7273 113.243 66.6549 113.089 66.5103C112.938 66.3656 112.862 66.1918 112.862 65.9886C112.862 65.7855 112.938 65.6116 113.089 65.467C113.243 65.3223 113.426 65.25 113.638 65.25C113.85 65.25 114.032 65.3223 114.183 65.467C114.337 65.6116 114.414 65.7855 114.414 65.9886C114.414 66.1918 114.337 66.3656 114.183 66.5103C114.032 66.6549 113.85 66.7273 113.638 66.7273ZM118.847 75.1477C118.256 75.1477 117.734 74.9985 117.282 74.6999C116.829 74.3983 116.475 73.9736 116.22 73.4258C115.964 72.8749 115.837 72.224 115.837 71.473C115.837 70.7282 115.964 70.0819 116.22 69.5341C116.475 68.9863 116.831 68.5631 117.286 68.2646C117.742 67.966 118.268 67.8168 118.865 67.8168C119.327 67.8168 119.691 67.8937 119.959 68.0476C120.23 68.1984 120.436 68.3707 120.578 68.5646C120.722 68.7554 120.835 68.9124 120.915 69.0355H121.007V65.5455H122.097V75H121.044V73.9105H120.915C120.835 74.0398 120.721 74.2029 120.573 74.3999C120.425 74.5937 120.215 74.7676 119.941 74.9215C119.667 75.0723 119.302 75.1477 118.847 75.1477ZM118.994 74.169C119.431 74.169 119.801 74.0552 120.102 73.8274C120.404 73.5966 120.633 73.2781 120.79 72.8718C120.947 72.4625 121.026 71.9901 121.026 71.4545C121.026 70.9252 120.949 70.462 120.795 70.065C120.641 69.6649 120.413 69.354 120.112 69.1325C119.81 68.9078 119.438 68.7955 118.994 68.7955C118.533 68.7955 118.148 68.9139 117.84 69.1509C117.536 69.3848 117.306 69.7034 117.152 70.1065C117.002 70.5066 116.926 70.956 116.926 71.4545C116.926 71.9593 117.003 72.4179 117.157 72.8303C117.314 73.2396 117.545 73.5658 117.849 73.8089C118.157 74.049 118.539 74.169 118.994 74.169ZM131.426 75L132.978 65.5455H133.901L132.35 75H131.426ZM127.124 72.3778L127.272 71.4545H134.326L134.178 72.3778H127.124ZM128.103 75L129.654 65.5455H130.577L129.026 75H128.103ZM127.678 69.0909L127.826 68.1676H134.88L134.732 69.0909H127.678ZM136.248 75V65.5455H141.954V66.5611H137.393V69.7557H141.659V70.7713H137.393V73.9844H142.028V75H136.248ZM146.936 75.1293C146.24 75.1293 145.648 74.94 145.158 74.5614C144.669 74.1798 144.295 73.6274 144.036 72.9041C143.778 72.1778 143.649 71.3007 143.649 70.2727C143.649 69.2509 143.778 68.3784 144.036 67.6552C144.298 66.9289 144.673 66.3749 145.163 65.9933C145.655 65.6085 146.246 65.4162 146.936 65.4162C147.625 65.4162 148.214 65.6085 148.704 65.9933C149.196 66.3749 149.572 66.9289 149.83 67.6552C150.092 68.3784 150.222 69.2509 150.222 70.2727C150.222 71.3007 150.093 72.1778 149.835 72.9041C149.576 73.6274 149.202 74.1798 148.713 74.5614C148.224 74.94 147.631 75.1293 146.936 75.1293ZM146.936 74.1136C147.625 74.1136 148.16 73.7812 148.542 73.1165C148.924 72.4517 149.115 71.5038 149.115 70.2727C149.115 69.4541 149.027 68.757 148.851 68.1815C148.679 67.6059 148.43 67.1674 148.104 66.8658C147.78 66.5642 147.391 66.4134 146.936 66.4134C146.252 66.4134 145.718 66.7504 145.334 67.4244C144.949 68.0953 144.757 69.0447 144.757 70.2727C144.757 71.0914 144.843 71.7869 145.015 72.3594C145.187 72.9318 145.435 73.3673 145.758 73.6658C146.085 73.9644 146.477 74.1136 146.936 74.1136ZM152.143 75V65.5455H157.849V66.5611H153.288V69.7557H157.553V70.7713H153.288V73.9844H157.923V75H152.143ZM162.83 75.1293C162.135 75.1293 161.542 74.94 161.053 74.5614C160.563 74.1798 160.189 73.6274 159.931 72.9041C159.672 72.1778 159.543 71.3007 159.543 70.2727C159.543 69.2509 159.672 68.3784 159.931 67.6552C160.193 66.9289 160.568 66.3749 161.057 65.9933C161.55 65.6085 162.141 65.4162 162.83 65.4162C163.519 65.4162 164.109 65.6085 164.598 65.9933C165.091 66.3749 165.466 66.9289 165.725 67.6552C165.986 68.3784 166.117 69.2509 166.117 70.2727C166.117 71.3007 165.988 72.1778 165.729 72.9041C165.471 73.6274 165.097 74.1798 164.607 74.5614C164.118 74.94 163.526 75.1293 162.83 75.1293ZM162.83 74.1136C163.519 74.1136 164.055 73.7812 164.437 73.1165C164.818 72.4517 165.009 71.5038 165.009 70.2727C165.009 69.4541 164.921 68.757 164.746 68.1815C164.574 67.6059 164.324 67.1674 163.998 66.8658C163.675 66.5642 163.286 66.4134 162.83 66.4134C162.147 66.4134 161.613 66.7504 161.228 67.4244C160.843 68.0953 160.651 69.0447 160.651 70.2727C160.651 71.0914 160.737 71.7869 160.91 72.3594C161.082 72.9318 161.33 73.3673 161.653 73.6658C161.979 73.9644 162.372 74.1136 162.83 74.1136ZM168.037 75V65.5455H173.743V66.5611H169.182V69.7557H173.448V70.7713H169.182V73.9844H173.817V75H168.037ZM178.725 75.1293C178.029 75.1293 177.437 74.94 176.947 74.5614C176.458 74.1798 176.084 73.6274 175.825 72.9041C175.567 72.1778 175.438 71.3007 175.438 70.2727C175.438 69.2509 175.567 68.3784 175.825 67.6552C176.087 66.9289 176.463 66.3749 176.952 65.9933C177.444 65.6085 178.035 65.4162 178.725 65.4162C179.414 65.4162 180.003 65.6085 180.493 65.9933C180.985 66.3749 181.361 66.9289 181.619 67.6552C181.881 68.3784 182.012 69.2509 182.012 70.2727C182.012 71.3007 181.882 72.1778 181.624 72.9041C181.365 73.6274 180.991 74.1798 180.502 74.5614C180.013 74.94 179.42 75.1293 178.725 75.1293ZM178.725 74.1136C179.414 74.1136 179.95 73.7812 180.331 73.1165C180.713 72.4517 180.904 71.5038 180.904 70.2727C180.904 69.4541 180.816 68.757 180.64 68.1815C180.468 67.6059 180.219 67.1674 179.893 66.8658C179.569 66.5642 179.18 66.4134 178.725 66.4134C178.041 66.4134 177.507 66.7504 177.123 67.4244C176.738 68.0953 176.546 69.0447 176.546 70.2727C176.546 71.0914 176.632 71.7869 176.804 72.3594C176.977 72.9318 177.224 73.3673 177.547 73.6658C177.874 73.9644 178.266 74.1136 178.725 74.1136ZM185.409 73.7074L185.335 74.206C185.283 74.5568 185.203 74.9323 185.095 75.3324C184.991 75.7325 184.881 76.1095 184.768 76.4634C184.654 76.8174 184.56 77.099 184.486 77.3082H183.655C183.695 77.1113 183.747 76.8512 183.812 76.5281C183.877 76.2049 183.941 75.8433 184.006 75.4432C184.074 75.0462 184.129 74.6399 184.172 74.2244L184.227 73.7074H185.409ZM184.744 69.8111C184.517 69.8111 184.321 69.7295 184.158 69.5664C183.995 69.4033 183.914 69.2079 183.914 68.9801C183.914 68.7524 183.995 68.5569 184.158 68.3938C184.321 68.2307 184.517 68.1491 184.744 68.1491C184.972 68.1491 185.168 68.2307 185.331 68.3938C185.494 68.5569 185.575 68.7524 185.575 68.9801C185.575 69.1309 185.537 69.2694 185.46 69.3956C185.386 69.5218 185.286 69.6233 185.16 69.7003C185.037 69.7741 184.898 69.8111 184.744 69.8111ZM83.4832 93.5455V103H82.3383V94.7457H82.2829L79.9747 96.2784V95.1151L82.3383 93.5455H83.4832ZM86.2208 105.659V95.9091H87.2733V97.0355H87.4026C87.4826 96.9124 87.5934 96.7554 87.735 96.5646C87.8796 96.3707 88.0858 96.1984 88.3536 96.0476C88.6244 95.8937 88.9907 95.8168 89.4523 95.8168C90.0494 95.8168 90.5757 95.966 91.0312 96.2646C91.4867 96.5631 91.8421 96.9863 92.0976 97.5341C92.353 98.0819 92.4807 98.7282 92.4807 99.473C92.4807 100.224 92.353 100.875 92.0976 101.426C91.8421 101.974 91.4882 102.398 91.0358 102.7C90.5834 102.998 90.0617 103.148 89.4708 103.148C89.0153 103.148 88.6506 103.072 88.3767 102.922C88.1028 102.768 87.892 102.594 87.7442 102.4C87.5965 102.203 87.4826 102.04 87.4026 101.911H87.3103V105.659H86.2208ZM87.2918 99.4545C87.2918 99.9901 87.3703 100.462 87.5273 100.872C87.6842 101.278 87.9135 101.597 88.2151 101.827C88.5167 102.055 88.886 102.169 89.3231 102.169C89.7786 102.169 90.1586 102.049 90.4633 101.809C90.7711 101.566 91.0019 101.24 91.1558 100.83C91.3128 100.418 91.3912 99.9593 91.3912 99.4545C91.3912 98.956 91.3143 98.5066 91.1604 98.1065C91.0096 97.7034 90.7803 97.3848 90.4726 97.1509C90.1679 96.9139 89.7847 96.7955 89.3231 96.7955C88.8799 96.7955 88.5075 96.9078 88.2059 97.1325C87.9043 97.354 87.6765 97.6649 87.5226 98.065C87.3688 98.462 87.2918 98.9252 87.2918 99.4545ZM94.6632 95.9091L96.362 98.8082L98.0609 95.9091H99.3166L97.0268 99.4545L99.3166 103H98.0609L96.362 100.249L94.6632 103H93.4075L95.6603 99.4545L93.4075 95.9091H94.6632ZM102.496 101.707L102.422 102.206C102.37 102.557 102.29 102.932 102.182 103.332C102.078 103.732 101.968 104.109 101.854 104.463C101.741 104.817 101.647 105.099 101.573 105.308H100.742C100.782 105.111 100.834 104.851 100.899 104.528C100.964 104.205 101.028 103.843 101.093 103.443C101.16 103.046 101.216 102.64 101.259 102.224L101.314 101.707H102.496ZM101.831 97.8111C101.604 97.8111 101.408 97.7295 101.245 97.5664C101.082 97.4033 101 97.2079 101 96.9801C101 96.7524 101.082 96.5569 101.245 96.3938C101.408 96.2307 101.604 96.1491 101.831 96.1491C102.059 96.1491 102.255 96.2307 102.418 96.3938C102.581 96.5569 102.662 96.7524 102.662 96.9801C102.662 97.1309 102.624 97.2694 102.547 97.3956C102.473 97.5218 102.373 97.6233 102.247 97.7003C102.124 97.7741 101.985 97.8111 101.831 97.8111ZM75.0928 131.129C74.3972 131.129 73.8048 130.94 73.3154 130.561C72.8261 130.18 72.4521 129.627 72.1936 128.904C71.9351 128.178 71.8058 127.301 71.8058 126.273C71.8058 125.251 71.9351 124.378 72.1936 123.655C72.4552 122.929 72.8307 122.375 73.32 121.993C73.8125 121.609 74.4034 121.416 75.0928 121.416C75.7822 121.416 76.3715 121.609 76.8609 121.993C77.3533 122.375 77.7288 122.929 77.9873 123.655C78.2489 124.378 78.3797 125.251 78.3797 126.273C78.3797 127.301 78.2504 128.178 77.9919 128.904C77.7334 129.627 77.3595 130.18 76.8701 130.561C76.3808 130.94 75.7883 131.129 75.0928 131.129ZM75.0928 130.114C75.7822 130.114 76.3177 129.781 76.6993 129.116C77.0809 128.452 77.2718 127.504 77.2718 126.273C77.2718 125.454 77.184 124.757 77.0086 124.181C76.8363 123.606 76.587 123.167 76.2607 122.866C75.9376 122.564 75.5483 122.413 75.0928 122.413C74.4095 122.413 73.8756 122.75 73.4909 123.424C73.1061 124.095 72.9138 125.045 72.9138 126.273C72.9138 127.091 73 127.787 73.1723 128.359C73.3447 128.932 73.5924 129.367 73.9156 129.666C74.2418 129.964 74.6342 130.114 75.0928 130.114ZM87.1141 121.545V131H85.9692V122.746H85.9138L83.6056 124.278V123.115L85.9692 121.545H87.1141ZM92.8247 131.148C92.1414 131.148 91.5521 130.997 91.0566 130.695C90.5641 130.391 90.184 129.966 89.9163 129.421C89.6516 128.873 89.5193 128.236 89.5193 127.51C89.5193 126.784 89.6516 126.143 89.9163 125.589C90.184 125.032 90.5564 124.598 91.0335 124.288C91.5136 123.974 92.0737 123.817 92.7139 123.817C93.0832 123.817 93.4479 123.878 93.808 124.001C94.1681 124.125 94.4958 124.325 94.7913 124.602C95.0867 124.875 95.3222 125.239 95.4976 125.691C95.673 126.143 95.7607 126.701 95.7607 127.362V127.824H90.2948V126.882H94.6528C94.6528 126.482 94.5728 126.125 94.4127 125.811C94.2558 125.497 94.0311 125.249 93.7387 125.068C93.4494 124.886 93.1078 124.795 92.7139 124.795C92.2799 124.795 91.9044 124.903 91.5874 125.119C91.2735 125.331 91.0319 125.608 90.8627 125.95C90.6934 126.291 90.6088 126.657 90.6088 127.048V127.676C90.6088 128.212 90.7011 128.666 90.8857 129.038C91.0735 129.407 91.3335 129.689 91.6659 129.883C91.9983 130.074 92.3846 130.169 92.8247 130.169C93.1109 130.169 93.3694 130.129 93.6002 130.049C93.8341 129.966 94.0357 129.843 94.205 129.68C94.3743 129.513 94.5051 129.307 94.5974 129.061L95.6499 129.357C95.5392 129.714 95.353 130.027 95.0914 130.298C94.8298 130.566 94.5066 130.775 94.1219 130.926C93.7372 131.074 93.3048 131.148 92.8247 131.148ZM98.0401 123.909L99.739 126.808L101.438 123.909H102.694L100.404 127.455L102.694 131H101.438L99.739 128.249L98.0401 131H96.7844L99.0373 127.455L96.7844 123.909H98.0401ZM105.873 129.707L105.799 130.206C105.747 130.557 105.667 130.932 105.559 131.332C105.455 131.732 105.345 132.109 105.231 132.463C105.118 132.817 105.024 133.099 104.95 133.308H104.119C104.159 133.111 104.211 132.851 104.276 132.528C104.34 132.205 104.405 131.843 104.47 131.443C104.537 131.046 104.593 130.64 104.636 130.224L104.691 129.707H105.873ZM105.208 125.811C104.981 125.811 104.785 125.73 104.622 125.566C104.459 125.403 104.377 125.208 104.377 124.98C104.377 124.752 104.459 124.557 104.622 124.394C104.785 124.231 104.981 124.149 105.208 124.149C105.436 124.149 105.632 124.231 105.795 124.394C105.958 124.557 106.039 124.752 106.039 124.98C106.039 125.131 106.001 125.269 105.924 125.396C105.85 125.522 105.75 125.623 105.624 125.7C105.501 125.774 105.362 125.811 105.208 125.811ZM84.4411 154.734V159H83.3517V149.545H84.4411V153.017H84.5335C84.6997 152.651 84.949 152.36 85.2813 152.145C85.6168 151.926 86.0631 151.817 86.6201 151.817C87.1033 151.817 87.5265 151.914 87.8896 152.108C88.2528 152.298 88.5344 152.592 88.7345 152.989C88.9376 153.383 89.0392 153.885 89.0392 154.494V159H87.9497V154.568C87.9497 154.005 87.8035 153.569 87.5111 153.262C87.2218 152.951 86.8202 152.795 86.3062 152.795C85.9492 152.795 85.6291 152.871 85.346 153.022C85.0659 153.172 84.8443 153.393 84.6812 153.682C84.5212 153.971 84.4411 154.322 84.4411 154.734ZM91.0323 159V151.909H92.1218V159H91.0323ZM91.5863 150.727C91.3739 150.727 91.1908 150.655 91.0369 150.51C90.8861 150.366 90.8107 150.192 90.8107 149.989C90.8107 149.786 90.8861 149.612 91.0369 149.467C91.1908 149.322 91.3739 149.25 91.5863 149.25C91.7987 149.25 91.9802 149.322 92.131 149.467C92.2849 149.612 92.3619 149.786 92.3619 149.989C92.3619 150.192 92.2849 150.366 92.131 150.51C91.9802 150.655 91.7987 150.727 91.5863 150.727ZM96.7948 159.148C96.2039 159.148 95.6823 158.998 95.2298 158.7C94.7774 158.398 94.4235 157.974 94.1681 157.426C93.9126 156.875 93.7849 156.224 93.7849 155.473C93.7849 154.728 93.9126 154.082 94.1681 153.534C94.4235 152.986 94.779 152.563 95.2345 152.265C95.69 151.966 96.2162 151.817 96.8133 151.817C97.2749 151.817 97.6396 151.894 97.9074 152.048C98.1782 152.198 98.3844 152.371 98.526 152.565C98.6707 152.755 98.783 152.912 98.863 153.036H98.9553V149.545H100.045V159H98.9923V157.911H98.863C98.783 158.04 98.6691 158.203 98.5214 158.4C98.3737 158.594 98.1628 158.768 97.8889 158.922C97.615 159.072 97.2503 159.148 96.7948 159.148ZM96.9426 158.169C97.3796 158.169 97.7489 158.055 98.0505 157.827C98.3521 157.597 98.5814 157.278 98.7384 156.872C98.8953 156.462 98.9738 155.99 98.9738 155.455C98.9738 154.925 98.8969 154.462 98.743 154.065C98.5891 153.665 98.3614 153.354 98.0597 153.132C97.7581 152.908 97.3857 152.795 96.9426 152.795C96.4809 152.795 96.0962 152.914 95.7884 153.151C95.4838 153.385 95.2545 153.703 95.1006 154.107C94.9498 154.507 94.8744 154.956 94.8744 155.455C94.8744 155.959 94.9513 156.418 95.1052 156.83C95.2622 157.24 95.493 157.566 95.7977 157.809C96.1054 158.049 96.4871 158.169 96.9426 158.169ZM104.869 159.148C104.278 159.148 103.756 158.998 103.304 158.7C102.852 158.398 102.498 157.974 102.242 157.426C101.987 156.875 101.859 156.224 101.859 155.473C101.859 154.728 101.987 154.082 102.242 153.534C102.498 152.986 102.853 152.563 103.309 152.265C103.764 151.966 104.29 151.817 104.888 151.817C105.349 151.817 105.714 151.894 105.982 152.048C106.252 152.198 106.459 152.371 106.6 152.565C106.745 152.755 106.857 152.912 106.937 153.036H107.03V149.545H108.119V159H107.066V157.911H106.937C106.857 158.04 106.743 158.203 106.596 158.4C106.448 158.594 106.237 158.768 105.963 158.922C105.689 159.072 105.325 159.148 104.869 159.148ZM105.017 158.169C105.454 158.169 105.823 158.055 106.125 157.827C106.426 157.597 106.656 157.278 106.813 156.872C106.97 156.462 107.048 155.99 107.048 155.455C107.048 154.925 106.971 154.462 106.817 154.065C106.663 153.665 106.436 153.354 106.134 153.132C105.832 152.908 105.46 152.795 105.017 152.795C104.555 152.795 104.17 152.914 103.863 153.151C103.558 153.385 103.329 153.703 103.175 154.107C103.024 154.507 102.949 154.956 102.949 155.455C102.949 155.959 103.026 156.418 103.179 156.83C103.336 157.24 103.567 157.566 103.872 157.809C104.18 158.049 104.561 158.169 105.017 158.169ZM113.239 159.148C112.555 159.148 111.966 158.997 111.471 158.695C110.978 158.391 110.598 157.966 110.33 157.421C110.066 156.873 109.933 156.236 109.933 155.51C109.933 154.784 110.066 154.143 110.33 153.589C110.598 153.032 110.97 152.598 111.448 152.288C111.928 151.974 112.488 151.817 113.128 151.817C113.497 151.817 113.862 151.878 114.222 152.001C114.582 152.125 114.91 152.325 115.205 152.602C115.501 152.875 115.736 153.239 115.912 153.691C116.087 154.143 116.175 154.701 116.175 155.362V155.824H110.709V154.882H115.067C115.067 154.482 114.987 154.125 114.827 153.811C114.67 153.497 114.445 153.249 114.153 153.068C113.863 152.886 113.522 152.795 113.128 152.795C112.694 152.795 112.319 152.903 112.002 153.119C111.688 153.331 111.446 153.608 111.277 153.95C111.107 154.291 111.023 154.657 111.023 155.048V155.676C111.023 156.212 111.115 156.666 111.3 157.038C111.488 157.407 111.748 157.689 112.08 157.883C112.412 158.074 112.799 158.169 113.239 158.169C113.525 158.169 113.783 158.129 114.014 158.049C114.248 157.966 114.45 157.843 114.619 157.68C114.788 157.513 114.919 157.307 115.011 157.061L116.064 157.357C115.953 157.714 115.767 158.027 115.505 158.298C115.244 158.566 114.921 158.775 114.536 158.926C114.151 159.074 113.719 159.148 113.239 159.148ZM118.922 154.734V159H117.832V151.909H118.885V153.017H118.977C119.143 152.657 119.396 152.368 119.734 152.149C120.073 151.928 120.51 151.817 121.045 151.817C121.525 151.817 121.945 151.915 122.305 152.112C122.666 152.306 122.946 152.602 123.146 152.999C123.346 153.393 123.446 153.891 123.446 154.494V159H122.356V154.568C122.356 154.011 122.212 153.577 121.922 153.266C121.633 152.952 121.236 152.795 120.731 152.795C120.383 152.795 120.073 152.871 119.799 153.022C119.528 153.172 119.314 153.393 119.157 153.682C119 153.971 118.922 154.322 118.922 154.734ZM127.062 157.707L126.988 158.206C126.935 158.557 126.855 158.932 126.748 159.332C126.643 159.732 126.534 160.109 126.42 160.463C126.306 160.817 126.212 161.099 126.138 161.308H125.307C125.347 161.111 125.4 160.851 125.464 160.528C125.529 160.205 125.594 159.843 125.658 159.443C125.726 159.046 125.781 158.64 125.824 158.224L125.88 157.707H127.062ZM126.397 153.811C126.169 153.811 125.974 153.73 125.811 153.566C125.647 153.403 125.566 153.208 125.566 152.98C125.566 152.752 125.647 152.557 125.811 152.394C125.974 152.231 126.169 152.149 126.397 152.149C126.625 152.149 126.82 152.231 126.983 152.394C127.146 152.557 127.228 152.752 127.228 152.98C127.228 153.131 127.189 153.269 127.112 153.396C127.039 153.522 126.939 153.623 126.812 153.7C126.689 153.774 126.551 153.811 126.397 153.811Z" fill="#666666"/>
<path d="M15.7699 75V65.5455H16.8594V69.0355H16.9517C17.0317 68.9124 17.1425 68.7554 17.2841 68.5646C17.4287 68.3707 17.6349 68.1984 17.9027 68.0476C18.1735 67.8937 18.5398 67.8168 19.0014 67.8168C19.5985 67.8168 20.1248 67.966 20.5803 68.2646C21.0357 68.5631 21.3912 68.9863 21.6467 69.5341C21.9021 70.0819 22.0298 70.7282 22.0298 71.473C22.0298 72.224 21.9021 72.8749 21.6467 73.4258C21.3912 73.9736 21.0373 74.3983 20.5849 74.6999C20.1325 74.9985 19.6108 75.1477 19.0199 75.1477C18.5644 75.1477 18.1997 75.0723 17.9258 74.9215C17.6519 74.7676 17.4411 74.5937 17.2933 74.3999C17.1456 74.2029 17.0317 74.0398 16.9517 73.9105H16.8224V75H15.7699ZM16.8409 71.4545C16.8409 71.9901 16.9194 72.4625 17.0763 72.8718C17.2333 73.2781 17.4626 73.5966 17.7642 73.8274C18.0658 74.0552 18.4351 74.169 18.8722 74.169C19.3277 74.169 19.7077 74.049 20.0124 73.8089C20.3202 73.5658 20.551 73.2396 20.7049 72.8303C20.8619 72.4179 20.9403 71.9593 20.9403 71.4545C20.9403 70.956 20.8634 70.5066 20.7095 70.1065C20.5587 69.7034 20.3294 69.3848 20.0217 69.1509C19.717 68.9139 19.3338 68.7955 18.8722 68.7955C18.429 68.7955 18.0566 68.9078 17.755 69.1325C17.4534 69.354 17.2256 69.6649 17.0717 70.065C16.9179 70.462 16.8409 70.9252 16.8409 71.4545ZM26.5771 75.1477C25.9369 75.1477 25.3752 74.9954 24.892 74.6907C24.4119 74.386 24.0365 73.9598 23.7656 73.4119C23.4979 72.8641 23.364 72.224 23.364 71.4915C23.364 70.7528 23.4979 70.1081 23.7656 69.5572C24.0365 69.0063 24.4119 68.5785 24.892 68.2738C25.3752 67.9691 25.9369 67.8168 26.5771 67.8168C27.2172 67.8168 27.7773 67.9691 28.2575 68.2738C28.7406 68.5785 29.1161 69.0063 29.3839 69.5572C29.6547 70.1081 29.7901 70.7528 29.7901 71.4915C29.7901 72.224 29.6547 72.8641 29.3839 73.4119C29.1161 73.9598 28.7406 74.386 28.2575 74.6907C27.7773 74.9954 27.2172 75.1477 26.5771 75.1477ZM26.5771 74.169C27.0633 74.169 27.4634 74.0444 27.7773 73.7951C28.0913 73.5458 28.3236 73.218 28.4744 72.8118C28.6252 72.4055 28.7006 71.9654 28.7006 71.4915C28.7006 71.0175 28.6252 70.5759 28.4744 70.1665C28.3236 69.7572 28.0913 69.4264 27.7773 69.174C27.4634 68.9216 27.0633 68.7955 26.5771 68.7955C26.0908 68.7955 25.6907 68.9216 25.3768 69.174C25.0629 69.4264 24.8305 69.7572 24.6797 70.1665C24.5289 70.5759 24.4535 71.0175 24.4535 71.4915C24.4535 71.9654 24.5289 72.4055 24.6797 72.8118C24.8305 73.218 25.0629 73.5458 25.3768 73.7951C25.6907 74.0444 26.0908 74.169 26.5771 74.169ZM31.4532 75V67.9091H32.5058V68.9801H32.5796C32.7089 68.6293 32.9428 68.3446 33.2813 68.1261C33.6199 67.9076 34.0015 67.7983 34.4262 67.7983C34.5062 67.7983 34.6063 67.7998 34.7263 67.8029C34.8463 67.806 34.9371 67.8106 34.9987 67.8168V68.9247C34.9617 68.9155 34.8771 68.9016 34.7448 68.8832C34.6155 68.8616 34.4785 68.8509 34.3339 68.8509C33.9892 68.8509 33.6814 68.9232 33.4106 69.0678C33.1428 69.2094 32.9305 69.4064 32.7735 69.6587C32.6196 69.908 32.5427 70.1927 32.5427 70.5128V75H31.4532ZM38.7519 75.1477C38.161 75.1477 37.6393 74.9985 37.1869 74.6999C36.7345 74.3983 36.3805 73.9736 36.1251 73.4258C35.8696 72.8749 35.7419 72.224 35.7419 71.473C35.7419 70.7282 35.8696 70.0819 36.1251 69.5341C36.3805 68.9863 36.736 68.5631 37.1915 68.2646C37.647 67.966 38.1733 67.8168 38.7703 67.8168C39.232 67.8168 39.5967 67.8937 39.8644 68.0476C40.1353 68.1984 40.3415 68.3707 40.483 68.5646C40.6277 68.7554 40.74 68.9124 40.82 69.0355H40.9124V65.5455H42.0019V75H40.9493V73.9105H40.82C40.74 74.0398 40.6262 74.2029 40.4784 74.3999C40.3307 74.5937 40.1199 74.7676 39.846 74.9215C39.5721 75.0723 39.2074 75.1477 38.7519 75.1477ZM38.8996 74.169C39.3366 74.169 39.7059 74.0552 40.0075 73.8274C40.3092 73.5966 40.5384 73.2781 40.6954 72.8718C40.8524 72.4625 40.9308 71.9901 40.9308 71.4545C40.9308 70.9252 40.8539 70.462 40.7 70.065C40.5461 69.6649 40.3184 69.354 40.0168 69.1325C39.7152 68.9078 39.3428 68.7955 38.8996 68.7955C38.4379 68.7955 38.0532 68.9139 37.7455 69.1509C37.4408 69.3848 37.2115 69.7034 37.0576 70.1065C36.9068 70.5066 36.8314 70.956 36.8314 71.4545C36.8314 71.9593 36.9084 72.4179 37.0622 72.8303C37.2192 73.2396 37.45 73.5658 37.7547 73.8089C38.0625 74.049 38.4441 74.169 38.8996 74.169ZM47.1215 75.1477C46.4383 75.1477 45.8489 74.9969 45.3534 74.6953C44.861 74.3906 44.4809 73.9659 44.2132 73.4212C43.9485 72.8733 43.8161 72.2363 43.8161 71.5099C43.8161 70.7836 43.9485 70.1435 44.2132 69.5895C44.4809 69.0324 44.8533 68.5985 45.3303 68.2876C45.8105 67.9737 46.3706 67.8168 47.0107 67.8168C47.3801 67.8168 47.7448 67.8783 48.1048 68.0014C48.4649 68.1245 48.7927 68.3246 49.0882 68.6016C49.3836 68.8755 49.6191 69.2386 49.7945 69.6911C49.9699 70.1435 50.0576 70.7005 50.0576 71.3622V71.8239H44.5917V70.8821H48.9497C48.9497 70.482 48.8696 70.125 48.7096 69.8111C48.5526 69.4972 48.328 69.2494 48.0356 69.0678C47.7463 68.8862 47.4047 68.7955 47.0107 68.7955C46.5768 68.7955 46.2013 68.9032 45.8843 69.1186C45.5704 69.331 45.3288 69.608 45.1595 69.9496C44.9903 70.2912 44.9056 70.6574 44.9056 71.0483V71.6761C44.9056 72.2116 44.998 72.6656 45.1826 73.038C45.3704 73.4073 45.6304 73.6889 45.9628 73.8828C46.2952 74.0736 46.6814 74.169 47.1215 74.169C47.4078 74.169 47.6663 74.129 47.8971 74.049C48.131 73.9659 48.3326 73.8428 48.5019 73.6797C48.6711 73.5135 48.8019 73.3073 48.8943 73.0611L49.9468 73.3565C49.836 73.7135 49.6498 74.0275 49.3882 74.2983C49.1266 74.5661 48.8035 74.7753 48.4188 74.9261C48.0341 75.0739 47.6017 75.1477 47.1215 75.1477ZM51.7149 75V67.9091H52.7675V68.9801H52.8414C52.9706 68.6293 53.2045 68.3446 53.5431 68.1261C53.8816 67.9076 54.2632 67.7983 54.6879 67.7983C54.768 67.7983 54.868 67.7998 54.988 67.8029C55.108 67.806 55.1988 67.8106 55.2604 67.8168V68.9247C55.2235 68.9155 55.1388 68.9016 55.0065 68.8832C54.8772 68.8616 54.7403 68.8509 54.5956 68.8509C54.2509 68.8509 53.9432 68.9232 53.6723 69.0678C53.4046 69.2094 53.1922 69.4064 53.0352 69.6587C52.8814 69.908 52.8044 70.1927 52.8044 70.5128V75H51.7149ZM57.3459 75.0739C57.1181 75.0739 56.9227 74.9923 56.7596 74.8292C56.5965 74.6661 56.5149 74.4706 56.5149 74.2429C56.5149 74.0152 56.5965 73.8197 56.7596 73.6566C56.9227 73.4935 57.1181 73.4119 57.3459 73.4119C57.5736 73.4119 57.7691 73.4935 57.9322 73.6566C58.0953 73.8197 58.1768 74.0152 58.1768 74.2429C58.1768 74.3937 58.1384 74.5322 58.0614 74.6584C57.9876 74.7846 57.8875 74.8861 57.7614 74.9631C57.6383 75.0369 57.4998 75.0739 57.3459 75.0739ZM57.3459 69.8111C57.1181 69.8111 56.9227 69.7295 56.7596 69.5664C56.5965 69.4033 56.5149 69.2079 56.5149 68.9801C56.5149 68.7524 56.5965 68.5569 56.7596 68.3938C56.9227 68.2307 57.1181 68.1491 57.3459 68.1491C57.5736 68.1491 57.7691 68.2307 57.9322 68.3938C58.0953 68.5569 58.1768 68.7524 58.1768 68.9801C58.1768 69.1309 58.1384 69.2694 58.0614 69.3956C57.9876 69.5218 57.8875 69.6233 57.7614 69.7003C57.6383 69.7741 57.4998 69.8111 57.3459 69.8111ZM15.6222 105.659V95.9091H16.6747V97.0355H16.804C16.884 96.9124 16.9948 96.7554 17.1364 96.5646C17.281 96.3707 17.4872 96.1984 17.755 96.0476C18.0258 95.8937 18.392 95.8168 18.8537 95.8168C19.4508 95.8168 19.977 95.966 20.4325 96.2646C20.888 96.5631 21.2435 96.9863 21.4989 97.5341C21.7544 98.0819 21.8821 98.7282 21.8821 99.473C21.8821 100.224 21.7544 100.875 21.4989 101.426C21.2435 101.974 20.8896 102.398 20.4371 102.7C19.9847 102.998 19.4631 103.148 18.8722 103.148C18.4167 103.148 18.052 103.072 17.7781 102.922C17.5041 102.768 17.2933 102.594 17.1456 102.4C16.9979 102.203 16.884 102.04 16.804 101.911H16.7116V105.659H15.6222ZM16.6932 99.4545C16.6932 99.9901 16.7717 100.462 16.9286 100.872C17.0856 101.278 17.3149 101.597 17.6165 101.827C17.9181 102.055 18.2874 102.169 18.7244 102.169C19.1799 102.169 19.56 102.049 19.8647 101.809C20.1725 101.566 20.4033 101.24 20.5572 100.83C20.7141 100.418 20.7926 99.9593 20.7926 99.4545C20.7926 98.956 20.7157 98.5066 20.5618 98.1065C20.411 97.7034 20.1817 97.3848 19.8739 97.1509C19.5692 96.9139 19.1861 96.7955 18.7244 96.7955C18.2813 96.7955 17.9089 96.9078 17.6072 97.1325C17.3056 97.354 17.0779 97.6649 16.924 98.065C16.7701 98.462 16.6932 98.9252 16.6932 99.4545ZM25.6307 103.166C25.1813 103.166 24.7736 103.082 24.4073 102.912C24.0411 102.74 23.7502 102.492 23.5348 102.169C23.3194 101.843 23.2116 101.449 23.2116 100.987C23.2116 100.581 23.2917 100.252 23.4517 99.9993C23.6117 99.7438 23.8256 99.5438 24.0934 99.3991C24.3612 99.2545 24.6566 99.1468 24.9798 99.076C25.306 99.0021 25.6338 98.9437 25.9631 98.9006C26.3939 98.8452 26.7433 98.8036 27.011 98.7759C27.2818 98.7451 27.4788 98.6944 27.6019 98.6236C27.7281 98.5528 27.7912 98.4297 27.7912 98.2543V98.2173C27.7912 97.7618 27.6665 97.4079 27.4173 97.1555C27.171 96.9032 26.7971 96.777 26.2955 96.777C25.7753 96.777 25.3675 96.8909 25.0721 97.1186C24.7766 97.3464 24.5689 97.5895 24.4489 97.848L23.4148 97.4787C23.5994 97.0478 23.8456 96.7124 24.1534 96.4723C24.4643 96.2292 24.8028 96.0599 25.169 95.9645C25.5384 95.866 25.9015 95.8168 26.2585 95.8168C26.4863 95.8168 26.7479 95.8445 27.0433 95.8999C27.3419 95.9522 27.6296 96.0614 27.9066 96.2276C28.1867 96.3938 28.419 96.6446 28.6037 96.9801C28.7884 97.3156 28.8807 97.7649 28.8807 98.3281V103H27.7912V102.04H27.7358C27.6619 102.194 27.5388 102.358 27.3665 102.534C27.1941 102.709 26.9648 102.858 26.6786 102.982C26.3924 103.105 26.0431 103.166 25.6307 103.166ZM25.7969 102.188C26.2277 102.188 26.5909 102.103 26.8864 101.934C27.1849 101.764 27.4096 101.546 27.5604 101.278C27.7143 101.01 27.7912 100.729 27.7912 100.433V99.4361C27.745 99.4915 27.6435 99.5423 27.4865 99.5884C27.3326 99.6315 27.1541 99.67 26.951 99.7038C26.7509 99.7346 26.5555 99.7623 26.3647 99.7869C26.177 99.8085 26.0246 99.8269 25.9077 99.8423C25.6245 99.8793 25.3598 99.9393 25.1136 100.022C24.8705 100.102 24.6735 100.224 24.5227 100.387C24.375 100.547 24.3011 100.766 24.3011 101.043C24.3011 101.421 24.4412 101.707 24.7212 101.901C25.0044 102.092 25.3629 102.188 25.7969 102.188ZM33.5468 103.148C32.9559 103.148 32.4342 102.998 31.9818 102.7C31.5294 102.398 31.1755 101.974 30.92 101.426C30.6646 100.875 30.5368 100.224 30.5368 99.473C30.5368 98.7282 30.6646 98.0819 30.92 97.5341C31.1755 96.9863 31.5309 96.5631 31.9864 96.2646C32.4419 95.966 32.9682 95.8168 33.5653 95.8168C34.0269 95.8168 34.3916 95.8937 34.6594 96.0476C34.9302 96.1984 35.1364 96.3707 35.278 96.5646C35.4226 96.7554 35.5349 96.9124 35.615 97.0355H35.7073V93.5455H36.7968V103H35.7442V101.911H35.615C35.5349 102.04 35.4211 102.203 35.2733 102.4C35.1256 102.594 34.9148 102.768 34.6409 102.922C34.367 103.072 34.0023 103.148 33.5468 103.148ZM33.6945 102.169C34.1315 102.169 34.5009 102.055 34.8025 101.827C35.1041 101.597 35.3334 101.278 35.4903 100.872C35.6473 100.462 35.7258 99.9901 35.7258 99.4545C35.7258 98.9252 35.6488 98.462 35.4949 98.065C35.3411 97.6649 35.1133 97.354 34.8117 97.1325C34.5101 96.9078 34.1377 96.7955 33.6945 96.7955C33.2329 96.7955 32.8482 96.9139 32.5404 97.1509C32.2357 97.3848 32.0064 97.7034 31.8525 98.1065C31.7017 98.5066 31.6263 98.956 31.6263 99.4545C31.6263 99.9593 31.7033 100.418 31.8572 100.83C32.0141 101.24 32.2449 101.566 32.5496 101.809C32.8574 102.049 33.239 102.169 33.6945 102.169ZM41.621 103.148C41.0301 103.148 40.5084 102.998 40.056 102.7C39.6036 102.398 39.2497 101.974 38.9942 101.426C38.7388 100.875 38.6111 100.224 38.6111 99.473C38.6111 98.7282 38.7388 98.0819 38.9942 97.5341C39.2497 96.9863 39.6051 96.5631 40.0606 96.2646C40.5161 95.966 41.0424 95.8168 41.6395 95.8168C42.1011 95.8168 42.4658 95.8937 42.7336 96.0476C43.0044 96.1984 43.2106 96.3707 43.3522 96.5646C43.4968 96.7554 43.6092 96.9124 43.6892 97.0355H43.7815V93.5455H44.871V103H43.8184V101.911H43.6892C43.6092 102.04 43.4953 102.203 43.3476 102.4C43.1998 102.594 42.989 102.768 42.7151 102.922C42.4412 103.072 42.0765 103.148 41.621 103.148ZM41.7687 102.169C42.2058 102.169 42.5751 102.055 42.8767 101.827C43.1783 101.597 43.4076 101.278 43.5645 100.872C43.7215 100.462 43.8 99.9901 43.8 99.4545C43.8 98.9252 43.723 98.462 43.5692 98.065C43.4153 97.6649 43.1875 97.354 42.8859 97.1325C42.5843 96.9078 42.2119 96.7955 41.7687 96.7955C41.3071 96.7955 40.9224 96.9139 40.6146 97.1509C40.3099 97.3848 40.0806 97.7034 39.9268 98.1065C39.776 98.5066 39.7006 98.956 39.7006 99.4545C39.7006 99.9593 39.7775 100.418 39.9314 100.83C40.0883 101.24 40.3192 101.566 40.6238 101.809C40.9316 102.049 41.3132 102.169 41.7687 102.169ZM47.0177 103V95.9091H48.1072V103H47.0177ZM47.5716 94.7273C47.3593 94.7273 47.1762 94.6549 47.0223 94.5103C46.8715 94.3656 46.7961 94.1918 46.7961 93.9886C46.7961 93.7855 46.8715 93.6116 47.0223 93.467C47.1762 93.3223 47.3593 93.25 47.5716 93.25C47.784 93.25 47.9656 93.3223 48.1164 93.467C48.2703 93.6116 48.3472 93.7855 48.3472 93.9886C48.3472 94.1918 48.2703 94.3656 48.1164 94.5103C47.9656 94.6549 47.784 94.7273 47.5716 94.7273ZM51.1921 98.7344V103H50.1026V95.9091H51.1552V97.017H51.2475C51.4137 96.657 51.6661 96.3677 52.0046 96.1491C52.3432 95.9276 52.7802 95.8168 53.3157 95.8168C53.7958 95.8168 54.2159 95.9152 54.576 96.1122C54.9361 96.3061 55.2161 96.6016 55.4162 96.9986C55.6162 97.3925 55.7163 97.8911 55.7163 98.4943V103H54.6268V98.5682C54.6268 98.0111 54.4821 97.5772 54.1928 97.2663C53.9035 96.9524 53.5065 96.7955 53.0018 96.7955C52.654 96.7955 52.3432 96.8709 52.0692 97.0217C51.7984 97.1725 51.5845 97.3925 51.4276 97.6818C51.2706 97.9711 51.1921 98.322 51.1921 98.7344ZM60.5693 105.807C60.0431 105.807 59.5906 105.739 59.2121 105.604C58.8335 105.471 58.5181 105.296 58.2657 105.077C58.0164 104.862 57.8179 104.631 57.6702 104.385L58.5381 103.776C58.6366 103.905 58.7612 104.053 58.912 104.219C59.0628 104.388 59.269 104.534 59.5306 104.657C59.7953 104.783 60.1415 104.847 60.5693 104.847C61.1418 104.847 61.6142 104.708 61.9866 104.431C62.359 104.154 62.5452 103.72 62.5452 103.129V101.689H62.4529C62.3728 101.818 62.259 101.978 62.1112 102.169C61.9666 102.357 61.7573 102.525 61.4834 102.672C61.2126 102.817 60.8463 102.889 60.3847 102.889C59.8122 102.889 59.2983 102.754 58.8428 102.483C58.3904 102.212 58.0318 101.818 57.7671 101.301C57.5055 100.784 57.3747 100.156 57.3747 99.4176C57.3747 98.6913 57.5025 98.0588 57.7579 97.5202C58.0133 96.9786 58.3688 96.56 58.8243 96.2646C59.2798 95.966 59.8061 95.8168 60.4031 95.8168C60.8648 95.8168 61.231 95.8937 61.5019 96.0476C61.7758 96.1984 61.9851 96.3707 62.1297 96.5646C62.2774 96.7554 62.3913 96.9124 62.4713 97.0355H62.5821V95.9091H63.6347V103.203C63.6347 103.812 63.4962 104.308 63.2192 104.69C62.9453 105.074 62.576 105.356 62.1112 105.534C61.6496 105.716 61.1356 105.807 60.5693 105.807ZM60.5324 101.911C60.9694 101.911 61.3387 101.81 61.6404 101.61C61.942 101.41 62.1713 101.123 62.3282 100.747C62.4852 100.372 62.5637 99.9223 62.5637 99.3991C62.5637 98.8883 62.4867 98.4374 62.3328 98.0465C62.1789 97.6557 61.9512 97.3494 61.6496 97.1278C61.348 96.9062 60.9756 96.7955 60.5324 96.7955C60.0708 96.7955 59.686 96.9124 59.3783 97.1463C59.0736 97.3802 58.8443 97.6941 58.6904 98.0881C58.5396 98.482 58.4642 98.919 58.4642 99.3991C58.4642 99.8916 58.5412 100.327 58.695 100.706C58.852 101.081 59.0828 101.377 59.3875 101.592C59.6953 101.804 60.0769 101.911 60.5324 101.911ZM66.423 103.074C66.1953 103.074 65.9999 102.992 65.8367 102.829C65.6736 102.666 65.5921 102.471 65.5921 102.243C65.5921 102.015 65.6736 101.82 65.8367 101.657C65.9999 101.493 66.1953 101.412 66.423 101.412C66.6508 101.412 66.8462 101.493 67.0093 101.657C67.1724 101.82 67.254 102.015 67.254 102.243C67.254 102.394 67.2155 102.532 67.1386 102.658C67.0647 102.785 66.9647 102.886 66.8385 102.963C66.7154 103.037 66.5769 103.074 66.423 103.074ZM66.423 97.8111C66.1953 97.8111 65.9999 97.7295 65.8367 97.5664C65.6736 97.4033 65.5921 97.2079 65.5921 96.9801C65.5921 96.7524 65.6736 96.5569 65.8367 96.3938C65.9999 96.2307 66.1953 96.1491 66.423 96.1491C66.6508 96.1491 66.8462 96.2307 67.0093 96.3938C67.1724 96.5569 67.254 96.7524 67.254 96.9801C67.254 97.1309 67.2155 97.2694 67.1386 97.3956C67.0647 97.5218 66.9647 97.6233 66.8385 97.7003C66.7154 97.7741 66.5769 97.8111 66.423 97.8111ZM15.6222 131V123.909H16.6747V125.017H16.767C16.9148 124.638 17.1533 124.345 17.4826 124.135C17.8119 123.923 18.2074 123.817 18.669 123.817C19.1368 123.817 19.5262 123.923 19.837 124.135C20.1509 124.345 20.3956 124.638 20.571 125.017H20.6449C20.8265 124.651 21.0988 124.36 21.462 124.145C21.8252 123.926 22.2607 123.817 22.7685 123.817C23.4025 123.817 23.921 124.015 24.3242 124.412C24.7274 124.806 24.929 125.42 24.929 126.254V131H23.8395V126.254C23.8395 125.731 23.6964 125.357 23.4102 125.132C23.1239 124.908 22.7869 124.795 22.3991 124.795C21.9006 124.795 21.5143 124.946 21.2404 125.248C20.9665 125.546 20.8295 125.925 20.8295 126.384V131H19.7216V126.143C19.7216 125.74 19.5908 125.416 19.3292 125.169C19.0676 124.92 18.7306 124.795 18.3182 124.795C18.035 124.795 17.7704 124.871 17.5241 125.022C17.281 125.172 17.084 125.382 16.9332 125.65C16.7855 125.914 16.7116 126.22 16.7116 126.568V131H15.6222ZM29.0076 131.166C28.5583 131.166 28.1505 131.082 27.7843 130.912C27.418 130.74 27.1272 130.492 26.9118 130.169C26.6963 129.843 26.5886 129.449 26.5886 128.987C26.5886 128.581 26.6686 128.252 26.8287 127.999C26.9887 127.744 27.2026 127.544 27.4703 127.399C27.7381 127.254 28.0336 127.147 28.3567 127.076C28.6829 127.002 29.0107 126.944 29.34 126.901C29.7709 126.845 30.1202 126.804 30.388 126.776C30.6588 126.745 30.8558 126.694 30.9789 126.624C31.1051 126.553 31.1681 126.43 31.1681 126.254V126.217C31.1681 125.762 31.0435 125.408 30.7942 125.156C30.548 124.903 30.1741 124.777 29.6724 124.777C29.1523 124.777 28.7445 124.891 28.449 125.119C28.1536 125.346 27.9458 125.589 27.8258 125.848L26.7917 125.479C26.9764 125.048 27.2226 124.712 27.5304 124.472C27.8412 124.229 28.1797 124.06 28.546 123.964C28.9153 123.866 29.2785 123.817 29.6355 123.817C29.8632 123.817 30.1248 123.844 30.4203 123.9C30.7188 123.952 31.0066 124.061 31.2836 124.228C31.5636 124.394 31.796 124.645 31.9806 124.98C32.1653 125.316 32.2576 125.765 32.2576 126.328V131H31.1681V130.04H31.1127C31.0389 130.194 30.9158 130.358 30.7434 130.534C30.5711 130.709 30.3418 130.858 30.0556 130.982C29.7694 131.105 29.42 131.166 29.0076 131.166ZM29.1738 130.188C29.6047 130.188 29.9679 130.103 30.2633 129.934C30.5618 129.764 30.7865 129.546 30.9373 129.278C31.0912 129.01 31.1681 128.729 31.1681 128.433V127.436C31.122 127.491 31.0204 127.542 30.8635 127.588C30.7096 127.632 30.5311 127.67 30.3279 127.704C30.1279 127.735 29.9325 127.762 29.7417 127.787C29.5539 127.808 29.4016 127.827 29.2846 127.842C29.0015 127.879 28.7368 127.939 28.4906 128.022C28.2475 128.102 28.0505 128.224 27.8997 128.387C27.752 128.547 27.6781 128.766 27.6781 129.043C27.6781 129.421 27.8181 129.707 28.0982 129.901C28.3813 130.092 28.7399 130.188 29.1738 130.188ZM34.2462 131V123.909H35.2987V124.98H35.3726C35.5019 124.629 35.7358 124.345 36.0743 124.126C36.4128 123.908 36.7945 123.798 37.2192 123.798C37.2992 123.798 37.3992 123.8 37.5193 123.803C37.6393 123.806 37.7301 123.811 37.7916 123.817V124.925C37.7547 124.915 37.6701 124.902 37.5377 124.883C37.4085 124.862 37.2715 124.851 37.1269 124.851C36.7822 124.851 36.4744 124.923 36.2036 125.068C35.9358 125.209 35.7235 125.406 35.5665 125.659C35.4126 125.908 35.3357 126.193 35.3357 126.513V131H34.2462ZM41.7295 133.807C41.2032 133.807 40.7508 133.739 40.3722 133.604C39.9937 133.471 39.6782 133.296 39.4259 133.077C39.1766 132.862 38.9781 132.631 38.8303 132.385L39.6982 131.776C39.7967 131.905 39.9214 132.053 40.0722 132.219C40.223 132.388 40.4292 132.534 40.6908 132.657C40.9555 132.783 41.3017 132.847 41.7295 132.847C42.3019 132.847 42.7744 132.708 43.1468 132.431C43.5191 132.154 43.7053 131.72 43.7053 131.129V129.689H43.613C43.533 129.818 43.4191 129.978 43.2714 130.169C43.1267 130.357 42.9175 130.525 42.6436 130.672C42.3727 130.817 42.0065 130.889 41.5448 130.889C40.9724 130.889 40.4584 130.754 40.0029 130.483C39.5505 130.212 39.192 129.818 38.9273 129.301C38.6657 128.784 38.5349 128.156 38.5349 127.418C38.5349 126.691 38.6626 126.059 38.9181 125.52C39.1735 124.979 39.529 124.56 39.9845 124.265C40.44 123.966 40.9662 123.817 41.5633 123.817C42.0249 123.817 42.3912 123.894 42.662 124.048C42.9359 124.198 43.1452 124.371 43.2899 124.565C43.4376 124.755 43.5515 124.912 43.6315 125.036H43.7423V123.909H44.7948V131.203C44.7948 131.812 44.6563 132.308 44.3794 132.69C44.1054 133.074 43.7361 133.356 43.2714 133.534C42.8097 133.716 42.2958 133.807 41.7295 133.807ZM41.6926 129.911C42.1296 129.911 42.4989 129.81 42.8005 129.61C43.1021 129.41 43.3314 129.123 43.4884 128.747C43.6453 128.372 43.7238 127.922 43.7238 127.399C43.7238 126.888 43.6469 126.437 43.493 126.047C43.3391 125.656 43.1114 125.349 42.8097 125.128C42.5081 124.906 42.1357 124.795 41.6926 124.795C41.2309 124.795 40.8462 124.912 40.5384 125.146C40.2338 125.38 40.0045 125.694 39.8506 126.088C39.6998 126.482 39.6244 126.919 39.6244 127.399C39.6244 127.892 39.7013 128.327 39.8552 128.706C40.0122 129.081 40.243 129.377 40.5477 129.592C40.8554 129.804 41.2371 129.911 41.6926 129.911ZM46.7892 131V123.909H47.8786V131H46.7892ZM47.3431 122.727C47.1308 122.727 46.9477 122.655 46.7938 122.51C46.643 122.366 46.5676 122.192 46.5676 121.989C46.5676 121.786 46.643 121.612 46.7938 121.467C46.9477 121.322 47.1308 121.25 47.3431 121.25C47.5555 121.25 47.7371 121.322 47.8879 121.467C48.0418 121.612 48.1187 121.786 48.1187 121.989C48.1187 122.192 48.0418 122.366 47.8879 122.51C47.7371 122.655 47.5555 122.727 47.3431 122.727ZM50.9636 126.734V131H49.8741V123.909H50.9267V125.017H51.019C51.1852 124.657 51.4376 124.368 51.7761 124.149C52.1146 123.928 52.5517 123.817 53.0872 123.817C53.5673 123.817 53.9874 123.915 54.3475 124.112C54.7076 124.306 54.9876 124.602 55.1877 124.999C55.3877 125.393 55.4877 125.891 55.4877 126.494V131H54.3983V126.568C54.3983 126.011 54.2536 125.577 53.9643 125.266C53.675 124.952 53.278 124.795 52.7733 124.795C52.4255 124.795 52.1146 124.871 51.8407 125.022C51.5699 125.172 51.356 125.393 51.199 125.682C51.0421 125.971 50.9636 126.322 50.9636 126.734ZM58.2726 131.074C58.0449 131.074 57.8495 130.992 57.6863 130.829C57.5232 130.666 57.4417 130.471 57.4417 130.243C57.4417 130.015 57.5232 129.82 57.6863 129.657C57.8495 129.493 58.0449 129.412 58.2726 129.412C58.5004 129.412 58.6958 129.493 58.8589 129.657C59.022 129.82 59.1036 130.015 59.1036 130.243C59.1036 130.394 59.0651 130.532 58.9882 130.658C58.9143 130.785 58.8143 130.886 58.6881 130.963C58.565 131.037 58.4265 131.074 58.2726 131.074ZM58.2726 125.811C58.0449 125.811 57.8495 125.73 57.6863 125.566C57.5232 125.403 57.4417 125.208 57.4417 124.98C57.4417 124.752 57.5232 124.557 57.6863 124.394C57.8495 124.231 58.0449 124.149 58.2726 124.149C58.5004 124.149 58.6958 124.231 58.8589 124.394C59.022 124.557 59.1036 124.752 59.1036 124.98C59.1036 125.131 59.0651 125.269 58.9882 125.396C58.9143 125.522 58.8143 125.623 58.6881 125.7C58.565 125.774 58.4265 125.811 58.2726 125.811ZM18.5028 159.148C17.8627 159.148 17.301 158.995 16.8178 158.691C16.3377 158.386 15.9622 157.96 15.6914 157.412C15.4237 156.864 15.2898 156.224 15.2898 155.491C15.2898 154.753 15.4237 154.108 15.6914 153.557C15.9622 153.006 16.3377 152.578 16.8178 152.274C17.301 151.969 17.8627 151.817 18.5028 151.817C19.143 151.817 19.7031 151.969 20.1832 152.274C20.6664 152.578 21.0419 153.006 21.3097 153.557C21.5805 154.108 21.7159 154.753 21.7159 155.491C21.7159 156.224 21.5805 156.864 21.3097 157.412C21.0419 157.96 20.6664 158.386 20.1832 158.691C19.7031 158.995 19.143 159.148 18.5028 159.148ZM18.5028 158.169C18.9891 158.169 19.3892 158.044 19.7031 157.795C20.017 157.546 20.2494 157.218 20.4002 156.812C20.551 156.406 20.6264 155.965 20.6264 155.491C20.6264 155.018 20.551 154.576 20.4002 154.167C20.2494 153.757 20.017 153.426 19.7031 153.174C19.3892 152.922 18.9891 152.795 18.5028 152.795C18.0166 152.795 17.6165 152.922 17.3026 153.174C16.9886 153.426 16.7563 153.757 16.6055 154.167C16.4547 154.576 16.3793 155.018 16.3793 155.491C16.3793 155.965 16.4547 156.406 16.6055 156.812C16.7563 157.218 16.9886 157.546 17.3026 157.795C17.6165 158.044 18.0166 158.169 18.5028 158.169ZM28.9234 151.909L26.3012 159H25.1933L22.5711 151.909H23.7529L25.7103 157.56H25.7842L27.7416 151.909H28.9234ZM33.0805 159.148C32.3973 159.148 31.8079 158.997 31.3124 158.695C30.82 158.391 30.4399 157.966 30.1721 157.421C29.9075 156.873 29.7751 156.236 29.7751 155.51C29.7751 154.784 29.9075 154.143 30.1721 153.589C30.4399 153.032 30.8123 152.598 31.2893 152.288C31.7694 151.974 32.3296 151.817 32.9697 151.817C33.339 151.817 33.7037 151.878 34.0638 152.001C34.4239 152.125 34.7517 152.325 35.0471 152.602C35.3426 152.875 35.578 153.239 35.7535 153.691C35.9289 154.143 36.0166 154.701 36.0166 155.362V155.824H30.5507V154.882H34.9086C34.9086 154.482 34.8286 154.125 34.6686 153.811C34.5116 153.497 34.287 153.249 33.9946 153.068C33.7053 152.886 33.3637 152.795 32.9697 152.795C32.5358 152.795 32.1603 152.903 31.8433 153.119C31.5294 153.331 31.2878 153.608 31.1185 153.95C30.9492 154.291 30.8646 154.657 30.8646 155.048V155.676C30.8646 156.212 30.9569 156.666 31.1416 157.038C31.3293 157.407 31.5894 157.689 31.9218 157.883C32.2542 158.074 32.6404 158.169 33.0805 158.169C33.3667 158.169 33.6253 158.129 33.8561 158.049C34.09 157.966 34.2916 157.843 34.4608 157.68C34.6301 157.513 34.7609 157.307 34.8532 157.061L35.9058 157.357C35.795 157.714 35.6088 158.027 35.3472 158.298C35.0856 158.566 34.7625 158.775 34.3778 158.926C33.993 159.074 33.5606 159.148 33.0805 159.148ZM37.6739 159V151.909H38.7265V152.98H38.8003C38.9296 152.629 39.1635 152.345 39.502 152.126C39.8406 151.908 40.2222 151.798 40.6469 151.798C40.7269 151.798 40.827 151.8 40.947 151.803C41.067 151.806 41.1578 151.811 41.2194 151.817V152.925C41.1824 152.915 41.0978 152.902 40.9655 152.883C40.8362 152.862 40.6992 152.851 40.5546 152.851C40.2099 152.851 39.9021 152.923 39.6313 153.068C39.3635 153.209 39.1512 153.406 38.9942 153.659C38.8403 153.908 38.7634 154.193 38.7634 154.513V159H37.6739ZM46.1128 151.909V152.832H42.2904V151.909H46.1128ZM43.4353 159V150.93C43.4353 150.524 43.5307 150.186 43.7215 149.915C43.9123 149.644 44.1601 149.441 44.4648 149.305C44.7694 149.17 45.0911 149.102 45.4296 149.102C45.6974 149.102 45.9159 149.124 46.0851 149.167C46.2544 149.21 46.3806 149.25 46.4637 149.287L46.1498 150.229C46.0944 150.21 46.0174 150.187 45.9189 150.159C45.8235 150.132 45.6974 150.118 45.5404 150.118C45.1803 150.118 44.9202 150.209 44.7602 150.39C44.6032 150.572 44.5248 150.838 44.5248 151.189V159H43.4353ZM48.7292 149.545V159H47.6397V149.545H48.7292ZM53.6054 159.148C52.9652 159.148 52.4036 158.995 51.9204 158.691C51.4403 158.386 51.0648 157.96 50.7939 157.412C50.5262 156.864 50.3923 156.224 50.3923 155.491C50.3923 154.753 50.5262 154.108 50.7939 153.557C51.0648 153.006 51.4403 152.578 51.9204 152.274C52.4036 151.969 52.9652 151.817 53.6054 151.817C54.2455 151.817 54.8057 151.969 55.2858 152.274C55.769 152.578 56.1444 153.006 56.4122 153.557C56.683 154.108 56.8184 154.753 56.8184 155.491C56.8184 156.224 56.683 156.864 56.4122 157.412C56.1444 157.96 55.769 158.386 55.2858 158.691C54.8057 158.995 54.2455 159.148 53.6054 159.148ZM53.6054 158.169C54.0916 158.169 54.4917 158.044 54.8057 157.795C55.1196 157.546 55.3519 157.218 55.5028 156.812C55.6536 156.406 55.729 155.965 55.729 155.491C55.729 155.018 55.6536 154.576 55.5028 154.167C55.3519 153.757 55.1196 153.426 54.8057 153.174C54.4917 152.922 54.0916 152.795 53.6054 152.795C53.1191 152.795 52.719 152.922 52.4051 153.174C52.0912 153.426 51.8588 153.757 51.708 154.167C51.5572 154.576 51.4818 155.018 51.4818 155.491C51.4818 155.965 51.5572 156.406 51.708 156.812C51.8588 157.218 52.0912 157.546 52.4051 157.795C52.719 158.044 53.1191 158.169 53.6054 158.169ZM59.8469 159L57.6863 151.909H58.8312L60.3639 157.338H60.4378L61.952 151.909H63.1153L64.6111 157.32H64.6849L66.2176 151.909H67.3625L65.202 159H64.1309L62.5798 153.553H62.469L60.9179 159H59.8469ZM69.5969 159.074C69.3691 159.074 69.1737 158.992 69.0106 158.829C68.8474 158.666 68.7659 158.471 68.7659 158.243C68.7659 158.015 68.8474 157.82 69.0106 157.657C69.1737 157.493 69.3691 157.412 69.5969 157.412C69.8246 157.412 70.02 157.493 70.1831 157.657C70.3463 157.82 70.4278 158.015 70.4278 158.243C70.4278 158.394 70.3894 158.532 70.3124 158.658C70.2385 158.785 70.1385 158.886 70.0123 158.963C69.8892 159.037 69.7507 159.074 69.5969 159.074ZM69.5969 153.811C69.3691 153.811 69.1737 153.73 69.0106 153.566C68.8474 153.403 68.7659 153.208 68.7659 152.98C68.7659 152.752 68.8474 152.557 69.0106 152.394C69.1737 152.231 69.3691 152.149 69.5969 152.149C69.8246 152.149 70.02 152.231 70.1831 152.394C70.3463 152.557 70.4278 152.752 70.4278 152.98C70.4278 153.131 70.3894 153.269 70.3124 153.396C70.2385 153.522 70.1385 153.623 70.0123 153.7C69.8892 153.774 69.7507 153.811 69.5969 153.811Z" fill="white"/>
</svg>
