<svg width="1422" height="572" viewBox="0 0 1422 572" fill="none" xmlns="http://www.w3.org/2000/svg">
<mask id="mask0_6_1194" style="mask-type:alpha" maskUnits="userSpaceOnUse" x="0" y="0" width="1422" height="572">
<path d="M0 20C0 8.95431 8.95431 0 20 0H1402C1413.05 0 1422 8.9543 1422 20V552C1422 563.046 1413.05 572 1402 572H20C8.95427 572 0 563.046 0 552V20Z" fill="#7252DC"/>
</mask>
<g mask="url(#mask0_6_1194)">
<g filter="url(#filter0_bd_6_1194)">
<path d="M627.209 463.991C626.066 459.723 628.598 455.337 632.866 454.193L885.939 386.383C890.206 385.239 894.593 387.772 895.737 392.039L925.242 502.155C926.386 506.423 923.853 510.809 919.585 511.953L666.513 579.763C662.245 580.907 657.858 578.374 656.715 574.107L627.209 463.991Z" fill="white"/>
<path d="M627.692 463.862C626.62 459.861 628.994 455.748 632.995 454.676L886.068 386.865C890.069 385.793 894.182 388.168 895.254 392.169L924.759 502.284C925.831 506.285 923.457 510.398 919.456 511.47L666.383 579.281C662.382 580.353 658.27 577.978 657.198 573.977L627.692 463.862Z" stroke="white"/>
</g>
<g filter="url(#filter1_b_6_1194)">
<path d="M629.396 465.072C628.252 460.804 630.785 456.417 635.053 455.274L884.632 388.399C888.9 387.255 893.287 389.788 894.43 394.056L923.116 501.113C924.26 505.381 921.727 509.768 917.46 510.911L667.88 577.786C663.612 578.93 659.225 576.397 658.082 572.129L629.396 465.072Z" fill="white"/>
<path d="M630.845 464.683C629.916 461.216 631.973 457.652 635.441 456.723L885.021 389.848C888.488 388.919 892.052 390.977 892.982 394.444L921.668 501.502C922.597 504.969 920.539 508.533 917.071 509.463L667.491 576.337C664.024 577.266 660.46 575.209 659.531 571.741L630.845 464.683Z" stroke="#E6C4F2" stroke-width="3"/>
</g>
<rect x="641.29" y="494.363" width="266" height="1" transform="rotate(-15 641.29 494.363)" fill="#F3F3F3"/>
<path d="M653.001 474.08C653.206 475.147 653.209 475.945 653.009 476.474L657.379 475.303L655.458 468.133L651.942 469.075C651.988 469.314 652.086 469.763 652.236 470.423C652.384 471.074 652.525 471.718 652.659 472.355C652.792 472.983 652.906 473.558 653.001 474.08ZM652.663 479.298L651.759 479.541L651.076 476.992L651.641 476.84C651.917 476.667 652.073 476.379 652.109 475.975C652.152 475.568 652.115 474.995 651.998 474.255C651.764 472.981 651.495 471.693 651.192 470.393C650.99 469.505 650.838 468.855 650.736 468.442L656.286 466.955L658.447 475.017L659.451 474.747L660.134 477.297L659.23 477.539L658.73 475.923L652.288 477.649L652.663 479.298ZM663.617 473.806C664.27 473.631 664.728 473.266 664.992 472.711C665.265 472.153 665.301 471.502 665.101 470.757L665.078 470.669C664.874 469.907 664.514 469.353 664 469.007C663.494 468.658 662.914 468.571 662.261 468.746C661.6 468.923 661.137 469.289 660.873 469.844C660.609 470.4 660.578 471.054 660.78 471.807L660.807 471.908C661.011 472.67 661.361 473.222 661.856 473.565C662.36 473.905 662.947 473.986 663.617 473.806ZM663.837 474.676C662.907 474.925 662.053 474.817 661.274 474.353C660.5 473.879 659.985 473.16 659.727 472.197L659.7 472.097C659.438 471.117 659.524 470.233 659.958 469.443C660.401 468.652 661.091 468.13 662.029 467.879C662.966 467.628 663.821 467.736 664.592 468.202C665.369 468.658 665.889 469.375 666.151 470.355L666.178 470.455C666.443 471.443 666.353 472.333 665.911 473.124C665.465 473.908 664.774 474.425 663.837 474.676ZM671.44 472.639C670.452 472.903 669.584 472.795 668.836 472.313C668.088 471.832 667.54 470.943 667.192 469.645L667.085 469.243C666.919 468.624 666.797 468.069 666.719 467.578C666.64 467.079 666.614 466.565 666.643 466.037C666.67 465.501 666.769 465.034 666.941 464.638C667.113 464.242 667.392 463.876 667.777 463.54C668.171 463.201 668.669 462.933 669.271 462.736L669.519 462.656C670.426 462.359 671.025 462.1 671.316 461.878L671.689 462.72C671.312 463.019 670.677 463.31 669.784 463.594L669.599 463.657C668.599 463.979 667.964 464.504 667.692 465.231C667.427 465.948 667.427 466.953 667.692 468.246L667.743 468.232C667.845 467.711 668.083 467.258 668.454 466.871C668.832 466.473 669.319 466.195 669.913 466.036C670.826 465.791 671.633 465.893 672.337 466.342C673.046 466.78 673.527 467.468 673.778 468.405L673.791 468.455C674.063 469.468 673.974 470.358 673.524 471.125C673.081 471.88 672.386 472.385 671.44 472.639ZM669.467 471.552C669.966 471.876 670.551 471.948 671.22 471.769C671.89 471.589 672.357 471.24 672.622 470.72C672.892 470.19 672.924 469.536 672.715 468.757L672.708 468.732C672.513 468.004 672.184 467.478 671.72 467.153C671.264 466.827 670.706 466.752 670.045 466.929C669.35 467.115 668.856 467.481 668.562 468.026C668.277 468.569 668.235 469.217 668.437 469.971L668.444 469.996C668.635 470.708 668.976 471.226 669.467 471.552ZM678.024 470.875C677.379 471.047 676.809 471.03 676.314 470.821C675.824 470.602 675.493 470.171 675.321 469.526C675.224 469.166 675.228 468.829 675.332 468.514C675.442 468.188 675.636 467.907 675.914 467.671C676.189 467.427 676.506 467.221 676.865 467.053C677.222 466.877 677.622 466.729 678.066 466.61L679.007 466.358L678.879 465.881C678.738 465.354 678.528 465.006 678.25 464.838C677.97 464.662 677.578 464.641 677.076 464.776C676.172 465.018 675.775 465.546 675.885 466.36L674.843 466.639C674.722 465.918 674.856 465.331 675.246 464.876C675.641 464.411 676.191 464.085 676.894 463.896C678.493 463.468 679.502 464.036 679.922 465.602L681.082 469.934L680.04 470.213L679.818 469.384C679.484 470.147 678.886 470.643 678.024 470.875ZM677.902 470.019C678.471 469.866 678.899 469.604 679.185 469.231C679.477 468.848 679.557 468.409 679.425 467.915L679.206 467.099L678.302 467.341C676.778 467.749 676.132 468.385 676.363 469.247C676.56 469.984 677.073 470.241 677.902 470.019ZM681.295 462.838L683.593 462.222C685.133 461.81 686.052 462.16 686.351 463.273L686.361 463.311C686.446 463.629 686.437 463.946 686.333 464.261C686.226 464.567 686.01 464.814 685.683 465C686.649 464.956 687.238 465.328 687.449 466.115L687.459 466.153C687.629 466.789 687.549 467.326 687.218 467.765C686.895 468.201 686.365 468.518 685.629 468.716L683.054 469.405L681.295 462.838ZM682.559 463.388L683.081 465.334L684.336 464.997C684.772 464.881 685.06 464.718 685.202 464.51C685.351 464.299 685.378 464.014 685.282 463.654L685.272 463.616C685.182 463.281 685.02 463.078 684.785 463.006C684.557 462.924 684.229 462.94 683.802 463.055L682.559 463.388ZM683.303 466.163L683.875 468.297L685.306 467.914C685.767 467.79 686.084 467.62 686.259 467.403C686.44 467.175 686.482 466.877 686.383 466.508L686.373 466.471C686.274 466.102 686.089 465.865 685.819 465.758C685.556 465.649 685.195 465.656 684.734 465.779L683.303 466.163ZM689.64 467.641L687.88 461.074L688.922 460.794L690.278 465.855L692.275 459.896L693.317 459.617L695.077 466.184L694.034 466.463L692.679 461.403L690.682 467.362L689.64 467.641ZM700.143 458.73L698.021 459.299L699.545 464.987L698.503 465.266L696.978 459.578L694.856 460.146L694.621 459.267L699.907 457.851L700.143 458.73ZM701.344 457.466L702.387 457.187L703.002 459.485L704.17 459.172C704.907 458.974 705.558 458.993 706.123 459.227C706.688 459.461 707.066 459.934 707.257 460.646L707.267 460.684C707.46 461.404 707.367 461.994 706.988 462.454C706.617 462.912 706.059 463.241 705.314 463.441L703.104 464.033L701.344 457.466ZM705.158 462.608C705.66 462.473 705.992 462.272 706.154 462.005C706.313 461.729 706.337 461.381 706.225 460.963L706.215 460.925C706.093 460.473 705.892 460.173 705.61 460.024C705.334 459.865 704.949 459.851 704.455 459.984L703.224 460.313L703.928 462.938L705.158 462.608ZM712.776 457.848L713.674 461.201L712.632 461.48L710.872 454.913L711.915 454.634L712.736 457.697L714.64 453.903L715.858 453.577L713.872 457.42L717.856 460.08L716.588 460.42L712.776 457.848ZM722.592 455.675L719.365 456.54L720.149 459.466L719.107 459.745L717.347 453.178L718.389 452.899L719.13 455.661L722.357 454.796L721.617 452.034L722.659 451.755L724.418 458.322L723.376 458.601L722.592 455.675ZM729.137 456.25C729.79 456.075 730.248 455.71 730.512 455.155C730.784 454.597 730.821 453.946 730.621 453.201L730.598 453.113C730.393 452.351 730.034 451.797 729.52 451.451C729.013 451.102 728.434 451.015 727.781 451.19C727.119 451.367 726.657 451.733 726.393 452.288C726.129 452.844 726.098 453.498 726.3 454.251L726.327 454.352C726.531 455.114 726.881 455.666 727.376 456.009C727.88 456.349 728.467 456.43 729.137 456.25ZM729.356 457.12C728.427 457.369 727.573 457.261 726.793 456.797C726.02 456.323 725.505 455.604 725.247 454.641L725.22 454.541C724.957 453.561 725.043 452.677 725.478 451.888C725.921 451.096 726.611 450.575 727.549 450.323C728.486 450.072 729.34 450.18 730.111 450.646C730.889 451.102 731.408 451.819 731.671 452.799L731.698 452.899C731.962 453.887 731.873 454.777 731.43 455.568C730.985 456.352 730.294 456.869 729.356 457.12ZM736.724 448.928L733.622 449.759L735.146 455.447L734.104 455.727L732.344 449.159L737.531 447.77L739.29 454.337L738.248 454.616L736.724 448.928ZM741.544 450.14L742.443 453.492L741.4 453.772L739.641 447.204L740.683 446.925L741.504 449.989L743.408 446.195L744.626 445.869L742.641 449.711L746.624 452.372L745.356 452.712L741.544 450.14ZM749.602 450.847L745.45 445.648L746.568 445.348L749.838 449.519L750.397 444.322L751.465 444.036L750.208 453.861L749.153 454.144L749.602 450.847Z" fill="#222222"/>
<circle cx="675.25" cy="524.478" r="6.5" transform="rotate(-15 675.25 524.478)" fill="#4FD002"/>
<path d="M674.902 527.053L672.39 525.602L672.911 524.698L674.52 525.627L676.866 521.563L677.771 522.085L674.902 527.053Z" fill="white"/>
<path d="M690.325 499.732C689.754 497.598 691.02 495.405 693.154 494.833L888.271 442.552C890.405 441.98 892.598 443.246 893.17 445.38L903.005 482.086C903.577 484.219 902.31 486.413 900.176 486.985L705.059 539.266C702.926 539.838 700.732 538.571 700.16 536.438L690.325 499.732Z" fill="#F2F2F2"/>
<path d="M779.841 491.446L780.849 491.176L781.918 495.164L784.451 490.199L785.575 489.897L782.97 494.919L787.985 498.147L786.768 498.473L781.986 495.419L783.07 499.464L782.062 499.734L779.841 491.446ZM792.282 494.101L789.303 494.899L790.027 497.6L789.065 497.857L787.441 491.795L788.403 491.538L789.086 494.088L792.065 493.289L791.382 490.739L792.344 490.482L793.968 496.544L793.006 496.801L792.282 494.101ZM798.323 494.631C798.926 494.47 799.349 494.133 799.593 493.62C799.844 493.106 799.878 492.504 799.694 491.817L799.672 491.736C799.483 491.032 799.152 490.521 798.677 490.201C798.209 489.879 797.674 489.799 797.072 489.96C796.461 490.124 796.034 490.462 795.791 490.974C795.547 491.487 795.518 492.091 795.705 492.786L795.729 492.879C795.918 493.582 796.241 494.092 796.698 494.408C797.163 494.723 797.705 494.797 798.323 494.631ZM798.526 495.434C797.668 495.664 796.88 495.565 796.16 495.136C795.447 494.698 794.971 494.035 794.733 493.146L794.708 493.053C794.465 492.149 794.545 491.333 794.946 490.604C795.355 489.873 795.992 489.392 796.857 489.16C797.723 488.928 798.511 489.028 799.223 489.458C799.94 489.879 800.42 490.541 800.662 491.445L800.687 491.538C800.932 492.45 800.849 493.271 800.441 494.002C800.03 494.725 799.392 495.202 798.526 495.434ZM805.327 487.872L802.464 488.639L803.871 493.89L802.909 494.148L801.284 488.086L806.071 486.803L807.696 492.865L806.734 493.123L805.327 487.872ZM809.777 488.991L810.606 492.086L809.644 492.343L808.019 486.281L808.981 486.023L809.739 488.852L811.497 485.349L812.621 485.048L810.789 488.595L814.466 491.051L813.295 491.365L809.777 488.991ZM817.18 490.436C816.585 490.595 816.059 490.579 815.601 490.387C815.15 490.185 814.844 489.786 814.685 489.191C814.596 488.859 814.599 488.548 814.695 488.257C814.797 487.956 814.976 487.697 815.232 487.479C815.486 487.254 815.779 487.064 816.11 486.909C816.439 486.746 816.809 486.61 817.218 486.5L818.088 486.267L817.97 485.826C817.839 485.34 817.646 485.019 817.389 484.864C817.13 484.701 816.769 484.682 816.305 484.807C815.47 485.03 815.104 485.518 815.206 486.269L814.244 486.527C814.132 485.861 814.256 485.318 814.615 484.899C814.981 484.47 815.488 484.168 816.137 483.994C817.613 483.599 818.545 484.124 818.932 485.569L820.003 489.568L819.041 489.825L818.836 489.06C818.528 489.764 817.976 490.223 817.18 490.436ZM817.068 489.646C817.593 489.505 817.988 489.263 818.252 488.919C818.521 488.565 818.595 488.16 818.473 487.704L818.271 486.951L817.436 487.174C816.03 487.551 815.433 488.138 815.647 488.934C815.829 489.614 816.302 489.851 817.068 489.646Z" fill="#222222"/>
<g filter="url(#filter2_bd_6_1194)">
<path d="M668.209 606.991C667.066 602.723 669.598 598.337 673.866 597.193L926.939 529.383C931.206 528.239 935.593 530.772 936.737 535.039L966.242 645.155C967.386 649.423 964.853 653.809 960.585 654.953L707.513 722.763C703.245 723.907 698.858 721.374 697.715 717.107L668.209 606.991Z" fill="white"/>
<path d="M668.692 606.862C667.62 602.861 669.994 598.748 673.995 597.676L927.068 529.865C931.069 528.793 935.182 531.168 936.254 535.169L965.759 645.284C966.831 649.285 964.457 653.398 960.456 654.47L707.383 722.281C703.382 723.353 699.27 720.978 698.198 716.977L668.692 606.862Z" stroke="white"/>
</g>
<g filter="url(#filter3_b_6_1194)">
<path d="M670.396 608.072C669.252 603.804 671.785 599.417 676.053 598.274L925.632 531.399C929.9 530.255 934.287 532.788 935.43 537.056L964.116 644.113C965.26 648.381 962.727 652.768 958.46 653.911L708.88 720.786C704.612 721.93 700.225 719.397 699.082 715.129L670.396 608.072Z" fill="white"/>
<path d="M671.845 607.683C670.916 604.216 672.973 600.652 676.441 599.723L926.021 532.848C929.488 531.919 933.052 533.977 933.982 537.444L962.668 644.502C963.597 647.969 961.539 651.533 958.071 652.463L708.491 719.337C705.024 720.266 701.46 718.209 700.531 714.741L671.845 607.683Z" stroke="#E6C4F2" stroke-width="3"/>
</g>
<rect x="682.29" y="637.363" width="266" height="1" transform="rotate(-15 682.29 637.363)" fill="#F3F3F3"/>
<g filter="url(#filter4_b_6_1194)">
<path d="M923.141 332.991C921.997 328.723 924.53 324.337 928.798 323.193L1181.87 255.383C1186.14 254.239 1190.52 256.772 1191.67 261.039L1241.88 448.429C1243.02 452.697 1240.49 457.083 1236.22 458.227L983.15 526.038C978.882 527.181 974.495 524.648 973.352 520.381L923.141 332.991Z" fill="white"/>
<path d="M923.624 332.862C922.552 328.861 924.926 324.748 928.927 323.676L1182 255.865C1186 254.793 1190.11 257.168 1191.19 261.169L1241.4 448.558C1242.47 452.559 1240.09 456.672 1236.09 457.744L983.02 525.555C979.019 526.627 974.907 524.252 973.835 520.251L923.624 332.862Z" stroke="white"/>
</g>
<g filter="url(#filter5_b_6_1194)">
<path d="M925.149 334.237C924.005 329.969 926.538 325.583 930.806 324.439L1180.91 257.423C1185.18 256.28 1189.57 258.813 1190.71 263.08L1239.98 446.974C1241.13 451.242 1238.59 455.629 1234.33 456.772L984.221 523.788C979.953 524.931 975.566 522.399 974.423 518.131L925.149 334.237Z" fill="white"/>
<path d="M926.598 333.849C925.668 330.381 927.726 326.817 931.194 325.888L1181.3 258.872C1184.77 257.943 1188.33 260.001 1189.26 263.469L1238.54 447.362C1239.46 450.83 1237.41 454.394 1233.94 455.323L983.833 522.339C980.365 523.268 976.801 521.21 975.872 517.743L926.598 333.849Z" stroke="#E6C4F2" stroke-width="3"/>
</g>
<rect x="938.471" y="366.22" width="266" height="1" transform="rotate(-15 938.471 366.22)" fill="#F3F3F3"/>
<rect x="949.082" y="405.823" width="266" height="1" transform="rotate(-15 949.082 405.823)" fill="#F3F3F3"/>
<rect x="962.471" y="445.22" width="266" height="1" transform="rotate(-15 962.471 445.22)" fill="#F3F3F3"/>
<rect x="973.342" y="485.789" width="266" height="1" transform="rotate(-15 973.342 485.789)" fill="#F3F3F3"/>
<path d="M991.98 376.243C990.782 376.564 989.734 376.439 988.836 375.868C987.945 375.295 987.328 374.367 986.984 373.085L986.959 372.992C986.63 371.763 986.726 370.653 987.247 369.66C987.768 368.667 988.592 368.02 989.72 367.718C990.624 367.475 991.449 367.507 992.193 367.813C992.945 368.117 993.484 368.689 993.809 369.529L992.812 369.796C992.524 369.186 992.148 368.773 991.685 368.558C991.229 368.34 990.649 368.326 989.946 368.514C989.089 368.744 988.481 369.242 988.123 370.009C987.763 370.768 987.722 371.665 987.999 372.701L988.024 372.794C988.308 373.852 988.782 374.616 989.445 375.084C990.115 375.542 990.894 375.652 991.783 375.414C992.47 375.23 992.985 374.91 993.327 374.454C993.674 373.988 993.813 373.408 993.743 372.715L994.682 372.463C994.793 373.436 994.609 374.247 994.129 374.897C993.647 375.54 992.93 375.989 991.98 376.243ZM999.224 373.445C999.827 373.284 1000.25 372.947 1000.49 372.434C1000.75 371.919 1000.78 371.318 1000.59 370.631L1000.57 370.549C1000.38 369.846 1000.05 369.335 999.578 369.015C999.11 368.693 998.575 368.612 997.973 368.774C997.362 368.937 996.935 369.275 996.691 369.788C996.448 370.301 996.419 370.905 996.605 371.6L996.63 371.693C996.819 372.396 997.142 372.906 997.599 373.222C998.064 373.536 998.606 373.611 999.224 373.445ZM999.427 374.248C998.569 374.478 997.781 374.378 997.061 373.95C996.347 373.512 995.872 372.848 995.633 371.96L995.609 371.867C995.366 370.963 995.446 370.147 995.847 369.418C996.256 368.687 996.893 368.206 997.758 367.974C998.624 367.742 999.412 367.841 1000.12 368.272C1000.84 368.693 1001.32 369.355 1001.56 370.259L1001.59 370.352C1001.83 371.264 1001.75 372.085 1001.34 372.816C1000.93 373.539 1000.29 374.016 999.427 374.248ZM1006.51 367.429C1006.59 367.731 1006.58 368.033 1006.47 368.335C1006.37 368.628 1006.17 368.848 1005.86 368.995C1006.28 368.959 1006.63 369.025 1006.92 369.195C1007.22 369.365 1007.42 369.639 1007.52 370.018L1007.53 370.052C1007.68 370.617 1007.59 371.128 1007.27 371.588C1006.95 372.045 1006.44 372.369 1005.73 372.56C1004.99 372.757 1004.37 372.741 1003.86 372.513C1003.36 372.275 1003.01 371.847 1002.81 371.229L1003.75 370.978C1003.9 371.352 1004.11 371.61 1004.38 371.753C1004.66 371.886 1005.03 371.888 1005.51 371.76C1006.38 371.528 1006.72 371.068 1006.53 370.381L1006.53 370.346C1006.43 370.006 1006.26 369.787 1006.01 369.688C1005.77 369.587 1005.44 369.594 1005.01 369.708L1004.1 369.953L1003.89 369.188L1004.65 368.986C1005.05 368.878 1005.31 368.728 1005.44 368.536C1005.58 368.342 1005.61 368.078 1005.52 367.746L1005.51 367.711C1005.35 367.116 1004.92 366.912 1004.23 367.098C1003.55 367.278 1003.24 367.703 1003.28 368.372L1002.35 368.62C1002.25 367.991 1002.37 367.485 1002.69 367.101C1003.01 366.715 1003.47 366.442 1004.07 366.283C1004.64 366.13 1005.16 366.149 1005.61 366.341C1006.07 366.526 1006.37 366.877 1006.5 367.395L1006.51 367.429ZM1010.09 368.769C1010.2 369.503 1010.2 370.048 1010.11 370.405L1012.95 369.644L1011.75 365.181L1009.53 365.777C1009.74 366.73 1009.93 367.728 1010.09 368.769ZM1009.91 372.905L1009.13 373.113L1008.52 370.83L1008.95 370.715C1009.15 370.603 1009.26 370.408 1009.28 370.13C1009.29 369.845 1009.26 369.45 1009.2 368.947C1009.1 368.302 1008.95 367.497 1008.76 366.53C1008.68 366.096 1008.58 365.657 1008.48 365.213L1012.48 364.141L1013.89 369.392L1014.81 369.144L1015.43 371.427L1014.65 371.635L1014.19 370.182L1009.58 371.415L1009.91 372.905ZM1017.85 369.31C1017.26 369.47 1016.73 369.453 1016.28 369.261C1015.82 369.059 1015.52 368.661 1015.36 368.066C1015.27 367.733 1015.27 367.422 1015.37 367.131C1015.47 366.831 1015.65 366.571 1015.91 366.354C1016.16 366.128 1016.45 365.938 1016.78 365.783C1017.11 365.62 1017.48 365.484 1017.89 365.374L1018.76 365.141L1018.64 364.701C1018.51 364.214 1018.32 363.893 1018.06 363.738C1017.8 363.576 1017.44 363.557 1016.98 363.681C1016.14 363.905 1015.78 364.392 1015.88 365.143L1014.92 365.401C1014.81 364.735 1014.93 364.193 1015.29 363.773C1015.66 363.344 1016.16 363.043 1016.81 362.869C1018.29 362.473 1019.22 362.998 1019.61 364.443L1020.68 368.442L1019.72 368.7L1019.51 367.935C1019.2 368.639 1018.65 369.097 1017.85 369.31ZM1017.74 368.521C1018.27 368.38 1018.66 368.137 1018.93 367.793C1019.2 367.439 1019.27 367.035 1019.15 366.579L1018.95 365.825L1018.11 366.049C1016.7 366.426 1016.11 367.012 1016.32 367.808C1016.5 368.488 1016.98 368.725 1017.74 368.521ZM1025.18 361.609L1023.22 362.134L1024.62 367.385L1023.66 367.643L1022.25 362.392L1020.3 362.917L1020.08 362.105L1024.96 360.798L1025.18 361.609ZM1026.28 360.442L1027.25 360.185L1027.81 362.306L1028.89 362.017C1029.57 361.835 1030.17 361.852 1030.7 362.068C1031.22 362.284 1031.57 362.721 1031.74 363.378L1031.75 363.413C1031.93 364.077 1031.84 364.622 1031.49 365.047C1031.15 365.47 1030.64 365.774 1029.95 365.958L1027.91 366.504L1026.28 360.442ZM1029.8 365.189C1030.27 365.065 1030.57 364.879 1030.72 364.632C1030.87 364.377 1030.89 364.057 1030.79 363.67L1030.78 363.636C1030.67 363.218 1030.48 362.941 1030.22 362.804C1029.97 362.657 1029.61 362.644 1029.16 362.766L1028.02 363.071L1028.67 365.493L1029.8 365.189ZM1039.11 362.757C1039.72 362.595 1040.14 362.258 1040.38 361.746C1040.63 361.231 1040.67 360.63 1040.48 359.942L1040.46 359.861C1040.27 359.158 1039.94 358.646 1039.47 358.326C1039 358.004 1038.46 357.924 1037.86 358.085C1037.25 358.249 1036.82 358.587 1036.58 359.1C1036.34 359.612 1036.31 360.216 1036.5 360.912L1036.52 361.004C1036.71 361.707 1037.03 362.217 1037.49 362.534C1037.95 362.848 1038.5 362.922 1039.11 362.757ZM1039.32 363.56C1038.46 363.789 1037.67 363.69 1036.95 363.262C1036.24 362.823 1035.76 362.16 1035.52 361.271L1035.5 361.179C1035.26 360.275 1035.34 359.458 1035.74 358.73C1036.15 357.999 1036.78 357.518 1037.65 357.286C1038.51 357.054 1039.3 357.153 1040.01 357.583C1040.73 358.004 1041.21 358.667 1041.45 359.571L1041.48 359.663C1041.72 360.575 1041.64 361.397 1041.23 362.127C1040.82 362.85 1040.18 363.328 1039.32 363.56ZM1046.12 355.998L1043.25 356.765L1044.66 362.016L1043.7 362.273L1042.07 356.211L1046.86 354.929L1048.49 360.991L1047.52 361.248L1046.12 355.998ZM1048.88 354.388L1049.84 354.13L1050.11 355.15C1050.21 354.793 1050.42 354.456 1050.74 354.138C1051.06 353.813 1051.43 353.592 1051.87 353.476C1052.68 353.259 1053.41 353.356 1054.07 353.768C1054.73 354.178 1055.19 354.85 1055.44 355.785L1055.47 355.878C1055.72 356.813 1055.66 357.639 1055.31 358.355C1054.96 359.061 1054.37 359.525 1053.55 359.747C1052.62 359.995 1051.84 359.812 1051.2 359.195L1052.03 362.302L1051.07 362.56L1048.88 354.388ZM1053.24 358.972C1053.84 358.81 1054.25 358.494 1054.46 358.023C1054.67 357.544 1054.68 356.933 1054.48 356.192L1054.46 356.099C1054.26 355.365 1053.93 354.848 1053.47 354.549C1053.01 354.241 1052.52 354.159 1051.98 354.304C1051.39 354.461 1050.96 354.787 1050.7 355.28C1050.44 355.764 1050.41 356.38 1050.61 357.13L1050.63 357.223C1050.83 357.972 1051.16 358.493 1051.62 358.784C1052.09 359.073 1052.63 359.136 1053.24 358.972ZM1060.11 357.13C1060.71 356.969 1061.14 356.632 1061.38 356.119C1061.63 355.605 1061.67 355.004 1061.48 354.316L1061.46 354.235C1061.27 353.531 1060.94 353.02 1060.46 352.7C1060 352.378 1059.46 352.298 1058.86 352.459C1058.25 352.623 1057.82 352.961 1057.58 353.473C1057.33 353.986 1057.31 354.59 1057.49 355.285L1057.52 355.378C1057.71 356.081 1058.03 356.591 1058.49 356.907C1058.95 357.222 1059.49 357.296 1060.11 357.13ZM1060.31 357.933C1059.46 358.163 1058.67 358.064 1057.95 357.635C1057.23 357.197 1056.76 356.534 1056.52 355.645L1056.5 355.552C1056.25 354.648 1056.33 353.832 1056.73 353.103C1057.14 352.373 1057.78 351.891 1058.65 351.659C1059.51 351.427 1060.3 351.527 1061.01 351.957C1061.73 352.378 1062.21 353.04 1062.45 353.944L1062.48 354.037C1062.72 354.949 1062.64 355.77 1062.23 356.501C1061.82 357.224 1061.18 357.701 1060.31 357.933ZM1067.31 356.059C1066.44 356.291 1065.66 356.203 1064.95 355.796C1064.25 355.381 1063.77 354.71 1063.52 353.782L1063.49 353.69C1063.25 352.778 1063.33 351.956 1063.74 351.226C1064.16 350.493 1064.78 350.016 1065.61 349.794C1066.3 349.608 1066.94 349.623 1067.52 349.841C1068.1 350.05 1068.53 350.507 1068.81 351.21L1067.86 351.465C1067.48 350.621 1066.8 350.331 1065.82 350.594C1065.26 350.745 1064.85 351.083 1064.59 351.607C1064.34 352.122 1064.3 352.727 1064.49 353.422L1064.52 353.515C1064.71 354.242 1065.04 354.754 1065.5 355.053C1065.97 355.35 1066.5 355.417 1067.11 355.256C1067.56 355.134 1067.92 354.902 1068.18 354.56C1068.44 354.208 1068.53 353.79 1068.45 353.306L1069.34 353.067C1069.46 353.748 1069.33 354.372 1068.95 354.937C1068.57 355.492 1068.03 355.866 1067.31 356.059Z" fill="#222222"/>
<path d="M1001.53 407.973L1002.85 407.619L1007.88 415.155L1006.88 415.422L1005.43 413.252L1002.01 414.168L1001.85 416.77L1000.9 417.025L1001.53 407.973ZM1002.07 413.294L1004.95 412.524L1002.37 408.643L1002.07 413.294ZM1009.33 411.449L1010.16 414.544L1009.2 414.802L1007.57 408.74L1008.53 408.482L1009.29 411.31L1011.05 407.808L1012.17 407.507L1010.34 411.054L1014.02 413.51L1012.85 413.823L1009.33 411.449ZM1020.51 413.349L1020.04 411.896L1015.17 413.2L1013.55 407.138L1014.51 406.88L1015.92 412.131L1018.78 411.364L1017.37 406.113L1018.34 405.856L1019.74 411.106L1020.67 410.858L1021.28 413.141L1020.51 413.349ZM1022.09 411.347L1020.47 405.285L1021.43 405.027L1022.68 409.698L1024.52 404.198L1025.48 403.94L1027.11 410.002L1026.15 410.26L1024.9 405.589L1023.05 411.089L1022.09 411.347ZM1029.54 403.675C1028.67 403.907 1028.34 404.39 1028.53 405.124L1028.54 405.158C1028.64 405.506 1028.81 405.742 1029.05 405.866C1029.3 405.99 1029.66 405.99 1030.12 405.865L1031.26 405.561L1030.67 403.37L1029.54 403.675ZM1029.36 409.4L1028.25 409.695L1029.42 406.663C1028.43 406.721 1027.82 406.305 1027.58 405.416L1027.57 405.381C1027.4 404.748 1027.49 404.222 1027.84 403.805C1028.19 403.38 1028.71 403.076 1029.39 402.894L1031.43 402.347L1033.05 408.41L1032.09 408.667L1031.45 406.291L1030.41 406.571L1029.36 409.4Z" fill="#222222"/>
<path d="M1016.12 456.817C1014.93 457.138 1013.88 457.013 1012.98 456.442C1012.09 455.869 1011.47 454.941 1011.13 453.658L1011.1 453.565C1010.77 452.337 1010.87 451.226 1011.39 450.233C1011.91 449.241 1012.74 448.593 1013.86 448.291C1014.77 448.049 1015.59 448.081 1016.34 448.386C1017.09 448.69 1017.63 449.262 1017.95 450.103L1016.96 450.37C1016.67 449.759 1016.29 449.347 1015.83 449.131C1015.37 448.914 1014.79 448.899 1014.09 449.088C1013.23 449.318 1012.62 449.816 1012.27 450.583C1011.91 451.342 1011.87 452.239 1012.14 453.274L1012.17 453.367C1012.45 454.426 1012.93 455.189 1013.59 455.657C1014.26 456.116 1015.04 456.226 1015.93 455.988C1016.61 455.803 1017.13 455.483 1017.47 455.027C1017.82 454.561 1017.96 453.982 1017.89 453.288L1018.83 453.037C1018.94 454.009 1018.75 454.82 1018.27 455.471C1017.79 456.113 1017.07 456.562 1016.12 456.817ZM1021.09 452.057L1021.92 455.152L1020.96 455.41L1019.33 449.347L1020.3 449.09L1021.05 451.918L1022.81 448.416L1023.93 448.114L1022.1 451.662L1025.78 454.118L1024.61 454.431L1021.09 452.057ZM1026.93 453.808L1025.31 447.746L1026.27 447.488L1027.52 452.159L1029.37 446.659L1030.33 446.401L1031.95 452.463L1030.99 452.721L1029.74 448.05L1027.9 453.55L1026.93 453.808ZM1034.34 449.315C1034.44 450.049 1034.45 450.594 1034.35 450.951L1037.19 450.19L1036 445.727L1033.77 446.323C1033.99 447.277 1034.17 448.274 1034.34 449.315ZM1034.15 453.451L1033.38 453.66L1032.77 451.376L1033.19 451.261C1033.4 451.149 1033.51 450.954 1033.52 450.676C1033.54 450.391 1033.51 449.996 1033.44 449.493C1033.34 448.849 1033.2 448.043 1033 447.076C1032.92 446.642 1032.83 446.203 1032.73 445.759L1036.72 444.687L1038.13 449.938L1039.06 449.69L1039.67 451.973L1038.89 452.181L1038.43 450.728L1033.83 451.961L1034.15 453.451ZM1040.62 446.825L1041.45 449.92L1040.48 450.178L1038.86 444.115L1039.82 443.858L1040.58 446.686L1042.34 443.184L1043.46 442.882L1041.63 446.43L1045.31 448.886L1044.13 449.199L1040.62 446.825ZM1048.02 448.27C1047.42 448.43 1046.9 448.413 1046.44 448.221C1045.99 448.019 1045.68 447.621 1045.52 447.026C1045.44 446.693 1045.44 446.382 1045.53 446.091C1045.64 445.79 1045.82 445.531 1046.07 445.314C1046.33 445.088 1046.62 444.898 1046.95 444.743C1047.28 444.58 1047.65 444.444 1048.06 444.334L1048.93 444.101L1048.81 443.661C1048.68 443.174 1048.49 442.853 1048.23 442.698C1047.97 442.536 1047.61 442.517 1047.14 442.641C1046.31 442.864 1045.94 443.352 1046.05 444.103L1045.08 444.361C1044.97 443.695 1045.1 443.153 1045.46 442.733C1045.82 442.304 1046.33 442.002 1046.98 441.829C1048.45 441.433 1049.38 441.958 1049.77 443.403L1050.84 447.402L1049.88 447.66L1049.68 446.895C1049.37 447.598 1048.82 448.057 1048.02 448.27ZM1047.91 447.48C1048.43 447.34 1048.83 447.097 1049.09 446.753C1049.36 446.399 1049.43 445.994 1049.31 445.538L1049.11 444.785L1048.28 445.009C1046.87 445.385 1046.27 445.972 1046.49 446.768C1046.67 447.448 1047.14 447.685 1047.91 447.48Z" fill="#222222"/>
<path d="M1027.01 487.02L1022.77 488.157L1024.77 495.598L1023.76 495.869L1021.54 487.581L1027.8 485.904L1030.02 494.191L1029.01 494.462L1027.01 487.02ZM1034.44 492.261C1035.04 492.099 1035.47 491.762 1035.71 491.25C1035.96 490.735 1035.99 490.134 1035.81 489.446L1035.79 489.365C1035.6 488.662 1035.27 488.15 1034.79 487.83C1034.33 487.508 1033.79 487.428 1033.19 487.589C1032.58 487.753 1032.15 488.091 1031.91 488.604C1031.66 489.116 1031.63 489.72 1031.82 490.416L1031.85 490.508C1032.03 491.211 1032.36 491.721 1032.81 492.038C1033.28 492.352 1033.82 492.426 1034.44 492.261ZM1034.64 493.064C1033.78 493.293 1033 493.194 1032.28 492.766C1031.56 492.327 1031.09 491.664 1030.85 490.775L1030.82 490.683C1030.58 489.779 1030.66 488.962 1031.06 488.234C1031.47 487.503 1032.11 487.022 1032.97 486.79C1033.84 486.558 1034.63 486.657 1035.34 487.088C1036.06 487.508 1036.54 488.171 1036.78 489.075L1036.8 489.167C1037.05 490.079 1036.97 490.901 1036.56 491.631C1036.15 492.354 1035.51 492.832 1034.64 493.064ZM1039.16 488.425L1039.99 491.52L1039.03 491.777L1037.4 485.715L1038.36 485.457L1039.12 488.286L1040.88 484.784L1042 484.482L1040.17 488.029L1043.85 490.485L1042.68 490.799L1039.16 488.425ZM1046.56 489.87C1045.97 490.029 1045.44 490.013 1044.98 489.821C1044.53 489.619 1044.23 489.22 1044.07 488.625C1043.98 488.293 1043.98 487.982 1044.08 487.691C1044.18 487.39 1044.36 487.131 1044.61 486.913C1044.87 486.688 1045.16 486.498 1045.49 486.343C1045.82 486.18 1046.19 486.044 1046.6 485.934L1047.47 485.701L1047.35 485.26C1047.22 484.774 1047.03 484.453 1046.77 484.298C1046.51 484.135 1046.15 484.116 1045.69 484.241C1044.85 484.464 1044.49 484.952 1044.59 485.703L1043.63 485.961C1043.51 485.295 1043.64 484.752 1044 484.333C1044.36 483.904 1044.87 483.602 1045.52 483.428C1046.99 483.033 1047.93 483.558 1048.31 485.003L1049.38 489.002L1048.42 489.259L1048.22 488.494C1047.91 489.198 1047.36 489.657 1046.56 489.87ZM1046.45 489.08C1046.97 488.939 1047.37 488.697 1047.63 488.353C1047.9 487.999 1047.98 487.594 1047.85 487.138L1047.65 486.385L1046.82 486.608C1045.41 486.985 1044.82 487.572 1045.03 488.368C1045.21 489.048 1045.68 489.285 1046.45 489.08ZM1053.91 482.981C1053.99 483.283 1053.98 483.585 1053.87 483.887C1053.76 484.18 1053.56 484.4 1053.26 484.547C1053.67 484.511 1054.03 484.578 1054.32 484.747C1054.61 484.917 1054.81 485.191 1054.91 485.57L1054.92 485.605C1055.07 486.169 1054.99 486.68 1054.66 487.14C1054.35 487.597 1053.83 487.921 1053.12 488.112C1052.39 488.309 1051.77 488.293 1051.26 488.065C1050.76 487.827 1050.41 487.399 1050.21 486.781L1051.15 486.53C1051.3 486.904 1051.51 487.162 1051.78 487.305C1052.05 487.438 1052.43 487.441 1052.91 487.312C1053.77 487.08 1054.11 486.62 1053.93 485.933L1053.92 485.898C1053.83 485.558 1053.66 485.339 1053.41 485.24C1053.17 485.139 1052.83 485.146 1052.41 485.26L1051.49 485.505L1051.29 484.74L1052.04 484.538C1052.44 484.43 1052.71 484.28 1052.84 484.088C1052.98 483.894 1053 483.63 1052.91 483.298L1052.9 483.263C1052.74 482.668 1052.32 482.464 1051.62 482.65C1050.95 482.83 1050.63 483.255 1050.67 483.924L1049.74 484.172C1049.65 483.543 1049.76 483.037 1050.08 482.653C1050.41 482.267 1050.87 481.994 1051.47 481.835C1052.04 481.682 1052.55 481.701 1053.01 481.893C1053.46 482.078 1053.76 482.429 1053.9 482.947L1053.91 482.981ZM1058.61 486.643C1058.01 486.802 1057.48 486.786 1057.03 486.594C1056.58 486.392 1056.27 485.993 1056.11 485.398C1056.02 485.066 1056.02 484.754 1056.12 484.464C1056.22 484.163 1056.4 483.904 1056.66 483.686C1056.91 483.461 1057.2 483.27 1057.54 483.115C1057.86 482.953 1058.23 482.816 1058.64 482.707L1059.51 482.474L1059.4 482.033C1059.26 481.546 1059.07 481.226 1058.81 481.071C1058.56 480.908 1058.19 480.889 1057.73 481.013C1056.9 481.237 1056.53 481.724 1056.63 482.476L1055.67 482.733C1055.56 482.068 1055.68 481.525 1056.04 481.106C1056.41 480.677 1056.91 480.375 1057.56 480.201C1059.04 479.806 1059.97 480.33 1060.36 481.776L1061.43 485.774L1060.47 486.032L1060.26 485.267C1059.95 485.971 1059.4 486.43 1058.61 486.643ZM1058.49 485.853C1059.02 485.712 1059.41 485.47 1059.68 485.126C1059.95 484.772 1060.02 484.367 1059.9 483.911L1059.7 483.158L1058.86 483.381C1057.46 483.758 1056.86 484.344 1057.07 485.14C1057.25 485.82 1057.73 486.058 1058.49 485.853ZM1065.93 478.942L1063.97 479.466L1065.37 484.717L1064.41 484.975L1063.01 479.724L1061.05 480.249L1060.83 479.438L1065.71 478.13L1065.93 478.942ZM1067.04 477.775L1068 477.517L1068.57 479.638L1069.64 479.349C1070.32 479.167 1070.92 479.184 1071.45 479.4C1071.97 479.617 1072.32 480.053 1072.49 480.71L1072.5 480.745C1072.68 481.41 1072.59 481.954 1072.24 482.379C1071.9 482.802 1071.39 483.106 1070.7 483.29L1068.66 483.837L1067.04 477.775ZM1070.56 482.521C1071.02 482.397 1071.33 482.211 1071.47 481.964C1071.62 481.71 1071.64 481.389 1071.54 481.003L1071.53 480.968C1071.42 480.551 1071.23 480.273 1070.97 480.136C1070.72 479.989 1070.36 479.977 1069.91 480.099L1068.77 480.403L1069.42 482.826L1070.56 482.521ZM1077.59 478.128L1078.42 481.222L1077.45 481.48L1075.83 475.418L1076.79 475.16L1077.55 477.989L1079.31 474.486L1080.43 474.185L1078.6 477.732L1082.28 480.188L1081.11 480.502L1077.59 478.128ZM1085.62 478.548C1086.22 478.387 1086.64 478.05 1086.88 477.537C1087.14 477.023 1087.17 476.421 1086.99 475.734L1086.96 475.653C1086.78 474.949 1086.44 474.438 1085.97 474.118C1085.5 473.796 1084.97 473.716 1084.36 473.877C1083.75 474.041 1083.33 474.379 1083.08 474.891C1082.84 475.404 1082.81 476.008 1083 476.703L1083.02 476.796C1083.21 477.499 1083.53 478.009 1083.99 478.325C1084.46 478.64 1085 478.714 1085.62 478.548ZM1085.82 479.351C1084.96 479.581 1084.17 479.482 1083.45 479.053C1082.74 478.615 1082.26 477.952 1082.02 477.063L1082 476.97C1081.76 476.066 1081.84 475.25 1082.24 474.521C1082.65 473.791 1083.28 473.309 1084.15 473.077C1085.01 472.845 1085.8 472.945 1086.51 473.375C1087.23 473.796 1087.71 474.458 1087.95 475.362L1087.98 475.455C1088.22 476.367 1088.14 477.188 1087.73 477.919C1087.32 478.642 1086.68 479.119 1085.82 479.351ZM1093.42 474.308L1090.44 475.107L1091.16 477.807L1090.2 478.065L1088.58 472.003L1089.54 471.745L1090.22 474.295L1093.2 473.497L1092.52 470.947L1093.48 470.689L1095.1 476.751L1094.14 477.009L1093.42 474.308ZM1099.9 469.839L1097.94 470.364L1099.34 475.615L1098.38 475.873L1096.97 470.622L1095.02 471.147L1094.8 470.336L1099.68 469.028L1099.9 469.839ZM1104.19 474.429C1103.59 474.588 1103.07 474.572 1102.61 474.38C1102.16 474.178 1101.85 473.779 1101.69 473.184C1101.6 472.852 1101.61 472.54 1101.7 472.25C1101.81 471.949 1101.98 471.69 1102.24 471.472C1102.5 471.247 1102.79 471.056 1103.12 470.901C1103.45 470.739 1103.82 470.602 1104.23 470.493L1105.1 470.26L1104.98 469.819C1104.85 469.332 1104.65 469.012 1104.4 468.857C1104.14 468.694 1103.78 468.675 1103.31 468.799C1102.48 469.023 1102.11 469.51 1102.21 470.262L1101.25 470.519C1101.14 469.854 1101.26 469.311 1101.62 468.892C1101.99 468.463 1102.5 468.161 1103.15 467.987C1104.62 467.592 1105.55 468.116 1105.94 469.561L1107.01 473.56L1106.05 473.818L1105.85 473.053C1105.54 473.757 1104.98 474.216 1104.19 474.429ZM1104.08 473.639C1104.6 473.498 1105 473.256 1105.26 472.912C1105.53 472.558 1105.6 472.153 1105.48 471.697L1105.28 470.944L1104.45 471.167C1103.04 471.544 1102.44 472.13 1102.66 472.926C1102.84 473.606 1103.31 473.844 1104.08 473.639ZM1108.97 469.72L1109.79 472.815L1108.83 473.073L1107.21 467.011L1108.17 466.753L1108.93 469.581L1110.69 466.079L1111.81 465.778L1109.98 469.325L1113.65 471.781L1112.48 472.094L1108.97 469.72ZM1117.66 465.081L1115.7 465.606L1117.1 470.856L1116.14 471.114L1114.74 465.863L1112.78 466.388L1112.56 465.577L1117.44 464.269L1117.66 465.081Z" fill="#222222"/>
<circle cx="965.432" cy="379.335" r="6.5" transform="rotate(-15 965.432 379.335)" fill="#4FD002"/>
<circle cx="977.432" cy="421.038" r="6.5" transform="rotate(-15 977.432 421.038)" fill="#4FD002"/>
<circle cx="1000.43" cy="500.335" r="6.5" transform="rotate(-15 1000.43 500.335)" fill="#4FD002"/>
<circle cx="988.432" cy="459.335" r="6" transform="rotate(-15 988.432 459.335)" stroke="#CBCBCB" stroke-dasharray="2 2"/>
<path d="M965.08 381.888L962.567 380.437L963.089 379.533L964.698 380.461L967.044 376.398L967.948 376.92L965.08 381.888Z" fill="white"/>
<path d="M976.953 424.055L974.44 422.604L974.962 421.7L976.571 422.629L978.917 418.565L979.821 419.087L976.953 424.055Z" fill="white"/>
<path d="M1000.25 503.079L997.733 501.628L998.255 500.724L999.864 501.653L1002.21 497.589L1003.11 498.111L1000.25 503.079Z" fill="white"/>
<g filter="url(#filter6_b_6_1194)">
<path d="M1271.14 403.991C1270 399.723 1272.53 395.337 1276.8 394.193L1529.87 326.383C1534.14 325.239 1538.52 327.772 1539.67 332.039L1589.88 519.429C1591.02 523.697 1588.49 528.083 1584.22 529.227L1331.15 597.038C1326.88 598.181 1322.5 595.648 1321.35 591.381L1271.14 403.991Z" fill="white"/>
<path d="M1271.62 403.862C1270.55 399.861 1272.93 395.748 1276.93 394.676L1530 326.865C1534 325.793 1538.11 328.168 1539.19 332.169L1589.4 519.558C1590.47 523.559 1588.09 527.672 1584.09 528.744L1331.02 596.555C1327.02 597.627 1322.91 595.252 1321.83 591.251L1271.62 403.862Z" stroke="white"/>
</g>
<g filter="url(#filter7_b_6_1194)">
<path d="M1273.15 405.237C1272.01 400.969 1274.54 396.583 1278.81 395.439L1528.91 328.423C1533.18 327.28 1537.57 329.813 1538.71 334.08L1587.98 517.974C1589.13 522.242 1586.59 526.629 1582.33 527.772L1332.22 594.788C1327.95 595.931 1323.57 593.399 1322.42 589.131L1273.15 405.237Z" fill="white"/>
<path d="M1274.6 404.849C1273.67 401.381 1275.73 397.817 1279.19 396.888L1529.3 329.872C1532.77 328.943 1536.33 331.001 1537.26 334.469L1586.54 518.362C1587.46 521.83 1585.41 525.394 1581.94 526.323L1331.83 593.339C1328.37 594.268 1324.8 592.21 1323.87 588.743L1274.6 404.849Z" stroke="#E6C4F2" stroke-width="3"/>
</g>
<rect x="1286.47" y="437.22" width="266" height="1" transform="rotate(-15 1286.47 437.22)" fill="#F3F3F3"/>
<rect x="1297.08" y="476.823" width="266" height="1" transform="rotate(-15 1297.08 476.823)" fill="#F3F3F3"/>
<rect x="1310.47" y="516.22" width="266" height="1" transform="rotate(-15 1310.47 516.22)" fill="#F3F3F3"/>
<rect x="1321.34" y="556.789" width="266" height="1" transform="rotate(-15 1321.34 556.789)" fill="#F3F3F3"/>
<path d="M1339.98 447.243C1338.78 447.564 1337.73 447.439 1336.84 446.868C1335.95 446.295 1335.33 445.367 1334.98 444.085L1334.96 443.992C1334.63 442.763 1334.73 441.653 1335.25 440.66C1335.77 439.667 1336.59 439.02 1337.72 438.718C1338.62 438.475 1339.45 438.507 1340.19 438.813C1340.95 439.117 1341.48 439.689 1341.81 440.529L1340.81 440.796C1340.52 440.186 1340.15 439.773 1339.68 439.558C1339.23 439.34 1338.65 439.326 1337.95 439.514C1337.09 439.744 1336.48 440.242 1336.12 441.009C1335.76 441.768 1335.72 442.665 1336 443.701L1336.02 443.794C1336.31 444.852 1336.78 445.616 1337.45 446.084C1338.11 446.542 1338.89 446.652 1339.78 446.414C1340.47 446.23 1340.99 445.91 1341.33 445.454C1341.67 444.988 1341.81 444.408 1341.74 443.715L1342.68 443.463C1342.79 444.436 1342.61 445.247 1342.13 445.897C1341.65 446.54 1340.93 446.989 1339.98 447.243ZM1347.22 444.445C1347.83 444.284 1348.25 443.947 1348.49 443.434C1348.75 442.919 1348.78 442.318 1348.59 441.631L1348.57 441.549C1348.38 440.846 1348.05 440.335 1347.58 440.015C1347.11 439.693 1346.58 439.612 1345.97 439.774C1345.36 439.937 1344.94 440.275 1344.69 440.788C1344.45 441.301 1344.42 441.905 1344.61 442.6L1344.63 442.693C1344.82 443.396 1345.14 443.906 1345.6 444.222C1346.06 444.536 1346.61 444.611 1347.22 444.445ZM1347.43 445.248C1346.57 445.478 1345.78 445.378 1345.06 444.95C1344.35 444.512 1343.87 443.848 1343.63 442.96L1343.61 442.867C1343.37 441.963 1343.45 441.147 1343.85 440.418C1344.26 439.687 1344.89 439.206 1345.76 438.974C1346.62 438.742 1347.41 438.841 1348.12 439.272C1348.84 439.693 1349.32 440.355 1349.56 441.259L1349.59 441.352C1349.83 442.264 1349.75 443.085 1349.34 443.816C1348.93 444.539 1348.29 445.016 1347.43 445.248ZM1354.51 438.429C1354.59 438.731 1354.58 439.033 1354.47 439.335C1354.37 439.628 1354.17 439.848 1353.86 439.995C1354.28 439.959 1354.63 440.025 1354.92 440.195C1355.22 440.365 1355.42 440.639 1355.52 441.018L1355.53 441.052C1355.68 441.617 1355.59 442.128 1355.27 442.588C1354.95 443.045 1354.44 443.369 1353.73 443.56C1352.99 443.757 1352.37 443.741 1351.86 443.513C1351.36 443.275 1351.01 442.847 1350.81 442.229L1351.75 441.978C1351.9 442.352 1352.11 442.61 1352.38 442.753C1352.66 442.886 1353.03 442.888 1353.51 442.76C1354.38 442.528 1354.72 442.068 1354.53 441.381L1354.53 441.346C1354.43 441.006 1354.26 440.787 1354.01 440.688C1353.77 440.587 1353.44 440.594 1353.01 440.708L1352.1 440.953L1351.89 440.188L1352.65 439.986C1353.05 439.878 1353.31 439.728 1353.44 439.536C1353.58 439.342 1353.61 439.078 1353.52 438.746L1353.51 438.711C1353.35 438.116 1352.92 437.912 1352.23 438.098C1351.55 438.278 1351.24 438.703 1351.28 439.372L1350.35 439.62C1350.25 438.991 1350.37 438.485 1350.69 438.101C1351.01 437.715 1351.47 437.442 1352.07 437.283C1352.64 437.13 1353.16 437.149 1353.61 437.341C1354.07 437.526 1354.37 437.877 1354.5 438.395L1354.51 438.429ZM1358.09 439.769C1358.2 440.503 1358.2 441.048 1358.11 441.405L1360.95 440.644L1359.75 436.181L1357.53 436.777C1357.74 437.73 1357.93 438.728 1358.09 439.769ZM1357.91 443.905L1357.13 444.113L1356.52 441.83L1356.95 441.715C1357.15 441.603 1357.26 441.408 1357.28 441.13C1357.29 440.845 1357.26 440.45 1357.2 439.947C1357.1 439.302 1356.95 438.497 1356.76 437.53C1356.68 437.096 1356.58 436.657 1356.48 436.213L1360.48 435.141L1361.89 440.392L1362.81 440.144L1363.43 442.427L1362.65 442.635L1362.19 441.182L1357.58 442.415L1357.91 443.905ZM1365.85 440.31C1365.26 440.47 1364.73 440.453 1364.28 440.261C1363.82 440.059 1363.52 439.661 1363.36 439.066C1363.27 438.733 1363.27 438.422 1363.37 438.131C1363.47 437.831 1363.65 437.571 1363.91 437.354C1364.16 437.128 1364.45 436.938 1364.78 436.783C1365.11 436.62 1365.48 436.484 1365.89 436.374L1366.76 436.141L1366.64 435.701C1366.51 435.214 1366.32 434.893 1366.06 434.738C1365.8 434.576 1365.44 434.557 1364.98 434.681C1364.14 434.905 1363.78 435.392 1363.88 436.143L1362.92 436.401C1362.81 435.735 1362.93 435.193 1363.29 434.773C1363.66 434.344 1364.16 434.043 1364.81 433.869C1366.29 433.473 1367.22 433.998 1367.61 435.443L1368.68 439.442L1367.72 439.7L1367.51 438.935C1367.2 439.639 1366.65 440.097 1365.85 440.31ZM1365.74 439.521C1366.27 439.38 1366.66 439.137 1366.93 438.793C1367.2 438.439 1367.27 438.035 1367.15 437.579L1366.95 436.825L1366.11 437.049C1364.7 437.426 1364.11 438.012 1364.32 438.808C1364.5 439.488 1364.98 439.725 1365.74 439.521ZM1373.18 432.609L1371.22 433.134L1372.62 438.385L1371.66 438.643L1370.25 433.392L1368.3 433.917L1368.08 433.105L1372.96 431.798L1373.18 432.609ZM1374.28 431.442L1375.25 431.185L1375.81 433.306L1376.89 433.017C1377.57 432.835 1378.17 432.852 1378.7 433.068C1379.22 433.284 1379.57 433.721 1379.74 434.378L1379.75 434.413C1379.93 435.077 1379.84 435.622 1379.49 436.047C1379.15 436.47 1378.64 436.774 1377.95 436.958L1375.91 437.504L1374.28 431.442ZM1377.8 436.189C1378.27 436.065 1378.57 435.879 1378.72 435.632C1378.87 435.377 1378.89 435.057 1378.79 434.67L1378.78 434.636C1378.67 434.218 1378.48 433.941 1378.22 433.804C1377.97 433.657 1377.61 433.644 1377.16 433.766L1376.02 434.071L1376.67 436.493L1377.8 436.189ZM1387.11 433.757C1387.72 433.595 1388.14 433.258 1388.38 432.746C1388.63 432.231 1388.67 431.63 1388.48 430.942L1388.46 430.861C1388.27 430.158 1387.94 429.646 1387.47 429.326C1387 429.004 1386.46 428.924 1385.86 429.085C1385.25 429.249 1384.82 429.587 1384.58 430.1C1384.34 430.612 1384.31 431.216 1384.5 431.912L1384.52 432.004C1384.71 432.707 1385.03 433.217 1385.49 433.534C1385.95 433.848 1386.5 433.922 1387.11 433.757ZM1387.32 434.56C1386.46 434.789 1385.67 434.69 1384.95 434.262C1384.24 433.823 1383.76 433.16 1383.52 432.271L1383.5 432.179C1383.26 431.275 1383.34 430.458 1383.74 429.73C1384.15 428.999 1384.78 428.518 1385.65 428.286C1386.51 428.054 1387.3 428.153 1388.01 428.583C1388.73 429.004 1389.21 429.667 1389.45 430.571L1389.48 430.663C1389.72 431.575 1389.64 432.397 1389.23 433.127C1388.82 433.85 1388.18 434.328 1387.32 434.56ZM1394.12 426.998L1391.25 427.765L1392.66 433.016L1391.7 433.273L1390.07 427.211L1394.86 425.929L1396.49 431.991L1395.52 432.248L1394.12 426.998ZM1396.88 425.388L1397.84 425.13L1398.11 426.15C1398.21 425.793 1398.42 425.456 1398.74 425.138C1399.06 424.813 1399.43 424.592 1399.87 424.476C1400.68 424.259 1401.41 424.356 1402.07 424.768C1402.73 425.178 1403.19 425.85 1403.44 426.785L1403.47 426.878C1403.72 427.813 1403.66 428.639 1403.31 429.355C1402.96 430.061 1402.37 430.525 1401.55 430.747C1400.62 430.995 1399.84 430.812 1399.2 430.195L1400.03 433.302L1399.07 433.56L1396.88 425.388ZM1401.24 429.972C1401.84 429.81 1402.25 429.494 1402.46 429.023C1402.67 428.544 1402.68 427.933 1402.48 427.192L1402.46 427.099C1402.26 426.365 1401.93 425.848 1401.47 425.549C1401.01 425.241 1400.52 425.159 1399.98 425.304C1399.39 425.461 1398.96 425.787 1398.7 426.28C1398.44 426.764 1398.41 427.38 1398.61 428.13L1398.63 428.223C1398.83 428.972 1399.16 429.493 1399.62 429.784C1400.09 430.073 1400.63 430.136 1401.24 429.972ZM1408.11 428.13C1408.71 427.969 1409.14 427.632 1409.38 427.119C1409.63 426.605 1409.67 426.004 1409.48 425.316L1409.46 425.235C1409.27 424.531 1408.94 424.02 1408.46 423.7C1408 423.378 1407.46 423.298 1406.86 423.459C1406.25 423.623 1405.82 423.961 1405.58 424.473C1405.33 424.986 1405.31 425.59 1405.49 426.285L1405.52 426.378C1405.71 427.081 1406.03 427.591 1406.49 427.907C1406.95 428.222 1407.49 428.296 1408.11 428.13ZM1408.31 428.933C1407.46 429.163 1406.67 429.064 1405.95 428.635C1405.23 428.197 1404.76 427.534 1404.52 426.645L1404.5 426.552C1404.25 425.648 1404.33 424.832 1404.73 424.103C1405.14 423.373 1405.78 422.891 1406.65 422.659C1407.51 422.427 1408.3 422.527 1409.01 422.957C1409.73 423.378 1410.21 424.04 1410.45 424.944L1410.48 425.037C1410.72 425.949 1410.64 426.77 1410.23 427.501C1409.82 428.224 1409.18 428.701 1408.31 428.933ZM1415.31 427.059C1414.44 427.291 1413.66 427.203 1412.95 426.796C1412.25 426.381 1411.77 425.71 1411.52 424.782L1411.49 424.69C1411.25 423.778 1411.33 422.956 1411.74 422.226C1412.16 421.493 1412.78 421.016 1413.61 420.794C1414.3 420.608 1414.94 420.623 1415.52 420.841C1416.1 421.05 1416.53 421.507 1416.81 422.21L1415.86 422.465C1415.48 421.621 1414.8 421.331 1413.82 421.594C1413.26 421.745 1412.85 422.083 1412.59 422.607C1412.34 423.122 1412.3 423.727 1412.49 424.422L1412.52 424.515C1412.71 425.242 1413.04 425.754 1413.5 426.053C1413.97 426.35 1414.5 426.417 1415.11 426.256C1415.56 426.134 1415.92 425.902 1416.18 425.56C1416.44 425.208 1416.53 424.79 1416.45 424.306L1417.34 424.067C1417.46 424.748 1417.33 425.372 1416.95 425.937C1416.57 426.492 1416.03 426.866 1415.31 427.059Z" fill="#222222"/>
<path d="M1349.53 478.973L1350.85 478.619L1355.88 486.155L1354.88 486.422L1353.43 484.252L1350.01 485.168L1349.85 487.77L1348.9 488.025L1349.53 478.973ZM1350.07 484.294L1352.95 483.524L1350.37 479.643L1350.07 484.294ZM1357.33 482.449L1358.16 485.544L1357.2 485.802L1355.57 479.74L1356.53 479.482L1357.29 482.31L1359.05 478.808L1360.17 478.507L1358.34 482.054L1362.02 484.51L1360.85 484.823L1357.33 482.449ZM1368.51 484.349L1368.04 482.896L1363.17 484.2L1361.55 478.138L1362.51 477.88L1363.92 483.131L1366.78 482.364L1365.37 477.113L1366.34 476.856L1367.74 482.106L1368.67 481.858L1369.28 484.141L1368.51 484.349ZM1370.09 482.347L1368.47 476.285L1369.43 476.027L1370.68 480.698L1372.52 475.198L1373.48 474.94L1375.11 481.002L1374.15 481.26L1372.9 476.589L1371.05 482.089L1370.09 482.347ZM1377.54 474.675C1376.67 474.907 1376.34 475.39 1376.53 476.124L1376.54 476.158C1376.64 476.506 1376.81 476.742 1377.05 476.866C1377.3 476.99 1377.66 476.99 1378.12 476.865L1379.26 476.561L1378.67 474.37L1377.54 474.675ZM1377.36 480.4L1376.25 480.695L1377.42 477.663C1376.43 477.721 1375.82 477.305 1375.58 476.416L1375.57 476.381C1375.4 475.748 1375.49 475.222 1375.84 474.805C1376.19 474.38 1376.71 474.076 1377.39 473.894L1379.43 473.347L1381.05 479.41L1380.09 479.667L1379.45 477.291L1378.41 477.571L1377.36 480.4Z" fill="#222222"/>
<path d="M1364.12 527.817C1362.93 528.138 1361.88 528.013 1360.98 527.442C1360.09 526.869 1359.47 525.941 1359.13 524.658L1359.1 524.565C1358.77 523.337 1358.87 522.226 1359.39 521.233C1359.91 520.241 1360.74 519.593 1361.86 519.291C1362.77 519.049 1363.59 519.081 1364.34 519.386C1365.09 519.69 1365.63 520.262 1365.95 521.103L1364.96 521.37C1364.67 520.759 1364.29 520.347 1363.83 520.131C1363.37 519.914 1362.79 519.899 1362.09 520.088C1361.23 520.318 1360.62 520.816 1360.27 521.583C1359.91 522.342 1359.87 523.239 1360.14 524.274L1360.17 524.367C1360.45 525.426 1360.93 526.189 1361.59 526.657C1362.26 527.116 1363.04 527.226 1363.93 526.988C1364.61 526.803 1365.13 526.483 1365.47 526.027C1365.82 525.561 1365.96 524.982 1365.89 524.288L1366.83 524.037C1366.94 525.009 1366.75 525.82 1366.27 526.471C1365.79 527.113 1365.07 527.562 1364.12 527.817ZM1369.09 523.057L1369.92 526.152L1368.96 526.41L1367.33 520.347L1368.3 520.09L1369.05 522.918L1370.81 519.416L1371.93 519.114L1370.1 522.662L1373.78 525.118L1372.61 525.431L1369.09 523.057ZM1374.93 524.808L1373.31 518.746L1374.27 518.488L1375.52 523.159L1377.37 517.659L1378.33 517.401L1379.95 523.463L1378.99 523.721L1377.74 519.05L1375.9 524.55L1374.93 524.808ZM1382.34 520.315C1382.44 521.049 1382.45 521.594 1382.35 521.951L1385.19 521.19L1384 516.727L1381.77 517.323C1381.99 518.277 1382.17 519.274 1382.34 520.315ZM1382.15 524.451L1381.38 524.66L1380.77 522.376L1381.19 522.261C1381.4 522.149 1381.51 521.954 1381.52 521.676C1381.54 521.391 1381.51 520.996 1381.44 520.493C1381.34 519.849 1381.2 519.043 1381 518.076C1380.92 517.642 1380.83 517.203 1380.73 516.759L1384.72 515.687L1386.13 520.938L1387.06 520.69L1387.67 522.973L1386.89 523.181L1386.43 521.728L1381.83 522.961L1382.15 524.451ZM1388.62 517.825L1389.45 520.92L1388.48 521.178L1386.86 515.115L1387.82 514.858L1388.58 517.686L1390.34 514.184L1391.46 513.882L1389.63 517.43L1393.31 519.886L1392.13 520.199L1388.62 517.825ZM1396.02 519.27C1395.42 519.43 1394.9 519.413 1394.44 519.221C1393.99 519.019 1393.68 518.621 1393.52 518.026C1393.44 517.693 1393.44 517.382 1393.53 517.091C1393.64 516.79 1393.82 516.531 1394.07 516.314C1394.33 516.088 1394.62 515.898 1394.95 515.743C1395.28 515.58 1395.65 515.444 1396.06 515.334L1396.93 515.101L1396.81 514.661C1396.68 514.174 1396.49 513.853 1396.23 513.698C1395.97 513.536 1395.61 513.517 1395.14 513.641C1394.31 513.864 1393.94 514.352 1394.05 515.103L1393.08 515.361C1392.97 514.695 1393.1 514.153 1393.46 513.733C1393.82 513.304 1394.33 513.002 1394.98 512.829C1396.45 512.433 1397.38 512.958 1397.77 514.403L1398.84 518.402L1397.88 518.66L1397.68 517.895C1397.37 518.598 1396.82 519.057 1396.02 519.27ZM1395.91 518.48C1396.43 518.34 1396.83 518.097 1397.09 517.753C1397.36 517.399 1397.43 516.994 1397.31 516.538L1397.11 515.785L1396.28 516.009C1394.87 516.385 1394.27 516.972 1394.49 517.768C1394.67 518.448 1395.14 518.685 1395.91 518.48Z" fill="#222222"/>
<path d="M1375.01 558.02L1370.77 559.157L1372.77 566.598L1371.76 566.869L1369.54 558.581L1375.8 556.904L1378.02 565.191L1377.01 565.462L1375.01 558.02ZM1382.44 563.261C1383.04 563.099 1383.47 562.762 1383.71 562.25C1383.96 561.735 1383.99 561.134 1383.81 560.446L1383.79 560.365C1383.6 559.662 1383.27 559.15 1382.79 558.83C1382.33 558.508 1381.79 558.428 1381.19 558.589C1380.58 558.753 1380.15 559.091 1379.91 559.604C1379.66 560.116 1379.63 560.72 1379.82 561.416L1379.85 561.508C1380.03 562.211 1380.36 562.721 1380.81 563.038C1381.28 563.352 1381.82 563.426 1382.44 563.261ZM1382.64 564.064C1381.78 564.293 1381 564.194 1380.28 563.766C1379.56 563.327 1379.09 562.664 1378.85 561.775L1378.82 561.683C1378.58 560.779 1378.66 559.962 1379.06 559.234C1379.47 558.503 1380.11 558.022 1380.97 557.79C1381.84 557.558 1382.63 557.657 1383.34 558.088C1384.06 558.508 1384.54 559.171 1384.78 560.075L1384.8 560.167C1385.05 561.079 1384.97 561.901 1384.56 562.631C1384.15 563.354 1383.51 563.832 1382.64 564.064ZM1387.16 559.425L1387.99 562.52L1387.03 562.777L1385.4 556.715L1386.36 556.457L1387.12 559.286L1388.88 555.784L1390 555.482L1388.17 559.029L1391.85 561.485L1390.68 561.799L1387.16 559.425ZM1394.56 560.87C1393.97 561.029 1393.44 561.013 1392.98 560.821C1392.53 560.619 1392.23 560.22 1392.07 559.625C1391.98 559.293 1391.98 558.982 1392.08 558.691C1392.18 558.39 1392.36 558.131 1392.61 557.913C1392.87 557.688 1393.16 557.498 1393.49 557.343C1393.82 557.18 1394.19 557.044 1394.6 556.934L1395.47 556.701L1395.35 556.26C1395.22 555.774 1395.03 555.453 1394.77 555.298C1394.51 555.135 1394.15 555.116 1393.69 555.241C1392.85 555.464 1392.49 555.952 1392.59 556.703L1391.63 556.961C1391.51 556.295 1391.64 555.752 1392 555.333C1392.36 554.904 1392.87 554.602 1393.52 554.428C1394.99 554.033 1395.93 554.558 1396.31 556.003L1397.38 560.002L1396.42 560.259L1396.22 559.494C1395.91 560.198 1395.36 560.657 1394.56 560.87ZM1394.45 560.08C1394.97 559.939 1395.37 559.697 1395.63 559.353C1395.9 558.999 1395.98 558.594 1395.85 558.138L1395.65 557.385L1394.82 557.608C1393.41 557.985 1392.82 558.572 1393.03 559.368C1393.21 560.048 1393.68 560.285 1394.45 560.08ZM1401.91 553.981C1401.99 554.283 1401.98 554.585 1401.87 554.887C1401.76 555.18 1401.56 555.4 1401.26 555.547C1401.67 555.511 1402.03 555.578 1402.32 555.747C1402.61 555.917 1402.81 556.191 1402.91 556.57L1402.92 556.605C1403.07 557.169 1402.99 557.68 1402.66 558.14C1402.35 558.597 1401.83 558.921 1401.12 559.112C1400.39 559.309 1399.77 559.293 1399.26 559.065C1398.76 558.827 1398.41 558.399 1398.21 557.781L1399.15 557.53C1399.3 557.904 1399.51 558.162 1399.78 558.305C1400.05 558.438 1400.43 558.441 1400.91 558.312C1401.77 558.08 1402.11 557.62 1401.93 556.933L1401.92 556.898C1401.83 556.558 1401.66 556.339 1401.41 556.24C1401.17 556.139 1400.83 556.146 1400.41 556.26L1399.49 556.505L1399.29 555.74L1400.04 555.538C1400.44 555.43 1400.71 555.28 1400.84 555.088C1400.98 554.894 1401 554.63 1400.91 554.298L1400.9 554.263C1400.74 553.668 1400.32 553.464 1399.62 553.65C1398.95 553.83 1398.63 554.255 1398.67 554.924L1397.74 555.172C1397.65 554.543 1397.76 554.037 1398.08 553.653C1398.41 553.267 1398.87 552.994 1399.47 552.835C1400.04 552.682 1400.55 552.701 1401.01 552.893C1401.46 553.078 1401.76 553.429 1401.9 553.947L1401.91 553.981ZM1406.61 557.643C1406.01 557.802 1405.48 557.786 1405.03 557.594C1404.58 557.392 1404.27 556.993 1404.11 556.398C1404.02 556.066 1404.02 555.754 1404.12 555.464C1404.22 555.163 1404.4 554.904 1404.66 554.686C1404.91 554.461 1405.2 554.27 1405.54 554.115C1405.86 553.953 1406.23 553.816 1406.64 553.707L1407.51 553.474L1407.4 553.033C1407.26 552.546 1407.07 552.226 1406.81 552.071C1406.56 551.908 1406.19 551.889 1405.73 552.013C1404.9 552.237 1404.53 552.724 1404.63 553.476L1403.67 553.733C1403.56 553.068 1403.68 552.525 1404.04 552.106C1404.41 551.677 1404.91 551.375 1405.56 551.201C1407.04 550.806 1407.97 551.33 1408.36 552.776L1409.43 556.774L1408.47 557.032L1408.26 556.267C1407.95 556.971 1407.4 557.43 1406.61 557.643ZM1406.49 556.853C1407.02 556.712 1407.41 556.47 1407.68 556.126C1407.95 555.772 1408.02 555.367 1407.9 554.911L1407.7 554.158L1406.86 554.381C1405.46 554.758 1404.86 555.344 1405.07 556.14C1405.25 556.82 1405.73 557.058 1406.49 556.853ZM1413.93 549.942L1411.97 550.466L1413.37 555.717L1412.41 555.975L1411.01 550.724L1409.05 551.249L1408.83 550.438L1413.71 549.13L1413.93 549.942ZM1415.04 548.775L1416 548.517L1416.57 550.638L1417.64 550.349C1418.32 550.167 1418.92 550.184 1419.45 550.4C1419.97 550.617 1420.32 551.053 1420.49 551.71L1420.5 551.745C1420.68 552.41 1420.59 552.954 1420.24 553.379C1419.9 553.802 1419.39 554.106 1418.7 554.29L1416.66 554.837L1415.04 548.775ZM1418.56 553.521C1419.02 553.397 1419.33 553.211 1419.47 552.964C1419.62 552.71 1419.64 552.389 1419.54 552.003L1419.53 551.968C1419.42 551.551 1419.23 551.273 1418.97 551.136C1418.72 550.989 1418.36 550.977 1417.91 551.099L1416.77 551.403L1417.42 553.826L1418.56 553.521ZM1425.59 549.128L1426.42 552.222L1425.45 552.48L1423.83 546.418L1424.79 546.16L1425.55 548.989L1427.31 545.486L1428.43 545.185L1426.6 548.732L1430.28 551.188L1429.11 551.502L1425.59 549.128ZM1433.62 549.548C1434.22 549.387 1434.64 549.05 1434.88 548.537C1435.14 548.023 1435.17 547.421 1434.99 546.734L1434.96 546.653C1434.78 545.949 1434.44 545.438 1433.97 545.118C1433.5 544.796 1432.97 544.716 1432.36 544.877C1431.75 545.041 1431.33 545.379 1431.08 545.891C1430.84 546.404 1430.81 547.008 1431 547.703L1431.02 547.796C1431.21 548.499 1431.53 549.009 1431.99 549.325C1432.46 549.64 1433 549.714 1433.62 549.548ZM1433.82 550.351C1432.96 550.581 1432.17 550.482 1431.45 550.053C1430.74 549.615 1430.26 548.952 1430.02 548.063L1430 547.97C1429.76 547.066 1429.84 546.25 1430.24 545.521C1430.65 544.791 1431.28 544.309 1432.15 544.077C1433.01 543.845 1433.8 543.945 1434.51 544.375C1435.23 544.796 1435.71 545.458 1435.95 546.362L1435.98 546.455C1436.22 547.367 1436.14 548.188 1435.73 548.919C1435.32 549.642 1434.68 550.119 1433.82 550.351ZM1441.42 545.308L1438.44 546.107L1439.16 548.807L1438.2 549.065L1436.58 543.003L1437.54 542.745L1438.22 545.295L1441.2 544.497L1440.52 541.947L1441.48 541.689L1443.1 547.751L1442.14 548.009L1441.42 545.308ZM1447.9 540.839L1445.94 541.364L1447.34 546.615L1446.38 546.873L1444.97 541.622L1443.02 542.147L1442.8 541.336L1447.68 540.028L1447.9 540.839ZM1452.19 545.429C1451.59 545.588 1451.07 545.572 1450.61 545.38C1450.16 545.178 1449.85 544.779 1449.69 544.184C1449.6 543.852 1449.61 543.54 1449.7 543.25C1449.81 542.949 1449.98 542.69 1450.24 542.472C1450.5 542.247 1450.79 542.056 1451.12 541.901C1451.45 541.739 1451.82 541.602 1452.23 541.493L1453.1 541.26L1452.98 540.819C1452.85 540.332 1452.65 540.012 1452.4 539.857C1452.14 539.694 1451.78 539.675 1451.31 539.799C1450.48 540.023 1450.11 540.51 1450.21 541.262L1449.25 541.519C1449.14 540.854 1449.26 540.311 1449.62 539.892C1449.99 539.463 1450.5 539.161 1451.15 538.987C1452.62 538.592 1453.55 539.116 1453.94 540.561L1455.01 544.56L1454.05 544.818L1453.85 544.053C1453.54 544.757 1452.98 545.216 1452.19 545.429ZM1452.08 544.639C1452.6 544.498 1453 544.256 1453.26 543.912C1453.53 543.558 1453.6 543.153 1453.48 542.697L1453.28 541.944L1452.45 542.167C1451.04 542.544 1450.44 543.13 1450.66 543.926C1450.84 544.606 1451.31 544.844 1452.08 544.639ZM1456.97 540.72L1457.79 543.815L1456.83 544.073L1455.21 538.011L1456.17 537.753L1456.93 540.581L1458.69 537.079L1459.81 536.778L1457.98 540.325L1461.65 542.781L1460.48 543.094L1456.97 540.72ZM1465.66 536.081L1463.7 536.606L1465.1 541.856L1464.14 542.114L1462.74 536.863L1460.78 537.388L1460.56 536.577L1465.44 535.269L1465.66 536.081Z" fill="#222222"/>
<circle cx="1313.43" cy="450.335" r="6.5" transform="rotate(-15 1313.43 450.335)" fill="#4FD002"/>
<circle cx="1325.43" cy="492.038" r="6.5" transform="rotate(-15 1325.43 492.038)" fill="#4FD002"/>
<circle cx="1348.43" cy="571.335" r="6.5" transform="rotate(-15 1348.43 571.335)" fill="#4FD002"/>
<circle cx="1336.43" cy="530.335" r="6" transform="rotate(-15 1336.43 530.335)" stroke="#CBCBCB" stroke-dasharray="2 2"/>
<path d="M1313.08 452.888L1310.57 451.437L1311.09 450.533L1312.7 451.461L1315.04 447.398L1315.95 447.92L1313.08 452.888Z" fill="white"/>
<path d="M1324.95 495.055L1322.44 493.604L1322.96 492.7L1324.57 493.629L1326.92 489.565L1327.82 490.087L1324.95 495.055Z" fill="white"/>
<path d="M1348.25 574.079L1345.73 572.628L1346.26 571.724L1347.86 572.653L1350.21 568.589L1351.11 569.111L1348.25 574.079Z" fill="white"/>
<g filter="url(#filter8_bd_6_1194)">
<path d="M858.071 105.679C856.927 101.411 859.46 97.0246 863.727 95.8811L1116.8 28.0705C1121.07 26.927 1125.45 29.4596 1126.6 33.7274L1179.05 229.497C1180.2 233.764 1177.67 238.151 1173.4 239.295L920.325 307.105C916.057 308.249 911.67 305.716 910.527 301.448L858.071 105.679Z" fill="white"/>
<path d="M858.554 105.55C857.481 101.549 859.856 97.4361 863.857 96.3641L1116.93 28.5535C1120.93 27.4814 1125.04 29.8558 1126.11 33.8568L1178.57 229.626C1179.64 233.627 1177.27 237.74 1173.27 238.812L920.195 306.622C916.194 307.694 912.082 305.32 911.01 301.319L858.554 105.55Z" stroke="white"/>
</g>
<g filter="url(#filter9_b_6_1194)">
<path d="M861.033 107.383C859.89 103.115 862.423 98.7287 866.69 97.5852L1114.97 31.0597C1119.23 29.9162 1123.62 32.4488 1124.76 36.7165L1176.09 228.28C1177.24 232.548 1174.71 236.935 1170.44 238.078L922.161 304.604C917.893 305.747 913.506 303.214 912.363 298.947L861.033 107.383Z" fill="white"/>
<path d="M862.482 106.995C861.553 103.527 863.611 99.9632 867.079 99.0341L1115.36 32.5086C1118.82 31.5795 1122.39 33.6372 1123.32 37.1048L1174.65 228.668C1175.57 232.136 1173.52 235.7 1170.05 236.629L921.772 303.155C918.305 304.084 914.741 302.026 913.812 298.559L862.482 106.995Z" stroke="#E6C4F2" stroke-width="3"/>
</g>
<g filter="url(#filter10_bd_6_1194)">
<path d="M1201.07 164.679C1199.93 160.411 1202.46 156.025 1206.73 154.881L1459.8 87.0705C1464.07 85.927 1468.45 88.4596 1469.6 92.7274L1522.05 288.497C1523.2 292.764 1520.67 297.151 1516.4 298.295L1263.32 366.105C1259.06 367.249 1254.67 364.716 1253.53 360.448L1201.07 164.679Z" fill="white"/>
<path d="M1201.55 164.55C1200.48 160.549 1202.86 156.436 1206.86 155.364L1459.93 87.5535C1463.93 86.4814 1468.04 88.8558 1469.11 92.8568L1521.57 288.626C1522.64 292.627 1520.27 296.74 1516.27 297.812L1263.2 365.622C1259.19 366.694 1255.08 364.32 1254.01 360.319L1201.55 164.55Z" stroke="white"/>
</g>
<g filter="url(#filter11_b_6_1194)">
<path d="M1204.01 166.133C1202.86 161.865 1205.4 157.479 1209.66 156.335L1458.1 89.7679C1462.36 88.6244 1466.75 91.1571 1467.89 95.4248L1519.19 286.882C1520.34 291.149 1517.8 295.536 1513.54 296.68L1265.1 363.247C1260.84 364.391 1256.45 361.858 1255.31 357.59L1204.01 166.133Z" fill="white"/>
<path d="M1205.45 165.745C1204.53 162.277 1206.58 158.713 1210.05 157.784L1458.48 91.2168C1461.95 90.2877 1465.52 92.3455 1466.44 95.813L1517.75 287.27C1518.67 290.738 1516.62 294.302 1513.15 295.231L1264.72 361.798C1261.25 362.727 1257.68 360.669 1256.76 357.202L1205.45 165.745Z" stroke="#E6C4F2" stroke-width="3"/>
</g>
<g filter="url(#filter12_bd_6_1194)">
<path d="M990.209 567.991C989.066 563.723 991.598 559.337 995.866 558.193L1248.94 490.383C1253.21 489.239 1257.59 491.772 1258.74 496.039L1288.24 606.155C1289.39 610.423 1286.85 614.809 1282.59 615.953L1029.51 683.763C1025.24 684.907 1020.86 682.374 1019.71 678.107L990.209 567.991Z" fill="white"/>
<path d="M990.692 567.862C989.62 563.861 991.994 559.748 995.995 558.676L1249.07 490.865C1253.07 489.793 1257.18 492.168 1258.25 496.169L1287.76 606.284C1288.83 610.285 1286.46 614.398 1282.46 615.47L1029.38 683.281C1025.38 684.353 1021.27 681.978 1020.2 677.977L990.692 567.862Z" stroke="white"/>
</g>
<g filter="url(#filter13_b_6_1194)">
<path d="M992.194 568.987C991.05 564.719 993.583 560.333 997.85 559.189L1247.72 492.238C1251.98 491.095 1256.37 493.627 1257.51 497.895L1286.21 604.998C1287.36 609.265 1284.82 613.652 1280.55 614.795L1030.69 681.747C1026.42 682.89 1022.04 680.358 1020.89 676.09L992.194 568.987Z" fill="white"/>
<path d="M993.642 568.599C992.713 565.131 994.771 561.567 998.239 560.638L1248.1 493.687C1251.57 492.758 1255.14 494.816 1256.06 498.283L1284.76 605.386C1285.69 608.853 1283.63 612.417 1280.17 613.347L1030.3 680.298C1026.83 681.227 1023.27 679.169 1022.34 675.702L993.642 568.599Z" stroke="#E6C4F2" stroke-width="3"/>
</g>
<rect x="1005.27" y="597.231" width="266" height="1" transform="rotate(-15 1005.27 597.231)" fill="#F3F3F3"/>
<rect x="1015.88" y="636.834" width="266" height="1" transform="rotate(-15 1015.88 636.834)" fill="#F3F3F3"/>
<path d="M1032 566.83L1033.01 566.56L1034.08 570.547L1036.61 565.582L1037.74 565.281L1035.13 570.303L1040.15 573.531L1038.93 573.857L1034.15 570.802L1035.23 574.848L1034.22 575.118L1032 566.83ZM1043.28 571.944C1043.89 571.783 1044.31 571.446 1044.55 570.933C1044.81 570.418 1044.84 569.817 1044.66 569.13L1044.63 569.048C1044.45 568.345 1044.11 567.834 1043.64 567.514C1043.17 567.192 1042.64 567.111 1042.03 567.273C1041.42 567.436 1041 567.775 1040.75 568.287C1040.51 568.8 1040.48 569.404 1040.67 570.099L1040.69 570.192C1040.88 570.895 1041.2 571.405 1041.66 571.721C1042.13 572.035 1042.67 572.11 1043.28 571.944ZM1043.49 572.747C1042.63 572.977 1041.84 572.878 1041.12 572.449C1040.41 572.011 1039.93 571.348 1039.69 570.459L1039.67 570.366C1039.43 569.462 1039.51 568.646 1039.91 567.917C1040.32 567.186 1040.95 566.705 1041.82 566.473C1042.68 566.241 1043.47 566.341 1044.18 566.771C1044.9 567.192 1045.38 567.854 1045.62 568.758L1045.65 568.851C1045.89 569.763 1045.81 570.584 1045.4 571.315C1044.99 572.038 1044.35 572.515 1043.49 572.747ZM1051.09 567.704L1048.11 568.502L1048.83 571.203L1047.87 571.461L1046.25 565.399L1047.21 565.141L1047.89 567.691L1050.87 566.893L1050.19 564.343L1051.15 564.085L1052.77 570.147L1051.81 570.405L1051.09 567.704ZM1057.57 563.235L1055.61 563.76L1057.01 569.011L1056.05 569.269L1054.64 564.018L1052.69 564.543L1052.47 563.731L1057.35 562.424L1057.57 563.235ZM1061.86 567.825C1061.26 567.984 1060.74 567.968 1060.28 567.775C1059.83 567.573 1059.52 567.175 1059.36 566.58C1059.27 566.248 1059.28 565.936 1059.37 565.645C1059.48 565.345 1059.65 565.086 1059.91 564.868C1060.17 564.642 1060.46 564.452 1060.79 564.297C1061.12 564.134 1061.49 563.998 1061.9 563.888L1062.77 563.656L1062.65 563.215C1062.52 562.728 1062.32 562.407 1062.07 562.253C1061.81 562.09 1061.45 562.071 1060.98 562.195C1060.15 562.419 1059.78 562.906 1059.88 563.657L1058.92 563.915C1058.81 563.25 1058.93 562.707 1059.29 562.288C1059.66 561.858 1060.17 561.557 1060.82 561.383C1062.29 560.988 1063.22 561.512 1063.61 562.957L1064.68 566.956L1063.72 567.214L1063.51 566.449C1063.21 567.153 1062.65 567.611 1061.86 567.825ZM1061.75 567.035C1062.27 566.894 1062.67 566.652 1062.93 566.307C1063.2 565.954 1063.27 565.549 1063.15 565.093L1062.95 564.339L1062.12 564.563C1060.71 564.94 1060.11 565.526 1060.33 566.322C1060.51 567.002 1060.98 567.24 1061.75 567.035ZM1066.63 563.116L1067.46 566.211L1066.5 566.468L1064.88 560.406L1065.84 560.149L1066.6 562.977L1068.36 559.475L1069.48 559.173L1067.65 562.72L1071.32 565.176L1070.15 565.49L1066.63 563.116ZM1075.33 558.476L1073.37 559.001L1074.77 564.252L1073.81 564.51L1072.4 559.259L1070.45 559.784L1070.23 558.973L1075.11 557.665L1075.33 558.476Z" fill="#222222"/>
<path d="M1225.58 514.27L1223.46 514.838L1224.46 518.559L1223.95 518.694L1222.84 514.55L1225.97 513.711L1227.08 517.855L1226.58 517.99L1225.58 514.27ZM1227.31 514.545L1227.79 514.416L1227.93 514.926C1227.98 514.748 1228.08 514.579 1228.24 514.42C1228.4 514.257 1228.59 514.147 1228.8 514.089C1229.21 513.98 1229.58 514.029 1229.9 514.235C1230.24 514.44 1230.47 514.776 1230.59 515.244L1230.6 515.29C1230.73 515.758 1230.7 516.17 1230.53 516.529C1230.35 516.882 1230.06 517.114 1229.64 517.225C1229.18 517.349 1228.79 517.257 1228.47 516.949L1228.89 518.502L1228.41 518.631L1227.31 514.545ZM1229.49 516.837C1229.79 516.756 1230 516.598 1230.1 516.362C1230.21 516.123 1230.21 515.818 1230.11 515.447L1230.1 515.4C1230 515.033 1229.84 514.775 1229.61 514.626C1229.38 514.471 1229.13 514.431 1228.86 514.503C1228.56 514.582 1228.35 514.744 1228.22 514.991C1228.09 515.233 1228.07 515.541 1228.17 515.916L1228.19 515.962C1228.29 516.337 1228.45 516.597 1228.68 516.743C1228.92 516.887 1229.18 516.919 1229.49 516.837ZM1232.53 516.451C1232.23 516.531 1231.97 516.523 1231.74 516.427C1231.51 516.326 1231.36 516.126 1231.28 515.829C1231.24 515.663 1231.24 515.507 1231.29 515.362C1231.34 515.211 1231.43 515.082 1231.56 514.973C1231.68 514.86 1231.83 514.765 1231.99 514.688C1232.16 514.606 1232.34 514.538 1232.55 514.483L1232.98 514.367L1232.92 514.146C1232.86 513.903 1232.76 513.743 1232.63 513.665C1232.5 513.584 1232.32 513.574 1232.09 513.637C1231.67 513.748 1231.49 513.992 1231.54 514.368L1231.06 514.497C1231.01 514.164 1231.07 513.892 1231.25 513.683C1231.43 513.468 1231.68 513.317 1232.01 513.23C1232.75 513.033 1233.21 513.295 1233.41 514.018L1233.94 516.017L1233.46 516.146L1233.36 515.763C1233.2 516.115 1232.93 516.345 1232.53 516.451ZM1232.47 516.056C1232.74 515.986 1232.93 515.865 1233.07 515.693C1233.2 515.516 1233.24 515.313 1233.18 515.085L1233.07 514.709L1232.66 514.82C1231.95 515.009 1231.66 515.302 1231.76 515.7C1231.85 516.04 1232.09 516.159 1232.47 516.056ZM1234.04 512.742L1235.1 512.458C1235.81 512.267 1236.23 512.429 1236.37 512.943L1236.38 512.96C1236.42 513.107 1236.41 513.253 1236.36 513.399C1236.32 513.54 1236.22 513.654 1236.06 513.74C1236.51 513.72 1236.78 513.891 1236.88 514.255L1236.88 514.272C1236.96 514.566 1236.93 514.814 1236.77 515.016C1236.62 515.217 1236.38 515.364 1236.04 515.455L1234.85 515.773L1234.04 512.742ZM1234.62 512.996L1234.86 513.894L1235.44 513.739C1235.64 513.685 1235.78 513.61 1235.84 513.514C1235.91 513.416 1235.92 513.285 1235.88 513.119L1235.87 513.101C1235.83 512.947 1235.76 512.853 1235.65 512.82C1235.54 512.782 1235.39 512.789 1235.2 512.842L1234.62 512.996ZM1234.97 514.277L1235.23 515.262L1235.89 515.085C1236.1 515.028 1236.25 514.949 1236.33 514.849C1236.41 514.744 1236.43 514.606 1236.39 514.436L1236.38 514.419C1236.34 514.249 1236.25 514.139 1236.13 514.09C1236.01 514.039 1235.84 514.043 1235.63 514.1L1234.97 514.277ZM1237.89 514.959L1237.08 511.928L1237.56 511.799L1238.19 514.134L1239.11 511.384L1239.59 511.255L1240.4 514.286L1239.92 514.415L1239.29 512.08L1238.37 514.83L1237.89 514.959ZM1242.74 510.846L1241.76 511.108L1242.46 513.734L1241.98 513.863L1241.28 511.237L1240.3 511.5L1240.19 511.094L1242.63 510.44L1242.74 510.846ZM1243.29 510.263L1243.77 510.134L1244.06 511.194L1244.6 511.05C1244.94 510.959 1245.24 510.967 1245.5 511.075C1245.76 511.184 1245.93 511.402 1246.02 511.73L1246.03 511.748C1246.12 512.08 1246.07 512.352 1245.9 512.565C1245.73 512.776 1245.47 512.928 1245.12 513.02L1244.1 513.294L1243.29 510.263ZM1245.05 512.636C1245.28 512.574 1245.44 512.481 1245.51 512.357C1245.59 512.23 1245.6 512.07 1245.55 511.877L1245.54 511.859C1245.48 511.651 1245.39 511.512 1245.26 511.443C1245.13 511.37 1244.96 511.364 1244.73 511.425L1244.16 511.577L1244.48 512.788L1245.05 512.636Z" fill="#363636"/>
<circle cx="1015.96" cy="578.785" r="6.5" transform="rotate(-15 1015.96 578.785)" fill="#4FD002"/>
</g>
<defs>
<filter id="filter0_bd_6_1194" x="596.935" y="356.108" width="358.582" height="253.93" filterUnits="userSpaceOnUse" color-interpolation-filters="sRGB">
<feFlood flood-opacity="0" result="BackgroundImageFix"/>
<feGaussianBlur in="BackgroundImageFix" stdDeviation="15"/>
<feComposite in2="SourceAlpha" operator="in" result="effect1_backgroundBlur_6_1194"/>
<feColorMatrix in="SourceAlpha" type="matrix" values="0 0 0 0 0 0 0 0 0 0 0 0 0 0 0 0 0 0 127 0" result="hardAlpha"/>
<feOffset dy="3"/>
<feGaussianBlur stdDeviation="1.5"/>
<feComposite in2="hardAlpha" operator="out"/>
<feColorMatrix type="matrix" values="0 0 0 0 0 0 0 0 0 0 0 0 0 0 0 0 0 0 0.160784 0"/>
<feBlend mode="normal" in2="effect1_backgroundBlur_6_1194" result="effect2_dropShadow_6_1194"/>
<feBlend mode="normal" in="SourceGraphic" in2="effect2_dropShadow_6_1194" result="shape"/>
</filter>
<filter id="filter1_b_6_1194" x="599.121" y="358.125" width="354.27" height="249.936" filterUnits="userSpaceOnUse" color-interpolation-filters="sRGB">
<feFlood flood-opacity="0" result="BackgroundImageFix"/>
<feGaussianBlur in="BackgroundImageFix" stdDeviation="15"/>
<feComposite in2="SourceAlpha" operator="in" result="effect1_backgroundBlur_6_1194"/>
<feBlend mode="normal" in="SourceGraphic" in2="effect1_backgroundBlur_6_1194" result="shape"/>
</filter>
<filter id="filter2_bd_6_1194" x="637.935" y="499.108" width="358.582" height="253.93" filterUnits="userSpaceOnUse" color-interpolation-filters="sRGB">
<feFlood flood-opacity="0" result="BackgroundImageFix"/>
<feGaussianBlur in="BackgroundImageFix" stdDeviation="15"/>
<feComposite in2="SourceAlpha" operator="in" result="effect1_backgroundBlur_6_1194"/>
<feColorMatrix in="SourceAlpha" type="matrix" values="0 0 0 0 0 0 0 0 0 0 0 0 0 0 0 0 0 0 127 0" result="hardAlpha"/>
<feOffset dy="3"/>
<feGaussianBlur stdDeviation="1.5"/>
<feComposite in2="hardAlpha" operator="out"/>
<feColorMatrix type="matrix" values="0 0 0 0 0 0 0 0 0 0 0 0 0 0 0 0 0 0 0.160784 0"/>
<feBlend mode="normal" in2="effect1_backgroundBlur_6_1194" result="effect2_dropShadow_6_1194"/>
<feBlend mode="normal" in="SourceGraphic" in2="effect2_dropShadow_6_1194" result="shape"/>
</filter>
<filter id="filter3_b_6_1194" x="640.121" y="501.125" width="354.27" height="249.936" filterUnits="userSpaceOnUse" color-interpolation-filters="sRGB">
<feFlood flood-opacity="0" result="BackgroundImageFix"/>
<feGaussianBlur in="BackgroundImageFix" stdDeviation="15"/>
<feComposite in2="SourceAlpha" operator="in" result="effect1_backgroundBlur_6_1194"/>
<feBlend mode="normal" in="SourceGraphic" in2="effect1_backgroundBlur_6_1194" result="shape"/>
</filter>
<filter id="filter4_b_6_1194" x="892.866" y="225.108" width="379.287" height="331.204" filterUnits="userSpaceOnUse" color-interpolation-filters="sRGB">
<feFlood flood-opacity="0" result="BackgroundImageFix"/>
<feGaussianBlur in="BackgroundImageFix" stdDeviation="15"/>
<feComposite in2="SourceAlpha" operator="in" result="effect1_backgroundBlur_6_1194"/>
<feBlend mode="normal" in="SourceGraphic" in2="effect1_backgroundBlur_6_1194" result="shape"/>
</filter>
<filter id="filter5_b_6_1194" x="894.874" y="227.149" width="375.385" height="326.914" filterUnits="userSpaceOnUse" color-interpolation-filters="sRGB">
<feFlood flood-opacity="0" result="BackgroundImageFix"/>
<feGaussianBlur in="BackgroundImageFix" stdDeviation="15"/>
<feComposite in2="SourceAlpha" operator="in" result="effect1_backgroundBlur_6_1194"/>
<feBlend mode="normal" in="SourceGraphic" in2="effect1_backgroundBlur_6_1194" result="shape"/>
</filter>
<filter id="filter6_b_6_1194" x="1240.87" y="296.108" width="379.288" height="331.204" filterUnits="userSpaceOnUse" color-interpolation-filters="sRGB">
<feFlood flood-opacity="0" result="BackgroundImageFix"/>
<feGaussianBlur in="BackgroundImageFix" stdDeviation="15"/>
<feComposite in2="SourceAlpha" operator="in" result="effect1_backgroundBlur_6_1194"/>
<feBlend mode="normal" in="SourceGraphic" in2="effect1_backgroundBlur_6_1194" result="shape"/>
</filter>
<filter id="filter7_b_6_1194" x="1242.87" y="298.149" width="375.385" height="326.914" filterUnits="userSpaceOnUse" color-interpolation-filters="sRGB">
<feFlood flood-opacity="0" result="BackgroundImageFix"/>
<feGaussianBlur in="BackgroundImageFix" stdDeviation="15"/>
<feComposite in2="SourceAlpha" operator="in" result="effect1_backgroundBlur_6_1194"/>
<feBlend mode="normal" in="SourceGraphic" in2="effect1_backgroundBlur_6_1194" result="shape"/>
</filter>
<filter id="filter8_bd_6_1194" x="827.796" y="-2.2041" width="381.533" height="339.584" filterUnits="userSpaceOnUse" color-interpolation-filters="sRGB">
<feFlood flood-opacity="0" result="BackgroundImageFix"/>
<feGaussianBlur in="BackgroundImageFix" stdDeviation="15"/>
<feComposite in2="SourceAlpha" operator="in" result="effect1_backgroundBlur_6_1194"/>
<feColorMatrix in="SourceAlpha" type="matrix" values="0 0 0 0 0 0 0 0 0 0 0 0 0 0 0 0 0 0 127 0" result="hardAlpha"/>
<feOffset dy="3"/>
<feGaussianBlur stdDeviation="1.5"/>
<feComposite in2="hardAlpha" operator="out"/>
<feColorMatrix type="matrix" values="0 0 0 0 0 0 0 0 0 0 0 0 0 0 0 0 0 0 0.160784 0"/>
<feBlend mode="normal" in2="effect1_backgroundBlur_6_1194" result="effect2_dropShadow_6_1194"/>
<feBlend mode="normal" in="SourceGraphic" in2="effect2_dropShadow_6_1194" result="shape"/>
</filter>
<filter id="filter9_b_6_1194" x="830.759" y="0.785156" width="375.61" height="334.093" filterUnits="userSpaceOnUse" color-interpolation-filters="sRGB">
<feFlood flood-opacity="0" result="BackgroundImageFix"/>
<feGaussianBlur in="BackgroundImageFix" stdDeviation="15"/>
<feComposite in2="SourceAlpha" operator="in" result="effect1_backgroundBlur_6_1194"/>
<feBlend mode="normal" in="SourceGraphic" in2="effect1_backgroundBlur_6_1194" result="shape"/>
</filter>
<filter id="filter10_bd_6_1194" x="1170.8" y="56.7959" width="381.533" height="339.584" filterUnits="userSpaceOnUse" color-interpolation-filters="sRGB">
<feFlood flood-opacity="0" result="BackgroundImageFix"/>
<feGaussianBlur in="BackgroundImageFix" stdDeviation="15"/>
<feComposite in2="SourceAlpha" operator="in" result="effect1_backgroundBlur_6_1194"/>
<feColorMatrix in="SourceAlpha" type="matrix" values="0 0 0 0 0 0 0 0 0 0 0 0 0 0 0 0 0 0 127 0" result="hardAlpha"/>
<feOffset dy="3"/>
<feGaussianBlur stdDeviation="1.5"/>
<feComposite in2="hardAlpha" operator="out"/>
<feColorMatrix type="matrix" values="0 0 0 0 0 0 0 0 0 0 0 0 0 0 0 0 0 0 0.160784 0"/>
<feBlend mode="normal" in2="effect1_backgroundBlur_6_1194" result="effect2_dropShadow_6_1194"/>
<feBlend mode="normal" in="SourceGraphic" in2="effect2_dropShadow_6_1194" result="shape"/>
</filter>
<filter id="filter11_b_6_1194" x="1173.73" y="59.4932" width="375.737" height="334.028" filterUnits="userSpaceOnUse" color-interpolation-filters="sRGB">
<feFlood flood-opacity="0" result="BackgroundImageFix"/>
<feGaussianBlur in="BackgroundImageFix" stdDeviation="15"/>
<feComposite in2="SourceAlpha" operator="in" result="effect1_backgroundBlur_6_1194"/>
<feBlend mode="normal" in="SourceGraphic" in2="effect1_backgroundBlur_6_1194" result="shape"/>
</filter>
<filter id="filter12_bd_6_1194" x="959.935" y="460.108" width="358.582" height="253.93" filterUnits="userSpaceOnUse" color-interpolation-filters="sRGB">
<feFlood flood-opacity="0" result="BackgroundImageFix"/>
<feGaussianBlur in="BackgroundImageFix" stdDeviation="15"/>
<feComposite in2="SourceAlpha" operator="in" result="effect1_backgroundBlur_6_1194"/>
<feColorMatrix in="SourceAlpha" type="matrix" values="0 0 0 0 0 0 0 0 0 0 0 0 0 0 0 0 0 0 127 0" result="hardAlpha"/>
<feOffset dy="3"/>
<feGaussianBlur stdDeviation="1.5"/>
<feComposite in2="hardAlpha" operator="out"/>
<feColorMatrix type="matrix" values="0 0 0 0 0 0 0 0 0 0 0 0 0 0 0 0 0 0 0.160784 0"/>
<feBlend mode="normal" in2="effect1_backgroundBlur_6_1194" result="effect2_dropShadow_6_1194"/>
<feBlend mode="normal" in="SourceGraphic" in2="effect2_dropShadow_6_1194" result="shape"/>
</filter>
<filter id="filter13_b_6_1194" x="961.919" y="461.963" width="354.567" height="250.058" filterUnits="userSpaceOnUse" color-interpolation-filters="sRGB">
<feFlood flood-opacity="0" result="BackgroundImageFix"/>
<feGaussianBlur in="BackgroundImageFix" stdDeviation="15"/>
<feComposite in2="SourceAlpha" operator="in" result="effect1_backgroundBlur_6_1194"/>
<feBlend mode="normal" in="SourceGraphic" in2="effect1_backgroundBlur_6_1194" result="shape"/>
</filter>
</defs>
</svg>
