<svg width="330" height="272" viewBox="0 0 330 272" fill="none" xmlns="http://www.w3.org/2000/svg">
<mask id="mask0_82_598" style="mask-type:alpha" maskUnits="userSpaceOnUse" x="0" y="0" width="330" height="272">
<path d="M0 20C0 8.95431 8.95431 0 20 0H310C321.046 0 330 8.95431 330 20V252C330 263.046 321.046 272 310 272H20C8.95431 272 0 263.046 0 252V20Z" fill="#7252DC"/>
</mask>
<g mask="url(#mask0_82_598)">
<g opacity="0.2" filter="url(#filter0_i_82_598)">
<circle cx="190.083" cy="171.281" r="136.613" fill="#7252DC"/>
</g>
<g opacity="0.3" filter="url(#filter1_i_82_598)">
<path d="M190.125 63.2463C249.91 63.2463 298.375 111.643 298.375 171.344C298.375 231.044 249.91 279.441 190.125 279.441C130.34 279.441 81.8748 231.044 81.8748 171.344C81.8748 111.643 130.34 63.2463 190.125 63.2463Z" fill="#7252DC"/>
</g>
<g opacity="0.4" filter="url(#filter2_i_82_598)">
<circle cx="190.212" cy="171.41" r="79.4532" fill="#7252DC"/>
</g>
<g filter="url(#filter3_i_82_598)">
<circle cx="189.823" cy="171.021" r="54.9562" fill="#7252DC"/>
</g>
<g filter="url(#filter4_bd_82_598)">
<path d="M43.7147 237.844C42.5712 233.576 45.1038 229.189 49.3716 228.046L131.094 206.148C135.361 205.005 139.748 207.537 140.892 211.805L148.927 241.793C150.07 246.06 147.538 250.447 143.27 251.591L61.5478 273.488C57.2801 274.632 52.8934 272.099 51.7499 267.831L43.7147 237.844Z" fill="white"/>
<path d="M44.1977 237.714C43.1256 233.713 45.5 229.601 49.501 228.529L131.223 206.631C135.224 205.559 139.337 207.934 140.409 211.935L148.444 241.922C149.516 245.923 147.141 250.036 143.14 251.108L61.4184 273.005C57.4174 274.077 53.3049 271.703 52.2328 267.702L44.1977 237.714Z" stroke="white"/>
</g>
<g filter="url(#filter5_b_82_598)">
<path d="M44.506 238.235C43.3625 233.967 45.8952 229.581 50.1629 228.437L130.621 206.878C134.889 205.735 139.275 208.267 140.419 212.535L148.158 241.416C149.301 245.684 146.768 250.071 142.501 251.214L62.0426 272.773C57.7749 273.916 53.3882 271.384 52.2447 267.116L44.506 238.235Z" fill="white"/>
<path d="M45.9549 237.847C45.0258 234.379 47.0836 230.815 50.5511 229.886L131.009 208.327C134.477 207.398 138.041 209.456 138.97 212.923L146.709 241.804C147.638 245.272 145.58 248.836 142.113 249.765L61.6544 271.324C58.1869 272.253 54.6227 270.195 53.6936 266.728L45.9549 237.847Z" stroke="#E6C4F2" stroke-width="3"/>
</g>
<rect x="47.4894" y="243.904" width="96.2622" height="0.361888" transform="rotate(-15 47.4894 243.904)" fill="#F3F3F3"/>
<path d="M61.2901 235.552C61.369 235.962 61.3701 236.269 61.2935 236.473L62.9742 236.022L62.2353 233.264L60.883 233.627C60.9007 233.719 60.9384 233.891 60.996 234.145C61.0528 234.396 61.1071 234.643 61.1589 234.888C61.2099 235.13 61.2536 235.351 61.2901 235.552ZM61.1602 237.559L60.8124 237.652L60.5497 236.672L60.7671 236.614C60.8735 236.547 60.9335 236.436 60.947 236.281C60.9638 236.124 60.9496 235.904 60.9044 235.619C60.8145 235.129 60.7111 234.634 60.5944 234.134C60.5167 233.792 60.4583 233.542 60.4192 233.384L62.5539 232.812L63.3847 235.912L63.7711 235.809L64.0338 236.789L63.6861 236.882L63.4937 236.261L61.0161 236.925L61.1602 237.559ZM65.3733 235.447C65.6245 235.379 65.8008 235.239 65.9023 235.025C66.0071 234.811 66.021 234.56 65.9443 234.274L65.9352 234.24C65.8567 233.947 65.7185 233.734 65.5206 233.601C65.3259 233.466 65.1029 233.433 64.8518 233.5C64.5974 233.568 64.4195 233.709 64.318 233.923C64.2165 234.136 64.2045 234.388 64.2822 234.678L64.2925 234.716C64.371 235.009 64.5056 235.222 64.6962 235.354C64.89 235.485 65.1157 235.516 65.3733 235.447ZM65.4578 235.781C65.1004 235.877 64.7718 235.836 64.4721 235.657C64.1747 235.474 63.9764 235.198 63.8772 234.828L63.8668 234.789C63.7659 234.412 63.799 234.072 63.9661 233.769C64.1364 233.464 64.4019 233.264 64.7625 233.167C65.1231 233.07 65.4517 233.112 65.7482 233.291C66.0471 233.466 66.247 233.742 66.348 234.119L66.3583 234.158C66.4601 234.538 66.4258 234.88 66.2555 235.184C66.0843 235.486 65.8184 235.685 65.4578 235.781ZM68.3822 234.998C68.0023 235.099 67.6684 235.058 67.3807 234.873C67.093 234.687 66.8823 234.345 66.7485 233.846L66.7071 233.692C66.6433 233.453 66.5964 233.24 66.5666 233.051C66.5359 232.859 66.5261 232.662 66.5372 232.459C66.5475 232.252 66.5857 232.073 66.6519 231.921C66.718 231.768 66.8252 231.627 66.9734 231.498C67.1249 231.368 67.3164 231.265 67.548 231.189L67.6433 231.158C67.9923 231.044 68.2227 230.944 68.3344 230.859L68.4781 231.183C68.3329 231.298 68.0886 231.41 67.7452 231.519L67.674 231.543C67.2896 231.667 67.0452 231.869 66.9407 232.149C66.8386 232.424 66.8387 232.811 66.9408 233.308L66.9601 233.303C66.9996 233.103 67.0909 232.928 67.2339 232.779C67.3793 232.626 67.5663 232.519 67.7949 232.458C68.1459 232.364 68.4566 232.403 68.7272 232.576C69 232.744 69.1848 233.009 69.2814 233.369L69.2866 233.389C69.391 233.778 69.3567 234.12 69.1838 234.415C69.0132 234.706 68.746 234.9 68.3822 234.998ZM67.6232 234.58C67.8153 234.704 68.0402 234.732 68.2977 234.663C68.5553 234.594 68.735 234.46 68.8367 234.26C68.9409 234.056 68.9528 233.804 68.8726 233.505L68.87 233.495C68.7949 233.215 68.6682 233.013 68.4898 232.888C68.3147 232.762 68.0999 232.733 67.8456 232.802C67.5783 232.873 67.3883 233.014 67.2754 233.224C67.1657 233.432 67.1496 233.682 67.2273 233.972L67.2299 233.981C67.3032 234.255 67.4343 234.454 67.6232 234.58ZM70.9144 234.319C70.6665 234.385 70.4472 234.379 70.2567 234.299C70.0685 234.214 69.9412 234.048 69.8748 233.8C69.8377 233.662 69.8391 233.532 69.8791 233.411C69.9215 233.286 69.9961 233.178 70.1029 233.087C70.2089 232.993 70.3308 232.914 70.4688 232.849C70.6059 232.782 70.7598 232.725 70.9305 232.679L71.2927 232.582L71.2435 232.398C71.1892 232.196 71.1085 232.062 71.0015 231.997C70.8936 231.93 70.7431 231.922 70.5499 231.973C70.2022 232.067 70.0495 232.27 70.092 232.583L69.6911 232.69C69.6444 232.413 69.696 232.187 69.8459 232.012C69.9981 231.833 70.2095 231.708 70.4799 231.635C71.0949 231.47 71.4831 231.689 71.6444 232.291L72.0908 233.957L71.69 234.065L71.6046 233.746C71.4761 234.039 71.246 234.23 70.9144 234.319ZM70.8676 233.99C71.0866 233.931 71.251 233.83 71.361 233.687C71.4734 233.54 71.5041 233.371 71.4532 233.181L71.3691 232.867L71.0213 232.96C70.4353 233.117 70.1868 233.361 70.2756 233.693C70.3515 233.976 70.5489 234.075 70.8676 233.99ZM72.1725 231.228L73.0563 230.991C73.6487 230.833 74.0023 230.967 74.1171 231.396L74.1209 231.41C74.1537 231.532 74.1501 231.654 74.1101 231.775C74.0692 231.893 73.9859 231.988 73.8602 232.06C74.2319 232.043 74.4582 232.186 74.5393 232.488L74.5432 232.503C74.6088 232.748 74.5779 232.954 74.4506 233.123C74.3264 233.291 74.1227 233.413 73.8394 233.489L72.8493 233.754L72.1725 231.228ZM72.6587 231.439L72.8593 232.188L73.3423 232.059C73.5097 232.014 73.6207 231.951 73.6751 231.871C73.7328 231.79 73.743 231.68 73.7059 231.542L73.7021 231.527C73.6676 231.399 73.6052 231.32 73.515 231.293C73.4271 231.261 73.3011 231.267 73.1369 231.311L72.6587 231.439ZM72.9447 232.507L73.1647 233.328L73.7153 233.18C73.8924 233.133 74.0146 233.067 74.0819 232.984C74.1516 232.896 74.1675 232.781 74.1295 232.64L74.1256 232.625C74.0877 232.484 74.0166 232.392 73.9124 232.351C73.8114 232.309 73.6724 232.312 73.4953 232.359L72.9447 232.507ZM75.382 233.075L74.7052 230.549L75.1061 230.442L75.6276 232.388L76.3956 230.097L76.7964 229.989L77.4732 232.515L77.0724 232.622L76.5509 230.676L75.7829 232.968L75.382 233.075ZM79.4217 229.648L78.6055 229.867L79.1917 232.055L78.7909 232.162L78.2046 229.974L77.3884 230.193L77.2978 229.855L79.3311 229.31L79.4217 229.648ZM79.8838 229.162L80.2847 229.054L80.5215 229.938L80.9707 229.818C81.254 229.742 81.5044 229.749 81.7218 229.839C81.9392 229.929 82.0846 230.111 82.1579 230.385L82.1618 230.399C82.236 230.676 82.2002 230.903 82.0544 231.08C81.9118 231.257 81.6972 231.383 81.4107 231.46L80.5607 231.688L79.8838 229.162ZM81.3507 231.14C81.5439 231.088 81.6716 231.011 81.7337 230.908C81.795 230.801 81.8041 230.668 81.7609 230.507L81.757 230.492C81.7105 230.319 81.6329 230.203 81.5244 230.146C81.4183 230.085 81.2702 230.079 81.0802 230.13L80.6069 230.257L80.8774 231.266L81.3507 231.14ZM84.2807 229.309L84.6262 230.598L84.2253 230.706L83.5485 228.18L83.9494 228.073L84.2651 229.251L84.9974 227.792L85.4659 227.666L84.7024 229.144L86.2345 230.167L85.7467 230.298L84.2807 229.309ZM88.0562 228.473L86.8149 228.806L87.1165 229.931L86.7156 230.039L86.0388 227.513L86.4397 227.405L86.7244 228.468L87.9656 228.135L87.6809 227.073L88.0817 226.965L88.7585 229.491L88.3577 229.599L88.0562 228.473ZM90.5732 228.694C90.8244 228.627 91.0007 228.487 91.1022 228.273C91.207 228.059 91.221 227.808 91.1442 227.522L91.1351 227.488C91.0566 227.195 90.9184 226.982 90.7205 226.848C90.5258 226.714 90.3029 226.681 90.0517 226.748C89.7974 226.816 89.6194 226.957 89.5179 227.171C89.4164 227.384 89.4044 227.636 89.4821 227.926L89.4924 227.964C89.5709 228.257 89.7055 228.47 89.8961 228.601C90.09 228.732 90.3157 228.763 90.5732 228.694ZM90.6577 229.029C90.3003 229.125 89.9717 229.083 89.672 228.905C89.3746 228.722 89.1763 228.446 89.0771 228.075L89.0667 228.037C88.9658 227.66 88.9989 227.32 89.166 227.016C89.3363 226.712 89.6018 226.511 89.9624 226.415C90.323 226.318 90.6516 226.359 90.9481 226.539C91.247 226.714 91.4469 226.99 91.5479 227.367L91.5582 227.405C91.66 227.785 91.6258 228.128 91.4554 228.432C91.2842 228.733 91.0183 228.932 90.6577 229.029ZM93.4914 225.878L92.2984 226.198L92.8847 228.386L92.4838 228.493L91.807 225.967L93.8016 225.433L94.4784 227.959L94.0776 228.066L93.4914 225.878ZM95.3454 226.344L95.6909 227.634L95.2901 227.741L94.6133 225.215L95.0141 225.108L95.3299 226.286L96.0622 224.827L96.5306 224.701L95.7671 226.179L97.2992 227.203L96.8114 227.333L95.3454 226.344ZM98.4446 226.616L96.8476 224.616L97.2774 224.501L98.5354 226.105L98.7505 224.107L99.161 223.997L98.6775 227.775L98.2719 227.884L98.4446 226.616Z" fill="#222222"/>
<circle cx="59.8809" cy="258.881" r="2.35227" transform="rotate(-15 59.8809 258.881)" fill="#4FD002"/>
<path d="M59.7552 259.813L58.8459 259.288L59.0348 258.961L59.617 259.297L60.466 257.826L60.7932 258.015L59.7552 259.813Z" fill="white"/>
<path d="M63.0353 252.533C62.4635 250.399 63.7298 248.206 65.8637 247.634L131.543 230.035C133.677 229.464 135.871 230.73 136.442 232.864L138.68 241.216C139.252 243.35 137.986 245.543 135.852 246.115L70.1722 263.714C68.0384 264.286 65.845 263.019 65.2732 260.885L63.0353 252.533Z" fill="#F2F2F2"/>
<path d="M90.3501 247.785L90.7703 247.673L91.2154 249.334L92.271 247.265L92.7395 247.14L91.654 249.232L93.7433 250.577L93.2362 250.713L91.2439 249.44L91.6956 251.126L91.2754 251.238L90.3501 247.785ZM95.534 248.891L94.2928 249.224L94.5944 250.349L94.1935 250.456L93.5167 247.931L93.9175 247.823L94.2022 248.886L95.4435 248.553L95.1588 247.491L95.5596 247.383L96.2364 249.909L95.8356 250.016L95.534 248.891ZM98.0511 249.112C98.3023 249.045 98.4786 248.904 98.5801 248.691C98.6849 248.477 98.6988 248.226 98.6221 247.939L98.613 247.906C98.5345 247.613 98.3963 247.399 98.1984 247.266C98.0037 247.132 97.7807 247.099 97.5296 247.166C97.2752 247.234 97.0973 247.375 96.9958 247.588C96.8943 247.802 96.8823 248.054 96.96 248.343L96.9703 248.382C97.0488 248.675 97.1834 248.887 97.374 249.019C97.5678 249.15 97.7935 249.181 98.0511 249.112ZM98.1356 249.447C97.7782 249.542 97.4496 249.501 97.1499 249.323C96.8525 249.14 96.6542 248.864 96.555 248.493L96.5446 248.455C96.4437 248.078 96.4768 247.738 96.6439 247.434C96.8142 247.13 97.0797 246.929 97.4403 246.833C97.8009 246.736 98.1295 246.777 98.426 246.957C98.7249 247.132 98.9248 247.408 99.0258 247.785L99.0361 247.823C99.1379 248.203 99.1036 248.545 98.9333 248.85C98.7621 249.151 98.4962 249.35 98.1356 249.447ZM100.969 246.296L99.7763 246.616L100.363 248.803L99.9617 248.911L99.2849 246.385L101.28 245.85L101.956 248.376L101.555 248.484L100.969 246.296ZM102.823 246.762L103.169 248.051L102.768 248.159L102.091 245.633L102.492 245.526L102.808 246.704L103.54 245.245L104.009 245.119L103.245 246.597L104.777 247.621L104.289 247.751L102.823 246.762ZM105.908 247.364C105.66 247.431 105.441 247.424 105.25 247.344C105.062 247.259 104.935 247.093 104.868 246.846C104.831 246.707 104.833 246.577 104.873 246.456C104.915 246.331 104.99 246.223 105.096 246.132C105.202 246.038 105.324 245.959 105.462 245.894C105.6 245.827 105.753 245.77 105.924 245.724L106.286 245.627L106.237 245.443C106.183 245.241 106.102 245.107 105.995 245.042C105.887 244.975 105.737 244.967 105.543 245.019C105.196 245.112 105.043 245.315 105.086 245.628L104.685 245.735C104.638 245.458 104.69 245.232 104.839 245.057C104.992 244.878 105.203 244.753 105.473 244.68C106.088 244.515 106.477 244.734 106.638 245.336L107.084 247.002L106.684 247.11L106.598 246.791C106.47 247.084 106.24 247.275 105.908 247.364ZM105.861 247.035C106.08 246.976 106.245 246.875 106.355 246.732C106.467 246.585 106.498 246.416 106.447 246.226L106.363 245.912L106.015 246.005C105.429 246.162 105.18 246.406 105.269 246.738C105.345 247.021 105.542 247.12 105.861 247.035Z" fill="#222222"/>
<g filter="url(#filter6_bd_82_598)">
<path d="M58.5521 289.594C57.4086 285.326 59.9412 280.939 64.209 279.796L145.931 257.899C150.199 256.755 154.585 259.288 155.729 263.555L163.764 293.543C164.908 297.811 162.375 302.197 158.107 303.341L76.3852 325.238C72.1175 326.382 67.7308 323.849 66.5873 319.581L58.5521 289.594Z" fill="white"/>
<path d="M59.0351 289.464C57.963 285.463 60.3374 281.351 64.3384 280.279L146.06 258.382C150.061 257.309 154.174 259.684 155.246 263.685L163.281 293.672C164.353 297.673 161.979 301.786 157.978 302.858L76.2558 324.755C72.2548 325.827 68.1423 323.453 67.0702 319.452L59.0351 289.464Z" stroke="white"/>
</g>
<g filter="url(#filter7_b_82_598)">
<path d="M59.3434 289.985C58.1999 285.717 60.7326 281.331 65.0003 280.187L145.458 258.628C149.726 257.485 154.113 260.017 155.256 264.285L162.995 293.166C164.139 297.434 161.606 301.821 157.338 302.964L76.88 324.523C72.6123 325.666 68.2256 323.134 67.0821 318.866L59.3434 289.985Z" fill="white"/>
<path d="M60.7923 289.597C59.8632 286.129 61.921 282.565 65.3885 281.636L145.847 260.077C149.314 259.148 152.878 261.206 153.807 264.673L161.546 293.554C162.475 297.022 160.417 300.586 156.95 301.515L76.4918 323.074C73.0243 324.003 69.4601 321.945 68.531 318.478L60.7923 289.597Z" stroke="#E6C4F2" stroke-width="3"/>
</g>
<rect x="62.3268" y="295.654" width="96.2622" height="0.361888" transform="rotate(-15 62.3268 295.654)" fill="#F3F3F3"/>
<g filter="url(#filter8_b_82_598)">
<path d="M150.809 190.436C149.665 186.169 152.198 181.782 156.466 180.638L238.188 158.741C242.456 157.598 246.842 160.13 247.986 164.398L263.514 222.35C264.658 226.618 262.125 231.005 257.857 232.148L176.135 254.045C171.867 255.189 167.481 252.656 166.337 248.389L150.809 190.436Z" fill="white"/>
<path d="M151.292 190.307C150.22 186.306 152.594 182.193 156.595 181.121L238.317 159.224C242.318 158.152 246.431 160.526 247.503 164.527L263.031 222.48C264.103 226.481 261.729 230.593 257.728 231.665L176.006 253.562C172.005 254.635 167.892 252.26 166.82 248.259L151.292 190.307Z" stroke="white"/>
</g>
<g filter="url(#filter9_b_82_598)">
<path d="M151.535 190.887C150.392 186.62 152.925 182.233 157.192 181.089L237.841 159.48C242.109 158.336 246.495 160.869 247.639 165.136L262.828 221.824C263.972 226.091 261.439 230.478 257.171 231.622L176.523 253.231C172.255 254.375 167.868 251.842 166.725 247.574L151.535 190.887Z" fill="white"/>
<path d="M152.984 190.499C152.055 187.032 154.113 183.467 157.581 182.538L238.229 160.929C241.697 159.999 245.261 162.057 246.19 165.525L261.379 222.212C262.308 225.679 260.251 229.244 256.783 230.173L176.134 251.782C172.667 252.712 169.103 250.654 168.174 247.186L152.984 190.499Z" stroke="#E6C4F2" stroke-width="3"/>
</g>
<rect x="155.035" y="197.531" width="96.2622" height="0.361888" transform="rotate(-15 155.035 197.531)" fill="#F3F3F3"/>
<rect x="158.876" y="211.863" width="96.2622" height="0.361888" transform="rotate(-15 158.876 211.863)" fill="#F3F3F3"/>
<rect x="163.721" y="226.12" width="96.2622" height="0.361888" transform="rotate(-15 163.721 226.12)" fill="#F3F3F3"/>
<rect x="167.655" y="240.801" width="96.2622" height="0.361888" transform="rotate(-15 167.655 240.801)" fill="#F3F3F3"/>
<path d="M177.66 201.917C177.161 202.051 176.724 201.999 176.35 201.761C175.979 201.522 175.722 201.136 175.578 200.601L175.568 200.563C175.431 200.051 175.471 199.588 175.688 199.174C175.905 198.761 176.248 198.491 176.718 198.365C177.095 198.264 177.439 198.277 177.749 198.405C178.062 198.531 178.287 198.77 178.422 199.12L178.006 199.231C177.887 198.977 177.73 198.805 177.537 198.715C177.347 198.625 177.106 198.619 176.813 198.697C176.455 198.793 176.202 199 176.053 199.32C175.903 199.636 175.886 200.01 176.001 200.441L176.012 200.48C176.13 200.921 176.327 201.239 176.604 201.434C176.883 201.625 177.207 201.671 177.578 201.572C177.864 201.495 178.079 201.362 178.221 201.172C178.366 200.978 178.424 200.736 178.394 200.447L178.786 200.342C178.832 200.748 178.755 201.086 178.555 201.357C178.354 201.624 178.056 201.811 177.66 201.917ZM180.678 200.752C180.929 200.684 181.106 200.544 181.207 200.33C181.312 200.116 181.326 199.865 181.249 199.579L181.24 199.545C181.162 199.252 181.023 199.039 180.826 198.905C180.631 198.771 180.408 198.738 180.157 198.805C179.902 198.873 179.725 199.014 179.623 199.228C179.521 199.441 179.51 199.693 179.587 199.983L179.598 200.021C179.676 200.314 179.811 200.527 180.001 200.659C180.195 200.79 180.421 200.821 180.678 200.752ZM180.763 201.086C180.405 201.182 180.077 201.14 179.777 200.962C179.48 200.779 179.281 200.503 179.182 200.133L179.172 200.094C179.071 199.717 179.104 199.377 179.271 199.074C179.441 198.769 179.707 198.569 180.068 198.472C180.428 198.375 180.757 198.417 181.053 198.596C181.352 198.771 181.552 199.047 181.653 199.424L181.663 199.463C181.765 199.843 181.731 200.185 181.561 200.489C181.389 200.79 181.123 200.989 180.763 201.086ZM183.716 198.245C183.749 198.371 183.743 198.496 183.698 198.622C183.655 198.744 183.57 198.836 183.445 198.897C183.617 198.882 183.764 198.91 183.887 198.981C184.009 199.051 184.092 199.166 184.134 199.323L184.138 199.338C184.201 199.573 184.165 199.786 184.03 199.978C183.898 200.168 183.684 200.303 183.388 200.383C183.082 200.465 182.823 200.458 182.611 200.363C182.402 200.264 182.256 200.086 182.173 199.828L182.564 199.723C182.627 199.879 182.714 199.987 182.827 200.046C182.942 200.102 183.099 200.103 183.298 200.049C183.659 199.953 183.801 199.761 183.724 199.475L183.72 199.46C183.682 199.319 183.611 199.227 183.507 199.186C183.406 199.144 183.267 199.147 183.09 199.194L182.708 199.296L182.623 198.978L182.937 198.894C183.104 198.849 183.215 198.786 183.27 198.706C183.327 198.625 183.338 198.515 183.301 198.377L183.297 198.362C183.23 198.114 183.052 198.029 182.762 198.107C182.482 198.182 182.35 198.359 182.366 198.638L181.98 198.741C181.941 198.479 181.988 198.268 182.121 198.108C182.257 197.947 182.449 197.834 182.697 197.767C182.936 197.703 183.15 197.712 183.341 197.792C183.53 197.868 183.654 198.015 183.712 198.23L183.716 198.245ZM185.207 198.803C185.251 199.109 185.253 199.336 185.213 199.485L186.396 199.168L185.898 197.308L184.971 197.557C185.06 197.954 185.139 198.369 185.207 198.803ZM185.13 200.527L184.807 200.613L184.552 199.662L184.73 199.614C184.814 199.567 184.86 199.486 184.867 199.37C184.873 199.251 184.862 199.087 184.833 198.877C184.792 198.609 184.732 198.273 184.651 197.87C184.617 197.69 184.578 197.507 184.535 197.321L186.201 196.875L186.788 199.063L187.174 198.959L187.429 199.911L187.105 199.997L186.912 199.392L184.995 199.906L185.13 200.527ZM188.441 199.029C188.193 199.095 187.974 199.088 187.783 199.008C187.595 198.924 187.468 198.758 187.401 198.51C187.364 198.372 187.366 198.242 187.406 198.121C187.448 197.995 187.523 197.888 187.629 197.797C187.735 197.703 187.857 197.624 187.995 197.559C188.132 197.491 188.286 197.434 188.457 197.389L188.819 197.292L188.77 197.108C188.716 196.905 188.635 196.772 188.528 196.707C188.42 196.639 188.27 196.631 188.076 196.683C187.729 196.776 187.576 196.979 187.618 197.292L187.218 197.4C187.171 197.122 187.222 196.896 187.372 196.722C187.525 196.543 187.736 196.417 188.006 196.345C188.621 196.18 189.009 196.399 189.171 197.001L189.617 198.667L189.216 198.774L189.131 198.456C189.003 198.749 188.772 198.94 188.441 199.029ZM188.394 198.7C188.613 198.641 188.777 198.54 188.887 198.397C189 198.249 189.031 198.08 188.98 197.89L188.895 197.577L188.548 197.67C187.962 197.827 187.713 198.071 187.802 198.403C187.878 198.686 188.075 198.785 188.394 198.7ZM191.491 195.82L190.675 196.039L191.261 198.226L190.86 198.334L190.274 196.146L189.458 196.365L189.367 196.027L191.401 195.482L191.491 195.82ZM191.953 195.334L192.354 195.226L192.591 196.11L193.04 195.99C193.324 195.914 193.574 195.921 193.791 196.011C194.009 196.101 194.154 196.283 194.227 196.557L194.231 196.571C194.306 196.848 194.27 197.075 194.124 197.252C193.981 197.429 193.767 197.555 193.48 197.632L192.63 197.86L191.953 195.334ZM193.42 197.311C193.613 197.26 193.741 197.182 193.803 197.079C193.865 196.973 193.874 196.84 193.83 196.679L193.827 196.664C193.78 196.49 193.702 196.375 193.594 196.318C193.488 196.256 193.34 196.251 193.15 196.302L192.676 196.429L192.947 197.438L193.42 197.311ZM197.299 196.298C197.55 196.231 197.727 196.09 197.828 195.877C197.933 195.662 197.947 195.412 197.87 195.125L197.861 195.091C197.782 194.798 197.644 194.585 197.446 194.452C197.252 194.318 197.029 194.284 196.778 194.352C196.523 194.42 196.345 194.561 196.244 194.774C196.142 194.988 196.13 195.239 196.208 195.529L196.218 195.568C196.297 195.861 196.431 196.073 196.622 196.205C196.816 196.336 197.041 196.367 197.299 196.298ZM197.384 196.633C197.026 196.728 196.698 196.687 196.398 196.508C196.1 196.326 195.902 196.049 195.803 195.679L195.793 195.641C195.692 195.264 195.725 194.924 195.892 194.62C196.062 194.316 196.328 194.115 196.688 194.018C197.049 193.922 197.377 193.963 197.674 194.143C197.973 194.318 198.173 194.594 198.274 194.971L198.284 195.009C198.386 195.389 198.352 195.731 198.181 196.036C198.01 196.337 197.744 196.536 197.384 196.633ZM200.217 193.482L199.024 193.801L199.61 195.989L199.21 196.097L198.533 193.571L200.527 193.036L201.204 195.562L200.803 195.67L200.217 193.482ZM201.368 192.811L201.769 192.704L201.883 193.129C201.922 192.98 202.009 192.839 202.143 192.707C202.275 192.571 202.432 192.479 202.612 192.431C202.95 192.341 203.256 192.381 203.53 192.553C203.807 192.724 203.998 193.004 204.102 193.393L204.112 193.432C204.217 193.822 204.195 194.166 204.047 194.464C203.902 194.758 203.657 194.952 203.312 195.044C202.926 195.147 202.6 195.071 202.334 194.814L202.681 196.109L202.28 196.216L201.368 192.811ZM203.184 194.721C203.435 194.654 203.605 194.522 203.694 194.326C203.782 194.126 203.785 193.872 203.702 193.563L203.692 193.524C203.61 193.218 203.473 193.003 203.281 192.878C203.091 192.75 202.883 192.716 202.658 192.776C202.413 192.842 202.236 192.977 202.125 193.183C202.017 193.384 202.005 193.641 202.088 193.954L202.099 193.992C202.182 194.305 202.32 194.521 202.511 194.643C202.706 194.763 202.93 194.789 203.184 194.721ZM206.048 193.954C206.299 193.886 206.476 193.746 206.577 193.532C206.682 193.318 206.696 193.068 206.619 192.781L206.61 192.747C206.531 192.454 206.393 192.241 206.195 192.108C206.001 191.974 205.778 191.94 205.527 192.007C205.272 192.076 205.094 192.216 204.993 192.43C204.891 192.643 204.879 192.895 204.957 193.185L204.967 193.224C205.046 193.517 205.18 193.729 205.371 193.861C205.565 193.992 205.79 194.023 206.048 193.954ZM206.132 194.288C205.775 194.384 205.447 194.343 205.147 194.164C204.849 193.982 204.651 193.705 204.552 193.335L204.542 193.296C204.441 192.92 204.474 192.579 204.641 192.276C204.811 191.971 205.077 191.771 205.437 191.674C205.798 191.577 206.126 191.619 206.423 191.798C206.722 191.974 206.922 192.25 207.023 192.626L207.033 192.665C207.135 193.045 207.101 193.387 206.93 193.691C206.759 193.993 206.493 194.192 206.132 194.288ZM209.047 193.507C208.687 193.604 208.359 193.567 208.065 193.398C207.771 193.225 207.571 192.945 207.468 192.559L207.458 192.52C207.356 192.14 207.39 191.798 207.56 191.493C207.734 191.188 207.993 190.989 208.337 190.897C208.627 190.819 208.893 190.826 209.135 190.916C209.375 191.004 209.554 191.194 209.671 191.487L209.275 191.593C209.118 191.242 208.836 191.121 208.427 191.23C208.192 191.293 208.021 191.434 207.914 191.652C207.809 191.867 207.795 192.119 207.873 192.409L207.883 192.447C207.964 192.75 208.101 192.964 208.293 193.088C208.488 193.212 208.712 193.24 208.963 193.173C209.153 193.122 209.301 193.025 209.408 192.883C209.517 192.736 209.555 192.562 209.522 192.36L209.893 192.261C209.942 192.545 209.887 192.804 209.73 193.04C209.574 193.271 209.347 193.427 209.047 193.507Z" fill="#222222"/>
<path d="M182.022 212.665L182.572 212.518L184.666 215.658L184.251 215.769L183.646 214.865L182.222 215.246L182.155 216.331L181.759 216.437L182.022 212.665ZM182.248 214.882L183.446 214.561L182.371 212.944L182.248 214.882ZM185.271 214.113L185.617 215.403L185.216 215.51L184.539 212.984L184.94 212.877L185.256 214.055L185.988 212.596L186.457 212.471L185.693 213.949L187.225 214.972L186.737 215.103L185.271 214.113ZM189.928 214.905L189.735 214.3L187.706 214.843L187.03 212.317L187.43 212.21L188.017 214.398L189.21 214.078L188.623 211.89L189.024 211.783L189.61 213.971L189.997 213.867L190.252 214.818L189.928 214.905ZM190.588 214.071L189.911 211.545L190.312 211.438L190.834 213.384L191.602 211.092L192.003 210.985L192.679 213.511L192.279 213.618L191.757 211.672L190.989 213.963L190.588 214.071ZM193.691 210.874C193.33 210.971 193.191 211.172 193.273 211.478L193.276 211.492C193.315 211.637 193.386 211.735 193.49 211.787C193.594 211.839 193.742 211.839 193.935 211.787L194.408 211.66L194.164 210.747L193.691 210.874ZM193.615 213.26L193.157 213.383L193.641 212.119C193.23 212.143 192.975 211.97 192.876 211.6L192.872 211.585C192.801 211.321 192.839 211.102 192.986 210.928C193.131 210.751 193.346 210.625 193.629 210.549L194.479 210.321L195.156 212.847L194.755 212.954L194.49 211.964L194.055 212.081L193.615 213.26Z" fill="#222222"/>
<path d="M187.946 230.661C187.447 230.795 187.011 230.743 186.636 230.505C186.265 230.266 186.008 229.879 185.865 229.345L185.855 229.306C185.717 228.794 185.757 228.332 185.974 227.918C186.191 227.504 186.535 227.235 187.005 227.109C187.382 227.008 187.725 227.021 188.035 227.148C188.349 227.275 188.573 227.513 188.708 227.863L188.293 227.975C188.173 227.72 188.017 227.548 187.823 227.459C187.634 227.368 187.392 227.362 187.099 227.441C186.742 227.536 186.488 227.744 186.339 228.063C186.189 228.38 186.172 228.754 186.288 229.185L186.298 229.224C186.416 229.665 186.614 229.983 186.89 230.178C187.169 230.369 187.494 230.415 187.864 230.316C188.151 230.239 188.365 230.105 188.508 229.915C188.652 229.721 188.71 229.48 188.681 229.191L189.072 229.086C189.119 229.491 189.042 229.829 188.842 230.1C188.641 230.368 188.343 230.555 187.946 230.661ZM190.016 228.678L190.362 229.967L189.961 230.075L189.284 227.549L189.685 227.441L190.001 228.62L190.733 227.161L191.201 227.035L190.438 228.513L191.97 229.536L191.482 229.667L190.016 228.678ZM192.451 229.407L191.774 226.882L192.175 226.774L192.697 228.72L193.465 226.429L193.865 226.321L194.542 228.847L194.141 228.955L193.62 227.008L192.852 229.3L192.451 229.407ZM195.536 227.535C195.58 227.841 195.582 228.068 195.542 228.217L196.726 227.9L196.227 226.04L195.3 226.289C195.389 226.686 195.468 227.101 195.536 227.535ZM195.459 229.259L195.136 229.346L194.881 228.394L195.059 228.346C195.143 228.3 195.189 228.218 195.196 228.103C195.202 227.984 195.191 227.819 195.162 227.609C195.121 227.341 195.061 227.005 194.98 226.602C194.946 226.422 194.907 226.239 194.864 226.054L196.53 225.607L197.117 227.795L197.503 227.691L197.758 228.643L197.434 228.73L197.241 228.124L195.324 228.638L195.459 229.259ZM198.152 226.498L198.497 227.787L198.097 227.895L197.42 225.369L197.821 225.261L198.136 226.44L198.869 224.981L199.337 224.855L198.574 226.333L200.106 227.356L199.618 227.487L198.152 226.498ZM201.237 227.1C200.989 227.166 200.769 227.16 200.579 227.079C200.391 226.995 200.263 226.829 200.197 226.581C200.16 226.443 200.161 226.313 200.201 226.192C200.244 226.067 200.318 225.959 200.425 225.868C200.531 225.774 200.653 225.695 200.791 225.63C200.928 225.562 201.082 225.506 201.253 225.46L201.615 225.363L201.566 225.179C201.511 224.976 201.431 224.843 201.324 224.778C201.216 224.711 201.065 224.703 200.872 224.754C200.524 224.848 200.372 225.051 200.414 225.364L200.013 225.471C199.967 225.194 200.018 224.968 200.168 224.793C200.32 224.614 200.532 224.488 200.802 224.416C201.417 224.251 201.805 224.47 201.967 225.072L202.413 226.738L202.012 226.846L201.927 226.527C201.798 226.82 201.568 227.011 201.237 227.1ZM201.19 226.771C201.409 226.712 201.573 226.611 201.683 226.468C201.796 226.32 201.826 226.152 201.775 225.962L201.691 225.648L201.343 225.741C200.757 225.898 200.509 226.142 200.598 226.474C200.674 226.757 200.871 226.856 201.19 226.771Z" fill="#222222"/>
<path d="M192.661 240.941L190.893 241.415L191.724 244.515L191.304 244.628L190.379 241.175L192.987 240.476L193.912 243.929L193.492 244.042L192.661 240.941ZM195.755 243.125C196.006 243.057 196.183 242.917 196.284 242.703C196.389 242.489 196.403 242.238 196.326 241.952L196.317 241.918C196.238 241.625 196.1 241.412 195.902 241.279C195.708 241.144 195.485 241.111 195.234 241.178C194.979 241.246 194.801 241.387 194.7 241.601C194.598 241.814 194.586 242.066 194.664 242.356L194.674 242.394C194.753 242.687 194.887 242.9 195.078 243.032C195.272 243.163 195.497 243.194 195.755 243.125ZM195.839 243.459C195.482 243.555 195.154 243.514 194.854 243.335C194.556 243.152 194.358 242.876 194.259 242.506L194.249 242.467C194.148 242.09 194.181 241.75 194.348 241.447C194.518 241.142 194.784 240.942 195.144 240.845C195.505 240.748 195.833 240.79 196.13 240.969C196.429 241.144 196.629 241.42 196.73 241.797L196.74 241.836C196.842 242.216 196.808 242.558 196.637 242.862C196.466 243.164 196.2 243.363 195.839 243.459ZM197.721 241.526L198.066 242.816L197.666 242.923L196.989 240.397L197.39 240.29L197.705 241.468L198.438 240.009L198.906 239.884L198.143 241.362L199.675 242.385L199.187 242.516L197.721 241.526ZM200.806 242.128C200.558 242.195 200.338 242.188 200.148 242.108C199.96 242.024 199.832 241.858 199.766 241.61C199.729 241.471 199.73 241.342 199.77 241.22C199.813 241.095 199.887 240.987 199.994 240.897C200.1 240.803 200.222 240.723 200.36 240.659C200.497 240.591 200.651 240.534 200.822 240.488L201.184 240.391L201.135 240.208C201.08 240.005 201 239.871 200.893 239.807C200.785 239.739 200.634 239.731 200.441 239.783C200.093 239.876 199.941 240.079 199.983 240.392L199.582 240.5C199.536 240.222 199.587 239.996 199.737 239.821C199.889 239.643 200.101 239.517 200.371 239.444C200.986 239.28 201.374 239.498 201.536 240.1L201.982 241.767L201.581 241.874L201.496 241.555C201.367 241.849 201.137 242.04 200.806 242.128ZM200.759 241.799C200.978 241.741 201.142 241.64 201.252 241.496C201.365 241.349 201.395 241.18 201.344 240.99L201.26 240.676L200.913 240.77C200.327 240.927 200.078 241.171 200.167 241.502C200.243 241.786 200.44 241.885 200.759 241.799ZM203.867 239.258C203.901 239.384 203.895 239.51 203.849 239.636C203.806 239.758 203.722 239.849 203.597 239.91C203.769 239.895 203.916 239.923 204.039 239.994C204.161 240.065 204.243 240.179 204.286 240.337L204.29 240.351C204.352 240.586 204.316 240.8 204.181 240.991C204.05 241.182 203.836 241.317 203.539 241.396C203.233 241.478 202.975 241.471 202.763 241.376C202.553 241.277 202.407 241.099 202.324 240.842L202.716 240.737C202.778 240.893 202.866 241 202.978 241.06C203.093 241.115 203.25 241.116 203.45 241.063C203.811 240.966 203.953 240.775 203.876 240.488L203.872 240.473C203.834 240.332 203.763 240.24 203.659 240.199C203.558 240.157 203.419 240.16 203.242 240.208L202.86 240.31L202.775 239.991L203.089 239.907C203.256 239.862 203.367 239.8 203.421 239.719C203.479 239.638 203.489 239.529 203.452 239.39L203.448 239.376C203.382 239.128 203.204 239.043 202.914 239.12C202.634 239.195 202.502 239.372 202.518 239.651L202.132 239.754C202.092 239.492 202.139 239.281 202.272 239.121C202.409 238.961 202.601 238.847 202.849 238.781C203.087 238.717 203.302 238.725 203.492 238.805C203.682 238.882 203.806 239.028 203.863 239.244L203.867 239.258ZM205.824 240.784C205.576 240.85 205.357 240.843 205.166 240.763C204.978 240.679 204.851 240.513 204.784 240.265C204.747 240.127 204.749 239.997 204.789 239.876C204.831 239.751 204.906 239.643 205.012 239.552C205.118 239.458 205.24 239.379 205.378 239.314C205.515 239.246 205.669 239.19 205.84 239.144L206.202 239.047L206.153 238.863C206.099 238.66 206.018 238.527 205.911 238.462C205.803 238.394 205.653 238.386 205.459 238.438C205.112 238.531 204.959 238.735 205.001 239.048L204.601 239.155C204.554 238.878 204.605 238.652 204.755 238.477C204.908 238.298 205.119 238.172 205.389 238.1C206.004 237.935 206.393 238.154 206.554 238.756L207 240.422L206.599 240.529L206.514 240.211C206.386 240.504 206.156 240.695 205.824 240.784ZM205.777 240.455C205.996 240.396 206.161 240.295 206.27 240.152C206.383 240.004 206.414 239.836 206.363 239.646L206.279 239.332L205.931 239.425C205.345 239.582 205.096 239.826 205.185 240.158C205.261 240.441 205.458 240.54 205.777 240.455ZM208.874 237.575L208.058 237.794L208.644 239.982L208.243 240.089L207.657 237.901L206.841 238.12L206.75 237.782L208.784 237.237L208.874 237.575ZM209.336 237.089L209.737 236.981L209.974 237.865L210.423 237.745C210.707 237.669 210.957 237.676 211.174 237.766C211.392 237.856 211.537 238.038 211.61 238.312L211.614 238.326C211.689 238.603 211.653 238.83 211.507 239.007C211.364 239.184 211.15 239.31 210.863 239.387L210.013 239.615L209.336 237.089ZM210.803 239.067C210.996 239.015 211.124 238.937 211.186 238.835C211.248 238.728 211.257 238.595 211.213 238.434L211.21 238.419C211.163 238.245 211.085 238.13 210.977 238.073C210.871 238.011 210.723 238.006 210.533 238.057L210.06 238.184L210.33 239.193L210.803 239.067ZM213.733 237.236L214.079 238.525L213.678 238.633L213.001 236.107L213.402 235.999L213.718 237.178L214.45 235.719L214.918 235.593L214.155 237.071L215.687 238.094L215.199 238.225L213.733 237.236ZM217.078 237.411C217.329 237.344 217.506 237.203 217.607 236.99C217.712 236.775 217.726 236.525 217.649 236.238L217.64 236.205C217.561 235.912 217.423 235.698 217.225 235.565C217.031 235.431 216.808 235.397 216.557 235.465C216.302 235.533 216.124 235.674 216.023 235.887C215.921 236.101 215.909 236.353 215.987 236.642L215.997 236.681C216.076 236.974 216.21 237.186 216.401 237.318C216.595 237.449 216.82 237.48 217.078 237.411ZM217.162 237.746C216.805 237.841 216.477 237.8 216.177 237.622C215.879 237.439 215.681 237.163 215.582 236.792L215.572 236.754C215.471 236.377 215.504 236.037 215.671 235.733C215.841 235.429 216.107 235.228 216.467 235.132C216.828 235.035 217.156 235.076 217.453 235.256C217.752 235.431 217.952 235.707 218.053 236.084L218.063 236.122C218.165 236.502 218.131 236.844 217.96 237.149C217.789 237.45 217.523 237.649 217.162 237.746ZM220.329 235.644L219.088 235.977L219.389 237.102L218.989 237.21L218.312 234.684L218.713 234.576L218.997 235.639L220.239 235.306L219.954 234.244L220.355 234.136L221.032 236.662L220.631 236.77L220.329 235.644ZM223.028 233.782L222.212 234.001L222.798 236.189L222.397 236.296L221.811 234.109L220.995 234.327L220.904 233.989L222.938 233.444L223.028 233.782ZM224.817 235.695C224.569 235.761 224.35 235.754 224.159 235.674C223.971 235.59 223.844 235.424 223.777 235.176C223.74 235.038 223.742 234.908 223.782 234.787C223.824 234.661 223.899 234.553 224.005 234.463C224.111 234.369 224.233 234.289 224.371 234.225C224.509 234.157 224.662 234.1 224.833 234.055L225.195 233.958L225.146 233.774C225.092 233.571 225.011 233.438 224.904 233.373C224.796 233.305 224.646 233.297 224.452 233.349C224.105 233.442 223.952 233.645 223.995 233.958L223.594 234.066C223.547 233.788 223.599 233.562 223.748 233.388C223.901 233.209 224.112 233.083 224.382 233.011C224.997 232.846 225.386 233.065 225.547 233.667L225.993 235.333L225.593 235.44L225.507 235.121C225.379 235.415 225.149 235.606 224.817 235.695ZM224.77 235.366C224.989 235.307 225.154 235.206 225.264 235.063C225.376 234.915 225.407 234.746 225.356 234.556L225.272 234.243L224.924 234.336C224.338 234.493 224.089 234.737 224.178 235.069C224.254 235.352 224.451 235.451 224.77 235.366ZM226.807 233.733L227.153 235.022L226.752 235.13L226.075 232.604L226.476 232.496L226.792 233.675L227.524 232.215L227.992 232.09L227.229 233.568L228.761 234.591L228.273 234.722L226.807 233.733ZM230.428 231.8L229.612 232.018L230.198 234.206L229.798 234.314L229.211 232.126L228.395 232.344L228.305 232.006L230.338 231.462L230.428 231.8Z" fill="#222222"/>
<circle cx="164.792" cy="202.277" r="2.35227" transform="rotate(-15 164.792 202.277)" fill="#4FD002"/>
<circle cx="169.135" cy="217.369" r="2.35227" transform="rotate(-15 169.135 217.369)" fill="#4FD002"/>
<circle cx="177.458" cy="246.065" r="2.35227" transform="rotate(-15 177.458 246.065)" fill="#4FD002"/>
<circle cx="173.116" cy="231.228" r="1.85227" transform="rotate(-15 173.116 231.228)" stroke="#CBCBCB" stroke-dasharray="2 2"/>
<path d="M164.665 203.201L163.756 202.675L163.944 202.348L164.527 202.684L165.376 201.214L165.703 201.403L164.665 203.201Z" fill="white"/>
<path d="M168.962 218.46L168.052 217.935L168.241 217.608L168.823 217.944L169.672 216.474L170 216.663L168.962 218.46Z" fill="white"/>
<path d="M177.391 247.058L176.482 246.533L176.671 246.206L177.253 246.542L178.102 245.072L178.429 245.26L177.391 247.058Z" fill="white"/>
<g filter="url(#filter10_b_82_598)">
<path d="M276.746 216.13C275.602 211.863 278.135 207.476 282.403 206.333L364.125 184.435C368.393 183.292 372.779 185.824 373.923 190.092L389.451 248.044C390.595 252.312 388.062 256.699 383.794 257.842L302.072 279.74C297.804 280.883 293.418 278.35 292.274 274.083L276.746 216.13Z" fill="white"/>
<path d="M277.229 216.001C276.157 212 278.531 207.888 282.532 206.815L364.254 184.918C368.255 183.846 372.368 186.22 373.44 190.221L388.968 248.174C390.04 252.175 387.666 256.287 383.665 257.359L301.943 279.257C297.942 280.329 293.829 277.954 292.757 273.953L277.229 216.001Z" stroke="white"/>
</g>
<g filter="url(#filter11_b_82_598)">
<path d="M277.473 216.581C276.329 212.314 278.862 207.927 283.129 206.783L363.778 185.174C368.046 184.03 372.432 186.563 373.576 190.831L388.765 247.518C389.909 251.785 387.376 256.172 383.108 257.316L302.46 278.925C298.192 280.069 293.805 277.536 292.662 273.269L277.473 216.581Z" fill="white"/>
<path d="M278.921 216.193C277.992 212.726 280.05 209.161 283.518 208.232L364.166 186.623C367.634 185.693 371.198 187.751 372.127 191.219L387.316 247.906C388.245 251.373 386.188 254.938 382.72 255.867L302.072 277.476C298.604 278.406 295.04 276.348 294.111 272.88L278.921 216.193Z" stroke="#E6C4F2" stroke-width="3"/>
</g>
<rect x="280.972" y="223.225" width="96.2622" height="0.361888" transform="rotate(-15 280.972 223.225)" fill="#F3F3F3"/>
<rect x="284.813" y="237.557" width="96.2622" height="0.361888" transform="rotate(-15 284.813 237.557)" fill="#F3F3F3"/>
<rect x="289.658" y="251.814" width="96.2622" height="0.361888" transform="rotate(-15 289.658 251.814)" fill="#F3F3F3"/>
<rect x="293.592" y="266.495" width="96.2622" height="0.361888" transform="rotate(-15 293.592 266.495)" fill="#F3F3F3"/>
<path d="M302.701 227.852C302.202 227.985 301.765 227.933 301.391 227.695C301.02 227.457 300.763 227.07 300.62 226.535L300.609 226.497C300.472 225.985 300.512 225.522 300.729 225.109C300.946 224.695 301.29 224.425 301.76 224.299C302.136 224.198 302.48 224.212 302.79 224.339C303.103 224.465 303.328 224.704 303.463 225.054L303.048 225.165C302.928 224.911 302.771 224.739 302.578 224.649C302.388 224.559 302.147 224.553 301.854 224.631C301.496 224.727 301.243 224.935 301.094 225.254C300.944 225.57 300.927 225.944 301.043 226.376L301.053 226.414C301.171 226.855 301.369 227.173 301.645 227.368C301.924 227.559 302.249 227.605 302.619 227.506C302.905 227.429 303.12 227.296 303.262 227.106C303.407 226.912 303.465 226.67 303.436 226.381L303.827 226.277C303.873 226.682 303.796 227.02 303.596 227.291C303.396 227.559 303.097 227.745 302.701 227.852ZM305.72 226.686C305.971 226.618 306.147 226.478 306.249 226.264C306.353 226.05 306.367 225.799 306.29 225.513L306.281 225.479C306.203 225.186 306.065 224.973 305.867 224.84C305.672 224.705 305.449 224.672 305.198 224.739C304.944 224.807 304.766 224.948 304.664 225.162C304.563 225.375 304.551 225.627 304.628 225.917L304.639 225.955C304.717 226.248 304.852 226.461 305.042 226.593C305.236 226.724 305.462 226.755 305.72 226.686ZM305.804 227.02C305.447 227.116 305.118 227.075 304.818 226.896C304.521 226.713 304.323 226.437 304.223 226.067L304.213 226.028C304.112 225.651 304.145 225.311 304.312 225.008C304.483 224.703 304.748 224.503 305.109 224.406C305.469 224.309 305.798 224.351 306.094 224.53C306.393 224.705 306.593 224.981 306.694 225.358L306.705 225.397C306.806 225.777 306.772 226.119 306.602 226.423C306.431 226.725 306.165 226.924 305.804 227.02ZM308.757 224.179C308.791 224.305 308.785 224.431 308.739 224.557C308.696 224.679 308.612 224.77 308.486 224.831C308.658 224.816 308.806 224.844 308.928 224.915C309.051 224.986 309.133 225.1 309.175 225.258L309.179 225.272C309.242 225.507 309.206 225.72 309.071 225.912C308.939 226.102 308.725 226.237 308.429 226.317C308.123 226.399 307.864 226.392 307.652 226.297C307.443 226.198 307.297 226.02 307.214 225.762L307.605 225.658C307.668 225.813 307.755 225.921 307.868 225.981C307.983 226.036 308.14 226.037 308.34 225.984C308.7 225.887 308.842 225.695 308.765 225.409L308.762 225.394C308.724 225.253 308.653 225.161 308.548 225.12C308.447 225.078 308.308 225.081 308.131 225.128L307.75 225.231L307.664 224.912L307.978 224.828C308.146 224.783 308.257 224.72 308.311 224.64C308.369 224.559 308.379 224.449 308.342 224.311L308.338 224.297C308.272 224.049 308.093 223.963 307.804 224.041C307.524 224.116 307.392 224.293 307.408 224.572L307.021 224.675C306.982 224.413 307.029 224.202 307.162 224.042C307.298 223.881 307.491 223.768 307.739 223.701C307.977 223.638 308.191 223.646 308.382 223.726C308.571 223.803 308.695 223.949 308.753 224.165L308.757 224.179ZM310.248 224.737C310.292 225.043 310.294 225.27 310.254 225.419L311.438 225.102L310.939 223.242L310.012 223.491C310.101 223.888 310.18 224.303 310.248 224.737ZM310.171 226.461L309.848 226.547L309.593 225.596L309.772 225.548C309.856 225.501 309.901 225.42 309.908 225.305C309.914 225.186 309.903 225.021 309.874 224.811C309.833 224.543 309.773 224.207 309.692 223.804C309.658 223.624 309.619 223.441 309.576 223.256L311.243 222.809L311.829 224.997L312.215 224.893L312.47 225.845L312.147 225.931L311.953 225.326L310.036 225.84L310.171 226.461ZM313.482 224.963C313.234 225.029 313.015 225.022 312.824 224.942C312.636 224.858 312.509 224.692 312.442 224.444C312.405 224.306 312.407 224.176 312.447 224.055C312.489 223.93 312.564 223.822 312.671 223.731C312.777 223.637 312.899 223.558 313.036 223.493C313.174 223.425 313.327 223.369 313.498 223.323L313.86 223.226L313.811 223.042C313.757 222.839 313.676 222.706 313.569 222.641C313.461 222.573 313.311 222.565 313.118 222.617C312.77 222.71 312.617 222.914 312.66 223.227L312.259 223.334C312.212 223.057 312.264 222.831 312.414 222.656C312.566 222.477 312.777 222.351 313.048 222.279C313.663 222.114 314.051 222.333 314.212 222.935L314.659 224.601L314.258 224.708L314.172 224.39C314.044 224.683 313.814 224.874 313.482 224.963ZM313.435 224.634C313.654 224.575 313.819 224.474 313.929 224.331C314.041 224.183 314.072 224.015 314.021 223.825L313.937 223.511L313.589 223.604C313.003 223.761 312.754 224.005 312.843 224.337C312.919 224.62 313.117 224.719 313.435 224.634ZM316.532 221.754L315.716 221.973L316.302 224.161L315.902 224.268L315.315 222.08L314.499 222.299L314.409 221.961L316.442 221.416L316.532 221.754ZM316.995 221.268L317.395 221.16L317.632 222.044L318.081 221.924C318.365 221.848 318.615 221.855 318.833 221.945C319.05 222.035 319.195 222.217 319.269 222.491L319.273 222.505C319.347 222.782 319.311 223.009 319.165 223.186C319.023 223.363 318.808 223.489 318.521 223.566L317.671 223.794L316.995 221.268ZM318.461 223.246C318.655 223.194 318.782 223.116 318.844 223.014C318.906 222.907 318.915 222.774 318.872 222.613L318.868 222.598C318.821 222.424 318.744 222.309 318.635 222.252C318.529 222.19 318.381 222.185 318.191 222.236L317.718 222.363L317.988 223.372L318.461 223.246ZM322.34 222.232C322.591 222.165 322.768 222.024 322.869 221.811C322.974 221.596 322.988 221.346 322.911 221.059L322.902 221.026C322.824 220.733 322.685 220.519 322.488 220.386C322.293 220.252 322.07 220.218 321.819 220.286C321.564 220.354 321.386 220.495 321.285 220.708C321.183 220.922 321.171 221.174 321.249 221.463L321.259 221.502C321.338 221.795 321.473 222.007 321.663 222.139C321.857 222.27 322.083 222.301 322.34 222.232ZM322.425 222.567C322.067 222.662 321.739 222.621 321.439 222.443C321.142 222.26 320.943 221.984 320.844 221.613L320.834 221.575C320.733 221.198 320.766 220.858 320.933 220.554C321.103 220.25 321.369 220.049 321.729 219.953C322.09 219.856 322.419 219.897 322.715 220.077C323.014 220.252 323.214 220.528 323.315 220.905L323.325 220.943C323.427 221.323 323.393 221.665 323.222 221.97C323.051 222.271 322.785 222.47 322.425 222.567ZM325.258 219.416L324.065 219.736L324.652 221.923L324.251 222.031L323.574 219.505L325.569 218.97L326.245 221.496L325.845 221.604L325.258 219.416ZM326.409 218.745L326.81 218.638L326.924 219.063C326.964 218.914 327.05 218.774 327.184 218.641C327.317 218.506 327.473 218.414 327.653 218.365C327.991 218.275 328.297 218.315 328.571 218.487C328.848 218.658 329.039 218.938 329.143 219.327L329.153 219.366C329.258 219.756 329.236 220.1 329.088 220.398C328.943 220.692 328.698 220.886 328.353 220.978C327.967 221.082 327.641 221.005 327.376 220.748L327.722 222.043L327.322 222.15L326.409 218.745ZM328.226 220.655C328.477 220.588 328.647 220.456 328.736 220.26C328.824 220.06 328.826 219.806 328.743 219.497L328.733 219.458C328.651 219.152 328.514 218.937 328.322 218.812C328.132 218.684 327.925 218.65 327.699 218.71C327.454 218.776 327.277 218.911 327.166 219.117C327.058 219.318 327.046 219.575 327.13 219.888L327.14 219.926C327.224 220.239 327.361 220.455 327.552 220.577C327.747 220.697 327.971 220.723 328.226 220.655ZM331.089 219.888C331.34 219.821 331.517 219.68 331.618 219.467C331.723 219.252 331.737 219.002 331.66 218.715L331.651 218.681C331.573 218.388 331.434 218.175 331.236 218.042C331.042 217.908 330.819 217.874 330.568 217.942C330.313 218.01 330.135 218.151 330.034 218.364C329.932 218.578 329.92 218.829 329.998 219.119L330.008 219.158C330.087 219.451 330.222 219.663 330.412 219.795C330.606 219.926 330.832 219.957 331.089 219.888ZM331.174 220.222C330.816 220.318 330.488 220.277 330.188 220.098C329.891 219.916 329.692 219.639 329.593 219.269L329.583 219.23C329.482 218.854 329.515 218.513 329.682 218.21C329.852 217.905 330.118 217.705 330.478 217.608C330.839 217.512 331.168 217.553 331.464 217.732C331.763 217.908 331.963 218.184 332.064 218.56L332.074 218.599C332.176 218.979 332.142 219.321 331.971 219.626C331.8 219.927 331.534 220.126 331.174 220.222ZM334.088 219.441C333.728 219.538 333.401 219.501 333.107 219.332C332.812 219.159 332.613 218.879 332.509 218.493L332.499 218.454C332.397 218.074 332.431 217.732 332.602 217.428C332.775 217.122 333.034 216.923 333.379 216.831C333.668 216.753 333.934 216.76 334.176 216.85C334.417 216.938 334.595 217.128 334.712 217.421L334.316 217.527C334.16 217.176 333.877 217.055 333.468 217.164C333.233 217.227 333.062 217.368 332.955 217.587C332.85 217.801 332.837 218.053 332.914 218.343L332.925 218.382C333.006 218.684 333.142 218.898 333.334 219.022C333.53 219.146 333.753 219.174 334.004 219.107C334.194 219.056 334.342 218.959 334.449 218.817C334.558 218.67 334.596 218.496 334.563 218.295L334.935 218.195C334.983 218.479 334.928 218.738 334.771 218.974C334.615 219.205 334.388 219.361 334.088 219.441Z" fill="#222222"/>
<path d="M308.916 238.103L309.467 237.955L311.561 241.095L311.146 241.206L310.541 240.302L309.116 240.684L309.05 241.768L308.654 241.874L308.916 238.103ZM309.143 240.32L310.341 239.999L309.266 238.382L309.143 240.32ZM312.166 239.551L312.512 240.84L312.111 240.948L311.434 238.422L311.835 238.315L312.151 239.493L312.883 238.034L313.351 237.908L312.588 239.386L314.12 240.41L313.632 240.54L312.166 239.551ZM316.823 240.343L316.629 239.737L314.601 240.281L313.924 237.755L314.325 237.647L314.911 239.835L316.104 239.515L315.518 237.328L315.919 237.22L316.505 239.408L316.891 239.305L317.146 240.256L316.823 240.343ZM317.483 239.508L316.806 236.983L317.207 236.875L317.728 238.821L318.496 236.53L318.897 236.422L319.574 238.948L319.173 239.055L318.652 237.109L317.884 239.401L317.483 239.508ZM320.585 236.312C320.225 236.408 320.085 236.609 320.167 236.915L320.171 236.93C320.21 237.075 320.281 237.173 320.385 237.225C320.488 237.276 320.637 237.276 320.83 237.224L321.303 237.098L321.058 236.185L320.585 236.312ZM320.51 238.697L320.051 238.82L320.536 237.557C320.125 237.581 319.869 237.407 319.77 237.037L319.766 237.023C319.696 236.759 319.734 236.54 319.88 236.366C320.026 236.189 320.241 236.062 320.524 235.986L321.374 235.759L322.051 238.284L321.65 238.392L321.385 237.402L320.95 237.518L320.51 238.697Z" fill="#222222"/>
<path d="M316.201 255.734C315.702 255.868 315.265 255.816 314.891 255.578C314.52 255.339 314.263 254.953 314.119 254.418L314.109 254.379C313.972 253.868 314.012 253.405 314.229 252.991C314.446 252.578 314.789 252.308 315.259 252.182C315.636 252.081 315.98 252.094 316.29 252.221C316.603 252.348 316.828 252.586 316.963 252.937L316.547 253.048C316.428 252.794 316.271 252.622 316.078 252.532C315.888 252.441 315.647 252.435 315.354 252.514C314.996 252.61 314.743 252.817 314.594 253.137C314.444 253.453 314.427 253.827 314.542 254.258L314.553 254.297C314.671 254.738 314.868 255.056 315.145 255.251C315.424 255.442 315.748 255.488 316.119 255.389C316.405 255.312 316.62 255.179 316.762 254.989C316.907 254.794 316.965 254.553 316.935 254.264L317.327 254.159C317.373 254.564 317.296 254.902 317.096 255.173C316.895 255.441 316.597 255.628 316.201 255.734ZM318.27 253.751L318.616 255.04L318.215 255.148L317.538 252.622L317.939 252.515L318.255 253.693L318.987 252.234L319.456 252.108L318.692 253.586L320.224 254.61L319.736 254.74L318.27 253.751ZM320.705 254.481L320.029 251.955L320.429 251.847L320.951 253.794L321.719 251.502L322.12 251.394L322.797 253.92L322.396 254.028L321.874 252.081L321.106 254.373L320.705 254.481ZM323.79 252.608C323.834 252.914 323.836 253.141 323.797 253.29L324.98 252.973L324.482 251.114L323.554 251.362C323.644 251.759 323.722 252.175 323.79 252.608ZM323.714 254.332L323.39 254.419L323.135 253.467L323.314 253.419C323.398 253.373 323.443 253.291 323.45 253.176C323.456 253.057 323.445 252.892 323.417 252.683C323.376 252.414 323.315 252.078 323.235 251.675C323.2 251.495 323.161 251.312 323.119 251.127L324.785 250.68L325.371 252.868L325.757 252.765L326.012 253.716L325.689 253.803L325.496 253.197L323.578 253.711L323.714 254.332ZM326.406 251.571L326.752 252.86L326.351 252.968L325.674 250.442L326.075 250.335L326.391 251.513L327.123 250.054L327.592 249.928L326.828 251.406L328.36 252.43L327.872 252.56L326.406 251.571ZM329.491 252.173C329.243 252.24 329.024 252.233 328.833 252.153C328.645 252.068 328.518 251.902 328.451 251.655C328.414 251.516 328.416 251.386 328.456 251.265C328.498 251.14 328.573 251.032 328.679 250.941C328.785 250.847 328.907 250.768 329.045 250.703C329.183 250.636 329.336 250.579 329.507 250.533L329.869 250.436L329.82 250.252C329.766 250.05 329.685 249.916 329.578 249.851C329.47 249.784 329.32 249.776 329.126 249.828C328.779 249.921 328.626 250.124 328.669 250.437L328.268 250.544C328.221 250.267 328.273 250.041 328.422 249.866C328.575 249.687 328.786 249.562 329.056 249.489C329.671 249.324 330.06 249.543 330.221 250.145L330.667 251.811L330.267 251.919L330.181 251.6C330.053 251.893 329.823 252.084 329.491 252.173ZM329.444 251.844C329.663 251.785 329.828 251.684 329.938 251.541C330.05 251.394 330.081 251.225 330.03 251.035L329.946 250.721L329.598 250.814C329.012 250.971 328.763 251.215 328.852 251.547C328.928 251.83 329.125 251.929 329.444 251.844Z" fill="#222222"/>
<path d="M320.537 266.116L318.769 266.589L319.6 269.69L319.18 269.802L318.255 266.349L320.863 265.65L321.788 269.104L321.368 269.216L320.537 266.116ZM323.631 268.299C323.882 268.232 324.059 268.091 324.16 267.878C324.265 267.663 324.279 267.413 324.202 267.126L324.193 267.093C324.114 266.8 323.976 266.586 323.778 266.453C323.584 266.319 323.361 266.286 323.11 266.353C322.855 266.421 322.677 266.562 322.576 266.775C322.474 266.989 322.462 267.241 322.54 267.53L322.55 267.569C322.629 267.862 322.763 268.074 322.954 268.206C323.148 268.337 323.373 268.368 323.631 268.299ZM323.716 268.634C323.358 268.729 323.03 268.688 322.73 268.51C322.432 268.327 322.234 268.051 322.135 267.68L322.125 267.642C322.024 267.265 322.057 266.925 322.224 266.621C322.394 266.317 322.66 266.116 323.02 266.02C323.381 265.923 323.709 265.964 324.006 266.144C324.305 266.319 324.505 266.595 324.606 266.972L324.616 267.01C324.718 267.39 324.684 267.732 324.513 268.037C324.342 268.338 324.076 268.537 323.716 268.634ZM325.597 266.701L325.942 267.99L325.542 268.098L324.865 265.572L325.266 265.464L325.581 266.643L326.314 265.184L326.782 265.058L326.019 266.536L327.551 267.559L327.063 267.69L325.597 266.701ZM328.682 267.303C328.434 267.369 328.214 267.363 328.024 267.283C327.836 267.198 327.708 267.032 327.642 266.784C327.605 266.646 327.606 266.516 327.646 266.395C327.689 266.27 327.763 266.162 327.87 266.071C327.976 265.977 328.098 265.898 328.236 265.833C328.373 265.765 328.527 265.709 328.698 265.663L329.06 265.566L329.011 265.382C328.956 265.18 328.876 265.046 328.769 264.981C328.661 264.914 328.51 264.906 328.317 264.957C327.969 265.051 327.817 265.254 327.859 265.567L327.458 265.674C327.412 265.397 327.463 265.171 327.613 264.996C327.765 264.817 327.977 264.691 328.247 264.619C328.862 264.454 329.25 264.673 329.412 265.275L329.858 266.941L329.457 267.049L329.372 266.73C329.243 267.023 329.013 267.214 328.682 267.303ZM328.635 266.974C328.854 266.915 329.018 266.814 329.128 266.671C329.241 266.523 329.271 266.355 329.22 266.165L329.136 265.851L328.789 265.944C328.203 266.101 327.954 266.345 328.043 266.677C328.119 266.96 328.316 267.059 328.635 266.974ZM331.743 264.433C331.777 264.558 331.771 264.684 331.725 264.81C331.682 264.932 331.598 265.024 331.473 265.085C331.645 265.07 331.792 265.098 331.915 265.169C332.037 265.239 332.119 265.353 332.162 265.511L332.166 265.526C332.229 265.761 332.192 265.974 332.057 266.166C331.926 266.356 331.712 266.491 331.415 266.571C331.11 266.652 330.851 266.646 330.639 266.551C330.429 266.452 330.283 266.273 330.2 266.016L330.592 265.911C330.654 266.067 330.742 266.175 330.854 266.234C330.969 266.29 331.126 266.291 331.326 266.237C331.687 266.141 331.829 265.949 331.752 265.662L331.748 265.648C331.71 265.506 331.639 265.415 331.535 265.374C331.434 265.332 331.295 265.335 331.118 265.382L330.736 265.484L330.651 265.166L330.965 265.081C331.132 265.037 331.243 264.974 331.297 264.894C331.355 264.813 331.365 264.703 331.328 264.565L331.324 264.55C331.258 264.302 331.08 264.217 330.79 264.295C330.51 264.37 330.378 264.547 330.394 264.825L330.008 264.929C329.968 264.667 330.015 264.456 330.149 264.296C330.285 264.135 330.477 264.022 330.725 263.955C330.963 263.891 331.178 263.899 331.368 263.979C331.558 264.056 331.682 264.203 331.739 264.418L331.743 264.433ZM333.7 265.958C333.452 266.025 333.233 266.018 333.042 265.938C332.854 265.854 332.727 265.688 332.66 265.44C332.623 265.301 332.625 265.172 332.665 265.05C332.707 264.925 332.782 264.817 332.888 264.726C332.994 264.632 333.116 264.553 333.254 264.489C333.391 264.421 333.545 264.364 333.716 264.318L334.078 264.221L334.029 264.038C333.975 263.835 333.894 263.701 333.787 263.637C333.679 263.569 333.529 263.561 333.335 263.613C332.988 263.706 332.835 263.909 332.878 264.222L332.477 264.329C332.43 264.052 332.482 263.826 332.631 263.651C332.784 263.472 332.995 263.347 333.265 263.274C333.88 263.11 334.269 263.328 334.43 263.93L334.876 265.597L334.476 265.704L334.39 265.385C334.262 265.678 334.032 265.87 333.7 265.958ZM333.653 265.629C333.872 265.571 334.037 265.47 334.147 265.326C334.259 265.179 334.29 265.01 334.239 264.82L334.155 264.506L333.807 264.599C333.221 264.756 332.972 265.001 333.061 265.332C333.137 265.616 333.334 265.715 333.653 265.629ZM336.75 262.75L335.934 262.968L336.52 265.156L336.119 265.263L335.533 263.076L334.717 263.294L334.626 262.956L336.66 262.411L336.75 262.75ZM337.212 262.263L337.613 262.156L337.85 263.04L338.299 262.919C338.583 262.843 338.833 262.851 339.05 262.941C339.268 263.031 339.413 263.213 339.486 263.486L339.49 263.501C339.565 263.778 339.529 264.005 339.383 264.182C339.24 264.358 339.026 264.485 338.739 264.561L337.889 264.789L337.212 262.263ZM338.679 264.241C338.872 264.189 339 264.112 339.062 264.009C339.124 263.903 339.133 263.769 339.09 263.608L339.086 263.594C339.039 263.42 338.962 263.304 338.853 263.247C338.747 263.186 338.599 263.181 338.409 263.232L337.936 263.359L338.206 264.368L338.679 264.241ZM341.609 262.41L341.955 263.7L341.554 263.807L340.877 261.281L341.278 261.174L341.594 262.352L342.326 260.893L342.794 260.768L342.031 262.246L343.563 263.269L343.075 263.4L341.609 262.41ZM344.954 262.586C345.205 262.518 345.382 262.378 345.483 262.164C345.588 261.95 345.602 261.699 345.525 261.413L345.516 261.379C345.437 261.086 345.299 260.873 345.101 260.74C344.907 260.605 344.684 260.572 344.433 260.639C344.178 260.707 344 260.848 343.899 261.062C343.797 261.275 343.785 261.527 343.863 261.817L343.873 261.856C343.952 262.149 344.086 262.361 344.277 262.493C344.471 262.624 344.696 262.655 344.954 262.586ZM345.039 262.92C344.681 263.016 344.353 262.975 344.053 262.796C343.755 262.614 343.557 262.337 343.458 261.967L343.448 261.928C343.347 261.551 343.38 261.211 343.547 260.908C343.717 260.603 343.983 260.403 344.343 260.306C344.704 260.209 345.032 260.251 345.329 260.43C345.628 260.605 345.828 260.881 345.929 261.258L345.939 261.297C346.041 261.677 346.007 262.019 345.836 262.323C345.665 262.625 345.399 262.824 345.039 262.92ZM348.205 260.819L346.964 261.152L347.265 262.277L346.865 262.384L346.188 259.858L346.589 259.751L346.873 260.814L348.115 260.481L347.83 259.418L348.231 259.311L348.908 261.837L348.507 261.944L348.205 260.819ZM350.904 258.957L350.088 259.176L350.674 261.363L350.273 261.471L349.687 259.283L348.871 259.502L348.78 259.164L350.814 258.619L350.904 258.957ZM352.693 260.869C352.445 260.936 352.226 260.929 352.035 260.849C351.847 260.765 351.72 260.599 351.653 260.351C351.616 260.212 351.618 260.082 351.658 259.961C351.7 259.836 351.775 259.728 351.881 259.637C351.987 259.543 352.109 259.464 352.247 259.399C352.385 259.332 352.538 259.275 352.709 259.229L353.071 259.132L353.022 258.949C352.968 258.746 352.887 258.612 352.78 258.548C352.672 258.48 352.522 258.472 352.328 258.524C351.981 258.617 351.828 258.82 351.871 259.133L351.47 259.24C351.423 258.963 351.475 258.737 351.624 258.562C351.777 258.383 351.988 258.258 352.259 258.185C352.873 258.02 353.262 258.239 353.423 258.841L353.869 260.507L353.469 260.615L353.383 260.296C353.255 260.589 353.025 260.78 352.693 260.869ZM352.646 260.54C352.865 260.481 353.03 260.38 353.14 260.237C353.252 260.09 353.283 259.921 353.232 259.731L353.148 259.417L352.8 259.51C352.214 259.667 351.965 259.912 352.054 260.243C352.13 260.527 352.327 260.625 352.646 260.54ZM354.683 258.907L355.029 260.197L354.628 260.304L353.951 257.778L354.352 257.671L354.668 258.849L355.4 257.39L355.868 257.264L355.105 258.742L356.637 259.766L356.149 259.897L354.683 258.907ZM358.304 256.974L357.488 257.193L358.074 259.381L357.674 259.488L357.087 257.3L356.271 257.519L356.181 257.181L358.214 256.636L358.304 256.974Z" fill="#222222"/>
<circle cx="290.729" cy="227.971" r="2.35227" transform="rotate(-15 290.729 227.971)" fill="#4FD002"/>
<circle cx="295.072" cy="243.063" r="2.35227" transform="rotate(-15 295.072 243.063)" fill="#4FD002"/>
<circle cx="303.395" cy="271.759" r="2.35227" transform="rotate(-15 303.395 271.759)" fill="#4FD002"/>
<circle cx="299.053" cy="256.922" r="1.85227" transform="rotate(-15 299.053 256.922)" stroke="#CBCBCB" stroke-dasharray="2 2"/>
<path d="M290.602 228.895L289.693 228.37L289.882 228.042L290.464 228.379L291.313 226.908L291.64 227.097L290.602 228.895Z" fill="white"/>
<path d="M294.899 244.154L293.989 243.629L294.178 243.302L294.76 243.638L295.61 242.168L295.937 242.357L294.899 244.154Z" fill="white"/>
<path d="M303.328 272.752L302.419 272.227L302.608 271.9L303.19 272.236L304.039 270.766L304.366 270.955L303.328 272.752Z" fill="white"/>
<g filter="url(#filter12_bd_82_598)">
<path d="M127.261 108.175C126.117 103.907 128.65 99.5205 132.918 98.377L214.64 76.4796C218.907 75.3361 223.294 77.8687 224.438 82.1365L240.778 143.121C241.922 147.389 239.389 151.776 235.122 152.919L153.4 174.816C149.132 175.96 144.745 173.427 143.602 169.16L127.261 108.175Z" fill="white"/>
<path d="M127.744 108.046C126.672 104.045 129.046 99.932 133.047 98.8599L214.769 76.9626C218.77 75.8905 222.883 78.2649 223.955 82.2659L240.296 143.251C241.368 147.252 238.993 151.364 234.992 152.436L153.27 174.334C149.269 175.406 145.157 173.031 144.085 169.03L127.744 108.046Z" stroke="white"/>
</g>
<g filter="url(#filter13_b_82_598)">
<path d="M128.333 108.792C127.19 104.524 129.722 100.137 133.99 98.9937L213.976 77.5613C218.244 76.4178 222.631 78.9505 223.774 83.2182L239.707 142.681C240.851 146.949 238.318 151.335 234.05 152.479L154.064 173.911C149.796 175.055 145.41 172.522 144.266 168.254L128.333 108.792Z" fill="white"/>
<path d="M129.782 108.403C128.853 104.936 130.911 101.372 134.378 100.443L214.365 79.0102C217.832 78.0811 221.396 80.1389 222.325 83.6064L238.258 143.069C239.188 146.537 237.13 150.101 233.662 151.03L153.676 172.462C150.208 173.391 146.644 171.334 145.715 167.866L129.782 108.403Z" stroke="#E6C4F2" stroke-width="3"/>
</g>
<g filter="url(#filter14_bd_82_598)">
<path d="M251.388 129.526C250.245 125.259 252.778 120.872 257.045 119.728L338.767 97.8309C343.035 96.6874 347.422 99.22 348.565 103.488L364.906 164.472C366.05 168.74 363.517 173.127 359.249 174.27L277.527 196.168C273.259 197.311 268.873 194.779 267.729 190.511L251.388 129.526Z" fill="white"/>
<path d="M251.871 129.397C250.799 125.396 253.174 121.283 257.175 120.211L338.897 98.3139C342.898 97.2418 347.01 99.6162 348.082 103.617L364.423 164.602C365.495 168.603 363.121 172.715 359.12 173.787L277.398 195.685C273.397 196.757 269.284 194.383 268.212 190.382L251.871 129.397Z" stroke="white"/>
</g>
<g filter="url(#filter15_b_82_598)">
<path d="M252.451 130.053C251.307 125.785 253.84 121.398 258.108 120.255L338.151 98.8072C342.418 97.6637 346.805 100.196 347.948 104.464L363.871 163.888C365.015 168.156 362.482 172.543 358.214 173.686L278.171 195.134C273.904 196.277 269.517 193.744 268.373 189.477L252.451 130.053Z" fill="white"/>
<path d="M253.9 129.664C252.971 126.197 255.028 122.633 258.496 121.704L338.539 100.256C342.006 99.327 345.57 101.385 346.5 104.852L362.422 164.276C363.351 167.744 361.294 171.308 357.826 172.237L277.783 193.685C274.316 194.614 270.751 192.556 269.822 189.088L253.9 129.664Z" stroke="#E6C4F2" stroke-width="3"/>
</g>
<g filter="url(#filter16_bd_82_598)">
<path d="M175.08 275.48C173.937 271.212 176.469 266.826 180.737 265.682L262.459 243.785C266.727 242.641 271.113 245.174 272.257 249.442L280.292 279.429C281.436 283.697 278.903 288.084 274.635 289.227L192.913 311.125C188.645 312.268 184.259 309.735 183.115 305.468L175.08 275.48Z" fill="white"/>
<path d="M175.563 275.351C174.491 271.35 176.865 267.237 180.866 266.165L262.588 244.268C266.589 243.196 270.702 245.57 271.774 249.571L279.809 279.559C280.881 283.56 278.507 287.672 274.506 288.744L192.784 310.642C188.783 311.714 184.67 309.339 183.598 305.338L175.563 275.351Z" stroke="white"/>
</g>
<g filter="url(#filter17_b_82_598)">
<path d="M175.798 275.841C174.655 271.573 177.187 267.186 181.455 266.043L262.016 244.456C266.284 243.313 270.671 245.846 271.814 250.113L279.557 279.01C280.701 283.278 278.168 287.665 273.901 288.808L193.339 310.395C189.071 311.538 184.685 309.006 183.541 304.738L175.798 275.841Z" fill="white"/>
<path d="M177.247 275.452C176.318 271.985 178.376 268.421 181.843 267.492L262.405 245.905C265.872 244.976 269.436 247.034 270.365 250.501L278.108 279.399C279.038 282.866 276.98 286.43 273.512 287.36L192.951 308.946C189.483 309.875 185.919 307.817 184.99 304.35L177.247 275.452Z" stroke="#E6C4F2" stroke-width="3"/>
</g>
<rect x="179.21" y="281.131" width="96.2622" height="0.361888" transform="rotate(-15 179.21 281.131)" fill="#F3F3F3"/>
<rect x="183.05" y="295.463" width="96.2622" height="0.361888" transform="rotate(-15 183.05 295.463)" fill="#F3F3F3"/>
<path d="M191.737 270.505L192.157 270.392L192.602 272.054L193.658 269.985L194.126 269.86L193.041 271.952L195.13 273.297L194.623 273.433L192.63 272.16L193.082 273.846L192.662 273.958L191.737 270.505ZM196.438 272.636C196.689 272.568 196.865 272.428 196.967 272.215C197.072 272 197.086 271.75 197.009 271.463L197 271.429C196.921 271.136 196.783 270.923 196.585 270.79C196.391 270.656 196.168 270.622 195.916 270.689C195.662 270.758 195.484 270.898 195.383 271.112C195.281 271.326 195.269 271.577 195.347 271.867L195.357 271.906C195.436 272.199 195.57 272.411 195.761 272.543C195.955 272.674 196.18 272.705 196.438 272.636ZM196.522 272.97C196.165 273.066 195.837 273.025 195.537 272.846C195.239 272.664 195.041 272.387 194.942 272.017L194.932 271.978C194.831 271.602 194.864 271.261 195.031 270.958C195.201 270.653 195.467 270.453 195.827 270.356C196.188 270.26 196.516 270.301 196.813 270.48C197.112 270.656 197.312 270.932 197.413 271.308L197.423 271.347C197.525 271.727 197.491 272.069 197.32 272.374C197.149 272.675 196.883 272.874 196.522 272.97ZM199.689 270.869L198.448 271.202L198.749 272.327L198.349 272.434L197.672 269.909L198.073 269.801L198.357 270.864L199.599 270.531L199.314 269.469L199.715 269.361L200.392 271.887L199.991 271.994L199.689 270.869ZM202.388 269.007L201.572 269.226L202.158 271.414L201.757 271.521L201.171 269.333L200.355 269.552L200.264 269.214L202.298 268.669L202.388 269.007ZM197.603 283.033C197.356 283.1 197.136 283.093 196.946 283.013C196.758 282.929 196.63 282.763 196.564 282.515C196.527 282.376 196.528 282.247 196.568 282.125C196.611 282 196.685 281.892 196.792 281.801C196.898 281.708 197.02 281.628 197.158 281.564C197.295 281.496 197.449 281.439 197.62 281.393L197.982 281.296L197.933 281.113C197.878 280.91 197.798 280.776 197.691 280.712C197.583 280.644 197.432 280.636 197.239 280.688C196.891 280.781 196.739 280.984 196.781 281.297L196.38 281.405C196.333 281.127 196.385 280.901 196.535 280.726C196.687 280.548 196.899 280.422 197.169 280.349C197.784 280.185 198.172 280.403 198.333 281.005L198.78 282.672L198.379 282.779L198.294 282.46C198.165 282.754 197.935 282.945 197.603 283.033ZM197.557 282.704C197.776 282.646 197.94 282.545 198.05 282.401C198.162 282.254 198.193 282.085 198.142 281.895L198.058 281.581L197.71 281.674C197.124 281.831 196.876 282.076 196.965 282.407C197.041 282.691 197.238 282.79 197.557 282.704ZM199.594 281.071L199.939 282.361L199.538 282.468L198.862 279.942L199.262 279.835L199.578 281.014L200.31 279.554L200.779 279.429L200.015 280.907L201.547 281.93L201.06 282.061L199.594 281.071ZM203.215 279.138L202.399 279.357L202.985 281.545L202.584 281.652L201.998 279.464L201.182 279.683L201.091 279.345L203.124 278.8L203.215 279.138Z" fill="#222222"/>
<path d="M247.87 254.57L246.102 255.043L246.933 258.144L246.513 258.257L245.588 254.803L248.196 254.105L249.121 257.558L248.701 257.67L247.87 254.57ZM249.312 254.799L249.713 254.692L249.827 255.117C249.867 254.968 249.953 254.828 250.087 254.695C250.219 254.56 250.376 254.468 250.556 254.419C250.894 254.329 251.2 254.369 251.474 254.541C251.751 254.712 251.942 254.992 252.046 255.382L252.056 255.42C252.161 255.81 252.139 256.154 251.991 256.452C251.846 256.747 251.601 256.94 251.256 257.032C250.87 257.136 250.544 257.059 250.279 256.802L250.625 258.097L250.225 258.204L249.312 254.799ZM251.129 256.709C251.38 256.642 251.55 256.51 251.639 256.314C251.727 256.114 251.729 255.86 251.646 255.551L251.636 255.512C251.554 255.206 251.417 254.991 251.225 254.867C251.035 254.738 250.828 254.704 250.602 254.764C250.357 254.83 250.18 254.965 250.069 255.171C249.961 255.373 249.949 255.63 250.033 255.942L250.043 255.981C250.127 256.293 250.264 256.51 250.455 256.631C250.65 256.751 250.874 256.778 251.129 256.709ZM253.661 256.388C253.413 256.454 253.194 256.447 253.004 256.367C252.815 256.283 252.688 256.117 252.622 255.869C252.585 255.731 252.586 255.601 252.626 255.48C252.668 255.355 252.743 255.247 252.85 255.156C252.956 255.062 253.078 254.983 253.216 254.918C253.353 254.85 253.507 254.794 253.677 254.748L254.04 254.651L253.99 254.467C253.936 254.264 253.855 254.131 253.748 254.066C253.641 253.998 253.49 253.991 253.297 254.042C252.949 254.135 252.796 254.339 252.839 254.652L252.438 254.759C252.391 254.482 252.443 254.256 252.593 254.081C252.745 253.902 252.956 253.776 253.227 253.704C253.842 253.539 254.23 253.758 254.391 254.36L254.838 256.026L254.437 256.133L254.352 255.815C254.223 256.108 253.993 256.299 253.661 256.388ZM253.615 256.059C253.834 256 253.998 255.899 254.108 255.756C254.22 255.608 254.251 255.44 254.2 255.25L254.116 254.936L253.768 255.029C253.182 255.186 252.934 255.43 253.023 255.762C253.098 256.045 253.296 256.144 253.615 256.059ZM254.919 253.297L255.803 253.06C256.396 252.901 256.749 253.036 256.864 253.464L256.868 253.479C256.901 253.601 256.897 253.723 256.857 253.844C256.816 253.962 256.733 254.057 256.607 254.128C256.979 254.112 257.205 254.255 257.286 254.557L257.29 254.572C257.356 254.816 257.325 255.023 257.198 255.192C257.073 255.36 256.87 255.482 256.586 255.558L255.596 255.823L254.919 253.297ZM255.406 253.508L255.606 254.257L256.089 254.127C256.257 254.083 256.368 254.02 256.422 253.94C256.48 253.859 256.49 253.749 256.453 253.611L256.449 253.596C256.415 253.467 256.352 253.389 256.262 253.362C256.174 253.33 256.048 253.336 255.884 253.38L255.406 253.508ZM255.692 254.576L255.912 255.397L256.462 255.249C256.639 255.202 256.762 255.136 256.829 255.053C256.899 254.965 256.914 254.85 256.876 254.709L256.873 254.694C256.835 254.552 256.764 254.461 256.659 254.42C256.558 254.378 256.419 254.381 256.242 254.428L255.692 254.576ZM258.129 255.144L257.452 252.618L257.853 252.511L258.375 254.457L259.143 252.165L259.543 252.058L260.22 254.584L259.819 254.691L259.298 252.745L258.53 255.037L258.129 255.144ZM262.169 251.717L261.352 251.936L261.939 254.123L261.538 254.231L260.952 252.043L260.135 252.262L260.045 251.924L262.078 251.379L262.169 251.717ZM262.631 251.231L263.032 251.123L263.268 252.007L263.718 251.887C264.001 251.811 264.251 251.818 264.469 251.908C264.686 251.998 264.832 252.18 264.905 252.454L264.909 252.468C264.983 252.745 264.947 252.972 264.801 253.149C264.659 253.326 264.444 253.452 264.158 253.529L263.308 253.757L262.631 251.231ZM264.098 253.208C264.291 253.157 264.419 253.079 264.481 252.976C264.542 252.87 264.551 252.737 264.508 252.576L264.504 252.561C264.457 252.387 264.38 252.272 264.271 252.215C264.165 252.153 264.017 252.148 263.827 252.199L263.354 252.326L263.624 253.335L264.098 253.208Z" fill="#363636"/>
<circle cx="183.078" cy="274.455" r="2.35227" transform="rotate(-15 183.078 274.455)" fill="#4FD002"/>
</g>
<defs>
<filter id="filter0_i_82_598" x="53.47" y="34.668" width="273.226" height="276.226" filterUnits="userSpaceOnUse" color-interpolation-filters="sRGB">
<feFlood flood-opacity="0" result="BackgroundImageFix"/>
<feBlend mode="normal" in="SourceGraphic" in2="BackgroundImageFix" result="shape"/>
<feColorMatrix in="SourceAlpha" type="matrix" values="0 0 0 0 0 0 0 0 0 0 0 0 0 0 0 0 0 0 127 0" result="hardAlpha"/>
<feOffset dy="3"/>
<feGaussianBlur stdDeviation="3"/>
<feComposite in2="hardAlpha" operator="arithmetic" k2="-1" k3="1"/>
<feColorMatrix type="matrix" values="0 0 0 0 0.301961 0 0 0 0 0.0470588 0 0 0 0 0.67451 0 0 0 1 0"/>
<feBlend mode="normal" in2="shape" result="effect1_innerShadow_82_598"/>
</filter>
<filter id="filter1_i_82_598" x="81.8748" y="63.2463" width="216.5" height="219.195" filterUnits="userSpaceOnUse" color-interpolation-filters="sRGB">
<feFlood flood-opacity="0" result="BackgroundImageFix"/>
<feBlend mode="normal" in="SourceGraphic" in2="BackgroundImageFix" result="shape"/>
<feColorMatrix in="SourceAlpha" type="matrix" values="0 0 0 0 0 0 0 0 0 0 0 0 0 0 0 0 0 0 127 0" result="hardAlpha"/>
<feOffset dy="3"/>
<feGaussianBlur stdDeviation="3"/>
<feComposite in2="hardAlpha" operator="arithmetic" k2="-1" k3="1"/>
<feColorMatrix type="matrix" values="0 0 0 0 0.301961 0 0 0 0 0.0470588 0 0 0 0 0.67451 0 0 0 1 0"/>
<feBlend mode="normal" in2="shape" result="effect1_innerShadow_82_598"/>
</filter>
<filter id="filter2_i_82_598" x="110.759" y="91.957" width="158.906" height="161.906" filterUnits="userSpaceOnUse" color-interpolation-filters="sRGB">
<feFlood flood-opacity="0" result="BackgroundImageFix"/>
<feBlend mode="normal" in="SourceGraphic" in2="BackgroundImageFix" result="shape"/>
<feColorMatrix in="SourceAlpha" type="matrix" values="0 0 0 0 0 0 0 0 0 0 0 0 0 0 0 0 0 0 127 0" result="hardAlpha"/>
<feOffset dy="3"/>
<feGaussianBlur stdDeviation="3"/>
<feComposite in2="hardAlpha" operator="arithmetic" k2="-1" k3="1"/>
<feColorMatrix type="matrix" values="0 0 0 0 0.301961 0 0 0 0 0.0470588 0 0 0 0 0.67451 0 0 0 1 0"/>
<feBlend mode="normal" in2="shape" result="effect1_innerShadow_82_598"/>
</filter>
<filter id="filter3_i_82_598" x="134.867" y="116.065" width="109.912" height="112.912" filterUnits="userSpaceOnUse" color-interpolation-filters="sRGB">
<feFlood flood-opacity="0" result="BackgroundImageFix"/>
<feBlend mode="normal" in="SourceGraphic" in2="BackgroundImageFix" result="shape"/>
<feColorMatrix in="SourceAlpha" type="matrix" values="0 0 0 0 0 0 0 0 0 0 0 0 0 0 0 0 0 0 127 0" result="hardAlpha"/>
<feOffset dy="3"/>
<feGaussianBlur stdDeviation="3"/>
<feComposite in2="hardAlpha" operator="arithmetic" k2="-1" k3="1"/>
<feColorMatrix type="matrix" values="0 0 0 0 0.301961 0 0 0 0 0.0470588 0 0 0 0 0.67451 0 0 0 1 0"/>
<feBlend mode="normal" in2="shape" result="effect1_innerShadow_82_598"/>
</filter>
<filter id="filter4_bd_82_598" x="13.4401" y="175.874" width="165.761" height="127.889" filterUnits="userSpaceOnUse" color-interpolation-filters="sRGB">
<feFlood flood-opacity="0" result="BackgroundImageFix"/>
<feGaussianBlur in="BackgroundImageFix" stdDeviation="15"/>
<feComposite in2="SourceAlpha" operator="in" result="effect1_backgroundBlur_82_598"/>
<feColorMatrix in="SourceAlpha" type="matrix" values="0 0 0 0 0 0 0 0 0 0 0 0 0 0 0 0 0 0 127 0" result="hardAlpha"/>
<feOffset dy="3"/>
<feGaussianBlur stdDeviation="1.5"/>
<feComposite in2="hardAlpha" operator="out"/>
<feColorMatrix type="matrix" values="0 0 0 0 0 0 0 0 0 0 0 0 0 0 0 0 0 0 0.160784 0"/>
<feBlend mode="normal" in2="effect1_backgroundBlur_82_598" result="effect2_dropShadow_82_598"/>
<feBlend mode="normal" in="SourceGraphic" in2="effect2_dropShadow_82_598" result="shape"/>
</filter>
<filter id="filter5_b_82_598" x="14.2314" y="176.604" width="164.201" height="126.444" filterUnits="userSpaceOnUse" color-interpolation-filters="sRGB">
<feFlood flood-opacity="0" result="BackgroundImageFix"/>
<feGaussianBlur in="BackgroundImageFix" stdDeviation="15"/>
<feComposite in2="SourceAlpha" operator="in" result="effect1_backgroundBlur_82_598"/>
<feBlend mode="normal" in="SourceGraphic" in2="effect1_backgroundBlur_82_598" result="shape"/>
</filter>
<filter id="filter6_bd_82_598" x="28.2775" y="227.624" width="165.761" height="127.889" filterUnits="userSpaceOnUse" color-interpolation-filters="sRGB">
<feFlood flood-opacity="0" result="BackgroundImageFix"/>
<feGaussianBlur in="BackgroundImageFix" stdDeviation="15"/>
<feComposite in2="SourceAlpha" operator="in" result="effect1_backgroundBlur_82_598"/>
<feColorMatrix in="SourceAlpha" type="matrix" values="0 0 0 0 0 0 0 0 0 0 0 0 0 0 0 0 0 0 127 0" result="hardAlpha"/>
<feOffset dy="3"/>
<feGaussianBlur stdDeviation="1.5"/>
<feComposite in2="hardAlpha" operator="out"/>
<feColorMatrix type="matrix" values="0 0 0 0 0 0 0 0 0 0 0 0 0 0 0 0 0 0 0.160784 0"/>
<feBlend mode="normal" in2="effect1_backgroundBlur_82_598" result="effect2_dropShadow_82_598"/>
<feBlend mode="normal" in="SourceGraphic" in2="effect2_dropShadow_82_598" result="shape"/>
</filter>
<filter id="filter7_b_82_598" x="29.0688" y="228.354" width="164.201" height="126.444" filterUnits="userSpaceOnUse" color-interpolation-filters="sRGB">
<feFlood flood-opacity="0" result="BackgroundImageFix"/>
<feGaussianBlur in="BackgroundImageFix" stdDeviation="15"/>
<feComposite in2="SourceAlpha" operator="in" result="effect1_backgroundBlur_82_598"/>
<feBlend mode="normal" in="SourceGraphic" in2="effect1_backgroundBlur_82_598" result="shape"/>
</filter>
<filter id="filter8_b_82_598" x="120.534" y="128.467" width="173.254" height="155.854" filterUnits="userSpaceOnUse" color-interpolation-filters="sRGB">
<feFlood flood-opacity="0" result="BackgroundImageFix"/>
<feGaussianBlur in="BackgroundImageFix" stdDeviation="15"/>
<feComposite in2="SourceAlpha" operator="in" result="effect1_backgroundBlur_82_598"/>
<feBlend mode="normal" in="SourceGraphic" in2="effect1_backgroundBlur_82_598" result="shape"/>
</filter>
<filter id="filter9_b_82_598" x="121.261" y="129.205" width="171.842" height="154.301" filterUnits="userSpaceOnUse" color-interpolation-filters="sRGB">
<feFlood flood-opacity="0" result="BackgroundImageFix"/>
<feGaussianBlur in="BackgroundImageFix" stdDeviation="15"/>
<feComposite in2="SourceAlpha" operator="in" result="effect1_backgroundBlur_82_598"/>
<feBlend mode="normal" in="SourceGraphic" in2="effect1_backgroundBlur_82_598" result="shape"/>
</filter>
<filter id="filter10_b_82_598" x="246.471" y="154.161" width="173.254" height="155.854" filterUnits="userSpaceOnUse" color-interpolation-filters="sRGB">
<feFlood flood-opacity="0" result="BackgroundImageFix"/>
<feGaussianBlur in="BackgroundImageFix" stdDeviation="15"/>
<feComposite in2="SourceAlpha" operator="in" result="effect1_backgroundBlur_82_598"/>
<feBlend mode="normal" in="SourceGraphic" in2="effect1_backgroundBlur_82_598" result="shape"/>
</filter>
<filter id="filter11_b_82_598" x="247.198" y="154.899" width="171.842" height="154.301" filterUnits="userSpaceOnUse" color-interpolation-filters="sRGB">
<feFlood flood-opacity="0" result="BackgroundImageFix"/>
<feGaussianBlur in="BackgroundImageFix" stdDeviation="15"/>
<feComposite in2="SourceAlpha" operator="in" result="effect1_backgroundBlur_82_598"/>
<feBlend mode="normal" in="SourceGraphic" in2="effect1_backgroundBlur_82_598" result="shape"/>
</filter>
<filter id="filter12_bd_82_598" x="96.9862" y="46.2051" width="174.067" height="158.886" filterUnits="userSpaceOnUse" color-interpolation-filters="sRGB">
<feFlood flood-opacity="0" result="BackgroundImageFix"/>
<feGaussianBlur in="BackgroundImageFix" stdDeviation="15"/>
<feComposite in2="SourceAlpha" operator="in" result="effect1_backgroundBlur_82_598"/>
<feColorMatrix in="SourceAlpha" type="matrix" values="0 0 0 0 0 0 0 0 0 0 0 0 0 0 0 0 0 0 127 0" result="hardAlpha"/>
<feOffset dy="3"/>
<feGaussianBlur stdDeviation="1.5"/>
<feComposite in2="hardAlpha" operator="out"/>
<feColorMatrix type="matrix" values="0 0 0 0 0 0 0 0 0 0 0 0 0 0 0 0 0 0 0.160784 0"/>
<feBlend mode="normal" in2="effect1_backgroundBlur_82_598" result="effect2_dropShadow_82_598"/>
<feBlend mode="normal" in="SourceGraphic" in2="effect2_dropShadow_82_598" result="shape"/>
</filter>
<filter id="filter13_b_82_598" x="98.0585" y="47.2869" width="171.923" height="156.899" filterUnits="userSpaceOnUse" color-interpolation-filters="sRGB">
<feFlood flood-opacity="0" result="BackgroundImageFix"/>
<feGaussianBlur in="BackgroundImageFix" stdDeviation="15"/>
<feComposite in2="SourceAlpha" operator="in" result="effect1_backgroundBlur_82_598"/>
<feBlend mode="normal" in="SourceGraphic" in2="effect1_backgroundBlur_82_598" result="shape"/>
</filter>
<filter id="filter14_bd_82_598" x="221.114" y="67.5564" width="174.067" height="158.886" filterUnits="userSpaceOnUse" color-interpolation-filters="sRGB">
<feFlood flood-opacity="0" result="BackgroundImageFix"/>
<feGaussianBlur in="BackgroundImageFix" stdDeviation="15"/>
<feComposite in2="SourceAlpha" operator="in" result="effect1_backgroundBlur_82_598"/>
<feColorMatrix in="SourceAlpha" type="matrix" values="0 0 0 0 0 0 0 0 0 0 0 0 0 0 0 0 0 0 127 0" result="hardAlpha"/>
<feOffset dy="3"/>
<feGaussianBlur stdDeviation="1.5"/>
<feComposite in2="hardAlpha" operator="out"/>
<feColorMatrix type="matrix" values="0 0 0 0 0 0 0 0 0 0 0 0 0 0 0 0 0 0 0.160784 0"/>
<feBlend mode="normal" in2="effect1_backgroundBlur_82_598" result="effect2_dropShadow_82_598"/>
<feBlend mode="normal" in="SourceGraphic" in2="effect2_dropShadow_82_598" result="shape"/>
</filter>
<filter id="filter15_b_82_598" x="222.176" y="68.5327" width="171.969" height="156.875" filterUnits="userSpaceOnUse" color-interpolation-filters="sRGB">
<feFlood flood-opacity="0" result="BackgroundImageFix"/>
<feGaussianBlur in="BackgroundImageFix" stdDeviation="15"/>
<feComposite in2="SourceAlpha" operator="in" result="effect1_backgroundBlur_82_598"/>
<feBlend mode="normal" in="SourceGraphic" in2="effect1_backgroundBlur_82_598" result="shape"/>
</filter>
<filter id="filter16_bd_82_598" x="144.805" y="213.51" width="165.761" height="127.889" filterUnits="userSpaceOnUse" color-interpolation-filters="sRGB">
<feFlood flood-opacity="0" result="BackgroundImageFix"/>
<feGaussianBlur in="BackgroundImageFix" stdDeviation="15"/>
<feComposite in2="SourceAlpha" operator="in" result="effect1_backgroundBlur_82_598"/>
<feColorMatrix in="SourceAlpha" type="matrix" values="0 0 0 0 0 0 0 0 0 0 0 0 0 0 0 0 0 0 127 0" result="hardAlpha"/>
<feOffset dy="3"/>
<feGaussianBlur stdDeviation="1.5"/>
<feComposite in2="hardAlpha" operator="out"/>
<feColorMatrix type="matrix" values="0 0 0 0 0 0 0 0 0 0 0 0 0 0 0 0 0 0 0.160784 0"/>
<feBlend mode="normal" in2="effect1_backgroundBlur_82_598" result="effect2_dropShadow_82_598"/>
<feBlend mode="normal" in="SourceGraphic" in2="effect2_dropShadow_82_598" result="shape"/>
</filter>
<filter id="filter17_b_82_598" x="145.524" y="214.182" width="164.308" height="126.488" filterUnits="userSpaceOnUse" color-interpolation-filters="sRGB">
<feFlood flood-opacity="0" result="BackgroundImageFix"/>
<feGaussianBlur in="BackgroundImageFix" stdDeviation="15"/>
<feComposite in2="SourceAlpha" operator="in" result="effect1_backgroundBlur_82_598"/>
<feBlend mode="normal" in="SourceGraphic" in2="effect1_backgroundBlur_82_598" result="shape"/>
</filter>
</defs>
</svg>
