<svg width="43" height="56" viewBox="0 0 43 56" fill="none" xmlns="http://www.w3.org/2000/svg">
<path fill-rule="evenodd" clip-rule="evenodd" d="M27.4632 3.00834C27.4632 4.66981 26.0971 6.01669 24.4118 6.01669C23.0216 6.01669 21.8485 5.10014 21.4803 3.84654H16.5244C16.2505 4.24823 15.7853 4.51251 15.2573 4.51251C14.7295 4.51251 14.2643 4.24823 13.9903 3.84654H4.41408C4.07658 4.67759 3.25212 5.26459 2.28861 5.26459C1.02465 5.26459 0 4.25444 0 3.00834C0 1.76224 1.02465 0.752086 2.28861 0.752086C3.31743 0.752086 4.18769 1.42135 4.47588 2.34237H13.8889C14.1382 1.84572 14.6573 1.50417 15.2573 1.50417C15.8574 1.50417 16.3766 1.84572 16.6258 2.34237H21.4354C21.7428 1.00138 22.9587 0 24.4118 0C26.0971 0 27.4632 1.34688 27.4632 3.00834ZM1.52573 45.8773C2.09047 45.8773 2.58355 45.5747 2.84735 45.1251H7.72479C8.06354 46.4227 9.25835 47.3814 10.6801 47.3814C12.102 47.3814 13.2968 46.4227 13.6355 45.1251H27.6673C27.9312 45.5747 28.4243 45.8773 28.989 45.8773C29.5537 45.8773 30.0468 45.5747 30.3106 45.1251H35.1881C35.5269 46.4227 36.7215 47.3814 38.1434 47.3814C39.8286 47.3814 41.1949 46.0344 41.1949 44.3731C41.1949 42.7115 39.8286 41.3647 38.1434 41.3647C36.7215 41.3647 35.5269 42.3234 35.1881 43.6209H30.3106C30.0468 43.1714 29.5537 42.8688 28.989 42.8688C28.4243 42.8688 27.9312 43.1714 27.6673 43.6209H13.6355C13.2968 42.3234 12.102 41.3647 10.6801 41.3647C9.25835 41.3647 8.06354 42.3234 7.72479 43.6209H2.84735C2.58355 43.1714 2.09047 42.8688 1.52573 42.8688C0.683096 42.8688 0 43.5423 0 44.3731C0 45.2038 0.683096 45.8773 1.52573 45.8773ZM6.7357 12.0334C6.42151 12.9097 5.57372 13.5375 4.57727 13.5375C3.31332 13.5375 2.28867 12.5273 2.28867 11.2813C2.28867 10.0352 3.31332 9.02505 4.57727 9.02505C5.57372 9.02505 6.42151 9.65289 6.7357 10.5292H11.6472C11.9111 10.0796 12.4041 9.77713 12.9688 9.77713C13.5336 9.77713 14.0266 10.0796 14.2904 10.5292H18.513C18.7768 10.0796 19.27 9.77713 19.8347 9.77713C20.3994 9.77713 20.8925 10.0796 21.1562 10.5292H28.3223C28.6611 9.23169 29.8558 8.27295 31.2776 8.27295C32.963 8.27295 34.3291 9.61983 34.3291 11.2813C34.3291 12.9428 32.963 14.2896 31.2776 14.2896C29.8558 14.2896 28.6611 13.3309 28.3223 12.0334H21.1562C20.8925 12.4829 20.3994 12.7855 19.8347 12.7855C19.27 12.7855 18.7768 12.4829 18.513 12.0334H14.2904C14.0266 12.4829 13.5336 12.7855 12.9688 12.7855C12.4041 12.7855 11.9111 12.4829 11.6472 12.0334H6.7357ZM22.682 20.3062H26.0677C26.3819 21.1825 27.2296 21.8104 28.2261 21.8104C29.4901 21.8104 30.5148 20.8003 30.5148 19.5542C30.5148 18.3081 29.4901 17.2979 28.2261 17.2979C27.2296 17.2979 26.3819 17.9258 26.0677 18.8021H22.682C22.4182 18.3525 21.925 18.05 21.3603 18.05C20.7956 18.05 20.3025 18.3525 20.0387 18.8021H6.00687C5.66812 17.5046 4.47334 16.5458 3.05148 16.5458C1.36619 16.5458 0 17.8927 0 19.5542C0 21.2156 1.36619 22.5625 3.05148 22.5625C4.47334 22.5625 5.66812 21.6037 6.00687 20.3062H20.0387C20.3025 20.7559 20.7956 21.0583 21.3603 21.0583C21.925 21.0583 22.4182 20.7559 22.682 20.3062ZM4.75675 38.3563C5.75327 38.3563 6.60094 37.7285 6.91513 36.8522H26.9761C27.3149 38.1497 28.5096 39.1084 29.9314 39.1084C31.3533 39.1084 32.548 38.1497 32.8867 36.8522H38.4532C38.7674 37.7285 39.615 38.3563 40.6115 38.3563C41.8756 38.3563 42.9002 37.3462 42.9002 36.1001C42.9002 34.8539 41.8756 33.8438 40.6115 33.8438C39.615 33.8438 38.7674 34.4717 38.4532 35.348H32.8867C32.548 34.0505 31.3533 33.0917 29.9314 33.0917C28.5096 33.0917 27.3149 34.0505 26.9761 35.348H6.91513C6.60094 34.4717 5.75327 33.8438 4.75675 33.8438C3.49279 33.8438 2.46815 34.8539 2.46815 36.1001C2.46815 37.3462 3.49279 38.3563 4.75675 38.3563ZM6.46199 29.3313C7.02669 29.3313 7.51982 29.0288 7.78366 28.5793H14.2948C14.5586 29.0288 15.0517 29.3313 15.6164 29.3313C16.1811 29.3313 16.6743 29.0288 16.9381 28.5793H21.8156C22.1543 29.8768 23.349 30.8355 24.7709 30.8355C26.1928 30.8355 27.3874 29.8768 27.7262 28.5793H34.8184C35.1326 29.4556 35.9802 30.0834 36.9767 30.0834C38.2407 30.0834 39.2653 29.0732 39.2653 27.8272C39.2653 26.581 38.2407 25.5708 36.9767 25.5708C35.9802 25.5708 35.1326 26.1987 34.8184 27.0751H27.7262C27.3874 25.7776 26.1928 24.8187 24.7709 24.8187C23.349 24.8187 22.1543 25.7776 21.8156 27.0751H16.9381C16.6743 26.6254 16.1811 26.323 15.6164 26.323C15.0517 26.323 14.5586 26.6254 14.2948 27.0751H7.78366C7.51982 26.6254 7.02669 26.323 6.46199 26.323C5.61938 26.323 4.93633 26.9963 4.93633 27.8272C4.93633 28.6579 5.61938 29.3313 6.46199 29.3313ZM2.84742 51.1418H7.75897C8.07316 50.2655 8.92083 49.6376 9.91733 49.6376C10.9138 49.6376 11.7615 50.2655 12.0757 51.1418H16.8595C17.2129 49.4254 18.7522 48.1335 20.5976 48.1335C22.4428 48.1335 23.9822 49.4254 24.3355 51.1418H29.8822C30.1964 50.2655 31.044 49.6376 32.0405 49.6376C33.3045 49.6376 34.3291 50.6478 34.3291 51.8939C34.3291 53.1399 33.3045 54.1501 32.0405 54.1501C31.044 54.1501 30.1964 53.5223 29.8822 52.646H24.3355C23.9822 54.3624 22.4428 55.6543 20.5976 55.6543C18.7522 55.6543 17.2129 54.3624 16.8595 52.646H12.0757C11.7615 53.5223 10.9138 54.1501 9.91733 54.1501C8.92083 54.1501 8.07316 53.5223 7.75897 52.646H2.84742C2.58361 53.0955 2.09055 53.3981 1.52581 53.3981C0.683159 53.3981 6.19888e-05 52.7246 6.19888e-05 51.8939C6.19888e-05 51.0632 0.683159 50.3897 1.52581 50.3897C2.09055 50.3897 2.58361 50.6922 2.84742 51.1418Z" fill="white"/>
</svg>
