<svg width="14" height="14" viewBox="0 0 14 14" fill="none" xmlns="http://www.w3.org/2000/svg">
<path fill-rule="evenodd" clip-rule="evenodd" d="M6.90657 0.765625C5.1518 0.765625 4.85934 0.765625 4.2013 0.838741C3.47014 0.838741 3.03145 0.984972 2.59275 1.1312C2.15406 1.27743 1.78848 1.49678 1.42291 1.86236C1.05733 2.22794 0.837981 2.59351 0.69175 3.03221C0.472403 3.4709 0.399287 3.9096 0.399287 4.64075C0.326172 5.29879 0.326172 5.59125 0.326172 7.34603C0.326172 9.1008 0.326172 9.39326 0.399287 10.0513C0.399287 10.7825 0.545519 11.2212 0.69175 11.6598C0.837981 12.0985 1.05733 12.4641 1.42291 12.8297C1.78848 13.1953 2.15406 13.4146 2.59275 13.5609C3.03145 13.7071 3.47014 13.8533 4.2013 13.8533C4.85934 13.9264 5.1518 13.9264 6.90657 13.9264C8.66135 13.9264 8.95381 13.9264 9.61185 13.8533C10.343 13.8533 10.7817 13.7071 11.2204 13.5609C11.6591 13.4146 12.0247 13.1953 12.3902 12.8297C12.7558 12.4641 12.9752 12.0985 13.1214 11.6598C13.2676 11.2212 13.4139 10.7825 13.4139 10.0513C13.4139 9.32015 13.487 9.1008 13.487 7.34603C13.487 5.59125 13.487 5.29879 13.4139 4.64075C13.4139 3.9096 13.2676 3.4709 13.1214 3.03221C12.9752 2.59351 12.7558 2.22794 12.3902 1.86236C12.0247 1.49678 11.6591 1.27743 11.2204 1.1312C10.7817 0.984972 10.343 0.838741 9.61185 0.838741C8.95381 0.765625 8.66135 0.765625 6.90657 0.765625ZM6.90657 3.98271C5.00557 3.98271 3.54326 5.44502 3.54326 7.34603C3.54326 9.24703 5.07868 10.7093 6.90657 10.7093C8.80758 10.7093 10.2699 9.17392 10.2699 7.34603C10.2699 5.51814 8.80758 3.98271 6.90657 3.98271ZM10.4161 3.03221C9.97743 3.03221 9.61185 3.39779 9.61185 3.83648C9.61185 4.27517 9.97743 4.64075 10.4161 4.64075C10.8548 4.64075 11.2204 4.27517 11.2204 3.83648C11.2204 3.39779 10.8548 3.03221 10.4161 3.03221Z" fill="white"/>
</svg>
