<svg width="111" height="111" viewBox="0 0 111 111" fill="none" xmlns="http://www.w3.org/2000/svg">
<path d="M0 111C1.18787 106.685 2.32092 102.572 3.45081 98.4585C4.82678 93.4472 6.2179 88.437 7.54443 83.4113C7.68359 82.8869 7.6073 82.1709 7.34778 81.6965C-3.98059 60.936 -1.30005 36.1904 14.4537 18.4863C24.0477 7.70332 36.1772 1.51216 50.6133 0.230422C74.9966 -1.93511 97.0621 11.3125 106.704 33.6772C115.904 55.0205 109.96 80.9133 92.3772 96.1733C81.5253 105.589 68.9137 110.273 54.5219 110.052C45.8732 109.918 37.709 107.763 30.0253 103.786C29.5746 103.552 28.9001 103.52 28.3956 103.649C19.3386 105.979 10.2914 108.348 1.24341 110.706C0.910645 110.794 0.574951 110.865 0 111ZM13.2656 97.9636C18.7041 96.5363 23.9056 95.2023 29.0862 93.79C30.1759 93.4929 31.0298 93.6147 32.009 94.1897C42.9177 100.611 54.5834 102.403 66.8759 99.3894C90.1833 93.674 105.048 70.7131 100.982 47.1469C96.9623 23.8439 74.7417 5.82417 48.6357 9.80342C38.1431 11.4028 29.2014 16.1674 22.0374 23.9743C12.5461 34.3208 8.62524 46.5776 10.1239 60.4941C10.8881 67.5786 13.3688 74.1052 17.2881 80.069C17.7566 80.7824 17.8521 81.404 17.6 82.2109C17.0732 83.9013 16.6417 85.6198 16.1744 87.3293C15.2219 90.8056 14.2716 94.2851 13.2656 97.9636Z" fill="white"/>
</svg>
