<svg xmlns="http://www.w3.org/2000/svg" width="139" height="140">
<path  class="arrow" fill-rule="evenodd" d="M19.9003 75.7951c.3565-.2156.6952-.4204.3465-.9885 0 0 .1402 1.1679-.697.7925-.1622-.6271-.2746-.6061-.5035-.5634-.1766.033-.4226.0789-.8143-.1502.1502-.366.0381-.5629-.0563-.7286-.1196-.2098-.2107-.3698.2957-.7602-.4181-.0084-.5489-.0041-.6688-.0404-.1269-.0384-.2418-.1223-.6721-.3152.3524.0366.3429-.2991.3322-.6821-.011-.3919-.0235-.8335.3488-.977-.3386.0565-.4594.3431-.5775.623-.1603.38-.3154.7476-1.0027.5101.0587-.2349.0731-.5012.0876-.7717.0333-.6194.0679-1.2616.6394-1.6034-.0822-.0741-.1778-.1428-.2822-.2179-.2044-.147-.4422-.3181-.6782-.5995.0008.0822-.0634.1648-.1482.1976-.0204-.5124-.1981-1.0613-.3725-1.6-.2935-.9068-.5777-1.7849-.087-2.4122-.5267.3778-.7906-.2623-1.0235-.8272-.2328-.5648-.4345-1.0543-.8371-.3753-.1862-.4519.0922-1.432.3245-1.6962-.6423.1451-.7734-.3292-.9125-.8326-.0976-.3529-.1991-.7202-.4834-.8983.2595-.295.212-.6894.1639-1.0885-.038-.3156-.0764-.6342.0364-.9089-.0851.2074-.1703.4148-.5268.3777.124-.4956.0124-.5413-.2269-.6394-.1337-.0548-.3074-.126-.5021-.3013.1501-.5282.3882-.4821.639-.4335.2145.0416.4382.0849.6238-.2281-.2036-.4939-.3835-.3963-.6253-.265-.1269.0689-.2708.147-.4442.1538l.8052-1.3579c-.1242-.3012-.3335-.3951-.69-.4321.021-.0511.0442-.103.0677-.1557.1677-.3755.3532-.7908-.1227-1.2196l.078 1.0173-.6278-.2815.5107-1.2444c-.8377-1.3227-1.77698-1.0673-2.71625-.8119-.15654.0426-.31308.0851-.46916.1204l.10112.6592c-.5037.0198-.68994-.4321-.81412-.7333-.27137-.2445-1.01443 1.2641-.99841 2.1307.24007 1.2796.6333 1.2343 1.0309 1.1886.31051-.0358.6237-.0719.86871.5225l-.34751 2.0542.44162-.1703c.27137.2445.03904.5086-.10816.5654.39254-.1514.53762.5684.6827 1.2883.07253.3599.14508.7199.24856.9709l-.56579-.1309c-.36352 1.1876.15619 2.0345.76102 2.674.13075.1989.28557.3886.44037.5783.3869.4742.7739.9483.7853 1.5673l-.3014 1.3383.713.0741c-.0153.2367-.0831.4364-.1481.6284-.1319.3886-.2529.7453.095 1.3122.5848.6929 1.1041 1.5452 1.5736 2.3156.0658.1081.1308.2146.1947.3189.3335.3951.5818.9975.7681 1.4494l.7681 1.4493c.2909.4988.5295.9741.768 1.4494.2385.4753.4772.9506.7681 1.4494.5817.9975 1.2487 1.7876 2.0628 2.5209-.1472.0568-.3566-.0371-.5658-.1308 1.7985 1.0518 2.4423 2.1999 3.0632 3.7061l.4346 1.0543c.1462.1732.2522.3284.3479.4687.1227.1796.2287.3348.3811.4721.3955.5456 1.0855.9777 1.9226 1.3531l.1703-.4148c.5443.5352.5304.4611.4993.2953-.0344-.1837-.09-.4801.5702-.1842-.2467.6011.5521 1.3487 1.2646 2.0154.2709.2535.5293.4954.7131.7131.0478-.1166-.0632-.2267-.1918-.3543-.1004-.0998-.2114-.2099-.2659-.3421.0246-.0094.0556-.0262.0917-.0458.1808-.098.4907-.2661.7686.0632.0781 1.0172.6829 1.6567 1.4349 2.2395.376.2913.7888.5685 1.2017.8456.4128.2772.8256.5544 1.2017.8458.244-.175.7128-.2493 1.242-.3332.6128-.0972 1.3066-.2071 1.8262-.5012.0515.1248.0883.2851.1314.473.061.2657.1347.5864.2802.9394.6509-.0765.9843.3185 1.3178.7136-.5658-.1309-.9844-.3186-1.3178-.7136l-.2093-.0939c-.4186-.1876-.6279-.2815-.4807-.3382-.5607.1126-.5161.2376-.4404.4504.052.1459.1188.3333.0148.5864l1.0465.4693c.0733.0329.1446.061.213.0842.0157-.0425.0734-.2171.0193-.3484l.062.1506.4187.1877c.0095.0232.0106.0456.0046.0659.0679-.0209.1172-.061.1426-.1227.1904.1715.3921.1668.6186.1615.0964-.0022.1972-.0047.3036.0064l.6279.2815-.062-.1505.2943-.1136c.5658.1308 1.1937.4124 1.7365.9013.5427.4889 1.0854.9777 1.5661 1.3161-.3645-.625-.0809-.8148.2085-1.0083.1648-.1105.3316-.222.3813-.4161-.1051.0829-1.1654-.1656-2.4043-.4942 0 0 .1472-.0568.2323-.2641.7457-.1938 1.252.1084 1.8378.4582.5037.3007 1.0663.6365 1.8904.7221-.0207-.0502-.0578-.0941-.0948-.1379-.0741-.0878-.1482-.1757-.0914-.3139.6509-.0765 1.1085.6198 1.2327.921.2553-.6221 1.5571-.7751 2.185-.4937.0707.0976.1261.1844.1754.2617.2267.3551.3263.5113 1.2045.6026l-.3955-.5456c.6599-.0777.8978.0973 1.1143.2565.1745.1285.3352.2465.6921.2139-.1656-.0345-.0974-.2569.1233-.342.9539.2207 1.1919.4695 1.7682 1.0717.1072.1122.2262.2366.3637.3753l-.1011-.6593c.0956.0331.1966.0685.3016.1054 1.1195.3928 2.682.9412 2.8849.3763-.0725 1.1505 2.446.6692 3.3546.4866-.3566-.0371-.4807-.3383-.5428-.4889 1.0465.4691 2.0538.4297 2.9991.2396.3253-.0654.6607-.1553 1.0017-.2468.6501-.1744 1.3208-.3542 1.9815-.3802l.0691-1.0739c.4744-.0187.8718.4183 1.2735.8602.4513.4963.9083.9988 1.4864.8682l-.4807-.3383c1.8558-.1164 2.6608-.3421 3.822-.6675.1915-.0536.3929-.1101.6102-.1691l-.1012-.6593c.314.1407.6549.1402.9959.1395.341-.0005.682-.0012.9958.1396.4527-.8226 1.6649-.9609 3.0075-1.1141 1.551-.177 3.2761-.3738 4.2057-1.6681l.4966 1.2049c.0957-.0191.1935-.0374.2922-.0559.8758-.1636 1.8148-.3391 1.8769-1.3044l-.1473.0568c-.3117-.5082.0156-.5087.4411-.5095.2837-.0004.6111-.001.8217-.1521.5037-.0197 1.0465.4691.8142.7334 1.1155-.6049 2.4404-1.116 3.7652-1.6269.2208-.1157.4388-.225.651-.3313 1.0023-.5022 1.8747-.9395 2.2772-1.671.6936-.1157 1.3658-.1794 2.0286-.2421 1.6251-.1538 3.1936-.3022 4.883-1.2019l-.0621-.1505c.1137-.1088.2579-.2293.4146-.3601.6862-.5735 1.6116-1.3467 1.2577-2.2051.6826-.1982 1.3436-.2177 1.9984-.2371 1.099-.0325 2.181-.0645 3.317-.9403l-.566-.1309c.318-.4716 1.325-.511 1.682-.474.091-.035.045-.0843-.017-.1524-.039-.042-.084-.0912-.108-.1488.16-.3879.431-.3439.719-.2971.174.0282.355.0577.521-.0065l-.271-.2444c.716-.7537 1.989-1.1476 3.302-1.5537 1.087-.3364 2.202-.6812 3.051-1.2459-.442.1704-.481-.3382-.396-.5456.209.0937.419.1876.566.1309.054-.0208.096-.0138.15-.0049.093.0153.221.0363.501-.0716.589-.2272 1.472-.5678 2.146-1.0024.19-.1175.377-.2344.562-.3491 1.268-.7889 2.393-1.4889 3.164-1.7863l-1.387.3604c1.914-.7382 2.169-1.3603 2.192-1.7183-.022-.2925-.024-.5352.342-.8288l.088-.3012-6.326-1.7227-3.202.3936c-.03.0448-.079.0635-.079.0635s.063.1506.357.0371c.651-.0765 1.155-.0963 1.658-.1159-.76.2931-.879.3392-.924.4263-.015.0311-.022.0673-.044.1218.062.1506-.38.3209-1.24.3036.105.0469.246.0797.388.1123.141.0328.283.0654.387.1125.083.0085.155.012.215.015.198.0099.269.0134.204.1726-.504.0197-1.007.0394-1.364.0024l-.419-.1877-.294.1136c-.527.3777-.991.906-1.456 1.4343-1.028 1.0628-2.055 2.1255-3.278 2.3532.216.2512-.093.6928-.517.8564-.13-.0581-.09-.1811-.036-.3511.034-.1051.073-.2282.082-.365-1.703.402-2.365.6815-3.229 1.0463-.319.1348-.665.2812-1.1024.4497.4934.0898.3014.2943.0544.5573-.215.2284-.4713.5009-.3558.7809-.2539-.1137-.2949-.2525-.33-.3712-.0519-.1748-.0906-.3059-.7786-.2486-1.015.5172-1.8131 1.1316-2.5736 1.7171-.2959.2279-.5861.4512-.8812.6628-.2575-.1154-.5227-.1105-.7631-.1059-.3458.0064-.6405.0119-.7871-.3435-.7757.2992-1.3969.4987-2.0439.7066-.7034.2259-1.4375.4617-2.4343.8462l.0621.1507c-.5111-.2991-.9517.1078-1.3251.4528-.2836.2618-.5284.4879-.7358.3419.0728.1765.1747.2817.2592.369.0597.0617.1107.1144.1364.1767l-1.0075.0395c.3566.037.9614.6765.2874 1.1111-.562-.1819-.495-.3218-.4235-.4714.0537-.1125.1101-.2304-.0962-.3755l-.1312.9234c-.6509.0765-1.1706-.7705-.4967-1.205-.9759.3765-1.9621.6206-2.9285.8599-.9285.2299-1.8388.4553-2.7044.7891l.3336.3951c-1.0075.0394-2.3944.3998-2.7969 1.0788-.0189-.0456-.0569-.0998-.0984-.1589-.0954-.1363-.2094-.299-.1501-.4436-.6517-.1728-.6312.0137-.6091.2168.0166.1512.0341.3114-.2236.3395.223.0327.4207.0997.4923.2734-.7981.1332-1.6583.1159-2.5185.0985.0391.5086-1.1847 1.6789-2.2542 1.5677-.0621-.1506.1082-.5654.4026-.6789l-.7129-.0742-.2785.9802-1.1085-.6197.1631.8098c-.422-.0086-.7268-.2305-.9972-.4276-.2806-.2044-.5243-.382-.8243-.2663-1.4133.6686-1.649.8829-2.1205 1.3116-.1952.1776-.4309.3919-.8075.6906-.2203-.7559-.8906-.5881-1.5552-.4218-.5774.1445-1.1505.2878-1.421-.1759-.9683.5481-2.2081.8516-3.5099 1.0047-.6509.0765-1.3541.1295-2.0574.1825-.7031.0531-1.4064.1062-2.0573.1826l.2094.0939c-.5496.394-.8782.0855-1.2427-.2568-.3343-.314-.6988-.6565-1.2919-.5112l.2714.2444c-1.5572.7752-4.3631-.2372-5.8281-.8941.2714.2445-.0461.716-.4646.5284-.1114-.1003-.0493-.2675.0075-.4206.0818-.2201.1527-.4112-.318-.3325.2093.0939.039.5086-.1703.4147l-.6669-.7901c-.194.0077-.3989.0195-.6114.0317-.8911.0513-1.9157.1104-2.8293-.101-.2829-.0654-.5711-.1179-.8594-.1704-.8646-.1575-1.7292-.3149-2.4502-.8223-.4417.1703-.3175.4715-.1933.7728-.8372-.3754-1.7364-.9013-2.4264-1.3335-.752-.5826-1.4419-1.0147-2.132-1.4469l-.4025.679c-.3436-.0996-.3812-.3517-.4171-.593-.0452-.303-.0878-.589-.7304-.5354-.0734-.0329-.0363-.0012.0508.0733.1615.1381.4951.4233.6161.7168-.8432-.049-.9074-.3483-.9883-.7254-.07-.3265-.1526-.7114-.7642-1.0426l-.0691 1.074c-1.0545.0019-1.0393-.6176-1.0248-1.2034.0042-.1718.0083-.3408-.0146-.4903-.2888-.9007-.7453-.7588-1.2878-.59-.5803.1805-1.2592.3916-1.9367-.6102-.0195-.2542.0967-.3863.2128-.5185.1162-.132.2324-.2641.2129-.5184-.69-.4321-.9189-.7803-1.1477-1.1284-.2288-.3482-.4576-.6963-1.1475-1.1284-.8748.2465-.6756.4097-.508.5469.1546.1267.2824.2313-.4834.3591l1.1085.6199c-.6322-.1014-.4914.0538-.2614.3073.2352.2593.5638.6215.2544.9173-.4607-.2066-.8842-.9913-1.2823-1.7291-.1445-.2678-.2856-.5293-.4241-.7549-.2415.1732-.1082.3854.0158.5828.1464.2329.2797.4451-.2321.548l-.2483-.6024c-.0067.1049-.0242.1839-.0386.2493-.0348.158-.0521.2371.1398.4099-.3513.2518-.4478.0175-.5719-.2836-.0621-.1507-.1312-.3181-.2423-.4497.0852-.2074.4646-.5284.9062-.6988l-.2943.1136c.0034-.6123-.4134-1.1061-.8302-1.5999-.4168-.4939-.8336-.9877-.8301-1.6-.0163.2531-.0521.252-.1237.2497-.0297-.001-.0655-.0022-.1086.0145-.2122-.2928-.2305-.7106-.2497-1.1512-.0166-.3808-.034-.7787-.1779-1.1278-.1997-.0462-.382.0531-.556.148-.3191.1739-.6107.3328-.9321-.4468.1046-.1552.2838-.2637.4587-.3694Zm19.9936 16.0464c.3565.037.713.0741.9222.1679-.0981.0379-.2359.0716-.3735.1054-.2756.0674-.5511.1349-.5096.2353-.2094-.0938-.1242-.3012-.0391-.5086Z" clip-rule="evenodd"/>
<path class="arrow" fill-rule="evenodd" d="m113.84 71.0379.487-.1074.075.0696c.012-.0006.024-.0014.036-.0021-.009.0036-.018.0071-.026.0106l2.507 2.3272.238 1.6915c.848-.5315 1.593-.9861 2.122-1.1969l-1.075.2964c1.486-.593 1.693-1.0724 1.716-1.3464-.019-.3186-.006-.5604.822-.9651-.055.0805-.118.1527-.194.2383-.074.0849-.161.1831-.262.3161.274.0229.342.5251.273.6849-.4.2425-.711.7078-1.022 1.1733-.187.2792-.374.5584-.58.7895l.16.0686c-.379.498-.559 1.1181-.739 1.742-.234.8056-.469 1.6181-1.139 2.1838l-.114.0456-.046-.1141c-.18-.4509-.51.0182-.831.4762-.167.2376-.332.4722-.473.5736.033.0808.079.1559.123.2264.08.1284.15.2411.105.3443-.292-.1251-.381.0118-.483.1692-.066.1011-.137.2107-.271.2643-.021.2402.1.3225.209.3969.139.0952.259.1775.041.562-.183.2053-.503.0683-.663-.0002.137.3425.091.8903-.001 1.324.134-.0533.142-.1931.149-.3087.005-.0819.01-.1517.057-.1706.16.0686.194.1542.228.2398.034.0856.068.1712.228.2397-.1.2323-.231.2287-.346.2256-.122-.0032-.225-.006-.248.2765l.571-.2281c-.05.1174-.163.2594-.264.3446.275-.1295.584.0868.766.2491-.563.6895-.899.3084-1.215-.0505-.134-.1519-.264-.2998-.407-.361-.135.7471-.554 1.2105-.937 1.6334-.202.2232-.393.4353-.528.6719l.548.0459c-.251.3651-.434.5705-.709.5476l-.434.5706c.297-.2511.571-.2281.891-.0911-.098.1098-.191.2554-.288.4077-.267.4176-.566.8856-1.085.8017l.16.0686c-.069.3285-.221.7844-.368 1.2256-.24.724-.468 1.4081-.298 1.4224-.223.2809-.387.6247-.535.9359-.262.5486-.475.9963-.883.8214-.138.1549-.153.4301-.168.7116-.025.4647-.051.9462-.634.9318.09.4138.129.3808.246.2827.09-.075.224-.1882.462-.1683.02.3421-.218.5555-.423.74-.261.2342-.47.4217-.036.7665-.288.3241-.299.2442-.317.1055-.016-.125-.038-.2978-.276-.2654.416.2863.194.6986-.057 1.1651-.19.3518-.396.7347-.358 1.1175-.205.0822-.23.0117-.254-.0553-.029-.0816-.056-.158-.408.0552.16.0685.137.3424.068.5022l-.594-.1599.89 1.233c-.495.3218-.696.2047-.861.1089-.185-.108-.324-.189-.785.4159l.114-.046c.195.322-.021.54-.295.816-.271.273-.598.603-.644 1.147.054-.256.14-.202.248-.133.075.048.161.102.255.065l-.481.456c.115-.045.115-.045.16.069.08.369-.025.441-.144.521-.116.08-.245.167-.223.552.366-.411.663 0 .754.228l-.983.525.822.069c-.125.291-.424.546-.716.795-.509.435-.998.853-.52 1.419l.252-.366c.132.118.349.311.317.537.295-.235.581-.623.834-.964.06-.082.119-.161.175-.234-.061.024-.131.071-.207.121-.208.138-.455.302-.639.084.183-.205.435-.405.686-.605.252-.199.503-.399.686-.605-.342.137-.617.114-.891.091.001-.394.188-.44.392-.49.138-.034.284-.07.386-.217-.091-.228-.182-.457-.411-.365.366-.411.732-.822.733-1.484 0 0-.709.548-.777.045.405-.495.756-.7 1.123-.913.36-.209.734-.427 1.187-.935.749-.441.919-1.1858 1.078-1.8866.138-.6036.267-1.1747.754-1.4914.057.0244.071.1508.084.2772.024.2275.047.4549.327.0881-.268-.0564-.231-.2345-.201-.3787.018-.0894.034-.1658-.027-.192.49-.1957.528-.4766.562-.7374.03-.2258.058-.4365.377-.5635-.115.0455-.183-.4567-.16-.7306-.177-.076-.198-.2142-.215-.3272-.03-.1929-.048-.3128-.812.0757.538-.2739.725-.6426.898-.9858.217-.4286.414-.8172 1.252-.9311l-.023.2739.252-1.0271c.014-.1683.039-.2784.061-.3747.049-.2173.083-.364-.059-.9494-.175.0696-.363.2992-.524.4953-.049.0606-.097.118-.14.1665-.098-.4496.289-.6915.675-.9335.242-.1512.483-.3024.607-.5043-.14-.06-.219.033-.298.1259-.101.1196-.203.2392-.434.0337.121-.2819.329-.4611.531-.6351.142-.122.281-.2414.384-.392l-.274-.0228c.085-.6619.417-.6132.669-.5763.225.033.386.0567.246-.4508.023.0571.092.0629.16.0686.069.0057.137.0115.16.0685-.022-.388-.067-1.1642-.662-.6622.252-.3652.549-.6162.892-.7531.073.1827.08.3069.086.4062.009.149.014.2422.233.393l.939-1.301c.068-.1598-.229.0912-.298.251-.152-1.0209.434-1.7249 1.047-2.4598.661-.7936 1.353-1.6233 1.176-2.927.131.3271.238.2558.415.1388.07-.0464.151-.0999.248-.1386.066-.153.142-.3176.221-.4894.253-.546.539-1.1636.627-1.7019l-.343.1369c.319-.4426.633-.8217.923-1.1715.561-.6787 1.032-1.2475 1.274-1.9554 0 0-.291-.2006-.484-.0967.326-.2871.31-.7348.296-1.1096-.015-.4367-.028-.7743.51-.6427l-.023.274c.294-.9663.964-1.8102 1.643-2.6647.379-.4778.761-.9589 1.081-1.4664-.16-.2455-.27-.077-.394.1114-.137.2097-.291.444-.547.161.03-.0215.062-.0439.096-.0673-.033.002-.069.009-.108.0202.103-.3978.357-.8556.658-1.3477.491-.1531.712-.3023.9-.4294.294-.1984.508-.343 1.545-.3652.058-.0228.132-.0856.206-.1483.075-.0628.149-.1256.206-.1483l.297-.2511c-.774-.0405-1.541-.0588-2.292-.0686.201-.3556.382-.716.512-1.0733-.081.1872-.169.2412-.242.2859-.052.0317-.096.0587-.125.1248.101-.5574.262-.5703.464-.5865.211-.0169.468-.0375.749-.6915l-.457.1825-.091-.2283c-.031-.0778.012-.1238.006-.1307-.002-.0032-.016.002-.052.0165.114-.0456.183-.2053.252-.3651-.142-.0611-.484.1674-.606.3311.059-.1862-.386-.3691-.925-.5143-.043-.0116-.086-.023-.127-.034-.528-.1407-.911-.2424-1.037-.5598-.103.0409-.169.1742-.242.3209-.089.1797-.188.3796-.376.455-.711.0416-.982-.2035-1.337-.5252-.033-.0299-.067-.0606-.102-.0916-.372.2417-.914.2214-1.144.2128-.096-.0036-.137-.0051-.09.0151-.488-.0122-.474-.1168-.452-.2852.021-.1552.049-.3645-.301-.6054l.891-.091-1.348-.3886.32.1371c-.444.0259-.798-.1568-1.152-.3396-.266-.137-.532-.2741-.835-.3231l.412-.2967-.8-.3426c-.071.2621-.293.2748-.487.2859-.246.0141-.448.0257-.245.5357-.887.0518-1.542-.2903-2.205-.6361-.499-.2602-1.001-.5226-1.609-.6207.106.0456.111.1319.116.2182.003.0431.005.0862.02.1242-.891.091-1.302-.2743-1.758-.7539.032.0809.079.1561.123.2265.079.1284.149.2411.105.3444-.518-.0725-.649-.1893-.814-.3371-.148-.1324-.323-.2897-.831-.4625.251.2969.068.5023-.206.4793.069-.1598-.182-.4566-.342-.5251.373.7589.021.8122-.344.8676-.314.0476-.639.097-.519.6009-.052-.0975-.219-.2337-.411-.3893-.371-.302-.832-.677-.709-.9828-.753-.313-1.587-.3819-2.449-.4531-.775-.0639-1.572-.1297-2.353-.3761.014.0359.103.0945.203.16.216.1428.483.3184.139.3652-1.128.0146-1.919-.2769-2.835-.6148-.4766-.1756-.9872-.3639-1.5967-.528-.0953.4497.4057.5191.9165.5899.4744.0657.9571.1327.9787.5064-1.7361-.3658-3.6321-.8002-5.6879-1.3031-.353.6015-.8461.4411-1.4131.2567-.5733-.1865-1.2222-.3975-1.8778.1304.0919-.4337-.5019-.5938-1.1646-.5939.1586.2198-.003.3024-.1491.3771-.1272.065-.2426.1239-.1259.262-.3652-.2513-1.1878-.32-1.6905-.2517l-.9192 4.3372c.434.0914.6626.0002.8001-.3194-.0375.4428.3234.5344.707.632.3285.0834.6736.1711.7998.4871.4083.0341.777.2146 1.165.4044.3936.1925.807.3948 1.3016.4639-.3039.2888.1335.4408.5593.5887.1216.0422.2423.0841.3444.1288.0033-.0135.0134-.0248.0324-.0324.1901-.2132.435-.0204.7131.1984.2574.2027.5433.4277.84.3729.1851-.0108.2146-.1097.2418-.2005.0299-.0998.0568-.1897.2841-.1418-.1374.3196 1.1183 1.1418 1.8041.8681-.1976-.0165-.217-.1041-.2466-.2373-.0115-.0515-.0245-.11-.0499-.1737 1.1567.6896 2.4756 1.0027 3.8059 1.3185 1.2695.3012 2.5485.605 3.7085 1.2407l-.273-.6849c1.015-.2563 1.17.1652 1.334.6118.128.348.262.7113.812.7814.88.046 1.788.0805 2.696.1151.908.0345 1.816.069 2.696.1149l1.325.0005c.057-.0228.126-.0171.195-.0114.068.0058.137.0115.194-.0114.274.023.548.0459.594.1601-.092.1026-.178.1369-.277.1768-.101.0399-.215.0856-.364.2111.035-.0138.128-.0632.23-.1172.235-.124.515-.2721.228-.0653l-.458.1825-.114.0456c.572-.2281.846-.2052.846-.2052.045.1142-.069.1597-.069.1597s.046.1142.274.023c.251-.0342.474-.0569.682-.0739Zm7.975-3.4895c-1.477-.0361-2.653-.1923-3.625-.43-1.257.5018-2.628.3872-3.725.2955s-2.033-.1148-2.034.5473c-.982-.1373-1.713-.6398-2.215-1.2335.159-.0636.33.0614.472.1663.062.0454.119.0871.167.1079-.17-.4268-1.178-.6344-1.664-.7344-.034-.0071-.066-.0136-.094-.0196.178.1351.393.268.617.4062.495.3058 1.033.638 1.3 1.0784-.588-.1913-1.252-.572-1.778-.8737-.291-.1668-.54-.3096-.711-.3828l-.389.6848c-.321-.3211-.508-.2288-.683-.1423-.186.0918-.359.1771-.664-.2462l.182-.2055c-.68-.1434-.974-.4052-1.268-.6681-.269-.2401-.539-.4811-1.106-.6338l-.023.2739c-.139.008-.282-.0819-.437-.1787-.28-.1756-.597-.3736-.98-.0501l.799.3428c-.167.39-.607.5381-.95.6536-.079.0264-.152.051-.216.0765-.463-.1987-.42-.4664-.386-.674.025-.1505.044-.2694-.138-.3078-.156.1748-.212.238-.208.2969.006.0796.122.1513.253.4793-.96-.4113-2.124-1.0051-2.6717-1.713-.1144.0456-.0688.1598-.0688.1598-.4727-.1157-.8389-.3858-1.1678-.6283-.3862-.2848-.7208-.5316-1.1159-.4454l.1599.0685c-.5386.2149-1.0139-.1396-1.4005-.4279-.1002-.0747-.1944-.145-.2822-.1997.1887.0707.4217.0682.6461.0658.3489-.0037.677-.0072.7856.2649l-.4572.1825c.7469-.1015 1.3198.0936 1.8522.275.5426.1849 1.0432.3554 1.6433.1827l.093-1.0958c.366-.2106.689-.06 1.006.0876.335.156.663.3088 1.027.0273-.122.1765-.195.241-.192.3019.003.0649.093.1257.306.3144-.193.077-.407-.0046-.655-.099-.193-.0737-.407-.1552-.647-.1753l.936.6852-1.622-.4115c.407.2802.573.3687.577.4634.003.0751-.096.1541-.258.3357.521.2728.822.1702 1.108.0724.265-.0907.519-.1773.925.0425.159-.0636.181-.1861.204-.3175.026-.1517.055-.3151.3-.4129.363.2496.771.1218 1.152.0028.3-.0939.582-.1823.812-.0766-.043-.0338-.074-.0821-.068-.1539.151.0645.293.1066.42.1445.279.0829.491.1459.585.381l-.502.0683c.154-.0091.258.0653.374.148.174.1246.374.2678.813.1719.342.3039.478.7815.264.881.255-.0441.532-.2163.421-.4927.587.0224.712.2909.82.523.116.2471.212.4529.825.2765-.018-.0435-.052-.0805-.081-.112-.047-.0511-.081-.088-.011-.1162.16.0132.319.0265.456.0488-.194-.0898-.142-.233-.094-.3638.065-.1796.122-.3363-.475-.3015.19-.3106.483-.2455.785-.1784.209.0463.422.0936.609.0191.336.2552.252.4944.178.7086-.052.15-.1.2877.003.4101.024-.2739.298-.2511.572-.2281l-.366.4107c.272.0228.431.0904.745.225l-.471-.202c.178.0149.386-.0378.615-.096.476-.121 1.046-.2658 1.647.1195-.027-.0326-.057-.066-.087-.0998-.242-.2742-.507-.5749.042-.6763.563.2413.584.1522.62-.0088.025-.1133.059-.262.295-.3563.382.1243.432.2883.478.4388.065.2095.121.3928 1.052.4064.16.0686-.024.274-.252.3652.481-.0103.862.0751 1.229.1575.298.067.588.132.917.1425-.08.0621-.038.1774.229.34-.113-.2843.242-.2941.637-.3051.24-.0067.494-.0137.666-.0826l.092.2283c.271-.1083.127-.2166-.046-.3478-.046-.0345-.094-.0707-.137-.1088.046.1141-.069.1598-.228.0913-.48-.2057-.136-1.0045.686-.9359.8.3428.479.8677.296 1.0731.274.0229.434.0915.594.1601l.137.3424c.026.0668.039.1279.05.1784.026.122.039.183.201.1185.028.0705.152.0016.324-.0937.106-.0589.23-.1278.361-.1801.343-.1368.96-.2508 1.234-.2279-.247.1609-.484.2007-.692.2357-.234.0394-.431.0726-.565.2662.412-.2967.8-.3194.96-.2509-.046.1066-.193.2537-.34.4007-.074.0735-.148.1471-.209.2156-.034.022-.067.0431-.099.0635Zm-26.2228-4.1715c.0225.0717-.033.1636-.2477.287-.0227-.0009-.0449-.0022-.0663-.0038.0379-.0362.0798-.0709.1223-.1061.0664-.0551.1345-.1117.1917-.1771Zm-.3765.277c-.1378-.0168-.2461-.0513-.3328-.0984l.0014.0001c.1594.0218.2888.0395.3314.0983Zm-6.6335-.9967c.009-.0208.0047-.0409-.0086-.0609-.0024.0334.0086.0609.0086.0609Z" clip-rule="evenodd"/>
</svg>
