<svg width="265" height="304" viewBox="0 0 265 304" fill="none" xmlns="http://www.w3.org/2000/svg">
<g filter="url(#filter0_i_310_45)">
<ellipse cx="132.264" cy="169.261" rx="132.264" ry="134.261" fill="#9757D7"/>
</g>
<g filter="url(#filter1_i_310_45)">
<ellipse cx="131.418" cy="168.478" rx="97.1185" ry="98.759" fill="#9757D7"/>
</g>
<g filter="url(#filter2_i_310_45)">
<ellipse cx="130.995" cy="167.832" rx="67.0731" ry="68.4213" fill="#9757D7"/>
</g>
<g opacity="0.997328">
<ellipse cx="22.6183" cy="131.797" rx="17.6183" ry="17.7968" fill="url(#paint0_linear_310_45)"/>
<path fill-rule="evenodd" clip-rule="evenodd" d="M22.6625 126.337C21.1055 126.337 20.846 126.337 20.2622 126.403C19.6134 126.403 19.2242 126.534 18.8349 126.665C18.4457 126.796 18.1213 126.993 17.797 127.32C17.4726 127.648 17.278 127.976 17.1482 128.369C16.9536 128.762 16.8887 129.155 16.8887 129.811C16.8239 130.4 16.8239 130.662 16.8239 132.235C16.8239 133.808 16.8239 134.07 16.8887 134.66C16.8887 135.315 17.0185 135.708 17.1482 136.102C17.278 136.495 17.4726 136.822 17.797 137.15C18.1213 137.478 18.4457 137.674 18.8349 137.805C19.2242 137.936 19.6134 138.067 20.2622 138.067C20.846 138.133 21.1055 138.133 22.6625 138.133C24.2195 138.133 24.479 138.133 25.0628 138.067C25.7116 138.067 26.1008 137.936 26.49 137.805C26.8793 137.674 27.2037 137.478 27.528 137.15C27.8524 136.822 28.047 136.495 28.1768 136.102C28.3065 135.708 28.4363 135.315 28.4363 134.66C28.4363 134.005 28.5011 133.808 28.5011 132.235C28.5011 130.662 28.5011 130.4 28.4363 129.811C28.4363 129.155 28.3065 128.762 28.1768 128.369C28.047 127.976 27.8524 127.648 27.528 127.32C27.2037 126.993 26.8793 126.796 26.49 126.665C26.1008 126.534 25.7116 126.403 25.0628 126.403C24.479 126.337 24.2195 126.337 22.6625 126.337ZM22.6625 129.221C20.9758 129.221 19.6783 130.531 19.6783 132.235C19.6783 133.939 21.0406 135.25 22.6625 135.25C24.3492 135.25 25.6467 133.873 25.6467 132.235C25.6467 130.597 24.3492 129.221 22.6625 129.221ZM25.7764 128.369C25.3872 128.369 25.0628 128.697 25.0628 129.09C25.0628 129.483 25.3872 129.811 25.7764 129.811C26.1657 129.811 26.49 129.483 26.49 129.09C26.49 128.697 26.1657 128.369 25.7764 128.369Z" fill="white"/>
</g>
<g opacity="0.997328">
<ellipse cx="232.964" cy="116.797" rx="17.9637" ry="17.7968" fill="url(#paint1_linear_310_45)"/>
<path d="M227.96 122.28C228.078 121.845 228.19 121.431 228.302 121.017C228.439 120.512 228.577 120.008 228.709 119.502C228.722 119.449 228.715 119.377 228.689 119.329C227.565 117.239 227.831 114.748 229.394 112.965C230.346 111.88 231.55 111.257 232.983 111.127C235.403 110.909 237.593 112.243 238.55 114.495C239.463 116.644 238.873 119.25 237.128 120.787C236.051 121.735 234.799 122.206 233.371 122.184C232.513 122.171 231.702 121.954 230.94 121.553C230.895 121.53 230.828 121.527 230.778 121.54C229.879 121.774 228.981 122.013 228.083 122.25C228.05 122.259 228.017 122.266 227.96 122.28ZM229.276 120.967C229.816 120.823 230.332 120.689 230.846 120.547C230.955 120.517 231.039 120.529 231.137 120.587C232.219 121.234 233.377 121.414 234.597 121.111C236.91 120.535 238.385 118.224 237.982 115.851C237.583 113.505 235.378 111.691 232.787 112.091C231.745 112.252 230.858 112.732 230.147 113.518C229.205 114.56 228.816 115.794 228.965 117.195C229.04 117.908 229.287 118.565 229.676 119.165C229.722 119.237 229.732 119.3 229.707 119.381C229.654 119.551 229.611 119.724 229.565 119.896C229.471 120.247 229.376 120.597 229.276 120.967Z" fill="white"/>
<path d="M233.697 111.147C236.602 111.147 238.957 113.629 238.957 116.692C238.957 119.754 236.602 122.236 233.697 122.236C232.151 122.236 230.597 120.868 228.942 121.17C229.042 120.566 228.436 118.125 228.436 116.692C228.436 113.629 230.791 111.147 233.697 111.147Z" fill="white"/>
<path d="M231.736 114.085C231.957 114.026 232.067 114.178 232.15 114.393C232.272 114.715 232.407 115.032 232.542 115.349C232.589 115.46 232.588 115.558 232.517 115.655C232.406 115.803 232.3 115.956 232.183 116.1C232.109 116.192 232.106 116.275 232.165 116.375C232.611 117.135 233.235 117.686 234.05 118.014C234.161 118.058 234.25 118.042 234.326 117.947C234.463 117.774 234.606 117.606 234.737 117.429C234.813 117.327 234.901 117.286 235.014 117.339C235.407 117.524 235.798 117.713 236.186 117.907C236.227 117.928 236.265 117.998 236.267 118.046C236.278 118.457 236.16 118.803 235.795 119.042C235.348 119.334 234.88 119.364 234.382 119.224C233.133 118.872 232.184 118.101 231.423 117.066C231.149 116.695 230.887 116.316 230.769 115.86C230.627 115.306 230.71 114.799 231.09 114.357C231.298 114.114 231.375 114.079 231.736 114.085Z" fill="#32D431"/>
</g>
<g opacity="0.997328">
<ellipse cx="64.9637" cy="37.7968" rx="17.9637" ry="17.7968" fill="url(#paint2_linear_310_45)"/>
<ellipse opacity="0.01" cx="65.4989" cy="38.3931" rx="7.09821" ry="7.17015" fill="white"/>
<ellipse cx="65.0363" cy="37.9432" rx="5.7673" ry="5.82575" fill="white"/>
<path d="M67.9458 35.9096C67.9104 36.0783 67.8732 36.2465 67.8398 36.4155C67.6182 37.5412 67.3973 38.6671 67.1763 39.793C67.0764 40.3019 66.9757 40.8106 66.8775 41.3198C66.8235 41.5998 66.4904 41.7333 66.2663 41.5604C65.4528 40.9326 64.6402 40.3035 63.8273 39.6748C63.8169 39.6668 63.8074 39.6575 63.792 39.6438C63.8444 39.596 63.8945 39.5498 63.9449 39.5041C64.9045 38.6313 65.8644 37.7589 66.8232 36.8852C66.8639 36.8481 66.9019 36.8047 66.9296 36.7572C66.9644 36.6976 66.9325 36.6507 66.8638 36.6649C66.8025 36.6776 66.7405 36.7038 66.6873 36.7376C66.2241 37.0319 65.7628 37.3294 65.3008 37.6257C64.5065 38.1355 63.7119 38.6447 62.9185 39.1559C62.8721 39.1857 62.834 39.189 62.7833 39.1715C62.3226 39.0129 61.8611 38.8569 61.3998 38.7002C61.2683 38.6555 61.1613 38.5819 61.1063 38.4468V38.3523C61.1635 38.2428 61.2597 38.1821 61.3694 38.1388C63.3304 37.3617 65.2912 36.5841 67.2526 35.8081C67.3805 35.7572 67.5102 35.7079 67.6431 35.6744C67.8024 35.6343 67.8852 35.68 67.9458 35.8153V35.9096Z" fill="#24B4E9"/>
</g>
<g opacity="0.997328">
<ellipse cx="198.618" cy="17.7968" rx="17.6183" ry="17.7968" fill="url(#paint3_linear_310_45)"/>
<path d="M199.271 22.1225C195.281 22.1225 193.006 19.3596 192.911 14.7622H194.909C194.975 18.1366 196.448 19.5659 197.615 19.8606V14.7622H199.497V17.6724C200.649 17.5472 201.86 16.221 202.269 14.7622H204.15C203.837 16.5599 202.524 17.8861 201.59 18.4313C202.524 18.8734 204.019 20.0301 204.588 22.1225H202.517C202.072 20.7227 200.963 19.6396 199.497 19.4922V22.1225H199.271Z" fill="white"/>
</g>
<defs>
<filter id="filter0_i_310_45" x="0" y="35" width="264.528" height="271.521" filterUnits="userSpaceOnUse" color-interpolation-filters="sRGB">
<feFlood flood-opacity="0" result="BackgroundImageFix"/>
<feBlend mode="normal" in="SourceGraphic" in2="BackgroundImageFix" result="shape"/>
<feColorMatrix in="SourceAlpha" type="matrix" values="0 0 0 0 0 0 0 0 0 0 0 0 0 0 0 0 0 0 127 0" result="hardAlpha"/>
<feOffset dy="3"/>
<feGaussianBlur stdDeviation="3"/>
<feComposite in2="hardAlpha" operator="arithmetic" k2="-1" k3="1"/>
<feColorMatrix type="matrix" values="0 0 0 0 0.541176 0 0 0 0 0.309804 0 0 0 0 0.768627 0 0 0 1 0"/>
<feBlend mode="normal" in2="shape" result="effect1_innerShadow_310_45"/>
</filter>
<filter id="filter1_i_310_45" x="34.2996" y="69.7188" width="194.237" height="200.518" filterUnits="userSpaceOnUse" color-interpolation-filters="sRGB">
<feFlood flood-opacity="0" result="BackgroundImageFix"/>
<feBlend mode="normal" in="SourceGraphic" in2="BackgroundImageFix" result="shape"/>
<feColorMatrix in="SourceAlpha" type="matrix" values="0 0 0 0 0 0 0 0 0 0 0 0 0 0 0 0 0 0 127 0" result="hardAlpha"/>
<feOffset dy="3"/>
<feGaussianBlur stdDeviation="3"/>
<feComposite in2="hardAlpha" operator="arithmetic" k2="-1" k3="1"/>
<feColorMatrix type="matrix" values="0 0 0 0 0.541176 0 0 0 0 0.309804 0 0 0 0 0.768627 0 0 0 1 0"/>
<feBlend mode="normal" in2="shape" result="effect1_innerShadow_310_45"/>
</filter>
<filter id="filter2_i_310_45" x="63.9219" y="99.4109" width="134.146" height="139.843" filterUnits="userSpaceOnUse" color-interpolation-filters="sRGB">
<feFlood flood-opacity="0" result="BackgroundImageFix"/>
<feBlend mode="normal" in="SourceGraphic" in2="BackgroundImageFix" result="shape"/>
<feColorMatrix in="SourceAlpha" type="matrix" values="0 0 0 0 0 0 0 0 0 0 0 0 0 0 0 0 0 0 127 0" result="hardAlpha"/>
<feOffset dy="3"/>
<feGaussianBlur stdDeviation="3"/>
<feComposite in2="hardAlpha" operator="arithmetic" k2="-1" k3="1"/>
<feColorMatrix type="matrix" values="0 0 0 0 0.541176 0 0 0 0 0.309804 0 0 0 0 0.768627 0 0 0 1 0"/>
<feBlend mode="normal" in2="shape" result="effect1_innerShadow_310_45"/>
</filter>
<linearGradient id="paint0_linear_310_45" x1="13.8091" y1="122.898" x2="13.8091" y2="122.898" gradientUnits="userSpaceOnUse">
<stop stop-color="#C8319C"/>
<stop offset="1" stop-color="#A0267C"/>
</linearGradient>
<linearGradient id="paint1_linear_310_45" x1="223.982" y1="107.898" x2="223.982" y2="107.898" gradientUnits="userSpaceOnUse">
<stop stop-color="#32D431"/>
<stop offset="1" stop-color="#28A028"/>
</linearGradient>
<linearGradient id="paint2_linear_310_45" x1="55.9819" y1="28.8984" x2="55.9819" y2="28.8984" gradientUnits="userSpaceOnUse">
<stop stop-color="#24B4E9"/>
<stop offset="1" stop-color="#1A7B9F"/>
</linearGradient>
<linearGradient id="paint3_linear_310_45" x1="189.809" y1="8.89841" x2="189.809" y2="8.89841" gradientUnits="userSpaceOnUse">
<stop stop-color="#6535E5"/>
<stop offset="1" stop-color="#4F2BB1"/>
</linearGradient>
</defs>
</svg>
