<svg width="551" height="219" viewBox="0 0 551 219" fill="none" xmlns="http://www.w3.org/2000/svg">
<path d="M2 218.5V136.5C2 125.5 11 116.5 22 116.5H146H148L255.002 116.286C266.002 116.286 275.002 107.286 275.002 96.2861V14.2861" stroke="#7252DC" stroke-width="4"/>
<path d="M548.004 218.5V136.5C548.004 125.5 539.004 116.5 528.004 116.5H404.004H402.004L295.002 116.286C284.002 116.286 275.002 107.286 275.002 96.2861V14.2861" stroke="#7252DC" stroke-width="4"/>
<g opacity="0.997328">
<ellipse cx="220.5" cy="30" rx="18.5" ry="19" fill="#613DC1"/>
<path d="M217.288 37.4481V35.4511C217.08 35.4252 216.882 35.3984 216.684 35.3758C215.158 35.2018 213.976 33.9158 213.893 32.3812C213.828 31.1606 213.774 29.9407 213.823 28.7191C213.849 28.0726 213.86 27.4201 213.957 26.7825C214.155 25.4916 215.249 24.4174 216.543 24.237C217.334 24.1266 218.136 24.0742 218.934 24.0247C219.949 23.9617 220.966 23.9768 221.979 24.0529C222.668 24.1047 223.364 24.1463 224.036 24.2898C225.404 24.5814 226.38 25.8092 226.465 27.2012C226.541 28.4523 226.587 29.7029 226.534 30.9551C226.508 31.5841 226.494 32.2185 226.398 32.8387C226.193 34.1563 225.021 35.2246 223.7 35.3758C222.694 35.491 221.687 35.5711 220.675 35.5862C220.629 35.5868 220.577 35.5951 220.538 35.6171C219.474 36.2142 218.411 36.8135 217.348 37.413C217.335 37.4207 217.326 37.4362 217.315 37.4481H217.288Z" fill="white"/>
<path d="M216.125 28.552C216.093 28.1317 216.176 27.6941 216.472 27.3227C216.613 27.1457 216.773 26.9794 216.946 26.8325C217.317 26.517 217.896 26.5403 218.256 26.8805C218.523 27.1331 218.783 27.3935 219.036 27.6606C219.405 28.051 219.404 28.618 219.044 29.017C219.015 29.0494 218.983 29.0797 218.953 29.1117C218.659 29.4237 218.654 29.8645 218.948 30.177C219.113 30.3525 219.287 30.5198 219.458 30.6892C219.796 31.0239 220.266 31.0283 220.606 30.6949C220.909 30.3964 221.266 30.3027 221.665 30.4375C221.809 30.4861 221.947 30.5807 222.06 30.6843C222.306 30.9087 222.535 31.1506 222.767 31.3888C223.187 31.8188 223.183 32.3955 222.773 32.8334C222.429 33.2007 222.049 33.51 221.529 33.5448C221.172 33.5687 220.807 33.5697 220.455 33.5204C218.724 33.2795 217.449 32.3723 216.64 30.8247C216.278 30.1304 216.117 29.3809 216.125 28.552Z" fill="#613DC1"/>
<path d="M220.187 26.3091V25.7314C221.238 25.7472 222.179 26.0308 222.928 26.7922C223.662 27.5381 223.939 28.4633 223.95 29.5035H223.517H223.374C223.359 28.618 223.121 27.8245 222.488 27.1921C221.858 26.5619 221.067 26.3278 220.187 26.3091Z" fill="#613DC1"/>
<path d="M220.187 26.9035C221.885 26.8597 222.83 28.0692 222.776 29.5026C222.608 29.5026 222.439 29.5065 222.27 29.4978C222.248 29.4966 222.217 29.4338 222.209 29.3958C222.157 29.1313 222.143 28.8535 222.054 28.6027C221.827 27.967 221.337 27.6329 220.688 27.5173C220.525 27.4882 220.358 27.4792 220.187 27.4603V26.9035Z" fill="#613DC1"/>
<path d="M221.616 29.4944H221.055C221.039 29.2504 221.036 29.0089 220.853 28.8266C220.671 28.6442 220.427 28.6482 220.188 28.6278V28.0738C221.104 27.9982 221.67 28.6015 221.616 29.4944Z" fill="#613DC1"/>
</g>
<g opacity="0.997328">
<circle cx="244" cy="30" r="24" fill="#C8319C"/>
<path fill-rule="evenodd" clip-rule="evenodd" d="M244.125 21.1963C241.761 21.1963 241.367 21.1963 240.481 21.2948C239.496 21.2948 238.905 21.4917 238.315 21.6887C237.724 21.8856 237.231 22.1811 236.739 22.6735C236.246 23.1658 235.951 23.6582 235.754 24.2491C235.459 24.84 235.36 25.4308 235.36 26.4156C235.262 27.3019 235.262 27.6958 235.262 30.0593C235.262 32.4227 235.262 32.8167 235.36 33.703C235.36 34.6877 235.557 35.2786 235.754 35.8695C235.951 36.4603 236.246 36.9527 236.739 37.4451C237.231 37.9375 237.724 38.2329 238.315 38.4299C238.905 38.6268 239.496 38.8238 240.481 38.8238C241.367 38.9223 241.761 38.9223 244.125 38.9223C246.488 38.9223 246.882 38.9223 247.768 38.8238C248.753 38.8238 249.344 38.6268 249.935 38.4299C250.526 38.2329 251.018 37.9375 251.511 37.4451C252.003 36.9527 252.298 36.4603 252.495 35.8695C252.692 35.2786 252.889 34.6877 252.889 33.703C252.889 32.7182 252.988 32.4227 252.988 30.0593C252.988 27.6958 252.988 27.3019 252.889 26.4156C252.889 25.4308 252.692 24.84 252.495 24.2491C252.298 23.6582 252.003 23.1658 251.511 22.6735C251.018 22.1811 250.526 21.8856 249.935 21.6887C249.344 21.4917 248.753 21.2948 247.768 21.2948C246.882 21.1963 246.488 21.1963 244.125 21.1963ZM244.125 25.5293C241.564 25.5293 239.595 27.4989 239.595 30.0593C239.595 32.6197 241.663 34.5893 244.125 34.5893C246.685 34.5893 248.655 32.5212 248.655 30.0593C248.655 27.5973 246.685 25.5293 244.125 25.5293ZM248.852 24.2491C248.261 24.2491 247.768 24.7415 247.768 25.3324C247.768 25.9232 248.261 26.4156 248.852 26.4156C249.443 26.4156 249.935 25.9232 249.935 25.3324C249.935 24.7415 249.443 24.2491 248.852 24.2491Z" fill="white"/>
</g>
<g opacity="0.997328">
<ellipse cx="330.5" cy="30" rx="18.5" ry="19" fill="#6535E5"/>
<path d="M331.041 34.4649C326.626 34.4649 324.107 31.4377 324.002 26.4004H326.214C326.286 30.0976 327.917 31.6637 329.209 31.9866V26.4004H331.292V29.5891C332.567 29.4518 333.907 27.9988 334.359 26.4004H336.442C336.095 28.3701 334.642 29.8232 333.608 30.4205C334.642 30.9049 336.297 32.1723 336.926 34.4649H334.633C334.141 32.9311 332.914 31.7445 331.292 31.583V34.4649H331.041Z" fill="white"/>
</g>
<g opacity="0.997328">
<circle opacity="0.01" cx="302.373" cy="30.3972" r="10.992" fill="white"/>
<circle cx="303" cy="30" r="24" fill="#24B4E9"/>
<circle cx="302.373" cy="30.4065" r="8.99342" fill="white"/>
<path d="M306.425 26.4982C306.372 26.7515 306.315 27.0044 306.264 27.2582C305.928 28.9498 305.593 30.642 305.257 32.3339C305.106 33.0984 304.953 33.863 304.804 34.6283C304.722 35.049 304.216 35.2498 303.876 34.9899C302.641 34.0465 301.407 33.101 300.173 32.1563C300.158 32.144 300.143 32.1301 300.12 32.1096C300.199 32.0377 300.275 31.9684 300.352 31.8995C301.809 30.5881 303.266 29.2771 304.721 27.9641C304.783 27.9083 304.841 27.843 304.883 27.7717C304.936 27.6821 304.887 27.6117 304.783 27.6332C304.69 27.6522 304.596 27.6917 304.515 27.7424C303.812 28.1847 303.112 28.6316 302.41 29.077C301.205 29.843 299.998 30.6082 298.794 31.3763C298.724 31.4214 298.666 31.4261 298.589 31.4C297.889 31.1616 297.189 30.9271 296.489 30.6915C296.289 30.6244 296.126 30.5139 296.043 30.3108V30.1689C296.13 30.0043 296.276 29.9131 296.442 29.848C299.419 28.6799 302.396 27.5116 305.373 26.3455C305.567 26.269 305.764 26.1951 305.966 26.1447C306.208 26.0842 306.333 26.1531 306.425 26.3562V26.4982Z" fill="#24B4E9"/>
</g>
<g opacity="0.997328">
<ellipse cx="273.5" cy="30" rx="29.5" ry="30" fill="#32D431"/>
<path d="M264.779 38.8876C264.958 38.2347 265.129 37.6124 265.299 36.9901C265.506 36.2318 265.716 35.4738 265.916 34.7135C265.937 34.634 265.925 34.5257 265.886 34.4541C264.18 31.3129 264.583 27.569 266.957 24.8906C268.402 23.2592 270.23 22.3226 272.404 22.1286C276.078 21.801 279.402 23.8052 280.855 27.1889C282.241 30.418 281.345 34.3355 278.696 36.6442C277.061 38.0688 275.161 38.7775 272.993 38.744C271.69 38.7238 270.46 38.3979 269.303 37.796C269.235 37.7606 269.133 37.7558 269.057 37.7753C267.693 38.1279 266.33 38.4863 264.967 38.8431C264.916 38.8563 264.866 38.867 264.779 38.8876ZM266.778 36.9151C267.597 36.6993 268.381 36.4974 269.161 36.2836C269.325 36.2388 269.454 36.2572 269.602 36.3442C271.245 37.3157 273.003 37.5867 274.854 37.1307C278.366 36.2662 280.605 32.7923 279.993 29.2268C279.387 25.7011 276.039 22.9748 272.107 23.5769C270.526 23.8189 269.179 24.5399 268.099 25.721C266.669 27.2863 266.079 29.1407 266.304 31.2462C266.42 32.3181 266.793 33.3054 267.384 34.2077C267.454 34.3157 267.469 34.4099 267.431 34.5319C267.351 34.7875 267.286 35.0477 267.216 35.3062C267.073 35.8322 266.929 36.3585 266.778 36.9151Z" fill="white"/>
<path d="M273.488 22.1582C277.898 22.1582 281.473 25.8887 281.473 30.4906C281.473 35.0924 277.898 38.823 273.488 38.823C271.142 38.823 268.784 36.7664 266.271 37.2206C266.422 36.3123 265.503 32.6443 265.503 30.4906C265.503 25.8887 269.078 22.1582 273.488 22.1582Z" fill="white"/>
<path d="M270.511 26.5731C270.847 26.4856 271.014 26.713 271.139 27.0368C271.325 27.5202 271.529 27.9971 271.734 28.4727C271.806 28.6395 271.805 28.7876 271.696 28.9326C271.528 29.1563 271.366 29.3848 271.19 29.6014C271.076 29.7401 271.072 29.8645 271.161 30.0151C271.84 31.1571 272.787 31.9846 274.023 32.4775C274.192 32.5449 274.328 32.5203 274.443 32.3773C274.65 32.1178 274.867 31.8654 275.066 31.5994C275.182 31.4449 275.316 31.3836 275.488 31.4638C276.083 31.7423 276.677 32.025 277.266 32.3176C277.328 32.3485 277.386 32.4539 277.388 32.5262C277.406 33.1445 277.227 33.6635 276.672 34.0224C275.994 34.4609 275.284 34.5062 274.528 34.2957C272.631 33.7675 271.191 32.6086 270.035 31.0539C269.62 30.4954 269.222 29.9268 269.043 29.2409C268.827 28.4093 268.954 27.6463 269.53 26.9825C269.846 26.6181 269.963 26.5655 270.511 26.5731Z" fill="#32D431"/>
</g>
</svg>
