<svg width="1207" height="358" viewBox="0 0 1207 358" fill="none" xmlns="http://www.w3.org/2000/svg">
<path d="M602 19C602 19 568.794 104.367 296.31 143.292C23.8257 182.218 27.8774 346 27.8774 346" stroke="#4913A6" stroke-linecap="round" stroke-linejoin="round" stroke-dasharray="0 5"/>
<path d="M602 19C602 19 635.382 104.367 909.315 143.292C1183.25 182.218 1179.17 346 1179.17 346" stroke="#4913A6" stroke-linecap="round" stroke-linejoin="round" stroke-dasharray="0 5"/>
<path d="M601.987 19C601.987 19 606.469 86.4631 449.516 145.152C292.563 203.84 316.204 346 316.204 346" stroke="#4913A6" stroke-linecap="round" stroke-linejoin="round" stroke-dasharray="0 5"/>
<path d="M602.013 19C602.013 19 597.508 86.4631 755.286 145.152C913.063 203.84 889.297 346 889.297 346" stroke="#4913A6" stroke-linecap="round" stroke-linejoin="round" stroke-dasharray="0 5"/>
<path d="M601.613 19V346" stroke="#4913A6" stroke-linecap="round" stroke-dasharray="0 5"/>
<circle cx="602.5" cy="26.5" r="26.5" fill="#7252DC"/>
<path fill-rule="evenodd" clip-rule="evenodd" d="M606.652 13.5963C606.652 14.4601 605.942 15.1604 605.065 15.1604C604.343 15.1604 603.733 14.6838 603.541 14.0321H600.965C600.822 14.2409 600.58 14.3783 600.306 14.3783C600.032 14.3783 599.79 14.2409 599.647 14.0321H594.668C594.493 14.4642 594.064 14.7693 593.563 14.7693C592.906 14.7693 592.374 14.2442 592.374 13.5963C592.374 12.9484 592.906 12.4232 593.563 12.4232C594.098 12.4232 594.551 12.7712 594.701 13.25H599.594C599.724 12.9918 599.994 12.8143 600.306 12.8143C600.618 12.8143 600.888 12.9918 601.017 13.25H603.518C603.678 12.5529 604.31 12.0322 605.065 12.0322C605.942 12.0322 606.652 12.7325 606.652 13.5963ZM593.167 35.8843C593.46 35.8843 593.717 35.7269 593.854 35.4932H596.39C596.566 36.1678 597.187 36.6662 597.926 36.6662C598.665 36.6662 599.287 36.1678 599.463 35.4932H606.758C606.895 35.7269 607.152 35.8843 607.445 35.8843C607.739 35.8843 607.995 35.7269 608.132 35.4932H610.668C610.844 36.1678 611.465 36.6662 612.205 36.6662C613.081 36.6662 613.791 35.966 613.791 35.1022C613.791 34.2384 613.081 33.5382 612.205 33.5382C611.465 33.5382 610.844 34.0366 610.668 34.7112H608.132C607.995 34.4775 607.739 34.3201 607.445 34.3201C607.152 34.3201 606.895 34.4775 606.758 34.7112H599.463C599.287 34.0366 598.665 33.5382 597.926 33.5382C597.187 33.5382 596.566 34.0366 596.39 34.7112H593.854C593.717 34.4775 593.46 34.3201 593.167 34.3201C592.729 34.3201 592.374 34.6703 592.374 35.1022C592.374 35.5341 592.729 35.8843 593.167 35.8843ZM595.875 18.2885C595.712 18.7441 595.271 19.0705 594.753 19.0705C594.096 19.0705 593.563 18.5453 593.563 17.8975C593.563 17.2496 594.096 16.7244 594.753 16.7244C595.271 16.7244 595.712 17.0509 595.875 17.5065H598.429C598.566 17.2727 598.823 17.1154 599.116 17.1154C599.41 17.1154 599.666 17.2727 599.803 17.5065H601.999C602.136 17.2727 602.392 17.1154 602.686 17.1154C602.979 17.1154 603.236 17.2727 603.373 17.5065H607.099C607.275 16.8319 607.896 16.3334 608.635 16.3334C609.511 16.3334 610.222 17.0337 610.222 17.8975C610.222 18.7613 609.511 19.4615 608.635 19.4615C607.896 19.4615 607.275 18.9631 607.099 18.2885H603.373C603.236 18.5222 602.979 18.6795 602.686 18.6795C602.392 18.6795 602.136 18.5222 601.999 18.2885H599.803C599.666 18.5222 599.41 18.6795 599.116 18.6795C598.823 18.6795 598.566 18.5222 598.429 18.2885H595.875ZM604.166 22.5896H605.926C606.09 23.0452 606.53 23.3717 607.049 23.3717C607.706 23.3717 608.238 22.8465 608.238 22.1987C608.238 21.5508 607.706 21.0256 607.049 21.0256C606.53 21.0256 606.09 21.352 605.926 21.8076H604.166C604.029 21.5739 603.773 21.4166 603.479 21.4166C603.185 21.4166 602.929 21.5739 602.792 21.8076H595.497C595.32 21.133 594.699 20.6346 593.96 20.6346C593.084 20.6346 592.374 21.3348 592.374 22.1987C592.374 23.0624 593.084 23.7627 593.96 23.7627C594.699 23.7627 595.32 23.2642 595.497 22.5896H602.792C602.929 22.8234 603.185 22.9807 603.479 22.9807C603.773 22.9807 604.029 22.8234 604.166 22.5896ZM594.847 31.974C595.365 31.974 595.805 31.6477 595.969 31.192H606.399C606.575 31.8666 607.196 32.3651 607.935 32.3651C608.674 32.3651 609.296 31.8666 609.472 31.192H612.366C612.529 31.6477 612.97 31.974 613.488 31.974C614.145 31.974 614.678 31.4488 614.678 30.801C614.678 30.1531 614.145 29.6279 613.488 29.6279C612.97 29.6279 612.529 29.9544 612.366 30.41H609.472C609.296 29.7354 608.674 29.2369 607.935 29.2369C607.196 29.2369 606.575 29.7354 606.399 30.41H595.969C595.805 29.9544 595.365 29.6279 594.847 29.6279C594.189 29.6279 593.657 30.1531 593.657 30.801C593.657 31.4488 594.189 31.974 594.847 31.974ZM595.733 27.2818C596.027 27.2818 596.283 27.1246 596.42 26.8909H599.806C599.943 27.1246 600.199 27.2818 600.493 27.2818C600.786 27.2818 601.043 27.1246 601.18 26.8909H603.716C603.892 27.5655 604.513 28.0639 605.252 28.0639C605.991 28.0639 606.613 27.5655 606.789 26.8909H610.476C610.639 27.3465 611.08 27.6729 611.598 27.6729C612.255 27.6729 612.788 27.1477 612.788 26.4998C612.788 25.8519 612.255 25.3268 611.598 25.3268C611.08 25.3268 610.639 25.6532 610.476 26.1088H606.789C606.613 25.4342 605.991 24.9357 605.252 24.9357C604.513 24.9357 603.892 25.4342 603.716 26.1088H601.18C601.043 25.875 600.786 25.7178 600.493 25.7178C600.199 25.7178 599.943 25.875 599.806 26.1088H596.42C596.283 25.875 596.027 25.7178 595.733 25.7178C595.295 25.7178 594.94 26.0679 594.94 26.4998C594.94 26.9317 595.295 27.2818 595.733 27.2818ZM593.854 38.6213H596.408C596.571 38.1657 597.012 37.8393 597.53 37.8393C598.048 37.8393 598.488 38.1657 598.652 38.6213H601.139C601.323 37.729 602.123 37.0573 603.082 37.0573C604.042 37.0573 604.842 37.729 605.026 38.6213H607.91C608.073 38.1657 608.514 37.8393 609.032 37.8393C609.689 37.8393 610.222 38.3645 610.222 39.0124C610.222 39.6602 609.689 40.1854 609.032 40.1854C608.514 40.1854 608.073 39.859 607.91 39.4034H605.026C604.842 40.2958 604.042 40.9674 603.082 40.9674C602.123 40.9674 601.323 40.2958 601.139 39.4034H598.652C598.488 39.859 598.048 40.1854 597.53 40.1854C597.012 40.1854 596.571 39.859 596.408 39.4034H593.854C593.717 39.6371 593.46 39.7944 593.167 39.7944C592.729 39.7944 592.374 39.4442 592.374 39.0124C592.374 38.5805 592.729 38.2303 593.167 38.2303C593.46 38.2303 593.717 38.3876 593.854 38.6213Z" fill="white"/>
<g filter="url(#filter0_d_515_25)">
<circle cx="315.5" cy="325.5" r="26.5" fill="#32D431"/>
</g>
<path d="M306.993 334.303C307.172 333.65 307.343 333.027 307.513 332.404C307.72 331.645 307.93 330.887 308.13 330.126C308.151 330.047 308.14 329.938 308.1 329.866C306.392 326.723 306.797 322.976 309.172 320.296C310.618 318.663 312.447 317.726 314.623 317.532C318.3 317.204 321.626 319.21 323.08 322.596C324.467 325.827 323.571 329.748 320.92 332.058C319.284 333.484 317.382 334.193 315.213 334.16C313.909 334.139 312.678 333.813 311.519 333.211C311.451 333.175 311.35 333.171 311.274 333.19C309.908 333.543 308.544 333.902 307.18 334.259C307.13 334.272 307.079 334.283 306.993 334.303ZM308.993 332.329C309.813 332.113 310.597 331.911 311.378 331.697C311.542 331.652 311.671 331.671 311.819 331.758C313.463 332.73 315.222 333.001 317.075 332.545C320.589 331.68 322.83 328.203 322.217 324.635C321.611 321.107 318.261 318.379 314.325 318.981C312.743 319.223 311.395 319.945 310.315 321.127C308.884 322.693 308.293 324.549 308.519 326.656C308.634 327.729 309.008 328.717 309.599 329.62C309.67 329.728 309.684 329.822 309.646 329.944C309.567 330.2 309.502 330.46 309.431 330.719C309.288 331.246 309.144 331.772 308.993 332.329Z" fill="white"/>
<path d="M315.708 317.562C320.121 317.562 323.699 321.295 323.699 325.9C323.699 330.505 320.121 334.238 315.708 334.238C313.36 334.238 311 332.18 308.485 332.635C308.637 331.726 307.717 328.055 307.717 325.9C307.717 321.295 311.295 317.562 315.708 317.562Z" fill="white"/>
<path d="M312.729 321.979C313.065 321.892 313.232 322.119 313.357 322.443C313.544 322.927 313.748 323.405 313.953 323.88C314.025 324.047 314.024 324.195 313.915 324.341C313.747 324.564 313.585 324.793 313.408 325.01C313.295 325.149 313.29 325.273 313.38 325.424C314.059 326.567 315.006 327.395 316.244 327.888C316.413 327.956 316.549 327.931 316.663 327.788C316.871 327.528 317.088 327.276 317.287 327.009C317.403 326.855 317.537 326.793 317.709 326.874C318.305 327.152 318.9 327.435 319.489 327.728C319.551 327.759 319.609 327.864 319.611 327.937C319.628 328.556 319.45 329.075 318.894 329.434C318.216 329.873 317.505 329.918 316.749 329.708C314.851 329.179 313.41 328.019 312.253 326.463C311.837 325.905 311.439 325.336 311.26 324.649C311.044 323.817 311.171 323.053 311.747 322.389C312.064 322.024 312.18 321.972 312.729 321.979Z" fill="#32D431"/>
<g filter="url(#filter1_d_515_25)">
<ellipse cx="602" cy="325.5" rx="26" ry="26.5" fill="#24B4E9"/>
</g>
<circle opacity="0.01" cx="602" cy="326" r="11" fill="white"/>
<circle cx="602" cy="326" r="9" fill="white"/>
<path d="M606.055 322.089C606.001 322.342 605.945 322.595 605.894 322.849C605.557 324.542 605.222 326.236 604.886 327.929C604.734 328.694 604.581 329.459 604.432 330.225C604.35 330.646 603.844 330.847 603.504 330.587C602.268 329.643 601.033 328.696 599.799 327.751C599.783 327.739 599.768 327.725 599.745 327.704C599.825 327.632 599.901 327.563 599.977 327.494C601.435 326.182 602.893 324.87 604.35 323.556C604.411 323.5 604.469 323.435 604.511 323.363C604.564 323.274 604.516 323.203 604.411 323.225C604.318 323.244 604.224 323.283 604.143 323.334C603.44 323.776 602.739 324.224 602.037 324.669C600.83 325.436 599.623 326.202 598.418 326.97C598.348 327.016 598.29 327.02 598.213 326.994C597.513 326.756 596.812 326.521 596.111 326.285C595.911 326.218 595.749 326.107 595.665 325.904V325.762C595.752 325.597 595.898 325.506 596.065 325.441C599.044 324.272 602.022 323.103 605.002 321.936C605.196 321.859 605.393 321.785 605.595 321.735C605.837 321.675 605.963 321.743 606.055 321.947V322.089Z" fill="#24B4E9"/>
<g filter="url(#filter2_d_515_25)">
<circle cx="890.5" cy="325.5" r="26.5" fill="#C8319C"/>
</g>
<path fill-rule="evenodd" clip-rule="evenodd" d="M890.162 316.725C887.797 316.725 887.403 316.725 886.516 316.824C885.53 316.824 884.939 317.021 884.348 317.218C883.756 317.415 883.263 317.711 882.771 318.203C882.278 318.696 881.982 319.189 881.785 319.78C881.49 320.371 881.391 320.963 881.391 321.948C881.292 322.835 881.292 323.229 881.292 325.595C881.292 327.96 881.292 328.354 881.391 329.241C881.391 330.226 881.588 330.818 881.785 331.409C881.982 332 882.278 332.493 882.771 332.986C883.263 333.479 883.756 333.774 884.348 333.971C884.939 334.168 885.53 334.366 886.516 334.366C887.403 334.464 887.797 334.464 890.162 334.464C892.527 334.464 892.921 334.464 893.808 334.366C894.794 334.366 895.385 334.168 895.976 333.971C896.568 333.774 897.06 333.479 897.553 332.986C898.046 332.493 898.342 332 898.539 331.409C898.736 330.818 898.933 330.226 898.933 329.241C898.933 328.255 899.031 327.96 899.031 325.595C899.031 323.229 899.031 322.835 898.933 321.948C898.933 320.963 898.736 320.371 898.539 319.78C898.342 319.189 898.046 318.696 897.553 318.203C897.06 317.711 896.568 317.415 895.976 317.218C895.385 317.021 894.794 316.824 893.808 316.824C892.921 316.725 892.527 316.725 890.162 316.725ZM890.162 321.061C887.6 321.061 885.629 323.032 885.629 325.595C885.629 328.157 887.698 330.128 890.162 330.128C892.724 330.128 894.695 328.058 894.695 325.595C894.695 323.131 892.724 321.061 890.162 321.061ZM894.892 319.78C894.301 319.78 893.808 320.273 893.808 320.864C893.808 321.455 894.301 321.948 894.892 321.948C895.484 321.948 895.976 321.455 895.976 320.864C895.976 320.273 895.484 319.78 894.892 319.78Z" fill="white"/>
<g filter="url(#filter3_d_515_25)">
<circle cx="1177.5" cy="325.5" r="26.5" fill="#613DC1"/>
</g>
<path d="M1173.22 335.982V333.205C1172.93 333.168 1172.65 333.131 1172.38 333.1C1170.26 332.858 1168.61 331.069 1168.5 328.934C1168.41 327.237 1168.33 325.54 1168.4 323.841C1168.43 322.941 1168.45 322.034 1168.59 321.147C1168.86 319.351 1170.38 317.857 1172.18 317.606C1173.28 317.453 1174.4 317.38 1175.51 317.311C1176.92 317.223 1178.33 317.244 1179.74 317.35C1180.7 317.422 1181.67 317.48 1182.61 317.68C1184.51 318.085 1185.87 319.793 1185.98 321.73C1186.09 323.47 1186.15 325.209 1186.08 326.951C1186.04 327.826 1186.02 328.708 1185.89 329.571C1185.6 331.403 1183.97 332.89 1182.14 333.1C1180.74 333.26 1179.34 333.371 1177.93 333.392C1177.87 333.393 1177.79 333.405 1177.74 333.435C1176.26 334.266 1174.78 335.099 1173.3 335.933C1173.28 335.944 1173.27 335.966 1173.26 335.982H1173.22Z" fill="white"/>
<path d="M1171.6 323.608C1171.56 323.023 1171.67 322.415 1172.08 321.898C1172.28 321.652 1172.5 321.421 1172.74 321.216C1173.26 320.777 1174.06 320.81 1174.56 321.283C1174.94 321.634 1175.3 321.997 1175.65 322.368C1176.16 322.911 1176.16 323.7 1175.66 324.255C1175.62 324.3 1175.58 324.342 1175.53 324.387C1175.13 324.821 1175.12 325.434 1175.53 325.868C1175.76 326.113 1176 326.345 1176.24 326.581C1176.71 327.047 1177.36 327.053 1177.83 326.589C1178.26 326.173 1178.75 326.043 1179.31 326.231C1179.51 326.298 1179.7 326.43 1179.86 326.574C1180.2 326.886 1180.52 327.223 1180.84 327.554C1181.42 328.152 1181.42 328.954 1180.85 329.563C1180.37 330.074 1179.84 330.504 1179.12 330.553C1178.62 330.586 1178.11 330.587 1177.62 330.519C1175.22 330.184 1173.44 328.922 1172.32 326.769C1171.81 325.803 1171.59 324.761 1171.6 323.608Z" fill="#613DC1"/>
<path d="M1177.25 320.489V319.685C1178.71 319.707 1180.02 320.101 1181.06 321.161C1182.08 322.198 1182.47 323.485 1182.49 324.932H1181.88H1181.68C1181.66 323.7 1181.33 322.596 1180.45 321.717C1179.57 320.84 1178.48 320.515 1177.25 320.489Z" fill="#613DC1"/>
<path d="M1177.25 321.315C1179.61 321.254 1180.93 322.937 1180.85 324.93C1180.62 324.93 1180.38 324.936 1180.15 324.924C1180.12 324.922 1180.07 324.835 1180.06 324.782C1179.99 324.414 1179.97 324.027 1179.85 323.679C1179.53 322.794 1178.85 322.33 1177.95 322.169C1177.72 322.128 1177.49 322.116 1177.25 322.09V321.315Z" fill="#613DC1"/>
<path d="M1179.24 324.919H1178.46C1178.44 324.579 1178.43 324.244 1178.18 323.99C1177.92 323.736 1177.58 323.742 1177.25 323.714V322.943C1178.53 322.838 1179.31 323.677 1179.24 324.919Z" fill="#613DC1"/>
<g filter="url(#filter4_d_515_25)">
<ellipse cx="29" cy="325.5" rx="26" ry="26.5" fill="#6535E5"/>
</g>
<path d="M29.8867 331.434C23.826 331.434 20.3691 327.279 20.2251 320.365H23.261C23.3607 325.44 25.5988 327.589 27.3716 328.033V320.365H30.2303V324.742C31.9809 324.553 33.82 322.559 34.4405 320.365H37.2991C36.8227 323.069 34.8283 325.063 33.4101 325.883C34.8283 326.548 37.0998 328.287 37.9641 331.434H34.8172C34.1414 329.329 32.4574 327.7 30.2303 327.479V331.434H29.8867Z" fill="white"/>
<defs>
<filter id="filter0_d_515_25" x="286" y="299" width="59" height="59" filterUnits="userSpaceOnUse" color-interpolation-filters="sRGB">
<feFlood flood-opacity="0" result="BackgroundImageFix"/>
<feColorMatrix in="SourceAlpha" type="matrix" values="0 0 0 0 0 0 0 0 0 0 0 0 0 0 0 0 0 0 127 0" result="hardAlpha"/>
<feOffset dy="3"/>
<feGaussianBlur stdDeviation="1.5"/>
<feComposite in2="hardAlpha" operator="out"/>
<feColorMatrix type="matrix" values="0 0 0 0 0 0 0 0 0 0 0 0 0 0 0 0 0 0 0.160784 0"/>
<feBlend mode="normal" in2="BackgroundImageFix" result="effect1_dropShadow_515_25"/>
<feBlend mode="normal" in="SourceGraphic" in2="effect1_dropShadow_515_25" result="shape"/>
</filter>
<filter id="filter1_d_515_25" x="573" y="299" width="58" height="59" filterUnits="userSpaceOnUse" color-interpolation-filters="sRGB">
<feFlood flood-opacity="0" result="BackgroundImageFix"/>
<feColorMatrix in="SourceAlpha" type="matrix" values="0 0 0 0 0 0 0 0 0 0 0 0 0 0 0 0 0 0 127 0" result="hardAlpha"/>
<feOffset dy="3"/>
<feGaussianBlur stdDeviation="1.5"/>
<feComposite in2="hardAlpha" operator="out"/>
<feColorMatrix type="matrix" values="0 0 0 0 0 0 0 0 0 0 0 0 0 0 0 0 0 0 0.160784 0"/>
<feBlend mode="normal" in2="BackgroundImageFix" result="effect1_dropShadow_515_25"/>
<feBlend mode="normal" in="SourceGraphic" in2="effect1_dropShadow_515_25" result="shape"/>
</filter>
<filter id="filter2_d_515_25" x="861" y="299" width="59" height="59" filterUnits="userSpaceOnUse" color-interpolation-filters="sRGB">
<feFlood flood-opacity="0" result="BackgroundImageFix"/>
<feColorMatrix in="SourceAlpha" type="matrix" values="0 0 0 0 0 0 0 0 0 0 0 0 0 0 0 0 0 0 127 0" result="hardAlpha"/>
<feOffset dy="3"/>
<feGaussianBlur stdDeviation="1.5"/>
<feComposite in2="hardAlpha" operator="out"/>
<feColorMatrix type="matrix" values="0 0 0 0 0 0 0 0 0 0 0 0 0 0 0 0 0 0 0.160784 0"/>
<feBlend mode="normal" in2="BackgroundImageFix" result="effect1_dropShadow_515_25"/>
<feBlend mode="normal" in="SourceGraphic" in2="effect1_dropShadow_515_25" result="shape"/>
</filter>
<filter id="filter3_d_515_25" x="1148" y="299" width="59" height="59" filterUnits="userSpaceOnUse" color-interpolation-filters="sRGB">
<feFlood flood-opacity="0" result="BackgroundImageFix"/>
<feColorMatrix in="SourceAlpha" type="matrix" values="0 0 0 0 0 0 0 0 0 0 0 0 0 0 0 0 0 0 127 0" result="hardAlpha"/>
<feOffset dy="3"/>
<feGaussianBlur stdDeviation="1.5"/>
<feComposite in2="hardAlpha" operator="out"/>
<feColorMatrix type="matrix" values="0 0 0 0 0 0 0 0 0 0 0 0 0 0 0 0 0 0 0.160784 0"/>
<feBlend mode="normal" in2="BackgroundImageFix" result="effect1_dropShadow_515_25"/>
<feBlend mode="normal" in="SourceGraphic" in2="effect1_dropShadow_515_25" result="shape"/>
</filter>
<filter id="filter4_d_515_25" x="0" y="299" width="58" height="59" filterUnits="userSpaceOnUse" color-interpolation-filters="sRGB">
<feFlood flood-opacity="0" result="BackgroundImageFix"/>
<feColorMatrix in="SourceAlpha" type="matrix" values="0 0 0 0 0 0 0 0 0 0 0 0 0 0 0 0 0 0 127 0" result="hardAlpha"/>
<feOffset dy="3"/>
<feGaussianBlur stdDeviation="1.5"/>
<feComposite in2="hardAlpha" operator="out"/>
<feColorMatrix type="matrix" values="0 0 0 0 0 0 0 0 0 0 0 0 0 0 0 0 0 0 0.160784 0"/>
<feBlend mode="normal" in2="BackgroundImageFix" result="effect1_dropShadow_515_25"/>
<feBlend mode="normal" in="SourceGraphic" in2="effect1_dropShadow_515_25" result="shape"/>
</filter>
</defs>
</svg>
