<svg width="626" height="624" viewBox="0 0 626 624" fill="none" xmlns="http://www.w3.org/2000/svg">
<path opacity="0.1" d="M313 2C484.767 2 624 140.798 624 312C624 483.202 484.767 622 313 622C141.233 622 2 483.202 2 312C2 140.798 141.233 2 313 2Z" stroke="#402F7B" stroke-width="4"/>
<circle opacity="0.1" cx="313.5" cy="312.5" r="227.5" stroke="#402F7B" stroke-width="4"/>
<path opacity="0.1" d="M469 311C469 397.715 398.927 468 312.5 468C226.073 468 156 397.715 156 311C156 224.285 226.073 154 312.5 154C398.927 154 469 224.285 469 311Z" stroke="#402F7B" stroke-width="4"/>
<g opacity="0.997328">
<circle cx="81.5" cy="302.5" r="25.5" fill="url(#paint0_linear_309_32)"/>
<path fill-rule="evenodd" clip-rule="evenodd" d="M81.5639 294.677C79.3104 294.677 78.9348 294.677 78.0898 294.771C77.1508 294.771 76.5874 294.959 76.0241 295.147C75.4607 295.335 74.9912 295.616 74.5217 296.086C74.0522 296.555 73.7706 297.025 73.5828 297.588C73.3011 298.151 73.2072 298.715 73.2072 299.654C73.1133 300.499 73.1133 300.874 73.1133 303.128C73.1133 305.381 73.1133 305.757 73.2072 306.602C73.2072 307.541 73.395 308.104 73.5828 308.668C73.7706 309.231 74.0522 309.701 74.5217 310.17C74.9912 310.64 75.4607 310.921 76.0241 311.109C76.5874 311.297 77.1508 311.485 78.0898 311.485C78.9348 311.578 79.3104 311.578 81.5639 311.578C83.8174 311.578 84.193 311.578 85.038 311.485C85.977 311.485 86.5404 311.297 87.1038 311.109C87.6671 310.921 88.1366 310.64 88.6061 310.17C89.0756 309.701 89.3573 309.231 89.545 308.668C89.7328 308.104 89.9206 307.541 89.9206 306.602C89.9206 305.663 90.0145 305.381 90.0145 303.128C90.0145 300.874 90.0145 300.499 89.9206 299.654C89.9206 298.715 89.7328 298.151 89.545 297.588C89.3573 297.025 89.0756 296.555 88.6061 296.086C88.1366 295.616 87.6671 295.335 87.1038 295.147C86.5404 294.959 85.977 294.771 85.038 294.771C84.193 294.677 83.8174 294.677 81.5639 294.677ZM81.5639 298.809C79.1226 298.809 77.2447 300.687 77.2447 303.128C77.2447 305.569 79.2165 307.447 81.5639 307.447C84.0052 307.447 85.8831 305.475 85.8831 303.128C85.8831 300.78 84.0052 298.809 81.5639 298.809ZM86.0709 297.588C85.5075 297.588 85.038 298.057 85.038 298.621C85.038 299.184 85.5075 299.654 86.0709 299.654C86.6343 299.654 87.1038 299.184 87.1038 298.621C87.1038 298.057 86.6343 297.588 86.0709 297.588Z" fill="white"/>
</g>
<g opacity="0.997328">
<ellipse cx="533" cy="241.5" rx="26" ry="25.5" fill="url(#paint1_linear_309_32)"/>
<path d="M524.095 250.436C524.265 249.814 524.428 249.221 524.59 248.627C524.788 247.904 524.988 247.181 525.178 246.457C525.198 246.381 525.187 246.278 525.15 246.209C523.523 243.214 523.908 239.644 526.171 237.091C527.549 235.535 529.291 234.642 531.365 234.457C534.868 234.145 538.037 236.056 539.422 239.282C540.744 242.361 539.89 246.096 537.364 248.297C535.805 249.656 533.994 250.331 531.927 250.299C530.684 250.28 529.511 249.969 528.408 249.396C528.343 249.362 528.246 249.357 528.174 249.376C526.873 249.712 525.573 250.054 524.273 250.394C524.225 250.407 524.177 250.417 524.095 250.436ZM526 248.556C526.781 248.35 527.529 248.157 528.273 247.954C528.429 247.911 528.552 247.928 528.693 248.011C530.26 248.938 531.935 249.196 533.701 248.761C537.049 247.937 539.184 244.625 538.6 241.225C538.023 237.864 534.831 235.264 531.081 235.838C529.574 236.069 528.289 236.756 527.26 237.882C525.897 239.375 525.334 241.143 525.549 243.151C525.659 244.173 526.015 245.114 526.578 245.974C526.645 246.077 526.659 246.167 526.623 246.283C526.547 246.527 526.485 246.775 526.418 247.022C526.281 247.523 526.145 248.025 526 248.556Z" fill="white"/>
<path d="M532.398 234.485C536.603 234.485 540.012 238.042 540.012 242.43C540.012 246.818 536.603 250.375 532.398 250.375C530.161 250.375 527.912 248.414 525.516 248.847C525.661 247.981 524.784 244.484 524.784 242.43C524.784 238.042 528.193 234.485 532.398 234.485Z" fill="white"/>
<path d="M529.56 238.695C529.88 238.611 530.04 238.828 530.159 239.137C530.336 239.598 530.531 240.053 530.727 240.506C530.795 240.665 530.794 240.806 530.69 240.944C530.53 241.158 530.376 241.376 530.207 241.582C530.099 241.714 530.095 241.833 530.18 241.977C530.827 243.066 531.73 243.854 532.909 244.325C533.07 244.389 533.199 244.365 533.309 244.229C533.507 243.982 533.714 243.741 533.903 243.487C534.014 243.34 534.142 243.281 534.305 243.358C534.873 243.623 535.439 243.893 536.001 244.172C536.06 244.201 536.115 244.302 536.117 244.371C536.134 244.96 535.963 245.455 535.435 245.798C534.788 246.216 534.111 246.259 533.391 246.058C531.582 245.554 530.209 244.45 529.107 242.967C528.711 242.435 528.331 241.893 528.161 241.238C527.955 240.446 528.075 239.718 528.625 239.085C528.927 238.738 529.038 238.687 529.56 238.695Z" fill="#32D431"/>
</g>
<g opacity="0.997328">
<ellipse cx="67" cy="116.5" rx="26" ry="25.5" fill="url(#paint2_linear_309_32)"/>
<circle opacity="0.01" cx="67.7747" cy="117.354" r="10.2737" fill="white"/>
<circle cx="67.1052" cy="116.71" r="8.34737" fill="white"/>
<path d="M71.3163 113.796C71.2651 114.038 71.2111 114.279 71.1629 114.521C70.8421 116.134 70.5225 117.747 70.2026 119.36C70.058 120.089 69.9122 120.818 69.77 121.548C69.6919 121.949 69.2098 122.141 68.8855 121.893C67.7081 120.993 66.5319 120.092 65.3553 119.191C65.3402 119.179 65.3265 119.166 65.3042 119.146C65.3801 119.078 65.4525 119.012 65.5255 118.946C66.9144 117.696 68.3037 116.446 69.6915 115.194C69.7504 115.141 69.8054 115.079 69.8454 115.011C69.8958 114.925 69.8497 114.858 69.7502 114.878C69.6615 114.896 69.5718 114.934 69.4948 114.982C68.8243 115.404 68.1567 115.83 67.488 116.255C66.3384 116.985 65.1883 117.715 64.04 118.447C63.9728 118.49 63.9177 118.495 63.8442 118.47C63.1775 118.243 62.5095 118.019 61.8419 117.794C61.6515 117.73 61.4966 117.625 61.417 117.431V117.296C61.4998 117.139 61.6391 117.052 61.7979 116.99C64.6361 115.877 67.4741 114.762 70.313 113.651C70.4981 113.578 70.6858 113.507 70.8782 113.459C71.1088 113.402 71.2286 113.467 71.3163 113.661V113.796Z" fill="#24B4E9"/>
</g>
<g opacity="0.997328">
<circle cx="459.5" cy="37.5" r="25.5" fill="url(#paint3_linear_309_32)"/>
<path d="M460.445 43.698C454.67 43.698 451.376 39.7392 451.239 33.1519H454.132C454.227 37.9868 456.359 40.0348 458.048 40.4571V33.1519H460.772V37.3217C462.44 37.1423 464.192 35.2421 464.783 33.1519H467.507C467.053 35.7277 465.153 37.6279 463.802 38.4091C465.153 39.0425 467.317 40.6999 468.14 43.698H465.142C464.498 41.6922 462.894 40.1404 460.772 39.9292V43.698H460.445Z" fill="white"/>
</g>
<defs>
<linearGradient id="paint0_linear_309_32" x1="68.75" y1="289.75" x2="68.75" y2="289.75" gradientUnits="userSpaceOnUse">
<stop stop-color="#C8319C"/>
<stop offset="1" stop-color="#A0267C"/>
</linearGradient>
<linearGradient id="paint1_linear_309_32" x1="520" y1="228.75" x2="520" y2="228.75" gradientUnits="userSpaceOnUse">
<stop stop-color="#32D431"/>
<stop offset="1" stop-color="#28A028"/>
</linearGradient>
<linearGradient id="paint2_linear_309_32" x1="54" y1="103.75" x2="54" y2="103.75" gradientUnits="userSpaceOnUse">
<stop stop-color="#24B4E9"/>
<stop offset="1" stop-color="#1A7B9F"/>
</linearGradient>
<linearGradient id="paint3_linear_309_32" x1="446.75" y1="24.75" x2="446.75" y2="24.75" gradientUnits="userSpaceOnUse">
<stop stop-color="#6535E5"/>
<stop offset="1" stop-color="#4F2BB1"/>
</linearGradient>
</defs>
</svg>
