<svg width="14" height="15" viewBox="0 0 14 15" fill="none" xmlns="http://www.w3.org/2000/svg">
<ellipse cx="7" cy="7.51953" rx="6.5" ry="7" fill="white"/>
<path d="M10.2788 4.7507C10.2389 4.93893 10.1969 5.12667 10.1594 5.31515C9.90958 6.57113 9.66064 7.82736 9.41154 9.08358C9.29897 9.65133 9.18547 10.219 9.07473 10.7871C9.01386 11.0995 8.63851 11.2485 8.38596 11.0555C7.4691 10.3551 6.55322 9.65316 5.63705 8.95163C5.62531 8.94271 5.61462 8.93234 5.59728 8.91708C5.65632 8.86374 5.71275 8.81222 5.76956 8.7612C6.8511 7.78744 7.93295 6.81405 9.01362 5.8392C9.05945 5.79782 9.1023 5.74936 9.13344 5.69638C9.17268 5.62985 9.13675 5.5776 9.05932 5.59347C8.99018 5.60763 8.92039 5.63681 8.86042 5.67453C8.33832 6.0029 7.81842 6.3348 7.29778 6.66537C6.40255 7.23422 5.50697 7.80233 4.61282 8.37265C4.56052 8.40597 4.51761 8.40963 4.46037 8.3901C3.94118 8.21322 3.42107 8.03915 2.90118 7.86422C2.75292 7.81442 2.63232 7.73227 2.57031 7.58151V7.47616C2.63482 7.35397 2.74326 7.28622 2.86691 7.23788C5.07701 6.37082 7.28694 5.50326 9.49751 4.63742C9.64167 4.58065 9.78783 4.52572 9.93766 4.48825C10.1172 4.44357 10.2105 4.49459 10.2788 4.64547V4.7507Z" fill="#24B4E9"/>
</svg>
