<svg width="59" height="59" viewBox="-1 -2 59 59" fill="none" xmlns="http://www.w3.org/2000/svg">

<path d="M25.2187 36.9822V34.2046C24.9287 34.1683 24.6537 34.1312 24.3778 34.0997C22.2552 33.8578 20.6111 32.0689 20.4966 29.9345C20.4055 28.2367 20.3301 26.5399 20.3987 24.8407C20.4348 23.9414 20.4498 23.0339 20.5857 22.1471C20.8608 20.3515 22.3829 18.8573 24.1817 18.6065C25.2831 18.4529 26.3974 18.3799 27.5084 18.311C28.9198 18.2234 30.3343 18.2444 31.7438 18.3504C32.7012 18.4224 33.6703 18.4802 34.6052 18.6798C36.5079 19.0855 37.8651 20.7932 37.9829 22.7295C38.0886 24.4696 38.1532 26.2091 38.0795 27.9508C38.0423 28.8257 38.0234 29.7083 37.8893 30.5708C37.6041 32.4035 35.9742 33.8895 34.1367 34.0997C32.7383 34.26 31.3376 34.3715 29.9298 34.3923C29.8658 34.3932 29.7939 34.4048 29.7391 34.4354C28.259 35.266 26.7807 36.0995 25.3024 36.9334C25.2836 36.9441 25.2707 36.9657 25.2553 36.9822H25.2187Z" fill="white"/>
<path d="M23.6011 24.6082C23.5554 24.0235 23.6721 23.4149 24.0837 22.8982C24.2798 22.652 24.5024 22.4207 24.742 22.2165C25.258 21.7775 26.0642 21.81 26.5645 22.2832C26.9362 22.6344 27.2983 22.9968 27.6496 23.3683C28.1629 23.9113 28.1613 24.7 27.6613 25.2548C27.6205 25.2999 27.5766 25.3422 27.5349 25.3866C27.126 25.8206 27.1191 26.4337 27.5275 26.8684C27.7569 27.1126 27.9981 27.3451 28.2364 27.5807C28.7074 28.0465 29.3609 28.0525 29.8329 27.5886C30.2552 27.1735 30.7512 27.0432 31.307 27.2306C31.5069 27.2982 31.6988 27.4298 31.8563 27.5739C32.1974 27.8861 32.5165 28.2227 32.8399 28.5539C33.4237 29.1521 33.4175 29.9541 32.8479 30.5631C32.3698 31.0742 31.8409 31.5043 31.1168 31.5528C30.6212 31.586 30.1134 31.5874 29.6229 31.5188C27.2152 31.1837 25.442 29.9219 24.3176 27.7693C23.8131 26.8035 23.5897 25.761 23.6011 24.6082Z" fill="#613DC1"/>
<path d="M29.251 21.4886V20.6851C30.7133 20.707 32.022 21.1014 33.0637 22.1606C34.084 23.1981 34.4701 24.4849 34.4852 25.9318H33.8828H33.6837C33.6625 24.7001 33.3323 23.5963 32.452 22.7167C31.5748 21.8401 30.4756 21.5146 29.251 21.4886Z" fill="#613DC1"/>
<path d="M29.251 22.3151C31.6127 22.2542 32.9271 23.9365 32.8522 25.9302C32.6189 25.9302 32.3833 25.9357 32.1488 25.9235C32.1171 25.9219 32.0742 25.8346 32.0637 25.7816C31.9907 25.4137 31.972 25.0274 31.8478 24.6785C31.5327 23.7941 30.8506 23.3297 29.9474 23.1688C29.7208 23.1284 29.4893 23.116 29.251 23.0896V22.3151Z" fill="#613DC1"/>
<path d="M31.238 25.9188H30.4579C30.4364 25.5794 30.4311 25.2436 30.1776 24.9901C29.924 24.7363 29.5843 24.7419 29.2515 24.7137V23.943C30.5269 23.8379 31.3132 24.6768 31.238 25.9188Z" fill="#613DC1"/>

</svg>
