<svg width="13" height="13" viewBox="0 0 13 13" fill="none" xmlns="http://www.w3.org/2000/svg">
<path d="M0.147461 12.8145C0.280334 12.3296 0.407043 11.8677 0.533417 11.4056C0.687378 10.8427 0.842957 10.2798 0.991333 9.71539C1.00687 9.65643 0.998352 9.57605 0.96933 9.52277C-0.297821 7.19067 0.00201416 4.41095 1.76416 2.4223C2.83728 1.211 4.19406 0.515624 5.80881 0.371581C8.53625 0.128356 11.0044 1.61645 12.0829 4.12872C13.112 6.52624 12.4471 9.43469 10.4803 11.1489C9.26648 12.2065 7.8558 12.7328 6.24603 12.7079C5.27859 12.6929 4.36539 12.4509 3.50592 12.004C3.45554 11.9777 3.3801 11.9742 3.32364 11.9887C2.31058 12.2504 1.29855 12.5165 0.28653 12.7814C0.249268 12.7913 0.211731 12.7993 0.147461 12.8145ZM1.63126 11.35C2.23959 11.1897 2.82144 11.0398 3.40088 10.8812C3.5228 10.8478 3.61832 10.8615 3.72781 10.9261C4.94806 11.6475 6.2529 11.8486 7.6279 11.5101C10.235 10.8682 11.8976 8.289 11.4428 5.64172C10.9932 3.02411 8.50772 0.999938 5.58765 1.4469C4.41397 1.62659 3.41376 2.16186 2.61246 3.03876C1.55078 4.20099 1.11221 5.57782 1.27985 7.14105C1.36533 7.93689 1.64282 8.66998 2.08121 9.3399C2.13361 9.42004 2.14429 9.48993 2.11612 9.58057C2.05716 9.77038 2.00891 9.96344 1.95667 10.1555C1.85013 10.546 1.74377 10.9368 1.63126 11.35Z" fill="white"/>
<path d="M6.61325 0.393555C9.88757 0.393555 12.5419 3.16332 12.5419 6.58C12.5419 9.99669 9.88757 12.7665 6.61325 12.7665C4.87131 12.7665 3.12028 11.2396 1.25473 11.5767C1.36725 10.9024 0.68457 8.17901 0.68457 6.58C0.68457 3.16332 3.33893 0.393555 6.61325 0.393555Z" fill="white"/>
<path d="M4.40334 3.67125C4.65261 3.60624 4.77697 3.77513 4.86956 4.01561C5.0079 4.37449 5.15926 4.72862 5.31173 5.08171C5.3651 5.20555 5.3641 5.31535 5.28332 5.42308C5.15874 5.58915 5.03854 5.75889 4.90734 5.91966C4.8232 6.02263 4.82 6.11497 4.88631 6.22685C5.38998 7.07475 6.09298 7.68901 7.01107 8.0551C7.13674 8.10508 7.2373 8.0869 7.32241 7.98063C7.47668 7.78801 7.63778 7.60063 7.78533 7.40312C7.87121 7.28849 7.97085 7.24284 8.09838 7.30241C8.54061 7.50914 8.98156 7.7191 9.41882 7.93632C9.46468 7.95927 9.50796 8.03752 9.50945 8.09123C9.5223 8.55021 9.38955 8.93565 8.97771 9.20213C8.47448 9.52769 7.94698 9.5612 7.38607 9.40501C5.9775 9.0128 4.90856 8.15245 4.05025 6.99809C3.74184 6.58342 3.44607 6.16136 3.31383 5.65202C3.15337 5.03459 3.24725 4.46818 3.67495 3.97532C3.91003 3.70469 3.99648 3.66563 4.40334 3.67125Z" fill="#32D431"/>
</svg>
