<svg width="43" height="42" viewBox="0 0 43 42" fill="none" xmlns="http://www.w3.org/2000/svg">
<path d="M42.2168 24.5753V38.5173C41.9968 39.2172 41.7308 39.912 41.0967 40.3291C40.6465 40.6252 40.1171 40.8007 39.6229 41.0301H20.5742C20.5518 41.0154 20.5312 40.9943 20.5066 40.9871C18.7646 40.4861 18.0009 39.4702 18.0007 37.6496C18.0004 33.5434 17.998 29.4374 18.0053 25.3312C18.0058 24.9831 18.0288 24.6243 18.1139 24.2889C18.4731 22.872 19.6548 22.0049 21.2105 22.0032C25.0059 21.9988 28.8014 22.0017 32.5969 22.0017C34.7445 22.0017 36.8921 21.9969 39.0397 22.0034C40.4489 22.0077 41.5427 22.734 42.0167 23.9649C42.0936 24.1644 42.1507 24.3716 42.2168 24.5753Z" fill="white"/>
<path d="M2.51304 0H21.6428C21.6663 0.0132936 21.6883 0.0316938 21.7135 0.0392322C23.4676 0.561734 24.2161 1.56029 24.2163 3.38143C24.2166 7.51451 24.2188 11.6477 24.2153 15.7807C24.2137 17.7478 22.9354 19.0225 20.9659 19.0275C19.3587 19.0316 17.7514 19.0284 16.144 19.0284C11.8353 19.0284 7.52665 19.0287 3.21792 19.0283C1.89878 19.0281 0.900459 18.4794 0.298363 17.2862C0.166801 17.0253 0.0979843 16.7328 0.000236511 16.4548V2.59386C0.228249 1.63754 0.69384 0.845195 1.58938 0.373111C1.88158 0.219101 2.20429 0.122722 2.51304 0Z" fill="white"/>
<path d="M41.5088 16.4548C41.2642 16.9582 41.0896 17.5144 40.7592 17.9534C40.1901 18.7094 39.3522 19.023 38.4134 19.0255C35.8609 19.0325 33.3082 19.0443 30.7558 19.022C28.977 19.0065 27.6832 17.7214 27.675 15.9419C27.6554 11.6607 27.6601 7.37946 27.6731 3.09821C27.6777 1.57472 28.5893 0.450684 30.0553 0.0736009C30.1195 0.057065 30.1797 0.0248849 30.2417 0H38.996C39.1322 0.0497698 39.2673 0.102782 39.4048 0.148742C40.2276 0.423611 40.8358 0.945545 41.2056 1.73132C41.3243 1.98358 41.4087 2.25188 41.5088 2.51281V16.4548Z" fill="white"/>
<path d="M0.0123873 25.0503C0.11749 24.7607 0.194516 24.457 0.332639 24.1843C0.889249 23.0851 1.80783 22.4999 3.02768 22.4872C5.63418 22.4601 8.24148 22.4516 10.8478 22.4889C12.5959 22.514 13.8411 23.8324 13.849 25.6047C13.8629 28.7112 13.853 31.8178 13.8531 34.9244C13.8531 36.032 13.8552 37.1396 13.8526 38.2471C13.8487 39.935 13.0147 41.014 11.385 41.4477C11.3474 41.4577 11.3146 41.4856 11.2795 41.5051H2.60623C2.13464 41.2932 1.62771 41.1357 1.19961 40.8571C0.512174 40.4098 0.204556 39.6849 0.0123873 38.9112V25.0503Z" fill="white"/>
</svg>
