<svg width="42" height="47" viewBox="0 0 42 47" fill="none" xmlns="http://www.w3.org/2000/svg">
<path d="M0.00236915 15.9785H34.6968V16.6137C34.6968 23.2688 34.6977 29.9238 34.6963 36.579C34.6958 38.6874 33.5066 39.896 31.3974 39.8973C22.029 39.903 12.6606 39.9032 3.29218 39.8973C1.21152 39.896 0.00370461 38.6832 0.00314817 36.6257C0.00103369 29.9336 0.00236915 23.2416 0.00236915 16.5495V15.9785ZM17.0469 29.7823C15.7393 28.4733 14.5284 27.255 13.3097 26.0443C12.8198 25.5578 12.2863 25.5207 11.9006 25.9221C11.5324 26.3053 11.5785 26.8233 12.0416 27.2871C13.4397 28.6873 14.8407 30.0847 16.2459 31.4779C16.7957 32.0229 17.2298 32.0261 17.7782 31.4813C20.1003 29.1744 22.4183 26.8632 24.7344 24.5503C25.2262 24.0592 25.2725 23.5329 24.8777 23.1446C24.4775 22.7509 23.9734 22.8006 23.4682 23.3024C21.7494 25.0097 20.0326 26.719 18.3209 28.4333C17.9044 28.8506 17.5104 29.2902 17.0469 29.7823Z" fill="white"/>
<path d="M36.4776 13.3584C37.5348 13.3584 38.5465 13.2467 39.5224 13.3855C40.8584 13.5756 41.782 14.8342 41.8147 16.2739C41.8349 17.1609 41.8198 18.0486 41.8198 18.9359C41.82 27.2181 41.8213 35.5001 41.8186 43.7822C41.8182 45.3512 41.0081 46.5074 39.6276 46.8752C39.2577 46.9737 38.858 46.9943 38.4719 46.9946C29.1404 47.0008 19.8088 47.0015 10.4774 46.9979C8.30044 46.997 7.12768 45.8056 7.12613 43.6199C7.12579 42.9959 7.12613 42.3719 7.12613 41.6752H7.88801C15.6984 41.6751 23.5087 41.6665 31.319 41.6808C33.446 41.6847 35.0922 40.872 35.9913 38.9228C36.319 38.2122 36.454 37.3547 36.4576 36.5631C36.4912 29.0391 36.4776 21.515 36.4776 13.9908V13.3584Z" fill="white"/>
<path d="M0.00207041 14.1273C0.00207041 12.8924 -0.00393918 11.6952 0.00451876 10.4981C0.00885903 9.88939 -0.0206325 9.27182 0.0698453 8.67398C0.285078 7.25078 1.41744 6.2762 2.8544 6.18284C3.1945 6.16077 3.36255 6.22175 3.46883 6.61248C3.87392 8.1022 4.70825 9.24632 6.27542 9.70135C6.50356 9.76754 6.74828 9.79714 6.98655 9.80413C7.5647 9.82109 7.95454 9.49678 7.99071 8.99663C8.02465 8.52785 7.6968 8.11084 7.16105 8.05984C6.04182 7.95329 5.55694 7.21608 5.19792 6.22331C5.41148 6.20568 5.56951 6.18151 5.72765 6.18128C8.17634 6.17885 10.6252 6.18938 13.0738 6.17009C13.4873 6.16687 13.6251 6.30125 13.7374 6.69519C14.1558 8.16373 15.0032 9.27403 16.5493 9.71066C16.7777 9.77508 17.0233 9.80025 17.2618 9.80491C17.8072 9.81544 18.1844 9.49933 18.2324 9.02102C18.2794 8.55157 17.9574 8.11184 17.4293 8.06472C16.3062 7.9646 15.8076 7.23227 15.4388 6.21111C15.6745 6.19914 15.8665 6.18095 16.0584 6.18085C18.4515 6.17896 20.8447 6.1906 23.2376 6.16953C23.6756 6.16576 23.8693 6.26999 23.9957 6.7218C24.4018 8.17426 25.2496 9.26362 26.7692 9.70279C26.9974 9.76876 27.2423 9.79737 27.4806 9.80402C28.0582 9.82043 28.4459 9.49357 28.4772 8.99175C28.5069 8.51465 28.1876 8.11051 27.6453 8.05906C26.5245 7.95251 26.0464 7.21054 25.6896 6.22586C25.8859 6.20679 26.0265 6.18162 26.1671 6.1814C27.9665 6.17885 29.766 6.16998 31.5654 6.1825C33.427 6.19547 34.6773 7.43406 34.6938 9.27803C34.7067 10.7383 34.6973 12.1988 34.6952 13.6592C34.695 13.8033 34.6758 13.9474 34.6631 14.1273H0.00207041Z" fill="white"/>
<path d="M10.78 4.40334C10.2605 4.40334 9.78085 4.42551 9.30565 4.38937C9.16865 4.37894 8.98313 4.22738 8.92471 4.09477C8.56514 3.27729 8.10262 2.55449 7.09857 2.5607C6.09831 2.5668 5.63479 3.28926 5.28111 4.10863C5.22825 4.23126 5.06722 4.38105 4.94781 4.3887C4.45435 4.42019 3.95767 4.4019 3.46566 4.4019C3.39944 2.6983 5.17806 0.864535 6.91906 0.778606C8.81464 0.685139 10.656 2.37332 10.78 4.40334Z" fill="white"/>
<path d="M23.9238 4.40472C24.0115 2.46085 25.8199 0.739184 27.6582 0.772447C29.4543 0.804933 31.2536 2.59202 31.2443 4.40006C30.7326 4.40006 30.219 4.41126 29.7067 4.38986C29.6133 4.38598 29.4996 4.26513 29.4412 4.17011C29.3456 4.01477 29.3032 3.82739 29.2109 3.66928C28.8517 3.05415 28.3915 2.55975 27.6127 2.55111C26.8331 2.54246 26.272 2.98906 26.0199 3.64633C25.7539 4.34041 25.3389 4.50484 24.6838 4.41015C24.451 4.37644 24.2093 4.40472 23.9238 4.40472Z" fill="white"/>
<path d="M21.0058 4.40057C20.4934 4.40057 19.9794 4.41543 19.4677 4.38816C19.3642 4.38272 19.2462 4.23293 19.1761 4.12339C19.0777 3.97005 19.0305 3.78511 18.9398 3.62578C18.1277 2.19859 16.5426 2.14249 15.8117 3.60139C15.4508 4.32185 15.03 4.49948 14.3324 4.40922C14.1199 4.38173 13.9006 4.4049 13.6826 4.4049C13.746 2.47822 15.5666 0.740474 17.4097 0.772406C19.2088 0.803673 20.9936 2.57102 21.0058 4.40057Z" fill="white"/>
<path d="M11.3281 25.4644L16.8359 30.9717L25.748 22.0596" stroke="#7252DC" stroke-width="3" stroke-linecap="round"/>
</svg>
