<svg width="33" height="42" viewBox="0 0 33 42" fill="none" xmlns="http://www.w3.org/2000/svg">
<path d="M19.7877 0.498047H19.8682C20.0733 1.20057 20.2346 1.91943 20.4911 2.60282C21.836 6.1856 23.892 9.35893 26.2602 12.3394C27.4309 13.813 28.7367 15.1828 29.8663 16.6854C32.5637 20.2733 33.7045 24.2708 32.5548 28.698C30.7968 35.4678 26.4471 39.642 19.5889 41.1917C18.9415 41.3381 18.2746 41.398 17.6166 41.498H15.3652C15.2629 41.4747 15.1617 41.438 15.0583 41.4301C13.6347 41.3214 12.2527 41.0169 10.9107 40.5388C0.987491 37.004 -3.10164 25.1144 2.59308 16.277C3.64067 14.6514 4.83826 13.1216 5.96825 11.5487C5.98932 11.5194 6.03128 11.505 6.07156 11.4784C6.16176 11.5641 6.24995 11.6447 6.33468 11.7289C7.04607 12.4359 7.74403 13.157 8.47077 13.848C9.48347 14.811 11.1146 14.4143 11.5308 13.1063C11.6179 12.8327 11.6104 12.5291 11.6455 12.2392C11.7783 11.1432 11.792 10.0168 12.0646 8.95646C13.0182 5.2474 15.3957 2.68042 18.7842 0.982199C19.1162 0.815797 19.4531 0.659244 19.7877 0.498047ZM11.3882 31.9421C12.2037 31.9421 12.948 31.9306 13.6916 31.9483C13.9525 31.9546 14.1018 31.8624 14.2455 31.652C16.623 28.1714 19.0083 24.6961 21.3912 21.2191C21.4483 21.1359 21.4976 21.0473 21.586 20.9034C20.7908 20.9034 20.0595 20.9169 19.3292 20.8967C19.0433 20.8887 18.8742 20.9762 18.7106 21.2161C16.3583 24.6654 13.9943 28.1067 11.6339 31.5506C11.562 31.6554 11.4983 31.7659 11.3882 31.9421ZM9.49818 23.8123C9.49818 23.9323 9.49167 24.0526 9.49914 24.1721C9.59224 25.656 10.5894 26.7114 12.0353 26.8589C13.6342 27.0221 14.8688 26.2585 15.2315 24.8236C15.3469 24.3671 15.3861 23.8685 15.3431 23.3998C15.2349 22.2221 14.679 21.3119 13.5038 20.9213C11.6319 20.2992 9.47889 21.2545 9.49818 23.8123ZM23.4922 29.0158C23.4918 27.8008 23.0159 26.8299 22.113 26.3441C21.0738 25.7852 20.0043 25.7821 18.9696 26.3598C17.9294 26.9406 17.4181 28.2691 17.6543 29.6414C17.8231 30.6217 18.2855 31.3928 19.2226 31.8144C21.3803 32.7848 23.4929 31.3969 23.4922 29.0158Z" fill="white"/>
<path d="M13.114 23.8408C13.114 24.5263 12.7902 25.0821 12.3905 25.0821C11.9909 25.0821 11.667 24.5263 11.667 23.8408C11.667 23.1554 11.9909 22.5996 12.3905 22.5996C12.7902 22.5996 13.114 23.1554 13.114 23.8408Z" fill="white"/>
<path d="M21.3142 29.0459C21.3142 29.7314 20.9903 30.2871 20.5907 30.2871C20.1911 30.2871 19.8672 29.7314 19.8672 29.0459C19.8672 28.3604 20.1911 27.8047 20.5907 27.8047C20.9903 27.8047 21.3142 28.3604 21.3142 29.0459Z" fill="white"/>
</svg>
